G04 PROTEUS GERBER X2 FILE*
%TF.GenerationSoftware,Labcenter,Proteus,8.9-SP0-Build27865*%
%TF.CreationDate,2020-09-22T21:26:54+00:00*%
%TF.FileFunction,Legend,Bot*%
%TF.FilePolarity,Positive*%
%TF.Part,Single*%
%TF.SameCoordinates,{f185f003-b8c0-4bff-ac61-c446508f75ad}*%
%FSLAX45Y45*%
%MOMM*%
G01*
%TA.AperFunction,Profile*%
%ADD37C,0.203200*%
%TA.AperFunction,Material*%
%ADD44C,0.508000*%
%ADD43C,0.203200*%
%TD.AperFunction*%
D37*
X-9980000Y-2290000D02*
X+3960000Y-2290000D01*
X+3960000Y+9460000D01*
X-9980000Y+9460000D01*
X-9980000Y-2290000D01*
D44*
X-7461400Y+3960000D02*
X-7461531Y+3963158D01*
X-7462597Y+3969476D01*
X-7464828Y+3975794D01*
X-7468473Y+3982112D01*
X-7474048Y+3988351D01*
X-7480366Y+3992947D01*
X-7486684Y+3995880D01*
X-7493002Y+3997542D01*
X-7499320Y+3998100D01*
X-7499500Y+3998100D01*
X-7537600Y+3960000D02*
X-7537469Y+3963158D01*
X-7536403Y+3969476D01*
X-7534172Y+3975794D01*
X-7530527Y+3982112D01*
X-7524952Y+3988351D01*
X-7518634Y+3992947D01*
X-7512316Y+3995880D01*
X-7505998Y+3997542D01*
X-7499680Y+3998100D01*
X-7499500Y+3998100D01*
X-7537600Y+3960000D02*
X-7537469Y+3956842D01*
X-7536403Y+3950524D01*
X-7534172Y+3944206D01*
X-7530527Y+3937888D01*
X-7524952Y+3931649D01*
X-7518634Y+3927053D01*
X-7512316Y+3924120D01*
X-7505998Y+3922458D01*
X-7499680Y+3921900D01*
X-7499500Y+3921900D01*
X-7461400Y+3960000D02*
X-7461531Y+3956842D01*
X-7462597Y+3950524D01*
X-7464828Y+3944206D01*
X-7468473Y+3937888D01*
X-7474048Y+3931649D01*
X-7480366Y+3927053D01*
X-7486684Y+3924120D01*
X-7493002Y+3922458D01*
X-7499320Y+3921900D01*
X-7499500Y+3921900D01*
D43*
X-9980000Y-2290000D02*
X+3960000Y-2290000D01*
X+3960000Y+9460000D01*
X-9980000Y+9460000D01*
X-9980000Y-2290000D01*
M02*
