G04 PROTEUS GERBER X2 FILE*
%TF.GenerationSoftware,Labcenter,Proteus,8.9-SP0-Build27865*%
%TF.CreationDate,2020-09-22T21:26:54+00:00*%
%TF.FileFunction,Copper,L3,Inr*%
%TF.FilePolarity,Positive*%
%TF.Part,Single*%
%TF.SameCoordinates,{f185f003-b8c0-4bff-ac61-c446508f75ad}*%
%FSLAX45Y45*%
%MOMM*%
G01*
%TA.AperFunction,ViaPad*%
%ADD13C,0.762000*%
%TA.AperFunction,Conductor*%
%ADD11C,0.254000*%
%TA.AperFunction,ComponentPad*%
%ADD70C,2.032000*%
%TA.AperFunction,ComponentPad*%
%ADD22C,3.048000*%
%TA.AperFunction,WasherPad*%
%ADD39C,1.120000*%
%TA.AperFunction,ComponentPad*%
%ADD27C,1.120000*%
%ADD29R,2.032000X2.032000*%
%TA.AperFunction,ComponentPad*%
%ADD31C,1.500000*%
%TA.AperFunction,ComponentPad*%
%ADD34C,3.570000*%
%TA.AperFunction,OtherPad,Unknown*%
%ADD36C,4.500000*%
%TA.AperFunction,Profile*%
%ADD37C,0.203200*%
%TD.AperFunction*%
G36*
X+1103587Y+2814814D02*
X+1092651Y+2825750D01*
X+1066349Y+2825750D01*
X+1047750Y+2807151D01*
X+1047750Y+2780849D01*
X+1066349Y+2762250D01*
X+1092651Y+2762250D01*
X+1105269Y+2774868D01*
X+1260000Y-900000D01*
X-9680000Y-1010010D01*
X-9678148Y+7579990D01*
X-4611235Y+7613525D01*
X-4574771Y+7577061D01*
X-4365229Y+7577061D01*
X-4326883Y+7615407D01*
X-2448939Y+7627836D01*
X-2448939Y+7597361D01*
X-2388639Y+7537061D01*
X-2303361Y+7537061D01*
X-2243061Y+7597361D01*
X-2243061Y+7629198D01*
X-2194939Y+7629517D01*
X-2194939Y+7597361D01*
X-2134639Y+7537061D01*
X-2049361Y+7537061D01*
X-1989061Y+7597361D01*
X-1989061Y+7630879D01*
X-1178939Y+7636241D01*
X-1178939Y+7597361D01*
X-1118639Y+7537061D01*
X-1033361Y+7537061D01*
X-973061Y+7597361D01*
X-973061Y+7637603D01*
X-416939Y+7641284D01*
X-416939Y+7597361D01*
X-356639Y+7537061D01*
X-271361Y+7537061D01*
X-211061Y+7597361D01*
X-211061Y+7642647D01*
X+141061Y+7644977D01*
X+141061Y+7607361D01*
X+201361Y+7547061D01*
X+286639Y+7547061D01*
X+346939Y+7607361D01*
X+346939Y+7646340D01*
X+395061Y+7646658D01*
X+395061Y+7607361D01*
X+455361Y+7547061D01*
X+540639Y+7547061D01*
X+600939Y+7607361D01*
X+600939Y+7648021D01*
X+900000Y+7650000D01*
X+1103587Y+2814814D01*
G37*
%LPC*%
G36*
X-7661594Y+3891421D02*
X-7718406Y+3891421D01*
X-7758579Y+3931594D01*
X-7758579Y+3988406D01*
X-7718406Y+4028579D01*
X-7661594Y+4028579D01*
X-7621421Y+3988406D01*
X-7621421Y+3931594D01*
X-7661594Y+3891421D01*
G37*
G36*
X-7867906Y+3906660D02*
X-7912094Y+3906660D01*
X-7943340Y+3937906D01*
X-7943340Y+3982094D01*
X-7912094Y+4013340D01*
X-7867906Y+4013340D01*
X-7836660Y+3982094D01*
X-7836660Y+3937906D01*
X-7867906Y+3906660D01*
G37*
G36*
X-7661594Y+4091421D02*
X-7718406Y+4091421D01*
X-7758579Y+4131594D01*
X-7758579Y+4188406D01*
X-7718406Y+4228579D01*
X-7661594Y+4228579D01*
X-7621421Y+4188406D01*
X-7621421Y+4131594D01*
X-7661594Y+4091421D01*
G37*
G36*
X-7861594Y+4091421D02*
X-7918406Y+4091421D01*
X-7958579Y+4131594D01*
X-7958579Y+4188406D01*
X-7918406Y+4228579D01*
X-7861594Y+4228579D01*
X-7821421Y+4188406D01*
X-7821421Y+4131594D01*
X-7861594Y+4091421D01*
G37*
G36*
X-7661594Y+4291421D02*
X-7718406Y+4291421D01*
X-7758579Y+4331594D01*
X-7758579Y+4388406D01*
X-7718406Y+4428579D01*
X-7661594Y+4428579D01*
X-7621421Y+4388406D01*
X-7621421Y+4331594D01*
X-7661594Y+4291421D01*
G37*
G36*
X-7861594Y+4291421D02*
X-7918406Y+4291421D01*
X-7958579Y+4331594D01*
X-7958579Y+4388406D01*
X-7918406Y+4428579D01*
X-7861594Y+4428579D01*
X-7821421Y+4388406D01*
X-7821421Y+4331594D01*
X-7861594Y+4291421D01*
G37*
G36*
X-8650461Y+7241657D02*
X-8650461Y+7134343D01*
X-8723804Y+7061000D01*
X-8650461Y+6987657D01*
X-8650461Y+6880343D01*
X-8723804Y+6807000D01*
X-8650461Y+6733657D01*
X-8650461Y+6626343D01*
X-8726343Y+6550461D01*
X-8833657Y+6550461D01*
X-8909539Y+6626343D01*
X-8909539Y+6733657D01*
X-8836196Y+6807000D01*
X-8909539Y+6880343D01*
X-8909539Y+6987657D01*
X-8836196Y+7061000D01*
X-8909539Y+7134343D01*
X-8909539Y+7241657D01*
X-8833657Y+7317539D01*
X-8726343Y+7317539D01*
X-8650461Y+7241657D01*
G37*
G36*
X-8806303Y+6489500D02*
X-8753697Y+6489500D01*
X-8716500Y+6452303D01*
X-8716500Y+6399697D01*
X-8753697Y+6362500D01*
X-8806303Y+6362500D01*
X-8843500Y+6399697D01*
X-8843500Y+6452303D01*
X-8806303Y+6489500D01*
G37*
G36*
X-5389539Y+1746343D02*
X-5389539Y+1853657D01*
X-5313657Y+1929539D01*
X-5206343Y+1929539D01*
X-5130461Y+1853657D01*
X-5130461Y+1746343D01*
X-5206343Y+1670461D01*
X-5313657Y+1670461D01*
X-5389539Y+1746343D01*
G37*
G36*
X-4881539Y+1746343D02*
X-4881539Y+1853657D01*
X-4805657Y+1929539D01*
X-4698343Y+1929539D01*
X-4622461Y+1853657D01*
X-4622461Y+1746343D01*
X-4698343Y+1670461D01*
X-4805657Y+1670461D01*
X-4881539Y+1746343D01*
G37*
G36*
X-6840461Y+6233657D02*
X-6840461Y+6126343D01*
X-6916343Y+6050461D01*
X-7023657Y+6050461D01*
X-7097000Y+6123804D01*
X-7170343Y+6050461D01*
X-7277657Y+6050461D01*
X-7353539Y+6126343D01*
X-7353539Y+6233657D01*
X-7277657Y+6309539D01*
X-7170343Y+6309539D01*
X-7097000Y+6236196D01*
X-7023657Y+6309539D01*
X-6916343Y+6309539D01*
X-6840461Y+6233657D01*
G37*
G36*
X-5936461Y+2453657D02*
X-5936461Y+2346343D01*
X-6012343Y+2270461D01*
X-6119657Y+2270461D01*
X-6193000Y+2343804D01*
X-6266343Y+2270461D01*
X-6373657Y+2270461D01*
X-6449539Y+2346343D01*
X-6449539Y+2453657D01*
X-6373657Y+2529539D01*
X-6266343Y+2529539D01*
X-6193000Y+2456196D01*
X-6119657Y+2529539D01*
X-6012343Y+2529539D01*
X-5936461Y+2453657D01*
G37*
G36*
X-5236061Y+7044769D02*
X-5236061Y+6975231D01*
X-5285231Y+6926061D01*
X-5354769Y+6926061D01*
X-5403939Y+6975231D01*
X-5403939Y+7044769D01*
X-5354769Y+7093939D01*
X-5285231Y+7093939D01*
X-5236061Y+7044769D01*
G37*
G36*
X-5203939Y+6975231D02*
X-5203939Y+7044769D01*
X-5154769Y+7093939D01*
X-5085231Y+7093939D01*
X-5036061Y+7044769D01*
X-5036061Y+6975231D01*
X-5085231Y+6926061D01*
X-5154769Y+6926061D01*
X-5203939Y+6975231D01*
G37*
G36*
X-5923697Y+6146500D02*
X-5976303Y+6146500D01*
X-6013500Y+6183697D01*
X-6013500Y+6236303D01*
X-5976303Y+6273500D01*
X-5923697Y+6273500D01*
X-5886500Y+6236303D01*
X-5886500Y+6183697D01*
X-5923697Y+6146500D01*
G37*
G36*
X-6079539Y+6334461D02*
X-6079539Y+6593539D01*
X-5820461Y+6593539D01*
X-5820461Y+6334461D01*
X-6079539Y+6334461D01*
G37*
G36*
X-4680461Y+6443657D02*
X-4680461Y+6336343D01*
X-4753804Y+6263000D01*
X-4680461Y+6189657D01*
X-4680461Y+6082343D01*
X-4756343Y+6006461D01*
X-4863657Y+6006461D01*
X-4939539Y+6082343D01*
X-4939539Y+6189657D01*
X-4866196Y+6263000D01*
X-4886961Y+6283765D01*
X-4886961Y+6259146D01*
X-4925646Y+6220461D01*
X-4980354Y+6220461D01*
X-5019039Y+6259146D01*
X-5019039Y+6313854D01*
X-4980354Y+6352539D01*
X-4939539Y+6352539D01*
X-4939539Y+6443657D01*
X-4863657Y+6519539D01*
X-4756343Y+6519539D01*
X-4680461Y+6443657D01*
G37*
G36*
X-7626461Y+870461D02*
X-8139539Y+870461D01*
X-8139539Y+1129539D01*
X-7626461Y+1129539D01*
X-7626461Y+870461D01*
G37*
G36*
X-6930461Y+623657D02*
X-6930461Y+516343D01*
X-7006343Y+440461D01*
X-7113657Y+440461D01*
X-7187000Y+513804D01*
X-7260343Y+440461D01*
X-7367657Y+440461D01*
X-7443539Y+516343D01*
X-7443539Y+623657D01*
X-7367657Y+699539D01*
X-7260343Y+699539D01*
X-7187000Y+626196D01*
X-7113657Y+699539D01*
X-7006343Y+699539D01*
X-6930461Y+623657D01*
G37*
G36*
X-6236061Y+1084769D02*
X-6236061Y+1015231D01*
X-6285231Y+966061D01*
X-6354769Y+966061D01*
X-6403939Y+1015231D01*
X-6403939Y+1084769D01*
X-6354769Y+1133939D01*
X-6285231Y+1133939D01*
X-6236061Y+1084769D01*
G37*
G36*
X-6436061Y+1084769D02*
X-6436061Y+1015231D01*
X-6485231Y+966061D01*
X-6554769Y+966061D01*
X-6603939Y+1015231D01*
X-6603939Y+1084769D01*
X-6554769Y+1133939D01*
X-6485231Y+1133939D01*
X-6436061Y+1084769D01*
G37*
G36*
X-2460461Y+950461D02*
X-2973539Y+950461D01*
X-2973539Y+1209539D01*
X-2460461Y+1209539D01*
X-2460461Y+950461D01*
G37*
G36*
X-1100461Y+1573657D02*
X-1100461Y+1466343D01*
X-1176343Y+1390461D01*
X-1283657Y+1390461D01*
X-1357000Y+1463804D01*
X-1430343Y+1390461D01*
X-1537657Y+1390461D01*
X-1613539Y+1466343D01*
X-1613539Y+1573657D01*
X-1537657Y+1649539D01*
X-1430343Y+1649539D01*
X-1357000Y+1576196D01*
X-1283657Y+1649539D01*
X-1176343Y+1649539D01*
X-1100461Y+1573657D01*
G37*
G36*
X-1790061Y+1144769D02*
X-1790061Y+1075231D01*
X-1839231Y+1026061D01*
X-1908769Y+1026061D01*
X-1957939Y+1075231D01*
X-1957939Y+1144769D01*
X-1908769Y+1193939D01*
X-1839231Y+1193939D01*
X-1790061Y+1144769D01*
G37*
G36*
X-1990061Y+1144769D02*
X-1990061Y+1075231D01*
X-2039231Y+1026061D01*
X-2108769Y+1026061D01*
X-2157939Y+1075231D01*
X-2157939Y+1144769D01*
X-2108769Y+1193939D01*
X-2039231Y+1193939D01*
X-1990061Y+1144769D01*
G37*
G36*
X+355061Y+6967361D02*
X+355061Y+7052639D01*
X+415361Y+7112939D01*
X+500639Y+7112939D01*
X+560939Y+7052639D01*
X+560939Y+6967361D01*
X+500639Y+6907061D01*
X+415361Y+6907061D01*
X+355061Y+6967361D01*
G37*
G36*
X+101061Y+6967361D02*
X+101061Y+7052639D01*
X+161361Y+7112939D01*
X+246639Y+7112939D01*
X+306939Y+7052639D01*
X+306939Y+6967361D01*
X+246639Y+6907061D01*
X+161361Y+6907061D01*
X+101061Y+6967361D01*
G37*
G36*
X+385061Y+6287361D02*
X+385061Y+6372639D01*
X+445361Y+6432939D01*
X+530639Y+6432939D01*
X+590939Y+6372639D01*
X+590939Y+6287361D01*
X+530639Y+6227061D01*
X+445361Y+6227061D01*
X+385061Y+6287361D01*
G37*
G36*
X+131061Y+6287361D02*
X+131061Y+6372639D01*
X+191361Y+6432939D01*
X+276639Y+6432939D01*
X+336939Y+6372639D01*
X+336939Y+6287361D01*
X+276639Y+6227061D01*
X+191361Y+6227061D01*
X+131061Y+6287361D01*
G37*
G36*
X+355061Y+5657361D02*
X+355061Y+5742639D01*
X+415361Y+5802939D01*
X+500639Y+5802939D01*
X+560939Y+5742639D01*
X+560939Y+5657361D01*
X+500639Y+5597061D01*
X+415361Y+5597061D01*
X+355061Y+5657361D01*
G37*
G36*
X+101061Y+5657361D02*
X+101061Y+5742639D01*
X+161361Y+5802939D01*
X+246639Y+5802939D01*
X+306939Y+5742639D01*
X+306939Y+5657361D01*
X+246639Y+5597061D01*
X+161361Y+5597061D01*
X+101061Y+5657361D01*
G37*
G36*
X+385061Y+4977361D02*
X+385061Y+5062639D01*
X+445361Y+5122939D01*
X+530639Y+5122939D01*
X+590939Y+5062639D01*
X+590939Y+4977361D01*
X+530639Y+4917061D01*
X+445361Y+4917061D01*
X+385061Y+4977361D01*
G37*
G36*
X+131061Y+4977361D02*
X+131061Y+5062639D01*
X+191361Y+5122939D01*
X+276639Y+5122939D01*
X+336939Y+5062639D01*
X+336939Y+4977361D01*
X+276639Y+4917061D01*
X+191361Y+4917061D01*
X+131061Y+4977361D01*
G37*
G36*
X+395061Y+4367361D02*
X+395061Y+4452639D01*
X+455361Y+4512939D01*
X+540639Y+4512939D01*
X+600939Y+4452639D01*
X+600939Y+4367361D01*
X+540639Y+4307061D01*
X+455361Y+4307061D01*
X+395061Y+4367361D01*
G37*
G36*
X+141061Y+4367361D02*
X+141061Y+4452639D01*
X+201361Y+4512939D01*
X+286639Y+4512939D01*
X+346939Y+4452639D01*
X+346939Y+4367361D01*
X+286639Y+4307061D01*
X+201361Y+4307061D01*
X+141061Y+4367361D01*
G37*
G36*
X-416939Y+6987361D02*
X-416939Y+7072639D01*
X-356639Y+7132939D01*
X-271361Y+7132939D01*
X-211061Y+7072639D01*
X-211061Y+6987361D01*
X-271361Y+6927061D01*
X-356639Y+6927061D01*
X-416939Y+6987361D01*
G37*
G36*
X-1178939Y+6987361D02*
X-1178939Y+7072639D01*
X-1118639Y+7132939D01*
X-1033361Y+7132939D01*
X-973061Y+7072639D01*
X-973061Y+6987361D01*
X-1033361Y+6927061D01*
X-1118639Y+6927061D01*
X-1178939Y+6987361D01*
G37*
G36*
X-2194939Y+6987361D02*
X-2194939Y+7072639D01*
X-2134639Y+7132939D01*
X-2049361Y+7132939D01*
X-1989061Y+7072639D01*
X-1989061Y+6987361D01*
X-2049361Y+6927061D01*
X-2134639Y+6927061D01*
X-2194939Y+6987361D01*
G37*
G36*
X-2283461Y+7202854D02*
X-2283461Y+7148146D01*
X-2301014Y+7130592D01*
X-2243061Y+7072639D01*
X-2243061Y+6987361D01*
X-2303361Y+6927061D01*
X-2388639Y+6927061D01*
X-2448939Y+6987361D01*
X-2448939Y+7072639D01*
X-2394486Y+7127092D01*
X-2415539Y+7148146D01*
X-2415539Y+7202854D01*
X-2376854Y+7241539D01*
X-2322146Y+7241539D01*
X-2283461Y+7202854D01*
G37*
G36*
X-8946461Y+1153657D02*
X-8946461Y+1046343D01*
X-9022343Y+970461D01*
X-9129657Y+970461D01*
X-9203000Y+1043804D01*
X-9276343Y+970461D01*
X-9383657Y+970461D01*
X-9459539Y+1046343D01*
X-9459539Y+1153657D01*
X-9383657Y+1229539D01*
X-9276343Y+1229539D01*
X-9203000Y+1156196D01*
X-9129657Y+1229539D01*
X-9022343Y+1229539D01*
X-8946461Y+1153657D01*
G37*
G36*
X-8260461Y+1163657D02*
X-8260461Y+1056343D01*
X-8336343Y+980461D01*
X-8443657Y+980461D01*
X-8517000Y+1053804D01*
X-8590343Y+980461D01*
X-8697657Y+980461D01*
X-8773539Y+1056343D01*
X-8773539Y+1163657D01*
X-8697657Y+1239539D01*
X-8590343Y+1239539D01*
X-8517000Y+1166196D01*
X-8443657Y+1239539D01*
X-8336343Y+1239539D01*
X-8260461Y+1163657D01*
G37*
G36*
X-8246061Y-727361D02*
X-8246061Y-812639D01*
X-8306361Y-872939D01*
X-8391639Y-872939D01*
X-8449000Y-815578D01*
X-8506361Y-872939D01*
X-8591639Y-872939D01*
X-8651939Y-812639D01*
X-8651939Y-727361D01*
X-8591639Y-667061D01*
X-8506361Y-667061D01*
X-8449000Y-724422D01*
X-8391639Y-667061D01*
X-8306361Y-667061D01*
X-8246061Y-727361D01*
G37*
G36*
X-8246061Y-477361D02*
X-8246061Y-562639D01*
X-8306361Y-622939D01*
X-8391639Y-622939D01*
X-8449000Y-565578D01*
X-8506361Y-622939D01*
X-8591639Y-622939D01*
X-8651939Y-562639D01*
X-8651939Y-477361D01*
X-8591639Y-417061D01*
X-8506361Y-417061D01*
X-8449000Y-474422D01*
X-8391639Y-417061D01*
X-8306361Y-417061D01*
X-8246061Y-477361D01*
G37*
G36*
X-8905510Y+163439D02*
X-8734490Y+163439D01*
X-8613561Y+42510D01*
X-8613561Y-128510D01*
X-8734490Y-249439D01*
X-8905510Y-249439D01*
X-9026439Y-128510D01*
X-9026439Y+42510D01*
X-8905510Y+163439D01*
G37*
G36*
X-7934961Y+2313354D02*
X-7934961Y+2258646D01*
X-7971107Y+2222500D01*
X-7934961Y+2186354D01*
X-7934961Y+2131646D01*
X-7973646Y+2092961D01*
X-8028354Y+2092961D01*
X-8067039Y+2131646D01*
X-8067039Y+2186354D01*
X-8030893Y+2222500D01*
X-8067039Y+2258646D01*
X-8067039Y+2313354D01*
X-8028354Y+2352039D01*
X-7973646Y+2352039D01*
X-7934961Y+2313354D01*
G37*
G36*
X-8702039Y+2195146D02*
X-8702039Y+2249854D01*
X-8663354Y+2288539D01*
X-8608646Y+2288539D01*
X-8569961Y+2249854D01*
X-8569961Y+2195146D01*
X-8608646Y+2156461D01*
X-8663354Y+2156461D01*
X-8702039Y+2195146D01*
G37*
G36*
X-5013961Y+4980354D02*
X-5013961Y+4925646D01*
X-5052646Y+4886961D01*
X-5107354Y+4886961D01*
X-5143500Y+4923107D01*
X-5179646Y+4886961D01*
X-5234354Y+4886961D01*
X-5273039Y+4925646D01*
X-5273039Y+4980354D01*
X-5234354Y+5019039D01*
X-5179646Y+5019039D01*
X-5143500Y+4982893D01*
X-5107354Y+5019039D01*
X-5052646Y+5019039D01*
X-5013961Y+4980354D01*
G37*
G36*
X-7178039Y+4036646D02*
X-7178039Y+4091354D01*
X-7139354Y+4130039D01*
X-7084646Y+4130039D01*
X-7045961Y+4091354D01*
X-7045961Y+4036646D01*
X-7084646Y+3997961D01*
X-7139354Y+3997961D01*
X-7178039Y+4036646D01*
G37*
G36*
X-6606539Y+4163646D02*
X-6606539Y+4218354D01*
X-6567854Y+4257039D01*
X-6513146Y+4257039D01*
X-6474461Y+4218354D01*
X-6474461Y+4163646D01*
X-6513146Y+4124961D01*
X-6567854Y+4124961D01*
X-6606539Y+4163646D01*
G37*
G36*
X-6035039Y+3401646D02*
X-6035039Y+3456354D01*
X-5996354Y+3495039D01*
X-5941646Y+3495039D01*
X-5902961Y+3456354D01*
X-5902961Y+3401646D01*
X-5941646Y+3362961D01*
X-5996354Y+3362961D01*
X-6035039Y+3401646D01*
G37*
G36*
X-4574539Y+2449146D02*
X-4574539Y+2503854D01*
X-4535854Y+2542539D01*
X-4481146Y+2542539D01*
X-4442461Y+2503854D01*
X-4442461Y+2449146D01*
X-4481146Y+2410461D01*
X-4535854Y+2410461D01*
X-4574539Y+2449146D01*
G37*
G36*
X+441961Y+1496646D02*
X+441961Y+1551354D01*
X+480646Y+1590039D01*
X+535354Y+1590039D01*
X+574039Y+1551354D01*
X+574039Y+1496646D01*
X+535354Y+1457961D01*
X+480646Y+1457961D01*
X+441961Y+1496646D01*
G37*
G36*
X-6352539Y+5941646D02*
X-6352539Y+5996354D01*
X-6313854Y+6035039D01*
X-6259146Y+6035039D01*
X-6220461Y+5996354D01*
X-6220461Y+5941646D01*
X-6259146Y+5902961D01*
X-6313854Y+5902961D01*
X-6352539Y+5941646D01*
G37*
G36*
X-8575039Y+5370146D02*
X-8575039Y+5424854D01*
X-8536354Y+5463539D01*
X-8481646Y+5463539D01*
X-8442961Y+5424854D01*
X-8442961Y+5370146D01*
X-8481646Y+5331461D01*
X-8536354Y+5331461D01*
X-8575039Y+5370146D01*
G37*
G36*
X+759461Y+1877646D02*
X+759461Y+1932354D01*
X+798146Y+1971039D01*
X+852854Y+1971039D01*
X+891539Y+1932354D01*
X+891539Y+1877646D01*
X+852854Y+1838961D01*
X+798146Y+1838961D01*
X+759461Y+1877646D01*
G37*
G36*
X-5273039Y+2385646D02*
X-5273039Y+2440354D01*
X-5234354Y+2479039D01*
X-5179646Y+2479039D01*
X-5140961Y+2440354D01*
X-5140961Y+2385646D01*
X-5179646Y+2346961D01*
X-5234354Y+2346961D01*
X-5273039Y+2385646D01*
G37*
G36*
X-7051039Y+2639646D02*
X-7051039Y+2694354D01*
X-7012354Y+2733039D01*
X-6957646Y+2733039D01*
X-6918961Y+2694354D01*
X-6918961Y+2639646D01*
X-6957646Y+2600961D01*
X-7012354Y+2600961D01*
X-7051039Y+2639646D01*
G37*
G36*
X-4320539Y+4100146D02*
X-4320539Y+4154854D01*
X-4281854Y+4193539D01*
X-4227146Y+4193539D01*
X-4188461Y+4154854D01*
X-4188461Y+4100146D01*
X-4227146Y+4061461D01*
X-4281854Y+4061461D01*
X-4320539Y+4100146D01*
G37*
G36*
X-8702039Y+1750646D02*
X-8702039Y+1805354D01*
X-8663354Y+1844039D01*
X-8608646Y+1844039D01*
X-8569961Y+1805354D01*
X-8569961Y+1750646D01*
X-8608646Y+1711961D01*
X-8663354Y+1711961D01*
X-8702039Y+1750646D01*
G37*
G36*
X-5654039Y+2385646D02*
X-5654039Y+2440354D01*
X-5615354Y+2479039D01*
X-5560646Y+2479039D01*
X-5521961Y+2440354D01*
X-5521961Y+2385646D01*
X-5560646Y+2346961D01*
X-5615354Y+2346961D01*
X-5654039Y+2385646D01*
G37*
G36*
X-9083039Y+1877646D02*
X-9083039Y+1932354D01*
X-9044354Y+1971039D01*
X-8989646Y+1971039D01*
X-8950961Y+1932354D01*
X-8950961Y+1877646D01*
X-8989646Y+1838961D01*
X-9044354Y+1838961D01*
X-9083039Y+1877646D01*
G37*
G36*
X-7114539Y+4671646D02*
X-7114539Y+4726354D01*
X-7075854Y+4765039D01*
X-7021146Y+4765039D01*
X-6982461Y+4726354D01*
X-6982461Y+4671646D01*
X-7021146Y+4632961D01*
X-7075854Y+4632961D01*
X-7114539Y+4671646D01*
G37*
G36*
X-7940039Y+5687646D02*
X-7940039Y+5742354D01*
X-7901354Y+5781039D01*
X-7846646Y+5781039D01*
X-7807961Y+5742354D01*
X-7807961Y+5687646D01*
X-7846646Y+5648961D01*
X-7901354Y+5648961D01*
X-7940039Y+5687646D01*
G37*
G36*
X-8321039Y+2512646D02*
X-8321039Y+2567354D01*
X-8282354Y+2606039D01*
X-8227646Y+2606039D01*
X-8188961Y+2567354D01*
X-8188961Y+2512646D01*
X-8227646Y+2473961D01*
X-8282354Y+2473961D01*
X-8321039Y+2512646D01*
G37*
G36*
X-6289039Y+7084646D02*
X-6289039Y+7139354D01*
X-6250354Y+7178039D01*
X-6195646Y+7178039D01*
X-6156961Y+7139354D01*
X-6156961Y+7084646D01*
X-6195646Y+7045961D01*
X-6250354Y+7045961D01*
X-6289039Y+7084646D01*
G37*
G36*
X-8575039Y+2893646D02*
X-8575039Y+2948354D01*
X-8536354Y+2987039D01*
X-8481646Y+2987039D01*
X-8442961Y+2948354D01*
X-8442961Y+2893646D01*
X-8481646Y+2854961D01*
X-8536354Y+2854961D01*
X-8575039Y+2893646D01*
G37*
G36*
X-6225539Y+4925646D02*
X-6225539Y+4980354D01*
X-6186854Y+5019039D01*
X-6132146Y+5019039D01*
X-6093461Y+4980354D01*
X-6093461Y+4925646D01*
X-6132146Y+4886961D01*
X-6186854Y+4886961D01*
X-6225539Y+4925646D01*
G37*
G36*
X-9400539Y+3401646D02*
X-9400539Y+3456354D01*
X-9361854Y+3495039D01*
X-9307146Y+3495039D01*
X-9268461Y+3456354D01*
X-9268461Y+3401646D01*
X-9307146Y+3362961D01*
X-9361854Y+3362961D01*
X-9400539Y+3401646D01*
G37*
G36*
X-1209039Y+3020646D02*
X-1209039Y+3075354D01*
X-1170354Y+3114039D01*
X-1115646Y+3114039D01*
X-1076961Y+3075354D01*
X-1076961Y+3020646D01*
X-1115646Y+2981961D01*
X-1170354Y+2981961D01*
X-1209039Y+3020646D01*
G37*
G36*
X-8696961Y+2567354D02*
X-8696961Y+2512646D01*
X-8735646Y+2473961D01*
X-8790354Y+2473961D01*
X-8826500Y+2510107D01*
X-8862646Y+2473961D01*
X-8917354Y+2473961D01*
X-8956039Y+2512646D01*
X-8956039Y+2567354D01*
X-8917354Y+2606039D01*
X-8862646Y+2606039D01*
X-8826500Y+2569893D01*
X-8790354Y+2606039D01*
X-8735646Y+2606039D01*
X-8696961Y+2567354D01*
G37*
G36*
X-2606039Y+1877646D02*
X-2606039Y+1932354D01*
X-2567354Y+1971039D01*
X-2512646Y+1971039D01*
X-2473961Y+1932354D01*
X-2473961Y+1877646D01*
X-2512646Y+1838961D01*
X-2567354Y+1838961D01*
X-2606039Y+1877646D01*
G37*
G36*
X-3241039Y+2004646D02*
X-3241039Y+2059354D01*
X-3202354Y+2098039D01*
X-3147646Y+2098039D01*
X-3108961Y+2059354D01*
X-3108961Y+2004646D01*
X-3147646Y+1965961D01*
X-3202354Y+1965961D01*
X-3241039Y+2004646D01*
G37*
G36*
X-7143750Y+4177849D02*
X-7143750Y+4204151D01*
X-7125151Y+4222750D01*
X-7098849Y+4222750D01*
X-7080250Y+4204151D01*
X-7080250Y+4177849D01*
X-7098849Y+4159250D01*
X-7125151Y+4159250D01*
X-7143750Y+4177849D01*
G37*
G36*
X-8413750Y+2018849D02*
X-8413750Y+2045151D01*
X-8395151Y+2063750D01*
X-8368849Y+2063750D01*
X-8350250Y+2045151D01*
X-8350250Y+2018849D01*
X-8368849Y+2000250D01*
X-8395151Y+2000250D01*
X-8413750Y+2018849D01*
G37*
G36*
X-3714750Y+3669849D02*
X-3714750Y+3696151D01*
X-3696151Y+3714750D01*
X-3669849Y+3714750D01*
X-3651250Y+3696151D01*
X-3651250Y+3669849D01*
X-3669849Y+3651250D01*
X-3696151Y+3651250D01*
X-3714750Y+3669849D01*
G37*
G36*
X+349250Y+2780849D02*
X+349250Y+2807151D01*
X+367849Y+2825750D01*
X+394151Y+2825750D01*
X+412750Y+2807151D01*
X+412750Y+2780849D01*
X+394151Y+2762250D01*
X+367849Y+2762250D01*
X+349250Y+2780849D01*
G37*
G36*
X-4603750Y+1256849D02*
X-4603750Y+1283151D01*
X-4585151Y+1301750D01*
X-4558849Y+1301750D01*
X-4540250Y+1283151D01*
X-4540250Y+1256849D01*
X-4558849Y+1238250D01*
X-4585151Y+1238250D01*
X-4603750Y+1256849D01*
G37*
G36*
X-5302250Y+4622349D02*
X-5302250Y+4648651D01*
X-5283651Y+4667250D01*
X-5257349Y+4667250D01*
X-5238750Y+4648651D01*
X-5238750Y+4622349D01*
X-5257349Y+4603750D01*
X-5283651Y+4603750D01*
X-5302250Y+4622349D01*
G37*
G36*
X-412750Y+2780849D02*
X-412750Y+2807151D01*
X-394151Y+2825750D01*
X-367849Y+2825750D01*
X-349250Y+2807151D01*
X-349250Y+2780849D01*
X-367849Y+2762250D01*
X-394151Y+2762250D01*
X-412750Y+2780849D01*
G37*
G36*
X-8667750Y+5003349D02*
X-8667750Y+5029651D01*
X-8649151Y+5048250D01*
X-8622849Y+5048250D01*
X-8604250Y+5029651D01*
X-8604250Y+5003349D01*
X-8622849Y+4984750D01*
X-8649151Y+4984750D01*
X-8667750Y+5003349D01*
G37*
G36*
X-7016750Y+6590849D02*
X-7016750Y+6617151D01*
X-6998151Y+6635750D01*
X-6971849Y+6635750D01*
X-6953250Y+6617151D01*
X-6953250Y+6590849D01*
X-6971849Y+6572250D01*
X-6998151Y+6572250D01*
X-7016750Y+6590849D01*
G37*
G36*
X-8159750Y+1764849D02*
X-8159750Y+1791151D01*
X-8141151Y+1809750D01*
X-8114849Y+1809750D01*
X-8096250Y+1791151D01*
X-8096250Y+1764849D01*
X-8114849Y+1746250D01*
X-8141151Y+1746250D01*
X-8159750Y+1764849D01*
G37*
G36*
X-8413750Y+3288849D02*
X-8413750Y+3315151D01*
X-8395151Y+3333750D01*
X-8368849Y+3333750D01*
X-8350250Y+3315151D01*
X-8350250Y+3288849D01*
X-8368849Y+3270250D01*
X-8395151Y+3270250D01*
X-8413750Y+3288849D01*
G37*
G36*
X-31750Y+2780849D02*
X-31750Y+2807151D01*
X-13151Y+2825750D01*
X+13151Y+2825750D01*
X+31750Y+2807151D01*
X+31750Y+2780849D01*
X+13151Y+2762250D01*
X-13151Y+2762250D01*
X-31750Y+2780849D01*
G37*
G36*
X-3714750Y+4114349D02*
X-3714750Y+4140651D01*
X-3696151Y+4159250D01*
X-3669849Y+4159250D01*
X-3651250Y+4140651D01*
X-3651250Y+4114349D01*
X-3669849Y+4095750D01*
X-3696151Y+4095750D01*
X-3714750Y+4114349D01*
G37*
G36*
X-5302250Y-711651D02*
X-5302250Y-685349D01*
X-5283651Y-666750D01*
X-5257349Y-666750D01*
X-5238750Y-685349D01*
X-5238750Y-711651D01*
X-5257349Y-730250D01*
X-5283651Y-730250D01*
X-5302250Y-711651D01*
G37*
G36*
X-4222750Y+3669849D02*
X-4222750Y+3696151D01*
X-4204151Y+3714750D01*
X-4177849Y+3714750D01*
X-4159250Y+3696151D01*
X-4159250Y+3669849D01*
X-4177849Y+3651250D01*
X-4204151Y+3651250D01*
X-4222750Y+3669849D01*
G37*
G36*
X-2698750Y+5828849D02*
X-2698750Y+5855151D01*
X-2680151Y+5873750D01*
X-2653849Y+5873750D01*
X-2635250Y+5855151D01*
X-2635250Y+5828849D01*
X-2653849Y+5810250D01*
X-2680151Y+5810250D01*
X-2698750Y+5828849D01*
G37*
G36*
X-2698750Y+6082849D02*
X-2698750Y+6109151D01*
X-2680151Y+6127750D01*
X-2653849Y+6127750D01*
X-2635250Y+6109151D01*
X-2635250Y+6082849D01*
X-2653849Y+6064250D01*
X-2680151Y+6064250D01*
X-2698750Y+6082849D01*
G37*
G36*
X-2698750Y+6336849D02*
X-2698750Y+6363151D01*
X-2680151Y+6381750D01*
X-2653849Y+6381750D01*
X-2635250Y+6363151D01*
X-2635250Y+6336849D01*
X-2653849Y+6318250D01*
X-2680151Y+6318250D01*
X-2698750Y+6336849D01*
G37*
G36*
X-2698750Y+5574849D02*
X-2698750Y+5601151D01*
X-2680151Y+5619750D01*
X-2653849Y+5619750D01*
X-2635250Y+5601151D01*
X-2635250Y+5574849D01*
X-2653849Y+5556250D01*
X-2680151Y+5556250D01*
X-2698750Y+5574849D01*
G37*
G36*
X-3714750Y+3034849D02*
X-3714750Y+3061151D01*
X-3696151Y+3079750D01*
X-3669849Y+3079750D01*
X-3651250Y+3061151D01*
X-3651250Y+3034849D01*
X-3669849Y+3016250D01*
X-3696151Y+3016250D01*
X-3714750Y+3034849D01*
G37*
G36*
X-6127750Y+4622349D02*
X-6127750Y+4648651D01*
X-6109151Y+4667250D01*
X-6082849Y+4667250D01*
X-6064250Y+4648651D01*
X-6064250Y+4622349D01*
X-6082849Y+4603750D01*
X-6109151Y+4603750D01*
X-6127750Y+4622349D01*
G37*
G36*
X-8794750Y+3288849D02*
X-8794750Y+3315151D01*
X-8776151Y+3333750D01*
X-8749849Y+3333750D01*
X-8731250Y+3315151D01*
X-8731250Y+3288849D01*
X-8749849Y+3270250D01*
X-8776151Y+3270250D01*
X-8794750Y+3288849D01*
G37*
G36*
X-8032750Y+5701849D02*
X-8032750Y+5728151D01*
X-8014151Y+5746750D01*
X-7987849Y+5746750D01*
X-7969250Y+5728151D01*
X-7969250Y+5701849D01*
X-7987849Y+5683250D01*
X-8014151Y+5683250D01*
X-8032750Y+5701849D01*
G37*
G36*
X-4286250Y+1193349D02*
X-4286250Y+1219651D01*
X-4267651Y+1238250D01*
X-4241349Y+1238250D01*
X-4222750Y+1219651D01*
X-4222750Y+1193349D01*
X-4241349Y+1174750D01*
X-4267651Y+1174750D01*
X-4286250Y+1193349D01*
G37*
G36*
X-7778750Y+4939849D02*
X-7778750Y+4966151D01*
X-7760151Y+4984750D01*
X-7733849Y+4984750D01*
X-7715250Y+4966151D01*
X-7715250Y+4939849D01*
X-7733849Y+4921250D01*
X-7760151Y+4921250D01*
X-7778750Y+4939849D01*
G37*
G36*
X-9302750Y+3733349D02*
X-9302750Y+3759651D01*
X-9284151Y+3778250D01*
X-9257849Y+3778250D01*
X-9239250Y+3759651D01*
X-9239250Y+3733349D01*
X-9257849Y+3714750D01*
X-9284151Y+3714750D01*
X-9302750Y+3733349D01*
G37*
G36*
X-6254750Y+4177849D02*
X-6254750Y+4204151D01*
X-6236151Y+4222750D01*
X-6209849Y+4222750D01*
X-6191250Y+4204151D01*
X-6191250Y+4177849D01*
X-6209849Y+4159250D01*
X-6236151Y+4159250D01*
X-6254750Y+4177849D01*
G37*
G36*
X-9048750Y+4177849D02*
X-9048750Y+4204151D01*
X-9030151Y+4222750D01*
X-9003849Y+4222750D01*
X-8985250Y+4204151D01*
X-8985250Y+4177849D01*
X-9003849Y+4159250D01*
X-9030151Y+4159250D01*
X-9048750Y+4177849D01*
G37*
G36*
X-3651250Y+3415849D02*
X-3651250Y+3442151D01*
X-3632651Y+3460750D01*
X-3606349Y+3460750D01*
X-3587750Y+3442151D01*
X-3587750Y+3415849D01*
X-3606349Y+3397250D01*
X-3632651Y+3397250D01*
X-3651250Y+3415849D01*
G37*
G36*
X-4730750Y+3923849D02*
X-4730750Y+3950151D01*
X-4712151Y+3968750D01*
X-4685849Y+3968750D01*
X-4667250Y+3950151D01*
X-4667250Y+3923849D01*
X-4685849Y+3905250D01*
X-4712151Y+3905250D01*
X-4730750Y+3923849D01*
G37*
G36*
X-8667750Y+2526849D02*
X-8667750Y+2553151D01*
X-8649151Y+2571750D01*
X-8622849Y+2571750D01*
X-8604250Y+2553151D01*
X-8604250Y+2526849D01*
X-8622849Y+2508250D01*
X-8649151Y+2508250D01*
X-8667750Y+2526849D01*
G37*
G36*
X-6000750Y+3034849D02*
X-6000750Y+3061151D01*
X-5982151Y+3079750D01*
X-5955849Y+3079750D01*
X-5937250Y+3061151D01*
X-5937250Y+3034849D01*
X-5955849Y+3016250D01*
X-5982151Y+3016250D01*
X-6000750Y+3034849D01*
G37*
G36*
X-5492750Y+2653849D02*
X-5492750Y+2680151D01*
X-5474151Y+2698750D01*
X-5447849Y+2698750D01*
X-5429250Y+2680151D01*
X-5429250Y+2653849D01*
X-5447849Y+2635250D01*
X-5474151Y+2635250D01*
X-5492750Y+2653849D01*
G37*
G36*
X-1463039Y+3846146D02*
X-1463039Y+3900854D01*
X-1424354Y+3939539D01*
X-1369646Y+3939539D01*
X-1330961Y+3900854D01*
X-1330961Y+3846146D01*
X-1369646Y+3807461D01*
X-1424354Y+3807461D01*
X-1463039Y+3846146D01*
G37*
G36*
X-2352039Y+3846146D02*
X-2352039Y+3900854D01*
X-2313354Y+3939539D01*
X-2258646Y+3939539D01*
X-2219961Y+3900854D01*
X-2219961Y+3846146D01*
X-2258646Y+3807461D01*
X-2313354Y+3807461D01*
X-2352039Y+3846146D01*
G37*
G36*
X-1971039Y+3338146D02*
X-1971039Y+3392854D01*
X-1932354Y+3431539D01*
X-1877646Y+3431539D01*
X-1838961Y+3392854D01*
X-1838961Y+3338146D01*
X-1877646Y+3299461D01*
X-1932354Y+3299461D01*
X-1971039Y+3338146D01*
G37*
G36*
X-891539Y+3655646D02*
X-891539Y+3710354D01*
X-852854Y+3749039D01*
X-798146Y+3749039D01*
X-759461Y+3710354D01*
X-759461Y+3655646D01*
X-798146Y+3616961D01*
X-852854Y+3616961D01*
X-891539Y+3655646D01*
G37*
G36*
X-2352039Y+3147646D02*
X-2352039Y+3202354D01*
X-2313354Y+3241039D01*
X-2258646Y+3241039D01*
X-2219961Y+3202354D01*
X-2219961Y+3147646D01*
X-2258646Y+3108961D01*
X-2313354Y+3108961D01*
X-2352039Y+3147646D01*
G37*
G36*
X-2542539Y+2893646D02*
X-2542539Y+2948354D01*
X-2503854Y+2987039D01*
X-2449146Y+2987039D01*
X-2410461Y+2948354D01*
X-2410461Y+2893646D01*
X-2449146Y+2854961D01*
X-2503854Y+2854961D01*
X-2542539Y+2893646D01*
G37*
G36*
X-1145539Y+5624146D02*
X-1145539Y+5678854D01*
X-1106854Y+5717539D01*
X-1052146Y+5717539D01*
X-1013461Y+5678854D01*
X-1013461Y+5624146D01*
X-1052146Y+5585461D01*
X-1106854Y+5585461D01*
X-1145539Y+5624146D01*
G37*
G36*
X-1209039Y+6830646D02*
X-1209039Y+6885354D01*
X-1170354Y+6924039D01*
X-1115646Y+6924039D01*
X-1076961Y+6885354D01*
X-1076961Y+6830646D01*
X-1115646Y+6791961D01*
X-1170354Y+6791961D01*
X-1209039Y+6830646D01*
G37*
G36*
X-1590039Y+6195646D02*
X-1590039Y+6250354D01*
X-1551354Y+6289039D01*
X-1496646Y+6289039D01*
X-1457961Y+6250354D01*
X-1457961Y+6195646D01*
X-1496646Y+6156961D01*
X-1551354Y+6156961D01*
X-1590039Y+6195646D01*
G37*
G36*
X-1145539Y+6195646D02*
X-1145539Y+6250354D01*
X-1106854Y+6289039D01*
X-1052146Y+6289039D01*
X-1013461Y+6250354D01*
X-1013461Y+6195646D01*
X-1052146Y+6156961D01*
X-1106854Y+6156961D01*
X-1145539Y+6195646D01*
G37*
G36*
X-3172461Y+6504354D02*
X-3172461Y+6449646D01*
X-3208607Y+6413500D01*
X-3172461Y+6377354D01*
X-3172461Y+6322646D01*
X-3211146Y+6283961D01*
X-3265854Y+6283961D01*
X-3304539Y+6322646D01*
X-3304539Y+6377354D01*
X-3268393Y+6413500D01*
X-3304539Y+6449646D01*
X-3304539Y+6504354D01*
X-3265854Y+6543039D01*
X-3211146Y+6543039D01*
X-3172461Y+6504354D01*
G37*
G36*
X-2606039Y+1623646D02*
X-2606039Y+1678354D01*
X-2567354Y+1717039D01*
X-2512646Y+1717039D01*
X-2473961Y+1678354D01*
X-2473961Y+1623646D01*
X-2512646Y+1584961D01*
X-2567354Y+1584961D01*
X-2606039Y+1623646D01*
G37*
G36*
X-8321039Y+2131646D02*
X-8321039Y+2186354D01*
X-8282354Y+2225039D01*
X-8227646Y+2225039D01*
X-8188961Y+2186354D01*
X-8188961Y+2131646D01*
X-8227646Y+2092961D01*
X-8282354Y+2092961D01*
X-8321039Y+2131646D01*
G37*
G36*
X-8638539Y+3401646D02*
X-8638539Y+3456354D01*
X-8599854Y+3495039D01*
X-8545146Y+3495039D01*
X-8506461Y+3456354D01*
X-8506461Y+3401646D01*
X-8545146Y+3362961D01*
X-8599854Y+3362961D01*
X-8638539Y+3401646D01*
G37*
G36*
X-2923539Y+4925646D02*
X-2923539Y+4980354D01*
X-2884854Y+5019039D01*
X-2830146Y+5019039D01*
X-2791461Y+4980354D01*
X-2791461Y+4925646D01*
X-2830146Y+4886961D01*
X-2884854Y+4886961D01*
X-2923539Y+4925646D01*
G37*
G36*
X-2542539Y+4925646D02*
X-2542539Y+4980354D01*
X-2503854Y+5019039D01*
X-2449146Y+5019039D01*
X-2410461Y+4980354D01*
X-2410461Y+4925646D01*
X-2449146Y+4886961D01*
X-2503854Y+4886961D01*
X-2542539Y+4925646D01*
G37*
G36*
X-1971039Y+5370146D02*
X-1971039Y+5424854D01*
X-1932354Y+5463539D01*
X-1877646Y+5463539D01*
X-1838961Y+5424854D01*
X-1838961Y+5370146D01*
X-1877646Y+5331461D01*
X-1932354Y+5331461D01*
X-1971039Y+5370146D01*
G37*
G36*
X-1844039Y+4163646D02*
X-1844039Y+4218354D01*
X-1805354Y+4257039D01*
X-1750646Y+4257039D01*
X-1711961Y+4218354D01*
X-1711961Y+4163646D01*
X-1750646Y+4124961D01*
X-1805354Y+4124961D01*
X-1844039Y+4163646D01*
G37*
G36*
X-1590039Y+2830146D02*
X-1590039Y+2884854D01*
X-1551354Y+2923539D01*
X-1496646Y+2923539D01*
X-1457961Y+2884854D01*
X-1457961Y+2830146D01*
X-1496646Y+2791461D01*
X-1551354Y+2791461D01*
X-1590039Y+2830146D01*
G37*
G36*
X+568961Y+1115646D02*
X+568961Y+1170354D01*
X+607646Y+1209039D01*
X+662354Y+1209039D01*
X+701039Y+1170354D01*
X+701039Y+1115646D01*
X+662354Y+1076961D01*
X+607646Y+1076961D01*
X+568961Y+1115646D01*
G37*
G36*
X-4130039Y+5941646D02*
X-4130039Y+5996354D01*
X-4091354Y+6035039D01*
X-4036646Y+6035039D01*
X-3997961Y+5996354D01*
X-3997961Y+5941646D01*
X-4036646Y+5902961D01*
X-4091354Y+5902961D01*
X-4130039Y+5941646D01*
G37*
G36*
X-1590039Y+3147646D02*
X-1590039Y+3202354D01*
X-1551354Y+3241039D01*
X-1496646Y+3241039D01*
X-1457961Y+3202354D01*
X-1457961Y+3147646D01*
X-1496646Y+3108961D01*
X-1551354Y+3108961D01*
X-1590039Y+3147646D01*
G37*
G36*
X-701039Y+3020646D02*
X-701039Y+3075354D01*
X-662354Y+3114039D01*
X-607646Y+3114039D01*
X-568961Y+3075354D01*
X-568961Y+3020646D01*
X-607646Y+2981961D01*
X-662354Y+2981961D01*
X-701039Y+3020646D01*
G37*
G36*
X-2539Y-535354D02*
X-2539Y-480646D01*
X+36146Y-441961D01*
X+90854Y-441961D01*
X+129539Y-480646D01*
X+129539Y-535354D01*
X+90854Y-574039D01*
X+36146Y-574039D01*
X-2539Y-535354D01*
G37*
G36*
X-6797039Y+3719146D02*
X-6797039Y+3773854D01*
X-6758354Y+3812539D01*
X-6703646Y+3812539D01*
X-6664961Y+3773854D01*
X-6664961Y+3719146D01*
X-6703646Y+3680461D01*
X-6758354Y+3680461D01*
X-6797039Y+3719146D01*
G37*
G36*
X-5273039Y+3528646D02*
X-5273039Y+3583354D01*
X-5234354Y+3622039D01*
X-5179646Y+3622039D01*
X-5140961Y+3583354D01*
X-5140961Y+3528646D01*
X-5179646Y+3489961D01*
X-5234354Y+3489961D01*
X-5273039Y+3528646D01*
G37*
G36*
X-5781039Y+4227146D02*
X-5781039Y+4281854D01*
X-5742354Y+4320539D01*
X-5687646Y+4320539D01*
X-5648961Y+4281854D01*
X-5648961Y+4227146D01*
X-5687646Y+4188461D01*
X-5742354Y+4188461D01*
X-5781039Y+4227146D01*
G37*
G36*
X-574039Y+2004646D02*
X-574039Y+2059354D01*
X-535354Y+2098039D01*
X-480646Y+2098039D01*
X-441961Y+2059354D01*
X-441961Y+2004646D01*
X-480646Y+1965961D01*
X-535354Y+1965961D01*
X-574039Y+2004646D01*
G37*
G36*
X-5336539Y+5052646D02*
X-5336539Y+5107354D01*
X-5297854Y+5146039D01*
X-5243146Y+5146039D01*
X-5204461Y+5107354D01*
X-5204461Y+5052646D01*
X-5243146Y+5013961D01*
X-5297854Y+5013961D01*
X-5336539Y+5052646D01*
G37*
G36*
X-6670039Y+3973146D02*
X-6670039Y+4027854D01*
X-6631354Y+4066539D01*
X-6576646Y+4066539D01*
X-6537961Y+4027854D01*
X-6537961Y+3973146D01*
X-6576646Y+3934461D01*
X-6631354Y+3934461D01*
X-6670039Y+3973146D01*
G37*
G36*
X-5146039Y+5243146D02*
X-5146039Y+5297854D01*
X-5107354Y+5336539D01*
X-5052646Y+5336539D01*
X-5013961Y+5297854D01*
X-5013961Y+5243146D01*
X-5052646Y+5204461D01*
X-5107354Y+5204461D01*
X-5146039Y+5243146D01*
G37*
G36*
X-2539Y+2131646D02*
X-2539Y+2186354D01*
X+36146Y+2225039D01*
X+90854Y+2225039D01*
X+129539Y+2186354D01*
X+129539Y+2131646D01*
X+90854Y+2092961D01*
X+36146Y+2092961D01*
X-2539Y+2131646D01*
G37*
G36*
X-3939539Y+2639646D02*
X-3939539Y+2694354D01*
X-3900854Y+2733039D01*
X-3846146Y+2733039D01*
X-3807461Y+2694354D01*
X-3807461Y+2639646D01*
X-3846146Y+2600961D01*
X-3900854Y+2600961D01*
X-3939539Y+2639646D01*
G37*
G36*
X-5458461Y+4662854D02*
X-5458461Y+4608146D01*
X-5497146Y+4569461D01*
X-5551854Y+4569461D01*
X-5588000Y+4605607D01*
X-5624146Y+4569461D01*
X-5678854Y+4569461D01*
X-5717539Y+4608146D01*
X-5717539Y+4662854D01*
X-5678854Y+4701539D01*
X-5624146Y+4701539D01*
X-5588000Y+4665393D01*
X-5551854Y+4701539D01*
X-5497146Y+4701539D01*
X-5458461Y+4662854D01*
G37*
G36*
X-6797039Y+3465146D02*
X-6797039Y+3519854D01*
X-6758354Y+3558539D01*
X-6703646Y+3558539D01*
X-6664961Y+3519854D01*
X-6664961Y+3465146D01*
X-6703646Y+3426461D01*
X-6758354Y+3426461D01*
X-6797039Y+3465146D01*
G37*
G36*
X-6797039Y+3274646D02*
X-6797039Y+3329354D01*
X-6758354Y+3368039D01*
X-6703646Y+3368039D01*
X-6664961Y+3329354D01*
X-6664961Y+3274646D01*
X-6703646Y+3235961D01*
X-6758354Y+3235961D01*
X-6797039Y+3274646D01*
G37*
G36*
X-6791961Y+3710354D02*
X-6791961Y+3655646D01*
X-6830646Y+3616961D01*
X-6885354Y+3616961D01*
X-6921500Y+3653107D01*
X-6957646Y+3616961D01*
X-7012354Y+3616961D01*
X-7051039Y+3655646D01*
X-7051039Y+3710354D01*
X-7012354Y+3749039D01*
X-6957646Y+3749039D01*
X-6921500Y+3712893D01*
X-6885354Y+3749039D01*
X-6830646Y+3749039D01*
X-6791961Y+3710354D01*
G37*
G36*
X-6162039Y+3719146D02*
X-6162039Y+3773854D01*
X-6123354Y+3812539D01*
X-6068646Y+3812539D01*
X-6029961Y+3773854D01*
X-6029961Y+3719146D01*
X-6068646Y+3680461D01*
X-6123354Y+3680461D01*
X-6162039Y+3719146D01*
G37*
G36*
X-5400039Y+99646D02*
X-5400039Y+154354D01*
X-5361354Y+193039D01*
X-5306646Y+193039D01*
X-5267961Y+154354D01*
X-5267961Y+99646D01*
X-5306646Y+60961D01*
X-5361354Y+60961D01*
X-5400039Y+99646D01*
G37*
G36*
X-4638039Y-217854D02*
X-4638039Y-163146D01*
X-4599354Y-124461D01*
X-4544646Y-124461D01*
X-4505961Y-163146D01*
X-4505961Y-217854D01*
X-4544646Y-256539D01*
X-4599354Y-256539D01*
X-4638039Y-217854D01*
G37*
G36*
X-4384039Y+4925646D02*
X-4384039Y+4980354D01*
X-4345354Y+5019039D01*
X-4290646Y+5019039D01*
X-4251961Y+4980354D01*
X-4251961Y+4925646D01*
X-4290646Y+4886961D01*
X-4345354Y+4886961D01*
X-4384039Y+4925646D01*
G37*
G36*
X-5013961Y+4408854D02*
X-5013961Y+4354146D01*
X-5052646Y+4315461D01*
X-5094495Y+4315461D01*
X-5067549Y+4288515D01*
X-5067549Y+4233807D01*
X-5106234Y+4195122D01*
X-5160942Y+4195122D01*
X-5199627Y+4233807D01*
X-5199627Y+4288515D01*
X-5160942Y+4327200D01*
X-5119093Y+4327200D01*
X-5146039Y+4354146D01*
X-5146039Y+4408854D01*
X-5107354Y+4447539D01*
X-5052646Y+4447539D01*
X-5013961Y+4408854D01*
G37*
G36*
X-4384039Y+3655646D02*
X-4384039Y+3710354D01*
X-4345354Y+3749039D01*
X-4290646Y+3749039D01*
X-4251961Y+3710354D01*
X-4251961Y+3655646D01*
X-4290646Y+3616961D01*
X-4345354Y+3616961D01*
X-4384039Y+3655646D01*
G37*
G36*
X-3241039Y+4163646D02*
X-3241039Y+4218354D01*
X-3202354Y+4257039D01*
X-3147646Y+4257039D01*
X-3108961Y+4218354D01*
X-3108961Y+4163646D01*
X-3147646Y+4124961D01*
X-3202354Y+4124961D01*
X-3241039Y+4163646D01*
G37*
G36*
X-4765039Y+4608146D02*
X-4765039Y+4662854D01*
X-4726354Y+4701539D01*
X-4671646Y+4701539D01*
X-4632961Y+4662854D01*
X-4632961Y+4608146D01*
X-4671646Y+4569461D01*
X-4726354Y+4569461D01*
X-4765039Y+4608146D01*
G37*
G36*
X-6606539Y+4544646D02*
X-6606539Y+4599354D01*
X-6567854Y+4638039D01*
X-6513146Y+4638039D01*
X-6474461Y+4599354D01*
X-6474461Y+4544646D01*
X-6513146Y+4505961D01*
X-6567854Y+4505961D01*
X-6606539Y+4544646D01*
G37*
G36*
X-7622539Y+4544646D02*
X-7622539Y+4599354D01*
X-7583854Y+4638039D01*
X-7529146Y+4638039D01*
X-7490461Y+4599354D01*
X-7490461Y+4544646D01*
X-7529146Y+4505961D01*
X-7583854Y+4505961D01*
X-7622539Y+4544646D01*
G37*
G36*
X-7051039Y+2893646D02*
X-7051039Y+2948354D01*
X-7012354Y+2987039D01*
X-6957646Y+2987039D01*
X-6918961Y+2948354D01*
X-6918961Y+2893646D01*
X-6957646Y+2854961D01*
X-7012354Y+2854961D01*
X-7051039Y+2893646D01*
G37*
G36*
X-8194039Y+4925646D02*
X-8194039Y+4980354D01*
X-8155354Y+5019039D01*
X-8100646Y+5019039D01*
X-8061961Y+4980354D01*
X-8061961Y+4925646D01*
X-8100646Y+4886961D01*
X-8155354Y+4886961D01*
X-8194039Y+4925646D01*
G37*
G36*
X-3685539Y+4481146D02*
X-3685539Y+4535854D01*
X-3646854Y+4574539D01*
X-3592146Y+4574539D01*
X-3553461Y+4535854D01*
X-3553461Y+4481146D01*
X-3592146Y+4442461D01*
X-3646854Y+4442461D01*
X-3685539Y+4481146D01*
G37*
G36*
X-5082539Y+3528646D02*
X-5082539Y+3583354D01*
X-5043854Y+3622039D01*
X-4989146Y+3622039D01*
X-4950461Y+3583354D01*
X-4950461Y+3528646D01*
X-4989146Y+3489961D01*
X-5043854Y+3489961D01*
X-5082539Y+3528646D01*
G37*
G36*
X-3177539Y+4798646D02*
X-3177539Y+4853354D01*
X-3138854Y+4892039D01*
X-3084146Y+4892039D01*
X-3045461Y+4853354D01*
X-3045461Y+4798646D01*
X-3084146Y+4759961D01*
X-3138854Y+4759961D01*
X-3177539Y+4798646D01*
G37*
G36*
X-5146039Y+3655646D02*
X-5146039Y+3710354D01*
X-5107354Y+3749039D01*
X-5052646Y+3749039D01*
X-5013961Y+3710354D01*
X-5013961Y+3655646D01*
X-5052646Y+3616961D01*
X-5107354Y+3616961D01*
X-5146039Y+3655646D01*
G37*
G36*
X-4066539Y+3719146D02*
X-4066539Y+3773854D01*
X-4027854Y+3812539D01*
X-3973146Y+3812539D01*
X-3934461Y+3773854D01*
X-3934461Y+3719146D01*
X-3973146Y+3680461D01*
X-4027854Y+3680461D01*
X-4066539Y+3719146D01*
G37*
G36*
X-4765039Y+3719146D02*
X-4765039Y+3773854D01*
X-4726354Y+3812539D01*
X-4671646Y+3812539D01*
X-4632961Y+3773854D01*
X-4632961Y+3719146D01*
X-4671646Y+3680461D01*
X-4726354Y+3680461D01*
X-4765039Y+3719146D01*
G37*
G36*
X-4193539Y+4354146D02*
X-4193539Y+4408854D01*
X-4154854Y+4447539D01*
X-4100146Y+4447539D01*
X-4061461Y+4408854D01*
X-4061461Y+4354146D01*
X-4100146Y+4315461D01*
X-4154854Y+4315461D01*
X-4193539Y+4354146D01*
G37*
G36*
X-4638039Y+3782646D02*
X-4638039Y+3837354D01*
X-4599354Y+3876039D01*
X-4544646Y+3876039D01*
X-4505961Y+3837354D01*
X-4505961Y+3782646D01*
X-4544646Y+3743961D01*
X-4599354Y+3743961D01*
X-4638039Y+3782646D01*
G37*
G36*
X-3939539Y+4163646D02*
X-3939539Y+4218354D01*
X-3900854Y+4257039D01*
X-3846146Y+4257039D01*
X-3807461Y+4218354D01*
X-3807461Y+4163646D01*
X-3846146Y+4124961D01*
X-3900854Y+4124961D01*
X-3939539Y+4163646D01*
G37*
G36*
X-5082539Y+3846146D02*
X-5082539Y+3900854D01*
X-5043854Y+3939539D01*
X-4989146Y+3939539D01*
X-4950461Y+3900854D01*
X-4950461Y+3846146D01*
X-4989146Y+3807461D01*
X-5043854Y+3807461D01*
X-5082539Y+3846146D01*
G37*
G36*
X-8257539Y+5370146D02*
X-8257539Y+5424854D01*
X-8218854Y+5463539D01*
X-8164146Y+5463539D01*
X-8125461Y+5424854D01*
X-8125461Y+5370146D01*
X-8164146Y+5331461D01*
X-8218854Y+5331461D01*
X-8257539Y+5370146D01*
G37*
G36*
X-9083039Y+2195146D02*
X-9083039Y+2249854D01*
X-9044354Y+2288539D01*
X-8989646Y+2288539D01*
X-8950961Y+2249854D01*
X-8950961Y+2195146D01*
X-8989646Y+2156461D01*
X-9044354Y+2156461D01*
X-9083039Y+2195146D01*
G37*
G36*
X-2072639Y+1496646D02*
X-2072639Y+1551354D01*
X-2033954Y+1590039D01*
X-1979246Y+1590039D01*
X-1940561Y+1551354D01*
X-1940561Y+1496646D01*
X-1979246Y+1457961D01*
X-2033954Y+1457961D01*
X-2072639Y+1496646D01*
G37*
G36*
X-3495039Y+1496646D02*
X-3495039Y+1551354D01*
X-3456354Y+1590039D01*
X-3401646Y+1590039D01*
X-3362961Y+1551354D01*
X-3362961Y+1496646D01*
X-3401646Y+1457961D01*
X-3456354Y+1457961D01*
X-3495039Y+1496646D01*
G37*
G36*
X-6860539Y+1433146D02*
X-6860539Y+1487854D01*
X-6821854Y+1526539D01*
X-6767146Y+1526539D01*
X-6728461Y+1487854D01*
X-6728461Y+1433146D01*
X-6767146Y+1394461D01*
X-6821854Y+1394461D01*
X-6860539Y+1433146D01*
G37*
G36*
X-5590539Y+3020646D02*
X-5590539Y+3075354D01*
X-5551854Y+3114039D01*
X-5497146Y+3114039D01*
X-5458461Y+3075354D01*
X-5458461Y+3020646D01*
X-5497146Y+2981961D01*
X-5551854Y+2981961D01*
X-5590539Y+3020646D01*
G37*
G36*
X-4765039Y+2957146D02*
X-4765039Y+3011854D01*
X-4726354Y+3050539D01*
X-4671646Y+3050539D01*
X-4632961Y+3011854D01*
X-4632961Y+2957146D01*
X-4671646Y+2918461D01*
X-4726354Y+2918461D01*
X-4765039Y+2957146D01*
G37*
G36*
X-4765039Y+2639646D02*
X-4765039Y+2694354D01*
X-4726354Y+2733039D01*
X-4671646Y+2733039D01*
X-4632961Y+2694354D01*
X-4632961Y+2639646D01*
X-4671646Y+2600961D01*
X-4726354Y+2600961D01*
X-4765039Y+2639646D01*
G37*
G36*
X-4765039Y+2385646D02*
X-4765039Y+2440354D01*
X-4726354Y+2479039D01*
X-4671646Y+2479039D01*
X-4632961Y+2440354D01*
X-4632961Y+2385646D01*
X-4671646Y+2346961D01*
X-4726354Y+2346961D01*
X-4765039Y+2385646D01*
G37*
G36*
X-857250Y+6273349D02*
X-857250Y+6299651D01*
X-838651Y+6318250D01*
X-812349Y+6318250D01*
X-793750Y+6299651D01*
X-793750Y+6273349D01*
X-812349Y+6254750D01*
X-838651Y+6254750D01*
X-857250Y+6273349D01*
G37*
G36*
X-5366572Y+5807805D02*
X-5366572Y+5834107D01*
X-5347973Y+5852706D01*
X-5321671Y+5852706D01*
X-5303072Y+5834107D01*
X-5303072Y+5807805D01*
X-5321671Y+5789206D01*
X-5347973Y+5789206D01*
X-5366572Y+5807805D01*
G37*
G36*
X-901750Y+5866849D02*
X-901750Y+5893151D01*
X-883151Y+5911750D01*
X-856849Y+5911750D01*
X-838250Y+5893151D01*
X-838250Y+5866849D01*
X-856849Y+5848250D01*
X-883151Y+5848250D01*
X-901750Y+5866849D01*
G37*
G36*
X-3812539Y+2830146D02*
X-3812539Y+2884854D01*
X-3773854Y+2923539D01*
X-3719146Y+2923539D01*
X-3680461Y+2884854D01*
X-3680461Y+2830146D01*
X-3719146Y+2791461D01*
X-3773854Y+2791461D01*
X-3812539Y+2830146D01*
G37*
G36*
X-6289039Y+3846146D02*
X-6289039Y+3900854D01*
X-6250354Y+3939539D01*
X-6195646Y+3939539D01*
X-6156961Y+3900854D01*
X-6156961Y+3846146D01*
X-6195646Y+3807461D01*
X-6250354Y+3807461D01*
X-6289039Y+3846146D01*
G37*
G36*
X-6289039Y+2703146D02*
X-6289039Y+2757854D01*
X-6250354Y+2796539D01*
X-6195646Y+2796539D01*
X-6156961Y+2757854D01*
X-6156961Y+2703146D01*
X-6195646Y+2664461D01*
X-6250354Y+2664461D01*
X-6289039Y+2703146D01*
G37*
G36*
X-6860539Y+3084146D02*
X-6860539Y+3138854D01*
X-6821854Y+3177539D01*
X-6767146Y+3177539D01*
X-6728461Y+3138854D01*
X-6728461Y+3084146D01*
X-6767146Y+3045461D01*
X-6821854Y+3045461D01*
X-6860539Y+3084146D01*
G37*
G36*
X-320039Y+5687646D02*
X-320039Y+5742354D01*
X-281354Y+5781039D01*
X-226646Y+5781039D01*
X-187961Y+5742354D01*
X-187961Y+5687646D01*
X-226646Y+5648961D01*
X-281354Y+5648961D01*
X-320039Y+5687646D01*
G37*
G36*
X-5209539Y+3992646D02*
X-5209539Y+4047354D01*
X-5170854Y+4086039D01*
X-5116146Y+4086039D01*
X-5077461Y+4047354D01*
X-5077461Y+3992646D01*
X-5116146Y+3953961D01*
X-5170854Y+3953961D01*
X-5209539Y+3992646D01*
G37*
G36*
X-5064030Y+4574400D02*
X-5064030Y+4629108D01*
X-5025345Y+4667793D01*
X-4970637Y+4667793D01*
X-4931952Y+4629108D01*
X-4931952Y+4574400D01*
X-4970637Y+4535715D01*
X-5025345Y+4535715D01*
X-5064030Y+4574400D01*
G37*
G36*
X-5231728Y+5376075D02*
X-5231728Y+5430783D01*
X-5193043Y+5469468D01*
X-5138335Y+5469468D01*
X-5099650Y+5430783D01*
X-5099650Y+5376075D01*
X-5138335Y+5337390D01*
X-5193043Y+5337390D01*
X-5231728Y+5376075D01*
G37*
G36*
X-5209539Y+4481146D02*
X-5209539Y+4535854D01*
X-5170854Y+4574539D01*
X-5116146Y+4574539D01*
X-5077461Y+4535854D01*
X-5077461Y+4481146D01*
X-5116146Y+4442461D01*
X-5170854Y+4442461D01*
X-5209539Y+4481146D01*
G37*
G36*
X-3876039Y+3846146D02*
X-3876039Y+3900854D01*
X-3837354Y+3939539D01*
X-3782646Y+3939539D01*
X-3743961Y+3900854D01*
X-3743961Y+3846146D01*
X-3782646Y+3807461D01*
X-3837354Y+3807461D01*
X-3876039Y+3846146D01*
G37*
G36*
X-5844539Y+3465146D02*
X-5844539Y+3519854D01*
X-5805854Y+3558539D01*
X-5751146Y+3558539D01*
X-5712461Y+3519854D01*
X-5712461Y+3465146D01*
X-5751146Y+3426461D01*
X-5805854Y+3426461D01*
X-5844539Y+3465146D01*
G37*
G36*
X-8067039Y+4544646D02*
X-8067039Y+4599354D01*
X-8028354Y+4638039D01*
X-7973646Y+4638039D01*
X-7934961Y+4599354D01*
X-7934961Y+4544646D01*
X-7973646Y+4505961D01*
X-8028354Y+4505961D01*
X-8067039Y+4544646D01*
G37*
G36*
X-6126039Y+4062646D02*
X-6126039Y+4117354D01*
X-6087354Y+4156039D01*
X-6032646Y+4156039D01*
X-5993961Y+4117354D01*
X-5993961Y+4062646D01*
X-6032646Y+4023961D01*
X-6087354Y+4023961D01*
X-6126039Y+4062646D01*
G37*
G36*
X-6162039Y+3909646D02*
X-6162039Y+3964354D01*
X-6123354Y+4003039D01*
X-6068646Y+4003039D01*
X-6029961Y+3964354D01*
X-6029961Y+3909646D01*
X-6068646Y+3870961D01*
X-6123354Y+3870961D01*
X-6162039Y+3909646D01*
G37*
G36*
X-6098539Y+2639646D02*
X-6098539Y+2694354D01*
X-6059854Y+2733039D01*
X-6005146Y+2733039D01*
X-5966461Y+2694354D01*
X-5966461Y+2639646D01*
X-6005146Y+2600961D01*
X-6059854Y+2600961D01*
X-6098539Y+2639646D01*
G37*
G36*
X-5844539Y+3846146D02*
X-5844539Y+3900854D01*
X-5805854Y+3939539D01*
X-5751146Y+3939539D01*
X-5712461Y+3900854D01*
X-5712461Y+3846146D01*
X-5751146Y+3807461D01*
X-5805854Y+3807461D01*
X-5844539Y+3846146D01*
G37*
G36*
X-6287236Y+3489664D02*
X-6287236Y+3544372D01*
X-6248551Y+3583057D01*
X-6193843Y+3583057D01*
X-6155158Y+3544372D01*
X-6155158Y+3489664D01*
X-6193843Y+3450979D01*
X-6248551Y+3450979D01*
X-6287236Y+3489664D01*
G37*
G36*
X-6456039Y+2792646D02*
X-6456039Y+2847354D01*
X-6417354Y+2886039D01*
X-6362646Y+2886039D01*
X-6323961Y+2847354D01*
X-6323961Y+2792646D01*
X-6362646Y+2753961D01*
X-6417354Y+2753961D01*
X-6456039Y+2792646D01*
G37*
%LPD*%
D13*
X-8001000Y+2286000D03*
X-8636000Y+2222500D03*
X-5207000Y+4953000D03*
X-7112000Y+4064000D03*
X-6540500Y+4191000D03*
X-5969000Y+3429000D03*
X-4508500Y+2476500D03*
X-8001000Y+2159000D03*
X+508000Y+1524000D03*
X-6286500Y+5969000D03*
X-8509000Y+5397500D03*
X+825500Y+1905000D03*
X-5207000Y+2413000D03*
X-6985000Y+2667000D03*
X-4254500Y+4127500D03*
X-8636000Y+1778000D03*
X-5588000Y+2413000D03*
X-9017000Y+1905000D03*
X-7048500Y+4699000D03*
X-7874000Y+5715000D03*
X-8255000Y+2540000D03*
X-6223000Y+7112000D03*
X-8509000Y+2921000D03*
X-6159500Y+4953000D03*
X-9334500Y+3429000D03*
X-1143000Y+3048000D03*
X-8763000Y+2540000D03*
X-2540000Y+1905000D03*
X-3175000Y+2032000D03*
X-7112000Y+4191000D03*
X-8382000Y+2032000D03*
X-3683000Y+3683000D03*
X+381000Y+2794000D03*
X-4572000Y+1270000D03*
X-5270500Y+4635500D03*
X-381000Y+2794000D03*
X-8636000Y+5016500D03*
X-6985000Y+6604000D03*
X-8128000Y+1778000D03*
X-8382000Y+3302000D03*
X+0Y+2794000D03*
X+1079500Y+2794000D03*
X-3683000Y+4127500D03*
X-5270500Y-698500D03*
X-4191000Y+3683000D03*
X-2667000Y+5842000D03*
X-2667000Y+6096000D03*
X-2667000Y+6350000D03*
X-2667000Y+5588000D03*
X-3683000Y+3048000D03*
X-6096000Y+4635500D03*
X-8763000Y+3302000D03*
X-8001000Y+5715000D03*
X-4254500Y+1206500D03*
X-7747000Y+4953000D03*
X-9271000Y+3746500D03*
X-6223000Y+4191000D03*
X-9017000Y+4191000D03*
X-3619500Y+3429000D03*
X-4699000Y+3937000D03*
X-8636000Y+2540000D03*
X-5969000Y+3048000D03*
X-5461000Y+2667000D03*
X-4953000Y+6286500D03*
X-1397000Y+3873500D03*
X-2286000Y+3873500D03*
X-1905000Y+3365500D03*
X-825500Y+3683000D03*
X-2286000Y+3175000D03*
X-2476500Y+2921000D03*
X-1079500Y+5651500D03*
X-1143000Y+6858000D03*
X-1524000Y+6223000D03*
X-1079500Y+6223000D03*
X-3238500Y+6350000D03*
X-3238500Y+6477000D03*
X-2540000Y+1651000D03*
X-8255000Y+2159000D03*
X-8572500Y+3429000D03*
X-2349500Y+7175500D03*
X-2857500Y+4953000D03*
X-2476500Y+4953000D03*
X-1905000Y+5397500D03*
X-1778000Y+4191000D03*
X-1524000Y+2857500D03*
X+635000Y+1143000D03*
X-4064000Y+5969000D03*
X-1524000Y+3175000D03*
X-635000Y+3048000D03*
X+63500Y-508000D03*
X-6731000Y+3746500D03*
X-5207000Y+3556000D03*
X-5715000Y+4254500D03*
X-508000Y+2032000D03*
X-5270500Y+5080000D03*
X-6604000Y+4000500D03*
X-5080000Y+5270500D03*
X+63500Y+2159000D03*
X-3873500Y+2667000D03*
X-5651500Y+4635500D03*
X-6731000Y+3492500D03*
X-6731000Y+3302000D03*
X-6985000Y+3683000D03*
X-6858000Y+3683000D03*
X+2286000Y+3810000D03*
X+2921000Y+4000500D03*
X-6096000Y+3746500D03*
X-5334000Y+127000D03*
X-4572000Y-190500D03*
X-6223000Y-1143000D03*
X-4318000Y+4953000D03*
X-5080000Y+4953000D03*
X-5080000Y+4381500D03*
X-4318000Y+3683000D03*
X-3175000Y+4191000D03*
X-4699000Y+4635500D03*
X-6540500Y+4572000D03*
X-7556500Y+4572000D03*
X-6985000Y+2921000D03*
X-8128000Y+4953000D03*
X-3619500Y+4508500D03*
X-5016500Y+3556000D03*
X-3111500Y+4826000D03*
X-5080000Y+3683000D03*
X-4000500Y+3746500D03*
X-4699000Y+3746500D03*
X-4127500Y+4381500D03*
X-4572000Y+3810000D03*
X-3873500Y+4191000D03*
X-5016500Y+3873500D03*
X-8191500Y+5397500D03*
X-8890000Y+2540000D03*
X-9017000Y+2222500D03*
X-2006600Y+1524000D03*
X-3429000Y+1524000D03*
X-6794500Y+1460500D03*
X-5524500Y+3048000D03*
X-4699000Y+2984500D03*
X-4699000Y+2667000D03*
X-4699000Y+2413000D03*
X-825500Y+6286500D03*
X-5334822Y+5820956D03*
X-870000Y+5880000D03*
X+1651000Y+8064500D03*
X-5524500Y+4635500D03*
X-3746500Y+2857500D03*
X-6223000Y+3873500D03*
X-6223000Y+2730500D03*
X-6794500Y+3111500D03*
X-5133588Y+4261161D03*
X-254000Y+5715000D03*
X-5143500Y+4020000D03*
X-4997991Y+4601754D03*
X-5165689Y+5403429D03*
X-5143500Y+4508500D03*
X-3810000Y+3873500D03*
X-5778500Y+3492500D03*
X-8001000Y+4572000D03*
X-6060000Y+4090000D03*
X-6096000Y+3937000D03*
X-6032500Y+2667000D03*
X-5778500Y+3873500D03*
X-6221197Y+3517018D03*
X-6390000Y+2820000D03*
D11*
X+1103587Y+2814814D02*
X+1092651Y+2825750D01*
X+1066349Y+2825750D01*
X+1047750Y+2807151D01*
X+1047750Y+2780849D01*
X+1066349Y+2762250D01*
X+1092651Y+2762250D01*
X+1105269Y+2774868D01*
X+1260000Y-900000D01*
X-9680000Y-1010010D01*
X-9678148Y+7579990D01*
X-4611235Y+7613525D01*
X-4574771Y+7577061D01*
X-4365229Y+7577061D01*
X-4326883Y+7615407D01*
X-2448939Y+7627836D01*
X-2448939Y+7597361D01*
X-2388639Y+7537061D01*
X-2303361Y+7537061D01*
X-2243061Y+7597361D01*
X-2243061Y+7629198D01*
X-2194939Y+7629517D01*
X-2194939Y+7597361D01*
X-2134639Y+7537061D01*
X-2049361Y+7537061D01*
X-1989061Y+7597361D01*
X-1989061Y+7630879D01*
X-1178939Y+7636241D01*
X-1178939Y+7597361D01*
X-1118639Y+7537061D01*
X-1033361Y+7537061D01*
X-973061Y+7597361D01*
X-973061Y+7637603D01*
X-416939Y+7641284D01*
X-416939Y+7597361D01*
X-356639Y+7537061D01*
X-271361Y+7537061D01*
X-211061Y+7597361D01*
X-211061Y+7642647D01*
X+141061Y+7644977D01*
X+141061Y+7607361D01*
X+201361Y+7547061D01*
X+286639Y+7547061D01*
X+346939Y+7607361D01*
X+346939Y+7646340D01*
X+395061Y+7646658D01*
X+395061Y+7607361D01*
X+455361Y+7547061D01*
X+540639Y+7547061D01*
X+600939Y+7607361D01*
X+600939Y+7648021D01*
X+900000Y+7650000D01*
X+1103587Y+2814814D01*
X-7661594Y+3891421D02*
X-7718406Y+3891421D01*
X-7758579Y+3931594D01*
X-7758579Y+3988406D01*
X-7718406Y+4028579D01*
X-7661594Y+4028579D01*
X-7621421Y+3988406D01*
X-7621421Y+3931594D01*
X-7661594Y+3891421D01*
X-7867906Y+3906660D02*
X-7912094Y+3906660D01*
X-7943340Y+3937906D01*
X-7943340Y+3982094D01*
X-7912094Y+4013340D01*
X-7867906Y+4013340D01*
X-7836660Y+3982094D01*
X-7836660Y+3937906D01*
X-7867906Y+3906660D01*
X-7661594Y+4091421D02*
X-7718406Y+4091421D01*
X-7758579Y+4131594D01*
X-7758579Y+4188406D01*
X-7718406Y+4228579D01*
X-7661594Y+4228579D01*
X-7621421Y+4188406D01*
X-7621421Y+4131594D01*
X-7661594Y+4091421D01*
X-7861594Y+4091421D02*
X-7918406Y+4091421D01*
X-7958579Y+4131594D01*
X-7958579Y+4188406D01*
X-7918406Y+4228579D01*
X-7861594Y+4228579D01*
X-7821421Y+4188406D01*
X-7821421Y+4131594D01*
X-7861594Y+4091421D01*
X-7661594Y+4291421D02*
X-7718406Y+4291421D01*
X-7758579Y+4331594D01*
X-7758579Y+4388406D01*
X-7718406Y+4428579D01*
X-7661594Y+4428579D01*
X-7621421Y+4388406D01*
X-7621421Y+4331594D01*
X-7661594Y+4291421D01*
X-7861594Y+4291421D02*
X-7918406Y+4291421D01*
X-7958579Y+4331594D01*
X-7958579Y+4388406D01*
X-7918406Y+4428579D01*
X-7861594Y+4428579D01*
X-7821421Y+4388406D01*
X-7821421Y+4331594D01*
X-7861594Y+4291421D01*
X-8650461Y+7241657D02*
X-8650461Y+7134343D01*
X-8723804Y+7061000D01*
X-8650461Y+6987657D01*
X-8650461Y+6880343D01*
X-8723804Y+6807000D01*
X-8650461Y+6733657D01*
X-8650461Y+6626343D01*
X-8726343Y+6550461D01*
X-8833657Y+6550461D01*
X-8909539Y+6626343D01*
X-8909539Y+6733657D01*
X-8836196Y+6807000D01*
X-8909539Y+6880343D01*
X-8909539Y+6987657D01*
X-8836196Y+7061000D01*
X-8909539Y+7134343D01*
X-8909539Y+7241657D01*
X-8833657Y+7317539D01*
X-8726343Y+7317539D01*
X-8650461Y+7241657D01*
X-8806303Y+6489500D02*
X-8753697Y+6489500D01*
X-8716500Y+6452303D01*
X-8716500Y+6399697D01*
X-8753697Y+6362500D01*
X-8806303Y+6362500D01*
X-8843500Y+6399697D01*
X-8843500Y+6452303D01*
X-8806303Y+6489500D01*
X-5389539Y+1746343D02*
X-5389539Y+1853657D01*
X-5313657Y+1929539D01*
X-5206343Y+1929539D01*
X-5130461Y+1853657D01*
X-5130461Y+1746343D01*
X-5206343Y+1670461D01*
X-5313657Y+1670461D01*
X-5389539Y+1746343D01*
X-4881539Y+1746343D02*
X-4881539Y+1853657D01*
X-4805657Y+1929539D01*
X-4698343Y+1929539D01*
X-4622461Y+1853657D01*
X-4622461Y+1746343D01*
X-4698343Y+1670461D01*
X-4805657Y+1670461D01*
X-4881539Y+1746343D01*
X-6840461Y+6233657D02*
X-6840461Y+6126343D01*
X-6916343Y+6050461D01*
X-7023657Y+6050461D01*
X-7097000Y+6123804D01*
X-7170343Y+6050461D01*
X-7277657Y+6050461D01*
X-7353539Y+6126343D01*
X-7353539Y+6233657D01*
X-7277657Y+6309539D01*
X-7170343Y+6309539D01*
X-7097000Y+6236196D01*
X-7023657Y+6309539D01*
X-6916343Y+6309539D01*
X-6840461Y+6233657D01*
X-5936461Y+2453657D02*
X-5936461Y+2346343D01*
X-6012343Y+2270461D01*
X-6119657Y+2270461D01*
X-6193000Y+2343804D01*
X-6266343Y+2270461D01*
X-6373657Y+2270461D01*
X-6449539Y+2346343D01*
X-6449539Y+2453657D01*
X-6373657Y+2529539D01*
X-6266343Y+2529539D01*
X-6193000Y+2456196D01*
X-6119657Y+2529539D01*
X-6012343Y+2529539D01*
X-5936461Y+2453657D01*
X-5236061Y+7044769D02*
X-5236061Y+6975231D01*
X-5285231Y+6926061D01*
X-5354769Y+6926061D01*
X-5403939Y+6975231D01*
X-5403939Y+7044769D01*
X-5354769Y+7093939D01*
X-5285231Y+7093939D01*
X-5236061Y+7044769D01*
X-5203939Y+6975231D02*
X-5203939Y+7044769D01*
X-5154769Y+7093939D01*
X-5085231Y+7093939D01*
X-5036061Y+7044769D01*
X-5036061Y+6975231D01*
X-5085231Y+6926061D01*
X-5154769Y+6926061D01*
X-5203939Y+6975231D01*
X-5923697Y+6146500D02*
X-5976303Y+6146500D01*
X-6013500Y+6183697D01*
X-6013500Y+6236303D01*
X-5976303Y+6273500D01*
X-5923697Y+6273500D01*
X-5886500Y+6236303D01*
X-5886500Y+6183697D01*
X-5923697Y+6146500D01*
X-6079539Y+6334461D02*
X-6079539Y+6593539D01*
X-5820461Y+6593539D01*
X-5820461Y+6334461D01*
X-6079539Y+6334461D01*
X-4680461Y+6443657D02*
X-4680461Y+6336343D01*
X-4753804Y+6263000D01*
X-4680461Y+6189657D01*
X-4680461Y+6082343D01*
X-4756343Y+6006461D01*
X-4863657Y+6006461D01*
X-4939539Y+6082343D01*
X-4939539Y+6189657D01*
X-4866196Y+6263000D01*
X-4886961Y+6283765D01*
X-4886961Y+6259146D01*
X-4925646Y+6220461D01*
X-4980354Y+6220461D01*
X-5019039Y+6259146D01*
X-5019039Y+6313854D01*
X-4980354Y+6352539D01*
X-4939539Y+6352539D01*
X-4939539Y+6443657D01*
X-4863657Y+6519539D01*
X-4756343Y+6519539D01*
X-4680461Y+6443657D01*
X-7626461Y+870461D02*
X-8139539Y+870461D01*
X-8139539Y+1129539D01*
X-7626461Y+1129539D01*
X-7626461Y+870461D01*
X-6930461Y+623657D02*
X-6930461Y+516343D01*
X-7006343Y+440461D01*
X-7113657Y+440461D01*
X-7187000Y+513804D01*
X-7260343Y+440461D01*
X-7367657Y+440461D01*
X-7443539Y+516343D01*
X-7443539Y+623657D01*
X-7367657Y+699539D01*
X-7260343Y+699539D01*
X-7187000Y+626196D01*
X-7113657Y+699539D01*
X-7006343Y+699539D01*
X-6930461Y+623657D01*
X-6236061Y+1084769D02*
X-6236061Y+1015231D01*
X-6285231Y+966061D01*
X-6354769Y+966061D01*
X-6403939Y+1015231D01*
X-6403939Y+1084769D01*
X-6354769Y+1133939D01*
X-6285231Y+1133939D01*
X-6236061Y+1084769D01*
X-6436061Y+1084769D02*
X-6436061Y+1015231D01*
X-6485231Y+966061D01*
X-6554769Y+966061D01*
X-6603939Y+1015231D01*
X-6603939Y+1084769D01*
X-6554769Y+1133939D01*
X-6485231Y+1133939D01*
X-6436061Y+1084769D01*
X-2460461Y+950461D02*
X-2973539Y+950461D01*
X-2973539Y+1209539D01*
X-2460461Y+1209539D01*
X-2460461Y+950461D01*
X-1100461Y+1573657D02*
X-1100461Y+1466343D01*
X-1176343Y+1390461D01*
X-1283657Y+1390461D01*
X-1357000Y+1463804D01*
X-1430343Y+1390461D01*
X-1537657Y+1390461D01*
X-1613539Y+1466343D01*
X-1613539Y+1573657D01*
X-1537657Y+1649539D01*
X-1430343Y+1649539D01*
X-1357000Y+1576196D01*
X-1283657Y+1649539D01*
X-1176343Y+1649539D01*
X-1100461Y+1573657D01*
X-1790061Y+1144769D02*
X-1790061Y+1075231D01*
X-1839231Y+1026061D01*
X-1908769Y+1026061D01*
X-1957939Y+1075231D01*
X-1957939Y+1144769D01*
X-1908769Y+1193939D01*
X-1839231Y+1193939D01*
X-1790061Y+1144769D01*
X-1990061Y+1144769D02*
X-1990061Y+1075231D01*
X-2039231Y+1026061D01*
X-2108769Y+1026061D01*
X-2157939Y+1075231D01*
X-2157939Y+1144769D01*
X-2108769Y+1193939D01*
X-2039231Y+1193939D01*
X-1990061Y+1144769D01*
X+355061Y+6967361D02*
X+355061Y+7052639D01*
X+415361Y+7112939D01*
X+500639Y+7112939D01*
X+560939Y+7052639D01*
X+560939Y+6967361D01*
X+500639Y+6907061D01*
X+415361Y+6907061D01*
X+355061Y+6967361D01*
X+101061Y+6967361D02*
X+101061Y+7052639D01*
X+161361Y+7112939D01*
X+246639Y+7112939D01*
X+306939Y+7052639D01*
X+306939Y+6967361D01*
X+246639Y+6907061D01*
X+161361Y+6907061D01*
X+101061Y+6967361D01*
X+385061Y+6287361D02*
X+385061Y+6372639D01*
X+445361Y+6432939D01*
X+530639Y+6432939D01*
X+590939Y+6372639D01*
X+590939Y+6287361D01*
X+530639Y+6227061D01*
X+445361Y+6227061D01*
X+385061Y+6287361D01*
X+131061Y+6287361D02*
X+131061Y+6372639D01*
X+191361Y+6432939D01*
X+276639Y+6432939D01*
X+336939Y+6372639D01*
X+336939Y+6287361D01*
X+276639Y+6227061D01*
X+191361Y+6227061D01*
X+131061Y+6287361D01*
X+355061Y+5657361D02*
X+355061Y+5742639D01*
X+415361Y+5802939D01*
X+500639Y+5802939D01*
X+560939Y+5742639D01*
X+560939Y+5657361D01*
X+500639Y+5597061D01*
X+415361Y+5597061D01*
X+355061Y+5657361D01*
X+101061Y+5657361D02*
X+101061Y+5742639D01*
X+161361Y+5802939D01*
X+246639Y+5802939D01*
X+306939Y+5742639D01*
X+306939Y+5657361D01*
X+246639Y+5597061D01*
X+161361Y+5597061D01*
X+101061Y+5657361D01*
X+385061Y+4977361D02*
X+385061Y+5062639D01*
X+445361Y+5122939D01*
X+530639Y+5122939D01*
X+590939Y+5062639D01*
X+590939Y+4977361D01*
X+530639Y+4917061D01*
X+445361Y+4917061D01*
X+385061Y+4977361D01*
X+131061Y+4977361D02*
X+131061Y+5062639D01*
X+191361Y+5122939D01*
X+276639Y+5122939D01*
X+336939Y+5062639D01*
X+336939Y+4977361D01*
X+276639Y+4917061D01*
X+191361Y+4917061D01*
X+131061Y+4977361D01*
X+395061Y+4367361D02*
X+395061Y+4452639D01*
X+455361Y+4512939D01*
X+540639Y+4512939D01*
X+600939Y+4452639D01*
X+600939Y+4367361D01*
X+540639Y+4307061D01*
X+455361Y+4307061D01*
X+395061Y+4367361D01*
X+141061Y+4367361D02*
X+141061Y+4452639D01*
X+201361Y+4512939D01*
X+286639Y+4512939D01*
X+346939Y+4452639D01*
X+346939Y+4367361D01*
X+286639Y+4307061D01*
X+201361Y+4307061D01*
X+141061Y+4367361D01*
X-416939Y+6987361D02*
X-416939Y+7072639D01*
X-356639Y+7132939D01*
X-271361Y+7132939D01*
X-211061Y+7072639D01*
X-211061Y+6987361D01*
X-271361Y+6927061D01*
X-356639Y+6927061D01*
X-416939Y+6987361D01*
X-1178939Y+6987361D02*
X-1178939Y+7072639D01*
X-1118639Y+7132939D01*
X-1033361Y+7132939D01*
X-973061Y+7072639D01*
X-973061Y+6987361D01*
X-1033361Y+6927061D01*
X-1118639Y+6927061D01*
X-1178939Y+6987361D01*
X-2194939Y+6987361D02*
X-2194939Y+7072639D01*
X-2134639Y+7132939D01*
X-2049361Y+7132939D01*
X-1989061Y+7072639D01*
X-1989061Y+6987361D01*
X-2049361Y+6927061D01*
X-2134639Y+6927061D01*
X-2194939Y+6987361D01*
X-2283461Y+7202854D02*
X-2283461Y+7148146D01*
X-2301014Y+7130592D01*
X-2243061Y+7072639D01*
X-2243061Y+6987361D01*
X-2303361Y+6927061D01*
X-2388639Y+6927061D01*
X-2448939Y+6987361D01*
X-2448939Y+7072639D01*
X-2394486Y+7127092D01*
X-2415539Y+7148146D01*
X-2415539Y+7202854D01*
X-2376854Y+7241539D01*
X-2322146Y+7241539D01*
X-2283461Y+7202854D01*
X-8946461Y+1153657D02*
X-8946461Y+1046343D01*
X-9022343Y+970461D01*
X-9129657Y+970461D01*
X-9203000Y+1043804D01*
X-9276343Y+970461D01*
X-9383657Y+970461D01*
X-9459539Y+1046343D01*
X-9459539Y+1153657D01*
X-9383657Y+1229539D01*
X-9276343Y+1229539D01*
X-9203000Y+1156196D01*
X-9129657Y+1229539D01*
X-9022343Y+1229539D01*
X-8946461Y+1153657D01*
X-8260461Y+1163657D02*
X-8260461Y+1056343D01*
X-8336343Y+980461D01*
X-8443657Y+980461D01*
X-8517000Y+1053804D01*
X-8590343Y+980461D01*
X-8697657Y+980461D01*
X-8773539Y+1056343D01*
X-8773539Y+1163657D01*
X-8697657Y+1239539D01*
X-8590343Y+1239539D01*
X-8517000Y+1166196D01*
X-8443657Y+1239539D01*
X-8336343Y+1239539D01*
X-8260461Y+1163657D01*
X-8246061Y-727361D02*
X-8246061Y-812639D01*
X-8306361Y-872939D01*
X-8391639Y-872939D01*
X-8449000Y-815578D01*
X-8506361Y-872939D01*
X-8591639Y-872939D01*
X-8651939Y-812639D01*
X-8651939Y-727361D01*
X-8591639Y-667061D01*
X-8506361Y-667061D01*
X-8449000Y-724422D01*
X-8391639Y-667061D01*
X-8306361Y-667061D01*
X-8246061Y-727361D01*
X-8246061Y-477361D02*
X-8246061Y-562639D01*
X-8306361Y-622939D01*
X-8391639Y-622939D01*
X-8449000Y-565578D01*
X-8506361Y-622939D01*
X-8591639Y-622939D01*
X-8651939Y-562639D01*
X-8651939Y-477361D01*
X-8591639Y-417061D01*
X-8506361Y-417061D01*
X-8449000Y-474422D01*
X-8391639Y-417061D01*
X-8306361Y-417061D01*
X-8246061Y-477361D01*
X-8905510Y+163439D02*
X-8734490Y+163439D01*
X-8613561Y+42510D01*
X-8613561Y-128510D01*
X-8734490Y-249439D01*
X-8905510Y-249439D01*
X-9026439Y-128510D01*
X-9026439Y+42510D01*
X-8905510Y+163439D01*
X-7934961Y+2313354D02*
X-7934961Y+2258646D01*
X-7971107Y+2222500D01*
X-7934961Y+2186354D01*
X-7934961Y+2131646D01*
X-7973646Y+2092961D01*
X-8028354Y+2092961D01*
X-8067039Y+2131646D01*
X-8067039Y+2186354D01*
X-8030893Y+2222500D01*
X-8067039Y+2258646D01*
X-8067039Y+2313354D01*
X-8028354Y+2352039D01*
X-7973646Y+2352039D01*
X-7934961Y+2313354D01*
X-8702039Y+2195146D02*
X-8702039Y+2249854D01*
X-8663354Y+2288539D01*
X-8608646Y+2288539D01*
X-8569961Y+2249854D01*
X-8569961Y+2195146D01*
X-8608646Y+2156461D01*
X-8663354Y+2156461D01*
X-8702039Y+2195146D01*
X-5013961Y+4980354D02*
X-5013961Y+4925646D01*
X-5052646Y+4886961D01*
X-5107354Y+4886961D01*
X-5143500Y+4923107D01*
X-5179646Y+4886961D01*
X-5234354Y+4886961D01*
X-5273039Y+4925646D01*
X-5273039Y+4980354D01*
X-5234354Y+5019039D01*
X-5179646Y+5019039D01*
X-5143500Y+4982893D01*
X-5107354Y+5019039D01*
X-5052646Y+5019039D01*
X-5013961Y+4980354D01*
X-7178039Y+4036646D02*
X-7178039Y+4091354D01*
X-7139354Y+4130039D01*
X-7084646Y+4130039D01*
X-7045961Y+4091354D01*
X-7045961Y+4036646D01*
X-7084646Y+3997961D01*
X-7139354Y+3997961D01*
X-7178039Y+4036646D01*
X-6606539Y+4163646D02*
X-6606539Y+4218354D01*
X-6567854Y+4257039D01*
X-6513146Y+4257039D01*
X-6474461Y+4218354D01*
X-6474461Y+4163646D01*
X-6513146Y+4124961D01*
X-6567854Y+4124961D01*
X-6606539Y+4163646D01*
X-6035039Y+3401646D02*
X-6035039Y+3456354D01*
X-5996354Y+3495039D01*
X-5941646Y+3495039D01*
X-5902961Y+3456354D01*
X-5902961Y+3401646D01*
X-5941646Y+3362961D01*
X-5996354Y+3362961D01*
X-6035039Y+3401646D01*
X-4574539Y+2449146D02*
X-4574539Y+2503854D01*
X-4535854Y+2542539D01*
X-4481146Y+2542539D01*
X-4442461Y+2503854D01*
X-4442461Y+2449146D01*
X-4481146Y+2410461D01*
X-4535854Y+2410461D01*
X-4574539Y+2449146D01*
X+441961Y+1496646D02*
X+441961Y+1551354D01*
X+480646Y+1590039D01*
X+535354Y+1590039D01*
X+574039Y+1551354D01*
X+574039Y+1496646D01*
X+535354Y+1457961D01*
X+480646Y+1457961D01*
X+441961Y+1496646D01*
X-6352539Y+5941646D02*
X-6352539Y+5996354D01*
X-6313854Y+6035039D01*
X-6259146Y+6035039D01*
X-6220461Y+5996354D01*
X-6220461Y+5941646D01*
X-6259146Y+5902961D01*
X-6313854Y+5902961D01*
X-6352539Y+5941646D01*
X-8575039Y+5370146D02*
X-8575039Y+5424854D01*
X-8536354Y+5463539D01*
X-8481646Y+5463539D01*
X-8442961Y+5424854D01*
X-8442961Y+5370146D01*
X-8481646Y+5331461D01*
X-8536354Y+5331461D01*
X-8575039Y+5370146D01*
X+759461Y+1877646D02*
X+759461Y+1932354D01*
X+798146Y+1971039D01*
X+852854Y+1971039D01*
X+891539Y+1932354D01*
X+891539Y+1877646D01*
X+852854Y+1838961D01*
X+798146Y+1838961D01*
X+759461Y+1877646D01*
X-5273039Y+2385646D02*
X-5273039Y+2440354D01*
X-5234354Y+2479039D01*
X-5179646Y+2479039D01*
X-5140961Y+2440354D01*
X-5140961Y+2385646D01*
X-5179646Y+2346961D01*
X-5234354Y+2346961D01*
X-5273039Y+2385646D01*
X-7051039Y+2639646D02*
X-7051039Y+2694354D01*
X-7012354Y+2733039D01*
X-6957646Y+2733039D01*
X-6918961Y+2694354D01*
X-6918961Y+2639646D01*
X-6957646Y+2600961D01*
X-7012354Y+2600961D01*
X-7051039Y+2639646D01*
X-4320539Y+4100146D02*
X-4320539Y+4154854D01*
X-4281854Y+4193539D01*
X-4227146Y+4193539D01*
X-4188461Y+4154854D01*
X-4188461Y+4100146D01*
X-4227146Y+4061461D01*
X-4281854Y+4061461D01*
X-4320539Y+4100146D01*
X-8702039Y+1750646D02*
X-8702039Y+1805354D01*
X-8663354Y+1844039D01*
X-8608646Y+1844039D01*
X-8569961Y+1805354D01*
X-8569961Y+1750646D01*
X-8608646Y+1711961D01*
X-8663354Y+1711961D01*
X-8702039Y+1750646D01*
X-5654039Y+2385646D02*
X-5654039Y+2440354D01*
X-5615354Y+2479039D01*
X-5560646Y+2479039D01*
X-5521961Y+2440354D01*
X-5521961Y+2385646D01*
X-5560646Y+2346961D01*
X-5615354Y+2346961D01*
X-5654039Y+2385646D01*
X-9083039Y+1877646D02*
X-9083039Y+1932354D01*
X-9044354Y+1971039D01*
X-8989646Y+1971039D01*
X-8950961Y+1932354D01*
X-8950961Y+1877646D01*
X-8989646Y+1838961D01*
X-9044354Y+1838961D01*
X-9083039Y+1877646D01*
X-7114539Y+4671646D02*
X-7114539Y+4726354D01*
X-7075854Y+4765039D01*
X-7021146Y+4765039D01*
X-6982461Y+4726354D01*
X-6982461Y+4671646D01*
X-7021146Y+4632961D01*
X-7075854Y+4632961D01*
X-7114539Y+4671646D01*
X-7940039Y+5687646D02*
X-7940039Y+5742354D01*
X-7901354Y+5781039D01*
X-7846646Y+5781039D01*
X-7807961Y+5742354D01*
X-7807961Y+5687646D01*
X-7846646Y+5648961D01*
X-7901354Y+5648961D01*
X-7940039Y+5687646D01*
X-8321039Y+2512646D02*
X-8321039Y+2567354D01*
X-8282354Y+2606039D01*
X-8227646Y+2606039D01*
X-8188961Y+2567354D01*
X-8188961Y+2512646D01*
X-8227646Y+2473961D01*
X-8282354Y+2473961D01*
X-8321039Y+2512646D01*
X-6289039Y+7084646D02*
X-6289039Y+7139354D01*
X-6250354Y+7178039D01*
X-6195646Y+7178039D01*
X-6156961Y+7139354D01*
X-6156961Y+7084646D01*
X-6195646Y+7045961D01*
X-6250354Y+7045961D01*
X-6289039Y+7084646D01*
X-8575039Y+2893646D02*
X-8575039Y+2948354D01*
X-8536354Y+2987039D01*
X-8481646Y+2987039D01*
X-8442961Y+2948354D01*
X-8442961Y+2893646D01*
X-8481646Y+2854961D01*
X-8536354Y+2854961D01*
X-8575039Y+2893646D01*
X-6225539Y+4925646D02*
X-6225539Y+4980354D01*
X-6186854Y+5019039D01*
X-6132146Y+5019039D01*
X-6093461Y+4980354D01*
X-6093461Y+4925646D01*
X-6132146Y+4886961D01*
X-6186854Y+4886961D01*
X-6225539Y+4925646D01*
X-9400539Y+3401646D02*
X-9400539Y+3456354D01*
X-9361854Y+3495039D01*
X-9307146Y+3495039D01*
X-9268461Y+3456354D01*
X-9268461Y+3401646D01*
X-9307146Y+3362961D01*
X-9361854Y+3362961D01*
X-9400539Y+3401646D01*
X-1209039Y+3020646D02*
X-1209039Y+3075354D01*
X-1170354Y+3114039D01*
X-1115646Y+3114039D01*
X-1076961Y+3075354D01*
X-1076961Y+3020646D01*
X-1115646Y+2981961D01*
X-1170354Y+2981961D01*
X-1209039Y+3020646D01*
X-8696961Y+2567354D02*
X-8696961Y+2512646D01*
X-8735646Y+2473961D01*
X-8790354Y+2473961D01*
X-8826500Y+2510107D01*
X-8862646Y+2473961D01*
X-8917354Y+2473961D01*
X-8956039Y+2512646D01*
X-8956039Y+2567354D01*
X-8917354Y+2606039D01*
X-8862646Y+2606039D01*
X-8826500Y+2569893D01*
X-8790354Y+2606039D01*
X-8735646Y+2606039D01*
X-8696961Y+2567354D01*
X-2606039Y+1877646D02*
X-2606039Y+1932354D01*
X-2567354Y+1971039D01*
X-2512646Y+1971039D01*
X-2473961Y+1932354D01*
X-2473961Y+1877646D01*
X-2512646Y+1838961D01*
X-2567354Y+1838961D01*
X-2606039Y+1877646D01*
X-3241039Y+2004646D02*
X-3241039Y+2059354D01*
X-3202354Y+2098039D01*
X-3147646Y+2098039D01*
X-3108961Y+2059354D01*
X-3108961Y+2004646D01*
X-3147646Y+1965961D01*
X-3202354Y+1965961D01*
X-3241039Y+2004646D01*
X-7143750Y+4177849D02*
X-7143750Y+4204151D01*
X-7125151Y+4222750D01*
X-7098849Y+4222750D01*
X-7080250Y+4204151D01*
X-7080250Y+4177849D01*
X-7098849Y+4159250D01*
X-7125151Y+4159250D01*
X-7143750Y+4177849D01*
X-8413750Y+2018849D02*
X-8413750Y+2045151D01*
X-8395151Y+2063750D01*
X-8368849Y+2063750D01*
X-8350250Y+2045151D01*
X-8350250Y+2018849D01*
X-8368849Y+2000250D01*
X-8395151Y+2000250D01*
X-8413750Y+2018849D01*
X-3714750Y+3669849D02*
X-3714750Y+3696151D01*
X-3696151Y+3714750D01*
X-3669849Y+3714750D01*
X-3651250Y+3696151D01*
X-3651250Y+3669849D01*
X-3669849Y+3651250D01*
X-3696151Y+3651250D01*
X-3714750Y+3669849D01*
X+349250Y+2780849D02*
X+349250Y+2807151D01*
X+367849Y+2825750D01*
X+394151Y+2825750D01*
X+412750Y+2807151D01*
X+412750Y+2780849D01*
X+394151Y+2762250D01*
X+367849Y+2762250D01*
X+349250Y+2780849D01*
X-4603750Y+1256849D02*
X-4603750Y+1283151D01*
X-4585151Y+1301750D01*
X-4558849Y+1301750D01*
X-4540250Y+1283151D01*
X-4540250Y+1256849D01*
X-4558849Y+1238250D01*
X-4585151Y+1238250D01*
X-4603750Y+1256849D01*
X-5302250Y+4622349D02*
X-5302250Y+4648651D01*
X-5283651Y+4667250D01*
X-5257349Y+4667250D01*
X-5238750Y+4648651D01*
X-5238750Y+4622349D01*
X-5257349Y+4603750D01*
X-5283651Y+4603750D01*
X-5302250Y+4622349D01*
X-412750Y+2780849D02*
X-412750Y+2807151D01*
X-394151Y+2825750D01*
X-367849Y+2825750D01*
X-349250Y+2807151D01*
X-349250Y+2780849D01*
X-367849Y+2762250D01*
X-394151Y+2762250D01*
X-412750Y+2780849D01*
X-8667750Y+5003349D02*
X-8667750Y+5029651D01*
X-8649151Y+5048250D01*
X-8622849Y+5048250D01*
X-8604250Y+5029651D01*
X-8604250Y+5003349D01*
X-8622849Y+4984750D01*
X-8649151Y+4984750D01*
X-8667750Y+5003349D01*
X-7016750Y+6590849D02*
X-7016750Y+6617151D01*
X-6998151Y+6635750D01*
X-6971849Y+6635750D01*
X-6953250Y+6617151D01*
X-6953250Y+6590849D01*
X-6971849Y+6572250D01*
X-6998151Y+6572250D01*
X-7016750Y+6590849D01*
X-8159750Y+1764849D02*
X-8159750Y+1791151D01*
X-8141151Y+1809750D01*
X-8114849Y+1809750D01*
X-8096250Y+1791151D01*
X-8096250Y+1764849D01*
X-8114849Y+1746250D01*
X-8141151Y+1746250D01*
X-8159750Y+1764849D01*
X-8413750Y+3288849D02*
X-8413750Y+3315151D01*
X-8395151Y+3333750D01*
X-8368849Y+3333750D01*
X-8350250Y+3315151D01*
X-8350250Y+3288849D01*
X-8368849Y+3270250D01*
X-8395151Y+3270250D01*
X-8413750Y+3288849D01*
X-31750Y+2780849D02*
X-31750Y+2807151D01*
X-13151Y+2825750D01*
X+13151Y+2825750D01*
X+31750Y+2807151D01*
X+31750Y+2780849D01*
X+13151Y+2762250D01*
X-13151Y+2762250D01*
X-31750Y+2780849D01*
X-3714750Y+4114349D02*
X-3714750Y+4140651D01*
X-3696151Y+4159250D01*
X-3669849Y+4159250D01*
X-3651250Y+4140651D01*
X-3651250Y+4114349D01*
X-3669849Y+4095750D01*
X-3696151Y+4095750D01*
X-3714750Y+4114349D01*
X-5302250Y-711651D02*
X-5302250Y-685349D01*
X-5283651Y-666750D01*
X-5257349Y-666750D01*
X-5238750Y-685349D01*
X-5238750Y-711651D01*
X-5257349Y-730250D01*
X-5283651Y-730250D01*
X-5302250Y-711651D01*
X-4222750Y+3669849D02*
X-4222750Y+3696151D01*
X-4204151Y+3714750D01*
X-4177849Y+3714750D01*
X-4159250Y+3696151D01*
X-4159250Y+3669849D01*
X-4177849Y+3651250D01*
X-4204151Y+3651250D01*
X-4222750Y+3669849D01*
X-2698750Y+5828849D02*
X-2698750Y+5855151D01*
X-2680151Y+5873750D01*
X-2653849Y+5873750D01*
X-2635250Y+5855151D01*
X-2635250Y+5828849D01*
X-2653849Y+5810250D01*
X-2680151Y+5810250D01*
X-2698750Y+5828849D01*
X-2698750Y+6082849D02*
X-2698750Y+6109151D01*
X-2680151Y+6127750D01*
X-2653849Y+6127750D01*
X-2635250Y+6109151D01*
X-2635250Y+6082849D01*
X-2653849Y+6064250D01*
X-2680151Y+6064250D01*
X-2698750Y+6082849D01*
X-2698750Y+6336849D02*
X-2698750Y+6363151D01*
X-2680151Y+6381750D01*
X-2653849Y+6381750D01*
X-2635250Y+6363151D01*
X-2635250Y+6336849D01*
X-2653849Y+6318250D01*
X-2680151Y+6318250D01*
X-2698750Y+6336849D01*
X-2698750Y+5574849D02*
X-2698750Y+5601151D01*
X-2680151Y+5619750D01*
X-2653849Y+5619750D01*
X-2635250Y+5601151D01*
X-2635250Y+5574849D01*
X-2653849Y+5556250D01*
X-2680151Y+5556250D01*
X-2698750Y+5574849D01*
X-3714750Y+3034849D02*
X-3714750Y+3061151D01*
X-3696151Y+3079750D01*
X-3669849Y+3079750D01*
X-3651250Y+3061151D01*
X-3651250Y+3034849D01*
X-3669849Y+3016250D01*
X-3696151Y+3016250D01*
X-3714750Y+3034849D01*
X-6127750Y+4622349D02*
X-6127750Y+4648651D01*
X-6109151Y+4667250D01*
X-6082849Y+4667250D01*
X-6064250Y+4648651D01*
X-6064250Y+4622349D01*
X-6082849Y+4603750D01*
X-6109151Y+4603750D01*
X-6127750Y+4622349D01*
X-8794750Y+3288849D02*
X-8794750Y+3315151D01*
X-8776151Y+3333750D01*
X-8749849Y+3333750D01*
X-8731250Y+3315151D01*
X-8731250Y+3288849D01*
X-8749849Y+3270250D01*
X-8776151Y+3270250D01*
X-8794750Y+3288849D01*
X-8032750Y+5701849D02*
X-8032750Y+5728151D01*
X-8014151Y+5746750D01*
X-7987849Y+5746750D01*
X-7969250Y+5728151D01*
X-7969250Y+5701849D01*
X-7987849Y+5683250D01*
X-8014151Y+5683250D01*
X-8032750Y+5701849D01*
X-4286250Y+1193349D02*
X-4286250Y+1219651D01*
X-4267651Y+1238250D01*
X-4241349Y+1238250D01*
X-4222750Y+1219651D01*
X-4222750Y+1193349D01*
X-4241349Y+1174750D01*
X-4267651Y+1174750D01*
X-4286250Y+1193349D01*
X-7778750Y+4939849D02*
X-7778750Y+4966151D01*
X-7760151Y+4984750D01*
X-7733849Y+4984750D01*
X-7715250Y+4966151D01*
X-7715250Y+4939849D01*
X-7733849Y+4921250D01*
X-7760151Y+4921250D01*
X-7778750Y+4939849D01*
X-9302750Y+3733349D02*
X-9302750Y+3759651D01*
X-9284151Y+3778250D01*
X-9257849Y+3778250D01*
X-9239250Y+3759651D01*
X-9239250Y+3733349D01*
X-9257849Y+3714750D01*
X-9284151Y+3714750D01*
X-9302750Y+3733349D01*
X-6254750Y+4177849D02*
X-6254750Y+4204151D01*
X-6236151Y+4222750D01*
X-6209849Y+4222750D01*
X-6191250Y+4204151D01*
X-6191250Y+4177849D01*
X-6209849Y+4159250D01*
X-6236151Y+4159250D01*
X-6254750Y+4177849D01*
X-9048750Y+4177849D02*
X-9048750Y+4204151D01*
X-9030151Y+4222750D01*
X-9003849Y+4222750D01*
X-8985250Y+4204151D01*
X-8985250Y+4177849D01*
X-9003849Y+4159250D01*
X-9030151Y+4159250D01*
X-9048750Y+4177849D01*
X-3651250Y+3415849D02*
X-3651250Y+3442151D01*
X-3632651Y+3460750D01*
X-3606349Y+3460750D01*
X-3587750Y+3442151D01*
X-3587750Y+3415849D01*
X-3606349Y+3397250D01*
X-3632651Y+3397250D01*
X-3651250Y+3415849D01*
X-4730750Y+3923849D02*
X-4730750Y+3950151D01*
X-4712151Y+3968750D01*
X-4685849Y+3968750D01*
X-4667250Y+3950151D01*
X-4667250Y+3923849D01*
X-4685849Y+3905250D01*
X-4712151Y+3905250D01*
X-4730750Y+3923849D01*
X-8667750Y+2526849D02*
X-8667750Y+2553151D01*
X-8649151Y+2571750D01*
X-8622849Y+2571750D01*
X-8604250Y+2553151D01*
X-8604250Y+2526849D01*
X-8622849Y+2508250D01*
X-8649151Y+2508250D01*
X-8667750Y+2526849D01*
X-6000750Y+3034849D02*
X-6000750Y+3061151D01*
X-5982151Y+3079750D01*
X-5955849Y+3079750D01*
X-5937250Y+3061151D01*
X-5937250Y+3034849D01*
X-5955849Y+3016250D01*
X-5982151Y+3016250D01*
X-6000750Y+3034849D01*
X-5492750Y+2653849D02*
X-5492750Y+2680151D01*
X-5474151Y+2698750D01*
X-5447849Y+2698750D01*
X-5429250Y+2680151D01*
X-5429250Y+2653849D01*
X-5447849Y+2635250D01*
X-5474151Y+2635250D01*
X-5492750Y+2653849D01*
X-1463039Y+3846146D02*
X-1463039Y+3900854D01*
X-1424354Y+3939539D01*
X-1369646Y+3939539D01*
X-1330961Y+3900854D01*
X-1330961Y+3846146D01*
X-1369646Y+3807461D01*
X-1424354Y+3807461D01*
X-1463039Y+3846146D01*
X-2352039Y+3846146D02*
X-2352039Y+3900854D01*
X-2313354Y+3939539D01*
X-2258646Y+3939539D01*
X-2219961Y+3900854D01*
X-2219961Y+3846146D01*
X-2258646Y+3807461D01*
X-2313354Y+3807461D01*
X-2352039Y+3846146D01*
X-1971039Y+3338146D02*
X-1971039Y+3392854D01*
X-1932354Y+3431539D01*
X-1877646Y+3431539D01*
X-1838961Y+3392854D01*
X-1838961Y+3338146D01*
X-1877646Y+3299461D01*
X-1932354Y+3299461D01*
X-1971039Y+3338146D01*
X-891539Y+3655646D02*
X-891539Y+3710354D01*
X-852854Y+3749039D01*
X-798146Y+3749039D01*
X-759461Y+3710354D01*
X-759461Y+3655646D01*
X-798146Y+3616961D01*
X-852854Y+3616961D01*
X-891539Y+3655646D01*
X-2352039Y+3147646D02*
X-2352039Y+3202354D01*
X-2313354Y+3241039D01*
X-2258646Y+3241039D01*
X-2219961Y+3202354D01*
X-2219961Y+3147646D01*
X-2258646Y+3108961D01*
X-2313354Y+3108961D01*
X-2352039Y+3147646D01*
X-2542539Y+2893646D02*
X-2542539Y+2948354D01*
X-2503854Y+2987039D01*
X-2449146Y+2987039D01*
X-2410461Y+2948354D01*
X-2410461Y+2893646D01*
X-2449146Y+2854961D01*
X-2503854Y+2854961D01*
X-2542539Y+2893646D01*
X-1145539Y+5624146D02*
X-1145539Y+5678854D01*
X-1106854Y+5717539D01*
X-1052146Y+5717539D01*
X-1013461Y+5678854D01*
X-1013461Y+5624146D01*
X-1052146Y+5585461D01*
X-1106854Y+5585461D01*
X-1145539Y+5624146D01*
X-1209039Y+6830646D02*
X-1209039Y+6885354D01*
X-1170354Y+6924039D01*
X-1115646Y+6924039D01*
X-1076961Y+6885354D01*
X-1076961Y+6830646D01*
X-1115646Y+6791961D01*
X-1170354Y+6791961D01*
X-1209039Y+6830646D01*
X-1590039Y+6195646D02*
X-1590039Y+6250354D01*
X-1551354Y+6289039D01*
X-1496646Y+6289039D01*
X-1457961Y+6250354D01*
X-1457961Y+6195646D01*
X-1496646Y+6156961D01*
X-1551354Y+6156961D01*
X-1590039Y+6195646D01*
X-1145539Y+6195646D02*
X-1145539Y+6250354D01*
X-1106854Y+6289039D01*
X-1052146Y+6289039D01*
X-1013461Y+6250354D01*
X-1013461Y+6195646D01*
X-1052146Y+6156961D01*
X-1106854Y+6156961D01*
X-1145539Y+6195646D01*
X-3172461Y+6504354D02*
X-3172461Y+6449646D01*
X-3208607Y+6413500D01*
X-3172461Y+6377354D01*
X-3172461Y+6322646D01*
X-3211146Y+6283961D01*
X-3265854Y+6283961D01*
X-3304539Y+6322646D01*
X-3304539Y+6377354D01*
X-3268393Y+6413500D01*
X-3304539Y+6449646D01*
X-3304539Y+6504354D01*
X-3265854Y+6543039D01*
X-3211146Y+6543039D01*
X-3172461Y+6504354D01*
X-2606039Y+1623646D02*
X-2606039Y+1678354D01*
X-2567354Y+1717039D01*
X-2512646Y+1717039D01*
X-2473961Y+1678354D01*
X-2473961Y+1623646D01*
X-2512646Y+1584961D01*
X-2567354Y+1584961D01*
X-2606039Y+1623646D01*
X-8321039Y+2131646D02*
X-8321039Y+2186354D01*
X-8282354Y+2225039D01*
X-8227646Y+2225039D01*
X-8188961Y+2186354D01*
X-8188961Y+2131646D01*
X-8227646Y+2092961D01*
X-8282354Y+2092961D01*
X-8321039Y+2131646D01*
X-8638539Y+3401646D02*
X-8638539Y+3456354D01*
X-8599854Y+3495039D01*
X-8545146Y+3495039D01*
X-8506461Y+3456354D01*
X-8506461Y+3401646D01*
X-8545146Y+3362961D01*
X-8599854Y+3362961D01*
X-8638539Y+3401646D01*
X-2923539Y+4925646D02*
X-2923539Y+4980354D01*
X-2884854Y+5019039D01*
X-2830146Y+5019039D01*
X-2791461Y+4980354D01*
X-2791461Y+4925646D01*
X-2830146Y+4886961D01*
X-2884854Y+4886961D01*
X-2923539Y+4925646D01*
X-2542539Y+4925646D02*
X-2542539Y+4980354D01*
X-2503854Y+5019039D01*
X-2449146Y+5019039D01*
X-2410461Y+4980354D01*
X-2410461Y+4925646D01*
X-2449146Y+4886961D01*
X-2503854Y+4886961D01*
X-2542539Y+4925646D01*
X-1971039Y+5370146D02*
X-1971039Y+5424854D01*
X-1932354Y+5463539D01*
X-1877646Y+5463539D01*
X-1838961Y+5424854D01*
X-1838961Y+5370146D01*
X-1877646Y+5331461D01*
X-1932354Y+5331461D01*
X-1971039Y+5370146D01*
X-1844039Y+4163646D02*
X-1844039Y+4218354D01*
X-1805354Y+4257039D01*
X-1750646Y+4257039D01*
X-1711961Y+4218354D01*
X-1711961Y+4163646D01*
X-1750646Y+4124961D01*
X-1805354Y+4124961D01*
X-1844039Y+4163646D01*
X-1590039Y+2830146D02*
X-1590039Y+2884854D01*
X-1551354Y+2923539D01*
X-1496646Y+2923539D01*
X-1457961Y+2884854D01*
X-1457961Y+2830146D01*
X-1496646Y+2791461D01*
X-1551354Y+2791461D01*
X-1590039Y+2830146D01*
X+568961Y+1115646D02*
X+568961Y+1170354D01*
X+607646Y+1209039D01*
X+662354Y+1209039D01*
X+701039Y+1170354D01*
X+701039Y+1115646D01*
X+662354Y+1076961D01*
X+607646Y+1076961D01*
X+568961Y+1115646D01*
X-4130039Y+5941646D02*
X-4130039Y+5996354D01*
X-4091354Y+6035039D01*
X-4036646Y+6035039D01*
X-3997961Y+5996354D01*
X-3997961Y+5941646D01*
X-4036646Y+5902961D01*
X-4091354Y+5902961D01*
X-4130039Y+5941646D01*
X-1590039Y+3147646D02*
X-1590039Y+3202354D01*
X-1551354Y+3241039D01*
X-1496646Y+3241039D01*
X-1457961Y+3202354D01*
X-1457961Y+3147646D01*
X-1496646Y+3108961D01*
X-1551354Y+3108961D01*
X-1590039Y+3147646D01*
X-701039Y+3020646D02*
X-701039Y+3075354D01*
X-662354Y+3114039D01*
X-607646Y+3114039D01*
X-568961Y+3075354D01*
X-568961Y+3020646D01*
X-607646Y+2981961D01*
X-662354Y+2981961D01*
X-701039Y+3020646D01*
X-2539Y-535354D02*
X-2539Y-480646D01*
X+36146Y-441961D01*
X+90854Y-441961D01*
X+129539Y-480646D01*
X+129539Y-535354D01*
X+90854Y-574039D01*
X+36146Y-574039D01*
X-2539Y-535354D01*
X-6797039Y+3719146D02*
X-6797039Y+3773854D01*
X-6758354Y+3812539D01*
X-6703646Y+3812539D01*
X-6664961Y+3773854D01*
X-6664961Y+3719146D01*
X-6703646Y+3680461D01*
X-6758354Y+3680461D01*
X-6797039Y+3719146D01*
X-5273039Y+3528646D02*
X-5273039Y+3583354D01*
X-5234354Y+3622039D01*
X-5179646Y+3622039D01*
X-5140961Y+3583354D01*
X-5140961Y+3528646D01*
X-5179646Y+3489961D01*
X-5234354Y+3489961D01*
X-5273039Y+3528646D01*
X-5781039Y+4227146D02*
X-5781039Y+4281854D01*
X-5742354Y+4320539D01*
X-5687646Y+4320539D01*
X-5648961Y+4281854D01*
X-5648961Y+4227146D01*
X-5687646Y+4188461D01*
X-5742354Y+4188461D01*
X-5781039Y+4227146D01*
X-574039Y+2004646D02*
X-574039Y+2059354D01*
X-535354Y+2098039D01*
X-480646Y+2098039D01*
X-441961Y+2059354D01*
X-441961Y+2004646D01*
X-480646Y+1965961D01*
X-535354Y+1965961D01*
X-574039Y+2004646D01*
X-5336539Y+5052646D02*
X-5336539Y+5107354D01*
X-5297854Y+5146039D01*
X-5243146Y+5146039D01*
X-5204461Y+5107354D01*
X-5204461Y+5052646D01*
X-5243146Y+5013961D01*
X-5297854Y+5013961D01*
X-5336539Y+5052646D01*
X-6670039Y+3973146D02*
X-6670039Y+4027854D01*
X-6631354Y+4066539D01*
X-6576646Y+4066539D01*
X-6537961Y+4027854D01*
X-6537961Y+3973146D01*
X-6576646Y+3934461D01*
X-6631354Y+3934461D01*
X-6670039Y+3973146D01*
X-5146039Y+5243146D02*
X-5146039Y+5297854D01*
X-5107354Y+5336539D01*
X-5052646Y+5336539D01*
X-5013961Y+5297854D01*
X-5013961Y+5243146D01*
X-5052646Y+5204461D01*
X-5107354Y+5204461D01*
X-5146039Y+5243146D01*
X-2539Y+2131646D02*
X-2539Y+2186354D01*
X+36146Y+2225039D01*
X+90854Y+2225039D01*
X+129539Y+2186354D01*
X+129539Y+2131646D01*
X+90854Y+2092961D01*
X+36146Y+2092961D01*
X-2539Y+2131646D01*
X-3939539Y+2639646D02*
X-3939539Y+2694354D01*
X-3900854Y+2733039D01*
X-3846146Y+2733039D01*
X-3807461Y+2694354D01*
X-3807461Y+2639646D01*
X-3846146Y+2600961D01*
X-3900854Y+2600961D01*
X-3939539Y+2639646D01*
X-5458461Y+4662854D02*
X-5458461Y+4608146D01*
X-5497146Y+4569461D01*
X-5551854Y+4569461D01*
X-5588000Y+4605607D01*
X-5624146Y+4569461D01*
X-5678854Y+4569461D01*
X-5717539Y+4608146D01*
X-5717539Y+4662854D01*
X-5678854Y+4701539D01*
X-5624146Y+4701539D01*
X-5588000Y+4665393D01*
X-5551854Y+4701539D01*
X-5497146Y+4701539D01*
X-5458461Y+4662854D01*
X-6797039Y+3465146D02*
X-6797039Y+3519854D01*
X-6758354Y+3558539D01*
X-6703646Y+3558539D01*
X-6664961Y+3519854D01*
X-6664961Y+3465146D01*
X-6703646Y+3426461D01*
X-6758354Y+3426461D01*
X-6797039Y+3465146D01*
X-6797039Y+3274646D02*
X-6797039Y+3329354D01*
X-6758354Y+3368039D01*
X-6703646Y+3368039D01*
X-6664961Y+3329354D01*
X-6664961Y+3274646D01*
X-6703646Y+3235961D01*
X-6758354Y+3235961D01*
X-6797039Y+3274646D01*
X-6791961Y+3710354D02*
X-6791961Y+3655646D01*
X-6830646Y+3616961D01*
X-6885354Y+3616961D01*
X-6921500Y+3653107D01*
X-6957646Y+3616961D01*
X-7012354Y+3616961D01*
X-7051039Y+3655646D01*
X-7051039Y+3710354D01*
X-7012354Y+3749039D01*
X-6957646Y+3749039D01*
X-6921500Y+3712893D01*
X-6885354Y+3749039D01*
X-6830646Y+3749039D01*
X-6791961Y+3710354D01*
X-6162039Y+3719146D02*
X-6162039Y+3773854D01*
X-6123354Y+3812539D01*
X-6068646Y+3812539D01*
X-6029961Y+3773854D01*
X-6029961Y+3719146D01*
X-6068646Y+3680461D01*
X-6123354Y+3680461D01*
X-6162039Y+3719146D01*
X-5400039Y+99646D02*
X-5400039Y+154354D01*
X-5361354Y+193039D01*
X-5306646Y+193039D01*
X-5267961Y+154354D01*
X-5267961Y+99646D01*
X-5306646Y+60961D01*
X-5361354Y+60961D01*
X-5400039Y+99646D01*
X-4638039Y-217854D02*
X-4638039Y-163146D01*
X-4599354Y-124461D01*
X-4544646Y-124461D01*
X-4505961Y-163146D01*
X-4505961Y-217854D01*
X-4544646Y-256539D01*
X-4599354Y-256539D01*
X-4638039Y-217854D01*
X-4384039Y+4925646D02*
X-4384039Y+4980354D01*
X-4345354Y+5019039D01*
X-4290646Y+5019039D01*
X-4251961Y+4980354D01*
X-4251961Y+4925646D01*
X-4290646Y+4886961D01*
X-4345354Y+4886961D01*
X-4384039Y+4925646D01*
X-5013961Y+4408854D02*
X-5013961Y+4354146D01*
X-5052646Y+4315461D01*
X-5094495Y+4315461D01*
X-5067549Y+4288515D01*
X-5067549Y+4233807D01*
X-5106234Y+4195122D01*
X-5160942Y+4195122D01*
X-5199627Y+4233807D01*
X-5199627Y+4288515D01*
X-5160942Y+4327200D01*
X-5119093Y+4327200D01*
X-5146039Y+4354146D01*
X-5146039Y+4408854D01*
X-5107354Y+4447539D01*
X-5052646Y+4447539D01*
X-5013961Y+4408854D01*
X-4384039Y+3655646D02*
X-4384039Y+3710354D01*
X-4345354Y+3749039D01*
X-4290646Y+3749039D01*
X-4251961Y+3710354D01*
X-4251961Y+3655646D01*
X-4290646Y+3616961D01*
X-4345354Y+3616961D01*
X-4384039Y+3655646D01*
X-3241039Y+4163646D02*
X-3241039Y+4218354D01*
X-3202354Y+4257039D01*
X-3147646Y+4257039D01*
X-3108961Y+4218354D01*
X-3108961Y+4163646D01*
X-3147646Y+4124961D01*
X-3202354Y+4124961D01*
X-3241039Y+4163646D01*
X-4765039Y+4608146D02*
X-4765039Y+4662854D01*
X-4726354Y+4701539D01*
X-4671646Y+4701539D01*
X-4632961Y+4662854D01*
X-4632961Y+4608146D01*
X-4671646Y+4569461D01*
X-4726354Y+4569461D01*
X-4765039Y+4608146D01*
X-6606539Y+4544646D02*
X-6606539Y+4599354D01*
X-6567854Y+4638039D01*
X-6513146Y+4638039D01*
X-6474461Y+4599354D01*
X-6474461Y+4544646D01*
X-6513146Y+4505961D01*
X-6567854Y+4505961D01*
X-6606539Y+4544646D01*
X-7622539Y+4544646D02*
X-7622539Y+4599354D01*
X-7583854Y+4638039D01*
X-7529146Y+4638039D01*
X-7490461Y+4599354D01*
X-7490461Y+4544646D01*
X-7529146Y+4505961D01*
X-7583854Y+4505961D01*
X-7622539Y+4544646D01*
X-7051039Y+2893646D02*
X-7051039Y+2948354D01*
X-7012354Y+2987039D01*
X-6957646Y+2987039D01*
X-6918961Y+2948354D01*
X-6918961Y+2893646D01*
X-6957646Y+2854961D01*
X-7012354Y+2854961D01*
X-7051039Y+2893646D01*
X-8194039Y+4925646D02*
X-8194039Y+4980354D01*
X-8155354Y+5019039D01*
X-8100646Y+5019039D01*
X-8061961Y+4980354D01*
X-8061961Y+4925646D01*
X-8100646Y+4886961D01*
X-8155354Y+4886961D01*
X-8194039Y+4925646D01*
X-3685539Y+4481146D02*
X-3685539Y+4535854D01*
X-3646854Y+4574539D01*
X-3592146Y+4574539D01*
X-3553461Y+4535854D01*
X-3553461Y+4481146D01*
X-3592146Y+4442461D01*
X-3646854Y+4442461D01*
X-3685539Y+4481146D01*
X-5082539Y+3528646D02*
X-5082539Y+3583354D01*
X-5043854Y+3622039D01*
X-4989146Y+3622039D01*
X-4950461Y+3583354D01*
X-4950461Y+3528646D01*
X-4989146Y+3489961D01*
X-5043854Y+3489961D01*
X-5082539Y+3528646D01*
X-3177539Y+4798646D02*
X-3177539Y+4853354D01*
X-3138854Y+4892039D01*
X-3084146Y+4892039D01*
X-3045461Y+4853354D01*
X-3045461Y+4798646D01*
X-3084146Y+4759961D01*
X-3138854Y+4759961D01*
X-3177539Y+4798646D01*
X-5146039Y+3655646D02*
X-5146039Y+3710354D01*
X-5107354Y+3749039D01*
X-5052646Y+3749039D01*
X-5013961Y+3710354D01*
X-5013961Y+3655646D01*
X-5052646Y+3616961D01*
X-5107354Y+3616961D01*
X-5146039Y+3655646D01*
X-4066539Y+3719146D02*
X-4066539Y+3773854D01*
X-4027854Y+3812539D01*
X-3973146Y+3812539D01*
X-3934461Y+3773854D01*
X-3934461Y+3719146D01*
X-3973146Y+3680461D01*
X-4027854Y+3680461D01*
X-4066539Y+3719146D01*
X-4765039Y+3719146D02*
X-4765039Y+3773854D01*
X-4726354Y+3812539D01*
X-4671646Y+3812539D01*
X-4632961Y+3773854D01*
X-4632961Y+3719146D01*
X-4671646Y+3680461D01*
X-4726354Y+3680461D01*
X-4765039Y+3719146D01*
X-4193539Y+4354146D02*
X-4193539Y+4408854D01*
X-4154854Y+4447539D01*
X-4100146Y+4447539D01*
X-4061461Y+4408854D01*
X-4061461Y+4354146D01*
X-4100146Y+4315461D01*
X-4154854Y+4315461D01*
X-4193539Y+4354146D01*
X-4638039Y+3782646D02*
X-4638039Y+3837354D01*
X-4599354Y+3876039D01*
X-4544646Y+3876039D01*
X-4505961Y+3837354D01*
X-4505961Y+3782646D01*
X-4544646Y+3743961D01*
X-4599354Y+3743961D01*
X-4638039Y+3782646D01*
X-3939539Y+4163646D02*
X-3939539Y+4218354D01*
X-3900854Y+4257039D01*
X-3846146Y+4257039D01*
X-3807461Y+4218354D01*
X-3807461Y+4163646D01*
X-3846146Y+4124961D01*
X-3900854Y+4124961D01*
X-3939539Y+4163646D01*
X-5082539Y+3846146D02*
X-5082539Y+3900854D01*
X-5043854Y+3939539D01*
X-4989146Y+3939539D01*
X-4950461Y+3900854D01*
X-4950461Y+3846146D01*
X-4989146Y+3807461D01*
X-5043854Y+3807461D01*
X-5082539Y+3846146D01*
X-8257539Y+5370146D02*
X-8257539Y+5424854D01*
X-8218854Y+5463539D01*
X-8164146Y+5463539D01*
X-8125461Y+5424854D01*
X-8125461Y+5370146D01*
X-8164146Y+5331461D01*
X-8218854Y+5331461D01*
X-8257539Y+5370146D01*
X-9083039Y+2195146D02*
X-9083039Y+2249854D01*
X-9044354Y+2288539D01*
X-8989646Y+2288539D01*
X-8950961Y+2249854D01*
X-8950961Y+2195146D01*
X-8989646Y+2156461D01*
X-9044354Y+2156461D01*
X-9083039Y+2195146D01*
X-2072639Y+1496646D02*
X-2072639Y+1551354D01*
X-2033954Y+1590039D01*
X-1979246Y+1590039D01*
X-1940561Y+1551354D01*
X-1940561Y+1496646D01*
X-1979246Y+1457961D01*
X-2033954Y+1457961D01*
X-2072639Y+1496646D01*
X-3495039Y+1496646D02*
X-3495039Y+1551354D01*
X-3456354Y+1590039D01*
X-3401646Y+1590039D01*
X-3362961Y+1551354D01*
X-3362961Y+1496646D01*
X-3401646Y+1457961D01*
X-3456354Y+1457961D01*
X-3495039Y+1496646D01*
X-6860539Y+1433146D02*
X-6860539Y+1487854D01*
X-6821854Y+1526539D01*
X-6767146Y+1526539D01*
X-6728461Y+1487854D01*
X-6728461Y+1433146D01*
X-6767146Y+1394461D01*
X-6821854Y+1394461D01*
X-6860539Y+1433146D01*
X-5590539Y+3020646D02*
X-5590539Y+3075354D01*
X-5551854Y+3114039D01*
X-5497146Y+3114039D01*
X-5458461Y+3075354D01*
X-5458461Y+3020646D01*
X-5497146Y+2981961D01*
X-5551854Y+2981961D01*
X-5590539Y+3020646D01*
X-4765039Y+2957146D02*
X-4765039Y+3011854D01*
X-4726354Y+3050539D01*
X-4671646Y+3050539D01*
X-4632961Y+3011854D01*
X-4632961Y+2957146D01*
X-4671646Y+2918461D01*
X-4726354Y+2918461D01*
X-4765039Y+2957146D01*
X-4765039Y+2639646D02*
X-4765039Y+2694354D01*
X-4726354Y+2733039D01*
X-4671646Y+2733039D01*
X-4632961Y+2694354D01*
X-4632961Y+2639646D01*
X-4671646Y+2600961D01*
X-4726354Y+2600961D01*
X-4765039Y+2639646D01*
X-4765039Y+2385646D02*
X-4765039Y+2440354D01*
X-4726354Y+2479039D01*
X-4671646Y+2479039D01*
X-4632961Y+2440354D01*
X-4632961Y+2385646D01*
X-4671646Y+2346961D01*
X-4726354Y+2346961D01*
X-4765039Y+2385646D01*
X-857250Y+6273349D02*
X-857250Y+6299651D01*
X-838651Y+6318250D01*
X-812349Y+6318250D01*
X-793750Y+6299651D01*
X-793750Y+6273349D01*
X-812349Y+6254750D01*
X-838651Y+6254750D01*
X-857250Y+6273349D01*
X-5366572Y+5807805D02*
X-5366572Y+5834107D01*
X-5347973Y+5852706D01*
X-5321671Y+5852706D01*
X-5303072Y+5834107D01*
X-5303072Y+5807805D01*
X-5321671Y+5789206D01*
X-5347973Y+5789206D01*
X-5366572Y+5807805D01*
X-901750Y+5866849D02*
X-901750Y+5893151D01*
X-883151Y+5911750D01*
X-856849Y+5911750D01*
X-838250Y+5893151D01*
X-838250Y+5866849D01*
X-856849Y+5848250D01*
X-883151Y+5848250D01*
X-901750Y+5866849D01*
X-3812539Y+2830146D02*
X-3812539Y+2884854D01*
X-3773854Y+2923539D01*
X-3719146Y+2923539D01*
X-3680461Y+2884854D01*
X-3680461Y+2830146D01*
X-3719146Y+2791461D01*
X-3773854Y+2791461D01*
X-3812539Y+2830146D01*
X-6289039Y+3846146D02*
X-6289039Y+3900854D01*
X-6250354Y+3939539D01*
X-6195646Y+3939539D01*
X-6156961Y+3900854D01*
X-6156961Y+3846146D01*
X-6195646Y+3807461D01*
X-6250354Y+3807461D01*
X-6289039Y+3846146D01*
X-6289039Y+2703146D02*
X-6289039Y+2757854D01*
X-6250354Y+2796539D01*
X-6195646Y+2796539D01*
X-6156961Y+2757854D01*
X-6156961Y+2703146D01*
X-6195646Y+2664461D01*
X-6250354Y+2664461D01*
X-6289039Y+2703146D01*
X-6860539Y+3084146D02*
X-6860539Y+3138854D01*
X-6821854Y+3177539D01*
X-6767146Y+3177539D01*
X-6728461Y+3138854D01*
X-6728461Y+3084146D01*
X-6767146Y+3045461D01*
X-6821854Y+3045461D01*
X-6860539Y+3084146D01*
X-320039Y+5687646D02*
X-320039Y+5742354D01*
X-281354Y+5781039D01*
X-226646Y+5781039D01*
X-187961Y+5742354D01*
X-187961Y+5687646D01*
X-226646Y+5648961D01*
X-281354Y+5648961D01*
X-320039Y+5687646D01*
X-5209539Y+3992646D02*
X-5209539Y+4047354D01*
X-5170854Y+4086039D01*
X-5116146Y+4086039D01*
X-5077461Y+4047354D01*
X-5077461Y+3992646D01*
X-5116146Y+3953961D01*
X-5170854Y+3953961D01*
X-5209539Y+3992646D01*
X-5064030Y+4574400D02*
X-5064030Y+4629108D01*
X-5025345Y+4667793D01*
X-4970637Y+4667793D01*
X-4931952Y+4629108D01*
X-4931952Y+4574400D01*
X-4970637Y+4535715D01*
X-5025345Y+4535715D01*
X-5064030Y+4574400D01*
X-5231728Y+5376075D02*
X-5231728Y+5430783D01*
X-5193043Y+5469468D01*
X-5138335Y+5469468D01*
X-5099650Y+5430783D01*
X-5099650Y+5376075D01*
X-5138335Y+5337390D01*
X-5193043Y+5337390D01*
X-5231728Y+5376075D01*
X-5209539Y+4481146D02*
X-5209539Y+4535854D01*
X-5170854Y+4574539D01*
X-5116146Y+4574539D01*
X-5077461Y+4535854D01*
X-5077461Y+4481146D01*
X-5116146Y+4442461D01*
X-5170854Y+4442461D01*
X-5209539Y+4481146D01*
X-3876039Y+3846146D02*
X-3876039Y+3900854D01*
X-3837354Y+3939539D01*
X-3782646Y+3939539D01*
X-3743961Y+3900854D01*
X-3743961Y+3846146D01*
X-3782646Y+3807461D01*
X-3837354Y+3807461D01*
X-3876039Y+3846146D01*
X-5844539Y+3465146D02*
X-5844539Y+3519854D01*
X-5805854Y+3558539D01*
X-5751146Y+3558539D01*
X-5712461Y+3519854D01*
X-5712461Y+3465146D01*
X-5751146Y+3426461D01*
X-5805854Y+3426461D01*
X-5844539Y+3465146D01*
X-8067039Y+4544646D02*
X-8067039Y+4599354D01*
X-8028354Y+4638039D01*
X-7973646Y+4638039D01*
X-7934961Y+4599354D01*
X-7934961Y+4544646D01*
X-7973646Y+4505961D01*
X-8028354Y+4505961D01*
X-8067039Y+4544646D01*
X-6126039Y+4062646D02*
X-6126039Y+4117354D01*
X-6087354Y+4156039D01*
X-6032646Y+4156039D01*
X-5993961Y+4117354D01*
X-5993961Y+4062646D01*
X-6032646Y+4023961D01*
X-6087354Y+4023961D01*
X-6126039Y+4062646D01*
X-6162039Y+3909646D02*
X-6162039Y+3964354D01*
X-6123354Y+4003039D01*
X-6068646Y+4003039D01*
X-6029961Y+3964354D01*
X-6029961Y+3909646D01*
X-6068646Y+3870961D01*
X-6123354Y+3870961D01*
X-6162039Y+3909646D01*
X-6098539Y+2639646D02*
X-6098539Y+2694354D01*
X-6059854Y+2733039D01*
X-6005146Y+2733039D01*
X-5966461Y+2694354D01*
X-5966461Y+2639646D01*
X-6005146Y+2600961D01*
X-6059854Y+2600961D01*
X-6098539Y+2639646D01*
X-5844539Y+3846146D02*
X-5844539Y+3900854D01*
X-5805854Y+3939539D01*
X-5751146Y+3939539D01*
X-5712461Y+3900854D01*
X-5712461Y+3846146D01*
X-5751146Y+3807461D01*
X-5805854Y+3807461D01*
X-5844539Y+3846146D01*
X-6287236Y+3489664D02*
X-6287236Y+3544372D01*
X-6248551Y+3583057D01*
X-6193843Y+3583057D01*
X-6155158Y+3544372D01*
X-6155158Y+3489664D01*
X-6193843Y+3450979D01*
X-6248551Y+3450979D01*
X-6287236Y+3489664D01*
X-6456039Y+2792646D02*
X-6456039Y+2847354D01*
X-6417354Y+2886039D01*
X-6362646Y+2886039D01*
X-6323961Y+2847354D01*
X-6323961Y+2792646D01*
X-6362646Y+2753961D01*
X-6417354Y+2753961D01*
X-6456039Y+2792646D01*
X-7890000Y+3906660D02*
X-7890000Y+3960000D01*
X-7890000Y+4013340D02*
X-7890000Y+3960000D01*
X-7836660Y+3960000D02*
X-7890000Y+3960000D01*
X-7943340Y+3960000D02*
X-7890000Y+3960000D01*
X-8780000Y+6489500D02*
X-8780000Y+6426000D01*
X-8780000Y+6362500D02*
X-8780000Y+6426000D01*
X-8843500Y+6426000D02*
X-8780000Y+6426000D01*
X-8716500Y+6426000D02*
X-8780000Y+6426000D01*
X-5950000Y+6146500D02*
X-5950000Y+6210000D01*
X-5950000Y+6273500D02*
X-5950000Y+6210000D01*
X-5886500Y+6210000D02*
X-5950000Y+6210000D01*
X-6013500Y+6210000D02*
X-5950000Y+6210000D01*
D70*
X-8780000Y+7188000D03*
X-8780000Y+6934000D03*
X-8780000Y+6680000D03*
X-8780000Y+6426000D03*
X-5260000Y+1800000D03*
X-4752000Y+1800000D03*
X-6970000Y+6180000D03*
X-7224000Y+6180000D03*
X-6320000Y+2400000D03*
X-6066000Y+2400000D03*
D22*
X-8019423Y+8463085D03*
X-7511423Y+8463085D03*
D39*
X-5320000Y+7010000D03*
D27*
X-5120000Y+7010000D03*
D29*
X-5950000Y+6210000D03*
X-5950000Y+6464000D03*
D70*
X-4810000Y+6390000D03*
X-4810000Y+6136000D03*
D29*
X-8010000Y+1000000D03*
X-7756000Y+1000000D03*
D70*
X-7060000Y+570000D03*
X-7314000Y+570000D03*
D39*
X-6320000Y+1050000D03*
D27*
X-6520000Y+1050000D03*
D29*
X-2844000Y+1080000D03*
X-2590000Y+1080000D03*
D70*
X-1484000Y+1520000D03*
X-1230000Y+1520000D03*
D39*
X-1874000Y+1110000D03*
D27*
X-2074000Y+1110000D03*
D22*
X+3280000Y+1750000D03*
X+3280000Y+2258000D03*
X+3290000Y+2790000D03*
X+3290000Y+3298000D03*
X+3280000Y+3820000D03*
X+3280000Y+4328000D03*
X+3290000Y+4870000D03*
X+3290000Y+5378000D03*
D31*
X+2236000Y+7010000D03*
X+1474000Y+7010000D03*
X+458000Y+7010000D03*
X+204000Y+7010000D03*
X+2276000Y+7650000D03*
X+1514000Y+7650000D03*
X+498000Y+7650000D03*
X+244000Y+7650000D03*
X+2266000Y+6330000D03*
X+1504000Y+6330000D03*
X+488000Y+6330000D03*
X+234000Y+6330000D03*
X+2236000Y+5700000D03*
X+1474000Y+5700000D03*
X+458000Y+5700000D03*
X+204000Y+5700000D03*
X+2266000Y+5020000D03*
X+1504000Y+5020000D03*
X+488000Y+5020000D03*
X+234000Y+5020000D03*
X+2276000Y+4410000D03*
X+1514000Y+4410000D03*
X+498000Y+4410000D03*
X+244000Y+4410000D03*
X-314000Y+7640000D03*
X-1076000Y+7640000D03*
X-2092000Y+7640000D03*
X-2346000Y+7640000D03*
X-314000Y+7030000D03*
X-1076000Y+7030000D03*
X-2092000Y+7030000D03*
X-2346000Y+7030000D03*
D22*
X+3280000Y+5910000D03*
X+3280000Y+6418000D03*
X+3280000Y+6940000D03*
X+3280000Y+7448000D03*
X+3280000Y+7980000D03*
X+3280000Y+8488000D03*
X+1760000Y+8680000D03*
X+2268000Y+8680000D03*
X+680000Y+8680000D03*
X+1188000Y+8680000D03*
X-370000Y+8670000D03*
X+138000Y+8670000D03*
X-1430000Y+8670000D03*
X-922000Y+8670000D03*
X-2480000Y+8680000D03*
X-1972000Y+8680000D03*
X+3280000Y+1230000D03*
X+3280000Y+722000D03*
X+3280000Y+214000D03*
X+3280000Y-294000D03*
X-4040000Y+8680000D03*
X-3532000Y+8680000D03*
X-3024000Y+8680000D03*
X-5590000Y+8680000D03*
X-5082000Y+8680000D03*
X-4574000Y+8680000D03*
X+660000Y-1560000D03*
X+1168000Y-1560000D03*
X+1676000Y-1560000D03*
X+2184000Y-1560000D03*
X-1420000Y-1550000D03*
X-912000Y-1550000D03*
X-404000Y-1550000D03*
X+104000Y-1550000D03*
X-3500000Y-1540000D03*
X-2992000Y-1540000D03*
X-2484000Y-1540000D03*
X-1976000Y-1540000D03*
X-5070000Y-1550000D03*
X-4562000Y-1550000D03*
X-4054000Y-1550000D03*
X-6700000Y-1550000D03*
X-6192000Y-1550000D03*
X-5684000Y-1550000D03*
D70*
X-9330000Y+1100000D03*
X-9076000Y+1100000D03*
X-8644000Y+1110000D03*
X-8390000Y+1110000D03*
D31*
X-8349000Y-770000D03*
X-8349000Y-520000D03*
X-8549000Y-520000D03*
X-8549000Y-770000D03*
D34*
X-8820000Y-1247000D03*
X-8820000Y-43000D03*
D36*
X-9390000Y+8960000D03*
X-9370000Y-1830000D03*
X+3430000Y-1810000D03*
X-4470000Y+7830000D03*
X+3420000Y+9150000D03*
D37*
X-9980000Y-2290000D02*
X+3960000Y-2290000D01*
X+3960000Y+9460000D01*
X-9980000Y+9460000D01*
X-9980000Y-2290000D01*
M02*
