G04 PROTEUS GERBER X2 FILE*
%TF.GenerationSoftware,Labcenter,Proteus,8.9-SP0-Build27865*%
%TF.CreationDate,2020-09-22T21:26:54+00:00*%
%TF.FileFunction,Soldermask,Top*%
%TF.FilePolarity,Negative*%
%TF.Part,Single*%
%TF.SameCoordinates,{f185f003-b8c0-4bff-ac61-c446508f75ad}*%
%FSLAX45Y45*%
%MOMM*%
G01*
%TA.AperFunction,Material*%
%ADD52C,1.016000*%
%AMPPAD047*
4,1,4,
-0.749300,-0.152400,
-0.749300,0.152400,
0.749300,0.152400,
0.749300,-0.152400,
-0.749300,-0.152400,
0*%
%TA.AperFunction,Material*%
%ADD53PPAD047*%
%AMPPAD048*
4,1,4,
-0.152400,0.749300,
0.152400,0.749300,
0.152400,-0.749300,
-0.152400,-0.749300,
-0.152400,0.749300,
0*%
%ADD54PPAD048*%
%ADD55C,3.000000*%
%AMPPAD050*
4,1,4,
-0.735000,-0.535000,
-0.735000,0.535000,
0.735000,0.535000,
0.735000,-0.535000,
-0.735000,-0.535000,
0*%
%TA.AperFunction,Material*%
%ADD56PPAD050*%
%AMPPAD051*
4,1,36,
-0.508000,0.762000,
0.508000,0.762000,
0.533970,0.759470,
0.557980,0.752200,
0.579580,0.740650,
0.598290,0.725290,
0.613650,0.706570,
0.625200,0.684980,
0.632470,0.660970,
0.635000,0.635000,
0.635000,-0.635000,
0.632470,-0.660970,
0.625200,-0.684980,
0.613650,-0.706570,
0.598290,-0.725290,
0.579580,-0.740650,
0.557980,-0.752200,
0.533970,-0.759470,
0.508000,-0.762000,
-0.508000,-0.762000,
-0.533970,-0.759470,
-0.557980,-0.752200,
-0.579580,-0.740650,
-0.598290,-0.725290,
-0.613650,-0.706570,
-0.625200,-0.684980,
-0.632470,-0.660970,
-0.635000,-0.635000,
-0.635000,0.635000,
-0.632470,0.660970,
-0.625200,0.684980,
-0.613650,0.706570,
-0.598290,0.725290,
-0.579580,0.740650,
-0.557980,0.752200,
-0.533970,0.759470,
-0.508000,0.762000,
0*%
%ADD57PPAD051*%
%TA.AperFunction,Material*%
%ADD58C,1.651000*%
%TA.AperFunction,Material*%
%ADD59C,2.286000*%
%AMPPAD054*
4,1,36,
0.762000,0.508000,
0.762000,-0.508000,
0.759470,-0.533970,
0.752200,-0.557980,
0.740650,-0.579580,
0.725290,-0.598290,
0.706570,-0.613650,
0.684980,-0.625200,
0.660970,-0.632470,
0.635000,-0.635000,
-0.635000,-0.635000,
-0.660970,-0.632470,
-0.684980,-0.625200,
-0.706570,-0.613650,
-0.725290,-0.598290,
-0.740650,-0.579580,
-0.752200,-0.557980,
-0.759470,-0.533970,
-0.762000,-0.508000,
-0.762000,0.508000,
-0.759470,0.533970,
-0.752200,0.557980,
-0.740650,0.579580,
-0.725290,0.598290,
-0.706570,0.613650,
-0.684980,0.625200,
-0.660970,0.632470,
-0.635000,0.635000,
0.635000,0.635000,
0.660970,0.632470,
0.684980,0.625200,
0.706570,0.613650,
0.725290,0.598290,
0.740650,0.579580,
0.752200,0.557980,
0.759470,0.533970,
0.762000,0.508000,
0*%
%TA.AperFunction,Material*%
%ADD60PPAD054*%
%AMPPAD055*
4,1,4,
0.469900,-0.723900,
-0.469900,-0.723900,
-0.469900,0.723900,
0.469900,0.723900,
0.469900,-0.723900,
0*%
%ADD61PPAD055*%
%AMPPAD056*
4,1,4,
0.723900,0.469900,
0.723900,-0.469900,
-0.723900,-0.469900,
-0.723900,0.469900,
0.723900,0.469900,
0*%
%ADD62PPAD056*%
%ADD63C,3.302000*%
%AMPPAD058*
4,1,4,
0.350000,0.775000,
0.350000,-0.775000,
-0.350000,-0.775000,
-0.350000,0.775000,
0.350000,0.775000,
0*%
%TA.AperFunction,Material*%
%ADD64PPAD058*%
%AMPPAD059*
4,1,36,
-0.395000,0.655000,
0.395000,0.655000,
0.409310,0.653610,
0.422550,0.649600,
0.434450,0.643230,
0.444760,0.634760,
0.453230,0.624450,
0.459600,0.612550,
0.463610,0.599310,
0.465000,0.585000,
0.465000,-0.585000,
0.463610,-0.599310,
0.459600,-0.612550,
0.453230,-0.624450,
0.444760,-0.634760,
0.434450,-0.643230,
0.422550,-0.649600,
0.409310,-0.653610,
0.395000,-0.655000,
-0.395000,-0.655000,
-0.409310,-0.653610,
-0.422550,-0.649600,
-0.434450,-0.643230,
-0.444760,-0.634760,
-0.453230,-0.624450,
-0.459600,-0.612550,
-0.463610,-0.599310,
-0.465000,-0.585000,
-0.465000,0.585000,
-0.463610,0.599310,
-0.459600,0.612550,
-0.453230,0.624450,
-0.444760,0.634760,
-0.434450,0.643230,
-0.422550,0.649600,
-0.409310,0.653610,
-0.395000,0.655000,
0*%
%TA.AperFunction,Material*%
%ADD65PPAD059*%
%AMPPAD060*
4,1,36,
-1.520000,0.655000,
1.520000,0.655000,
1.540450,0.653010,
1.559360,0.647290,
1.576360,0.638190,
1.591090,0.626090,
1.603190,0.611360,
1.612280,0.594360,
1.618010,0.575450,
1.620000,0.555000,
1.620000,-0.555000,
1.618010,-0.575450,
1.612280,-0.594360,
1.603190,-0.611360,
1.591090,-0.626090,
1.576360,-0.638190,
1.559360,-0.647290,
1.540450,-0.653010,
1.520000,-0.655000,
-1.520000,-0.655000,
-1.540450,-0.653010,
-1.559360,-0.647290,
-1.576360,-0.638190,
-1.591090,-0.626090,
-1.603190,-0.611360,
-1.612280,-0.594360,
-1.618010,-0.575450,
-1.620000,-0.555000,
-1.620000,0.555000,
-1.618010,0.575450,
-1.612280,0.594360,
-1.603190,0.611360,
-1.591090,0.626090,
-1.576360,0.638190,
-1.559360,0.647290,
-1.540450,0.653010,
-1.520000,0.655000,
0*%
%ADD66PPAD060*%
%AMPPAD061*
4,1,4,
-0.560000,0.560000,
0.560000,0.560000,
0.560000,-0.560000,
-0.560000,-0.560000,
-0.560000,0.560000,
0*%
%TA.AperFunction,Material*%
%ADD67PPAD061*%
%ADD68C,1.120000*%
%AMPPAD063*
4,1,4,
-0.901700,-0.622300,
-0.901700,0.622300,
0.901700,0.622300,
0.901700,-0.622300,
-0.901700,-0.622300,
0*%
%ADD69PPAD063*%
%AMPPAD064*
4,1,36,
-1.143000,-1.016000,
-1.143000,1.016000,
-1.140470,1.041970,
-1.133200,1.065980,
-1.121650,1.087580,
-1.106290,1.106290,
-1.087570,1.121650,
-1.065980,1.133200,
-1.041970,1.140470,
-1.016000,1.143000,
1.016000,1.143000,
1.041970,1.140470,
1.065980,1.133200,
1.087570,1.121650,
1.106290,1.106290,
1.121650,1.087580,
1.133200,1.065980,
1.140470,1.041970,
1.143000,1.016000,
1.143000,-1.016000,
1.140470,-1.041970,
1.133200,-1.065980,
1.121650,-1.087580,
1.106290,-1.106290,
1.087570,-1.121650,
1.065980,-1.133200,
1.041970,-1.140470,
1.016000,-1.143000,
-1.016000,-1.143000,
-1.041970,-1.140470,
-1.065980,-1.133200,
-1.087570,-1.121650,
-1.106290,-1.106290,
-1.121650,-1.087580,
-1.133200,-1.065980,
-1.140470,-1.041970,
-1.143000,-1.016000,
0*%
%ADD74PPAD064*%
%AMPPAD065*
4,1,36,
-1.016000,1.143000,
1.016000,1.143000,
1.041970,1.140470,
1.065980,1.133200,
1.087580,1.121650,
1.106290,1.106290,
1.121650,1.087570,
1.133200,1.065980,
1.140470,1.041970,
1.143000,1.016000,
1.143000,-1.016000,
1.140470,-1.041970,
1.133200,-1.065980,
1.121650,-1.087570,
1.106290,-1.106290,
1.087580,-1.121650,
1.065980,-1.133200,
1.041970,-1.140470,
1.016000,-1.143000,
-1.016000,-1.143000,
-1.041970,-1.140470,
-1.065980,-1.133200,
-1.087580,-1.121650,
-1.106290,-1.106290,
-1.121650,-1.087570,
-1.133200,-1.065980,
-1.140470,-1.041970,
-1.143000,-1.016000,
-1.143000,1.016000,
-1.140470,1.041970,
-1.133200,1.065980,
-1.121650,1.087570,
-1.106290,1.106290,
-1.087580,1.121650,
-1.065980,1.133200,
-1.041970,1.140470,
-1.016000,1.143000,
0*%
%ADD75PPAD065*%
%AMPPAD066*
4,1,4,
0.622300,-0.901700,
-0.622300,-0.901700,
-0.622300,0.901700,
0.622300,0.901700,
0.622300,-0.901700,
0*%
%ADD76PPAD066*%
%AMPPAD067*
4,1,4,
-0.900000,0.325000,
0.900000,0.325000,
0.900000,-0.325000,
-0.900000,-0.325000,
-0.900000,0.325000,
0*%
%TA.AperFunction,Material*%
%ADD77PPAD067*%
%AMPPAD068*
4,1,4,
-0.760000,0.325000,
0.760000,0.325000,
0.760000,-0.325000,
-0.760000,-0.325000,
-0.760000,0.325000,
0*%
%ADD78PPAD068*%
%TA.AperFunction,Material*%
%ADD79C,1.500000*%
%AMPPAD070*
4,1,4,
-0.325000,-0.900000,
-0.325000,0.900000,
0.325000,0.900000,
0.325000,-0.900000,
-0.325000,-0.900000,
0*%
%TA.AperFunction,Material*%
%ADD80PPAD070*%
%AMPPAD071*
4,1,4,
-0.228600,0.876300,
0.228600,0.876300,
0.228600,-0.876300,
-0.228600,-0.876300,
-0.228600,0.876300,
0*%
%TA.AperFunction,Material*%
%ADD81PPAD071*%
%TA.AperFunction,Material*%
%ADD82C,3.570000*%
%AMPPAD073*
4,1,4,
1.250000,1.350000,
1.250000,-1.350000,
-1.250000,-1.350000,
-1.250000,1.350000,
1.250000,1.350000,
0*%
%TA.AperFunction,Material*%
%ADD83PPAD073*%
%TA.AperFunction,Profile*%
%ADD37C,0.203200*%
%TD.AperFunction*%
D52*
X-8001000Y+2286000D03*
X-8636000Y+2222500D03*
X-5207000Y+4953000D03*
X-7112000Y+4064000D03*
X-6540500Y+4191000D03*
X-5969000Y+3429000D03*
X-4508500Y+2476500D03*
X-8001000Y+2159000D03*
X+508000Y+1524000D03*
X-6286500Y+5969000D03*
X-8509000Y+5397500D03*
X+825500Y+1905000D03*
X-5207000Y+2413000D03*
X-6985000Y+2667000D03*
X-4254500Y+4127500D03*
X-8636000Y+1778000D03*
X-5588000Y+2413000D03*
X-9017000Y+1905000D03*
X-7048500Y+4699000D03*
X-7874000Y+5715000D03*
X-8255000Y+2540000D03*
X-6223000Y+7112000D03*
X-8509000Y+2921000D03*
X-6159500Y+4953000D03*
X-9334500Y+3429000D03*
X-1143000Y+3048000D03*
X-8763000Y+2540000D03*
X-2540000Y+1905000D03*
X-3175000Y+2032000D03*
X-7112000Y+4191000D03*
X-8382000Y+2032000D03*
X-3683000Y+3683000D03*
X+381000Y+2794000D03*
X-4572000Y+1270000D03*
X-5270500Y+4635500D03*
X-381000Y+2794000D03*
X-8636000Y+5016500D03*
X-6985000Y+6604000D03*
X-8128000Y+1778000D03*
X-8382000Y+3302000D03*
X+0Y+2794000D03*
X+1079500Y+2794000D03*
X-3683000Y+4127500D03*
X-5270500Y-698500D03*
X-4191000Y+3683000D03*
X-2667000Y+5842000D03*
X-2667000Y+6096000D03*
X-2667000Y+6350000D03*
X-2667000Y+5588000D03*
X-3683000Y+3048000D03*
X-6096000Y+4635500D03*
X-8763000Y+3302000D03*
X-8001000Y+5715000D03*
X-4254500Y+1206500D03*
X-7747000Y+4953000D03*
X-9271000Y+3746500D03*
X-6223000Y+4191000D03*
X-9017000Y+4191000D03*
X-3619500Y+3429000D03*
X-4699000Y+3937000D03*
X-8636000Y+2540000D03*
X-5969000Y+3048000D03*
X-5461000Y+2667000D03*
X-4953000Y+6286500D03*
X-1397000Y+3873500D03*
X-2286000Y+3873500D03*
X-1905000Y+3365500D03*
X-825500Y+3683000D03*
X-2286000Y+3175000D03*
X-2476500Y+2921000D03*
X-1079500Y+5651500D03*
X-1143000Y+6858000D03*
X-1524000Y+6223000D03*
X-1079500Y+6223000D03*
X-3238500Y+6350000D03*
X-3238500Y+6477000D03*
X-2540000Y+1651000D03*
X-8255000Y+2159000D03*
X-8572500Y+3429000D03*
X-2349500Y+7175500D03*
X-2857500Y+4953000D03*
X-2476500Y+4953000D03*
X-1905000Y+5397500D03*
X-1778000Y+4191000D03*
X-1524000Y+2857500D03*
X+635000Y+1143000D03*
X-4064000Y+5969000D03*
X-1524000Y+3175000D03*
X-635000Y+3048000D03*
X+63500Y-508000D03*
X-6731000Y+3746500D03*
X-5207000Y+3556000D03*
X-5715000Y+4254500D03*
X-508000Y+2032000D03*
X-5270500Y+5080000D03*
X-6604000Y+4000500D03*
X-5080000Y+5270500D03*
X+63500Y+2159000D03*
X-3873500Y+2667000D03*
X-5651500Y+4635500D03*
X-6731000Y+3492500D03*
X-6731000Y+3302000D03*
X-6985000Y+3683000D03*
X-6858000Y+3683000D03*
X+2286000Y+3810000D03*
X+2921000Y+4000500D03*
X-6096000Y+3746500D03*
X-5334000Y+127000D03*
X-4572000Y-190500D03*
X-6223000Y-1143000D03*
X-4318000Y+4953000D03*
X-5080000Y+4953000D03*
X-5080000Y+4381500D03*
X-4318000Y+3683000D03*
X-3175000Y+4191000D03*
X-4699000Y+4635500D03*
X-6540500Y+4572000D03*
X-7556500Y+4572000D03*
X-6985000Y+2921000D03*
X-8128000Y+4953000D03*
X-3619500Y+4508500D03*
X-5016500Y+3556000D03*
X-3111500Y+4826000D03*
X-5080000Y+3683000D03*
X-4000500Y+3746500D03*
X-4699000Y+3746500D03*
X-4127500Y+4381500D03*
X-4572000Y+3810000D03*
X-3873500Y+4191000D03*
X-5016500Y+3873500D03*
X-8191500Y+5397500D03*
X-8890000Y+2540000D03*
X-9017000Y+2222500D03*
X-2006600Y+1524000D03*
X-3429000Y+1524000D03*
X-6794500Y+1460500D03*
X-5524500Y+3048000D03*
X-4699000Y+2984500D03*
X-4699000Y+2667000D03*
X-4699000Y+2413000D03*
X-825500Y+6286500D03*
X-5334822Y+5820956D03*
X-870000Y+5880000D03*
X+1651000Y+8064500D03*
X-5524500Y+4635500D03*
X-3746500Y+2857500D03*
X-6223000Y+3873500D03*
X-6223000Y+2730500D03*
X-6794500Y+3111500D03*
X-5133588Y+4261161D03*
X-254000Y+5715000D03*
X-5143500Y+4020000D03*
X-4997991Y+4601754D03*
X-5165689Y+5403429D03*
X-5143500Y+4508500D03*
X-3810000Y+3873500D03*
X-5778500Y+3492500D03*
X-8001000Y+4572000D03*
X-6060000Y+4090000D03*
X-6096000Y+3937000D03*
X-6032500Y+2667000D03*
X-5778500Y+3873500D03*
X-6221197Y+3517018D03*
X-6390000Y+2820000D03*
D53*
X-6390000Y+4630000D03*
X-6390000Y+4580000D03*
X-6390000Y+4530000D03*
X-6390000Y+4480000D03*
X-6390000Y+4430000D03*
X-6390000Y+4380000D03*
X-6390000Y+4330000D03*
X-6390000Y+4280000D03*
X-6390000Y+4230000D03*
X-6390000Y+4180000D03*
X-6390000Y+4130000D03*
X-6390000Y+4080000D03*
X-6390000Y+4030000D03*
X-6390000Y+3980000D03*
X-6390000Y+3930000D03*
X-6390000Y+3880000D03*
X-6390000Y+3830000D03*
X-6390000Y+3780000D03*
X-6390000Y+3730000D03*
X-6390000Y+3680000D03*
X-6390000Y+3630000D03*
X-6390000Y+3580000D03*
X-6390000Y+3530000D03*
X-6390000Y+3480000D03*
X-6390000Y+3430000D03*
D54*
X-6220000Y+3260000D03*
X-6170000Y+3260000D03*
X-6120000Y+3260000D03*
X-6070000Y+3260000D03*
X-6020000Y+3260000D03*
X-5970000Y+3260000D03*
X-5920000Y+3260000D03*
X-5870000Y+3260000D03*
X-5820000Y+3260000D03*
X-5770000Y+3260000D03*
X-5720000Y+3260000D03*
X-5670000Y+3260000D03*
X-5620000Y+3260000D03*
X-5570000Y+3260000D03*
X-5520000Y+3260000D03*
X-5470000Y+3260000D03*
X-5420000Y+3260000D03*
X-5370000Y+3260000D03*
X-5320000Y+3260000D03*
X-5270000Y+3260000D03*
X-5220000Y+3260000D03*
X-5170000Y+3260000D03*
X-5120000Y+3260000D03*
X-5070000Y+3260000D03*
X-5020000Y+3260000D03*
D53*
X-4850000Y+3430000D03*
X-4850000Y+3480000D03*
X-4850000Y+3530000D03*
X-4850000Y+3580000D03*
X-4850000Y+3630000D03*
X-4850000Y+3680000D03*
X-4850000Y+3730000D03*
X-4850000Y+3780000D03*
X-4850000Y+3830000D03*
X-4850000Y+3880000D03*
X-4850000Y+3930000D03*
X-4850000Y+3980000D03*
X-4850000Y+4030000D03*
X-4850000Y+4080000D03*
X-4850000Y+4130000D03*
X-4850000Y+4180000D03*
X-4850000Y+4230000D03*
X-4850000Y+4280000D03*
X-4850000Y+4330000D03*
X-4850000Y+4380000D03*
X-4850000Y+4430000D03*
X-4850000Y+4480000D03*
X-4850000Y+4530000D03*
X-4850000Y+4580000D03*
X-4850000Y+4630000D03*
D54*
X-5020000Y+4800000D03*
X-5070000Y+4800000D03*
X-5120000Y+4800000D03*
X-5170000Y+4800000D03*
X-5220000Y+4800000D03*
X-5270000Y+4800000D03*
X-5320000Y+4800000D03*
X-5370000Y+4800000D03*
X-5420000Y+4800000D03*
X-5470000Y+4800000D03*
X-5520000Y+4800000D03*
X-5570000Y+4800000D03*
X-5620000Y+4800000D03*
X-5670000Y+4800000D03*
X-5720000Y+4800000D03*
X-5770000Y+4800000D03*
X-5820000Y+4800000D03*
X-5870000Y+4800000D03*
X-5920000Y+4800000D03*
X-5970000Y+4800000D03*
X-6020000Y+4800000D03*
X-6070000Y+4800000D03*
X-6120000Y+4800000D03*
X-6170000Y+4800000D03*
X-6220000Y+4800000D03*
D55*
X-4850000Y+4800000D03*
X-6390000Y+3260000D03*
D56*
X-4220000Y+3830000D03*
X-4220000Y+3994000D03*
X-5460000Y+2550000D03*
X-5460000Y+2386000D03*
X-6910000Y+4274000D03*
X-6910000Y+4110000D03*
D57*
X-6540000Y+6130000D03*
X-6326640Y+6130000D03*
D58*
X-7690000Y+3960000D03*
X-7890000Y+3960000D03*
X-7690000Y+4160000D03*
X-7890000Y+4160000D03*
X-7690000Y+4360000D03*
X-7890000Y+4360000D03*
D59*
X-8780000Y+7188000D03*
X-8780000Y+6934000D03*
X-8780000Y+6680000D03*
X-8780000Y+6426000D03*
D56*
X-6900000Y+4842000D03*
X-6900000Y+4678000D03*
D59*
X-5260000Y+1800000D03*
X-4752000Y+1800000D03*
D60*
X-5090000Y+2580000D03*
X-5090000Y+2366640D03*
X-4580000Y+2370000D03*
X-4580000Y+2583360D03*
D61*
X-7040000Y+6730000D03*
X-7240000Y+6730000D03*
D59*
X-6970000Y+6180000D03*
X-7224000Y+6180000D03*
D62*
X-6940000Y+3250000D03*
X-6940000Y+3050000D03*
D59*
X-6320000Y+2400000D03*
X-6066000Y+2400000D03*
D63*
X-8019423Y+8463085D03*
X-7511423Y+8463085D03*
D64*
X-7729500Y+5545000D03*
X-7856500Y+5545000D03*
X-7983500Y+5545000D03*
X-8110500Y+5545000D03*
X-8110500Y+4815000D03*
X-7983500Y+4815000D03*
X-7856500Y+4815000D03*
X-7729500Y+4815000D03*
D65*
X-7359000Y+1416000D03*
X-7130000Y+1416000D03*
X-6901000Y+1416000D03*
D66*
X-7130000Y+2084000D03*
D65*
X-6329000Y+7096000D03*
X-6100000Y+7096000D03*
X-5871000Y+7096000D03*
D66*
X-6100000Y+7764000D03*
D65*
X-2543000Y+1786000D03*
X-2314000Y+1786000D03*
X-2085000Y+1786000D03*
D66*
X-2314000Y+2454000D03*
D67*
X-5320000Y+7010000D03*
D68*
X-5120000Y+7010000D03*
D69*
X-5390000Y+7700000D03*
X-5130000Y+7700000D03*
D74*
X-5950000Y+6210000D03*
X-5950000Y+6464000D03*
D61*
X-5500000Y+6450000D03*
X-5300000Y+6450000D03*
D59*
X-4810000Y+6390000D03*
X-4810000Y+6136000D03*
D75*
X-8010000Y+1000000D03*
X-7756000Y+1000000D03*
D61*
X-7290000Y+1040000D03*
X-7090000Y+1040000D03*
D59*
X-7060000Y+570000D03*
X-7314000Y+570000D03*
D67*
X-6320000Y+1050000D03*
D68*
X-6520000Y+1050000D03*
D75*
X-2844000Y+1080000D03*
X-2590000Y+1080000D03*
D59*
X-1484000Y+1520000D03*
X-1230000Y+1520000D03*
D61*
X-1536000Y+2200000D03*
X-1336000Y+2200000D03*
D76*
X-3054000Y+1770000D03*
X-3054000Y+2030000D03*
D67*
X-1874000Y+1110000D03*
D68*
X-2074000Y+1110000D03*
D77*
X-2765000Y+3984500D03*
X-2765000Y+3857500D03*
X-2765000Y+3730500D03*
X-2765000Y+3603500D03*
X-2765000Y+3476500D03*
X-2765000Y+3349500D03*
X-2765000Y+3222500D03*
X-2765000Y+3095500D03*
X-2135000Y+3095500D03*
X-2135000Y+3222500D03*
X-2135000Y+3349500D03*
X-2135000Y+3476500D03*
X-2135000Y+3603500D03*
X-2135000Y+3730500D03*
X-2135000Y+3857500D03*
X-2135000Y+3984500D03*
D78*
X-1011000Y+3944500D03*
X-1011000Y+3817500D03*
X-1011000Y+3690500D03*
X-1011000Y+3563500D03*
X-1011000Y+3436500D03*
X-1011000Y+3309500D03*
X-1011000Y+3182500D03*
X-1011000Y+3055500D03*
X-469000Y+3055500D03*
X-469000Y+3182500D03*
X-469000Y+3309500D03*
X-469000Y+3436500D03*
X-469000Y+3563500D03*
X-469000Y+3690500D03*
X-469000Y+3817500D03*
X-469000Y+3944500D03*
D61*
X-3500000Y+3070000D03*
X-3300000Y+3070000D03*
X-3530000Y+4090000D03*
X-3330000Y+4090000D03*
X-3490000Y+3750000D03*
X-3290000Y+3750000D03*
X-3490000Y+3420000D03*
X-3290000Y+3420000D03*
X-1490000Y+4050000D03*
X-1690000Y+4050000D03*
X-1510000Y+3690000D03*
X-1710000Y+3690000D03*
X-1520000Y+3310000D03*
X-1720000Y+3310000D03*
X-2280000Y+2790000D03*
X-2480000Y+2790000D03*
D63*
X+3280000Y+1750000D03*
X+3280000Y+2258000D03*
X+3290000Y+2790000D03*
X+3290000Y+3298000D03*
X+3280000Y+3820000D03*
X+3280000Y+4328000D03*
X+3290000Y+4870000D03*
X+3290000Y+5378000D03*
D77*
X-2815000Y+5615500D03*
X-2815000Y+5742500D03*
X-2815000Y+5869500D03*
X-2815000Y+5996500D03*
X-2815000Y+6123500D03*
X-2815000Y+6250500D03*
X-2815000Y+6377500D03*
X-2815000Y+6504500D03*
X-3445000Y+6504500D03*
X-3445000Y+6377500D03*
X-3445000Y+6250500D03*
X-3445000Y+6123500D03*
X-3445000Y+5996500D03*
X-3445000Y+5869500D03*
X-3445000Y+5742500D03*
X-3445000Y+5615500D03*
X-645000Y+5505500D03*
X-645000Y+5632500D03*
X-645000Y+5759500D03*
X-645000Y+5886500D03*
X-645000Y+6013500D03*
X-645000Y+6140500D03*
X-645000Y+6267500D03*
X-645000Y+6394500D03*
X-1275000Y+6394500D03*
X-1275000Y+6267500D03*
X-1275000Y+6140500D03*
X-1275000Y+6013500D03*
X-1275000Y+5886500D03*
X-1275000Y+5759500D03*
X-1275000Y+5632500D03*
X-1275000Y+5505500D03*
D79*
X+2236000Y+7010000D03*
X+1474000Y+7010000D03*
X+458000Y+7010000D03*
X+204000Y+7010000D03*
X+2276000Y+7650000D03*
X+1514000Y+7650000D03*
X+498000Y+7650000D03*
X+244000Y+7650000D03*
X+2266000Y+6330000D03*
X+1504000Y+6330000D03*
X+488000Y+6330000D03*
X+234000Y+6330000D03*
X+2236000Y+5700000D03*
X+1474000Y+5700000D03*
X+458000Y+5700000D03*
X+204000Y+5700000D03*
X+2266000Y+5020000D03*
X+1504000Y+5020000D03*
X+488000Y+5020000D03*
X+234000Y+5020000D03*
X+2276000Y+4410000D03*
X+1514000Y+4410000D03*
X+498000Y+4410000D03*
X+244000Y+4410000D03*
X-314000Y+7640000D03*
X-1076000Y+7640000D03*
X-2092000Y+7640000D03*
X-2346000Y+7640000D03*
X-314000Y+7030000D03*
X-1076000Y+7030000D03*
X-2092000Y+7030000D03*
X-2346000Y+7030000D03*
D63*
X+3280000Y+5910000D03*
X+3280000Y+6418000D03*
X+3280000Y+6940000D03*
X+3280000Y+7448000D03*
X+3280000Y+7980000D03*
X+3280000Y+8488000D03*
X+1760000Y+8680000D03*
X+2268000Y+8680000D03*
X+680000Y+8680000D03*
X+1188000Y+8680000D03*
X-370000Y+8670000D03*
X+138000Y+8670000D03*
X-1430000Y+8670000D03*
X-922000Y+8670000D03*
X-2480000Y+8680000D03*
X-1972000Y+8680000D03*
D61*
X-2250000Y+5680000D03*
X-2450000Y+5680000D03*
X-2260000Y+6020000D03*
X-2460000Y+6020000D03*
X-2270000Y+6340000D03*
X-2470000Y+6340000D03*
X-2290000Y+6650000D03*
X-2490000Y+6650000D03*
X-1750000Y+6370000D03*
X-1550000Y+6370000D03*
X-1750000Y+5430000D03*
X-1550000Y+5430000D03*
X-1750000Y+5750000D03*
X-1550000Y+5750000D03*
X-1750000Y+6070000D03*
X-1550000Y+6070000D03*
X-230000Y+5540000D03*
X-430000Y+5540000D03*
X-230000Y+5870000D03*
X-430000Y+5870000D03*
X-210000Y+6210000D03*
X-410000Y+6210000D03*
X-200000Y+6550000D03*
X-400000Y+6550000D03*
X-4020000Y+5520000D03*
X-3820000Y+5520000D03*
X-4020000Y+6130000D03*
X-3820000Y+6130000D03*
X-4020000Y+6500000D03*
X-3820000Y+6500000D03*
X-4000000Y+5840000D03*
X-3800000Y+5840000D03*
D63*
X+3280000Y+1230000D03*
X+3280000Y+722000D03*
X+3280000Y+214000D03*
X+3280000Y-294000D03*
X-4040000Y+8680000D03*
X-3532000Y+8680000D03*
X-3024000Y+8680000D03*
X-5590000Y+8680000D03*
X-5082000Y+8680000D03*
X-4574000Y+8680000D03*
X+660000Y-1560000D03*
X+1168000Y-1560000D03*
X+1676000Y-1560000D03*
X+2184000Y-1560000D03*
X-1420000Y-1550000D03*
X-912000Y-1550000D03*
X-404000Y-1550000D03*
X+104000Y-1550000D03*
X-3500000Y-1540000D03*
X-2992000Y-1540000D03*
X-2484000Y-1540000D03*
X-1976000Y-1540000D03*
D80*
X-94500Y+1725000D03*
X+32500Y+1725000D03*
X+159500Y+1725000D03*
X+286500Y+1725000D03*
X+413500Y+1725000D03*
X+540500Y+1725000D03*
X+667500Y+1725000D03*
X+794500Y+1725000D03*
X+794500Y+2355000D03*
X+667500Y+2355000D03*
X+540500Y+2355000D03*
X+413500Y+2355000D03*
X+286500Y+2355000D03*
X+159500Y+2355000D03*
X+32500Y+2355000D03*
X-94500Y+2355000D03*
X-4455500Y+595000D03*
X-4582500Y+595000D03*
X-4709500Y+595000D03*
X-4836500Y+595000D03*
X-4963500Y+595000D03*
X-5090500Y+595000D03*
X-5217500Y+595000D03*
X-5344500Y+595000D03*
X-5344500Y-35000D03*
X-5217500Y-35000D03*
X-5090500Y-35000D03*
X-4963500Y-35000D03*
X-4836500Y-35000D03*
X-4709500Y-35000D03*
X-4582500Y-35000D03*
X-4455500Y-35000D03*
D63*
X-5070000Y-1550000D03*
X-4562000Y-1550000D03*
X-4054000Y-1550000D03*
X-6700000Y-1550000D03*
X-6192000Y-1550000D03*
X-5684000Y-1550000D03*
D81*
X-8110000Y+3100000D03*
X-8175000Y+3100000D03*
X-8240000Y+3100000D03*
X-8305000Y+3100000D03*
X-8370000Y+3100000D03*
X-8435000Y+3100000D03*
X-8500000Y+3100000D03*
X-8565000Y+3100000D03*
X-8630000Y+3100000D03*
X-8695000Y+3100000D03*
X-8760000Y+3100000D03*
X-8825000Y+3100000D03*
X-8890000Y+3100000D03*
X-8955000Y+3100000D03*
X-8955000Y+2380000D03*
X-8890000Y+2380000D03*
X-8825000Y+2380000D03*
X-8760000Y+2380000D03*
X-8695000Y+2380000D03*
X-8630000Y+2380000D03*
X-8565000Y+2380000D03*
X-8500000Y+2380000D03*
X-8435000Y+2380000D03*
X-8370000Y+2380000D03*
X-8305000Y+2380000D03*
X-8240000Y+2380000D03*
X-8175000Y+2380000D03*
X-8110000Y+2380000D03*
D59*
X-9330000Y+1100000D03*
X-9076000Y+1100000D03*
X-8644000Y+1110000D03*
X-8390000Y+1110000D03*
D62*
X+2290000Y+1620000D03*
X+2290000Y+1420000D03*
X-4630000Y+1110000D03*
X-4630000Y+910000D03*
X-4460000Y-530000D03*
X-4460000Y-330000D03*
X-4800000Y-530000D03*
X-4800000Y-330000D03*
X-5590000Y-330000D03*
X-5590000Y-530000D03*
X-5250000Y-340000D03*
X-5250000Y-540000D03*
X-4880000Y+910000D03*
X-4880000Y+1110000D03*
X-5200000Y+910000D03*
X-5200000Y+1110000D03*
X-8420000Y+3460000D03*
X-8420000Y+3660000D03*
X-8740000Y+3460000D03*
X-8740000Y+3660000D03*
X-7780000Y+3250000D03*
X-7780000Y+3050000D03*
D60*
X-8120000Y+1886640D03*
X-8120000Y+2100000D03*
X-8600000Y+2100000D03*
X-8600000Y+1886640D03*
D62*
X-8700000Y+4460000D03*
X-8700000Y+4260000D03*
X-9160000Y+4440000D03*
X-9160000Y+4240000D03*
X+180000Y+1140000D03*
X+180000Y+1340000D03*
X-210000Y+2840000D03*
X-210000Y+2640000D03*
X+130000Y+2840000D03*
X+130000Y+2640000D03*
X+950000Y+2640000D03*
X+950000Y+2840000D03*
X+590000Y+2640000D03*
X+590000Y+2840000D03*
D60*
X-8460000Y+5060000D03*
X-8460000Y+5273360D03*
D62*
X-7708148Y-150709D03*
X-7708148Y-350709D03*
X-7718148Y-940709D03*
X-7718148Y-1140709D03*
D69*
X-7270000Y+2480000D03*
X-7010000Y+2480000D03*
D79*
X-8349000Y-770000D03*
X-8349000Y-520000D03*
X-8549000Y-520000D03*
X-8549000Y-770000D03*
D82*
X-8820000Y-1247000D03*
X-8820000Y-43000D03*
D62*
X-8080000Y+3460000D03*
X-8080000Y+3660000D03*
X-4280000Y+1100000D03*
X-4280000Y+900000D03*
D60*
X-8900000Y+2090000D03*
X-8900000Y+1876640D03*
X-9190000Y+3633360D03*
X-9190000Y+3420000D03*
D83*
X-9460000Y+7210000D03*
X-9460000Y+6890000D03*
X-9460000Y+6570000D03*
X-9460000Y+6250000D03*
D37*
X-9980000Y-2290000D02*
X+3960000Y-2290000D01*
X+3960000Y+9460000D01*
X-9980000Y+9460000D01*
X-9980000Y-2290000D01*
M02*
