G04 PROTEUS GERBER X2 FILE*
%TF.GenerationSoftware,Labcenter,Proteus,8.9-SP0-Build27865*%
%TF.CreationDate,2020-09-22T21:26:54+00:00*%
%TF.FileFunction,Paste,Top*%
%TF.FilePolarity,Positive*%
%TF.Part,Single*%
%TF.SameCoordinates,{f185f003-b8c0-4bff-ac61-c446508f75ad}*%
%FSLAX45Y45*%
%MOMM*%
G01*
%TA.AperFunction,Material*%
%ADD84R,1.498600X0.304800*%
%ADD85R,0.304800X1.498600*%
%TA.AperFunction,Material*%
%ADD86R,1.470000X1.070000*%
%ADD87R,1.016000X1.270000*%
%ADD88R,1.270000X1.016000*%
%ADD89R,0.939800X1.447800*%
%ADD90R,1.447800X0.939800*%
%TA.AperFunction,Material*%
%ADD91R,0.700000X1.550000*%
%AMPPAD059*
4,1,36,
-0.395000,0.655000,
0.395000,0.655000,
0.409310,0.653610,
0.422550,0.649600,
0.434450,0.643230,
0.444760,0.634760,
0.453230,0.624450,
0.459600,0.612550,
0.463610,0.599310,
0.465000,0.585000,
0.465000,-0.585000,
0.463610,-0.599310,
0.459600,-0.612550,
0.453230,-0.624450,
0.444760,-0.634760,
0.434450,-0.643230,
0.422550,-0.649600,
0.409310,-0.653610,
0.395000,-0.655000,
-0.395000,-0.655000,
-0.409310,-0.653610,
-0.422550,-0.649600,
-0.434450,-0.643230,
-0.444760,-0.634760,
-0.453230,-0.624450,
-0.459600,-0.612550,
-0.463610,-0.599310,
-0.465000,-0.585000,
-0.465000,0.585000,
-0.463610,0.599310,
-0.459600,0.612550,
-0.453230,0.624450,
-0.444760,0.634760,
-0.434450,0.643230,
-0.422550,0.649600,
-0.409310,0.653610,
-0.395000,0.655000,
0*%
%TA.AperFunction,Material*%
%ADD65PPAD059*%
%AMPPAD060*
4,1,36,
-1.520000,0.655000,
1.520000,0.655000,
1.540450,0.653010,
1.559360,0.647290,
1.576360,0.638190,
1.591090,0.626090,
1.603190,0.611360,
1.612280,0.594360,
1.618010,0.575450,
1.620000,0.555000,
1.620000,-0.555000,
1.618010,-0.575450,
1.612280,-0.594360,
1.603190,-0.611360,
1.591090,-0.626090,
1.576360,-0.638190,
1.559360,-0.647290,
1.540450,-0.653010,
1.520000,-0.655000,
-1.520000,-0.655000,
-1.540450,-0.653010,
-1.559360,-0.647290,
-1.576360,-0.638190,
-1.591090,-0.626090,
-1.603190,-0.611360,
-1.612280,-0.594360,
-1.618010,-0.575450,
-1.620000,-0.555000,
-1.620000,0.555000,
-1.618010,0.575450,
-1.612280,0.594360,
-1.603190,0.611360,
-1.591090,0.626090,
-1.576360,0.638190,
-1.559360,0.647290,
-1.540450,0.653010,
-1.520000,0.655000,
0*%
%ADD66PPAD060*%
%TA.AperFunction,Material*%
%ADD92R,1.803400X1.244600*%
%ADD93R,1.244600X1.803400*%
%TA.AperFunction,Material*%
%ADD94R,1.800000X0.650000*%
%ADD95R,1.520000X0.650000*%
%ADD96R,0.650000X1.800000*%
%TA.AperFunction,Material*%
%ADD97R,0.457200X1.752600*%
%TA.AperFunction,Material*%
%ADD98R,2.500000X2.700000*%
%TA.AperFunction,Profile*%
%ADD37C,0.203200*%
%TD.AperFunction*%
D84*
X-6390000Y+4630000D03*
X-6390000Y+4580000D03*
X-6390000Y+4530000D03*
X-6390000Y+4480000D03*
X-6390000Y+4430000D03*
X-6390000Y+4380000D03*
X-6390000Y+4330000D03*
X-6390000Y+4280000D03*
X-6390000Y+4230000D03*
X-6390000Y+4180000D03*
X-6390000Y+4130000D03*
X-6390000Y+4080000D03*
X-6390000Y+4030000D03*
X-6390000Y+3980000D03*
X-6390000Y+3930000D03*
X-6390000Y+3880000D03*
X-6390000Y+3830000D03*
X-6390000Y+3780000D03*
X-6390000Y+3730000D03*
X-6390000Y+3680000D03*
X-6390000Y+3630000D03*
X-6390000Y+3580000D03*
X-6390000Y+3530000D03*
X-6390000Y+3480000D03*
X-6390000Y+3430000D03*
D85*
X-6220000Y+3260000D03*
X-6170000Y+3260000D03*
X-6120000Y+3260000D03*
X-6070000Y+3260000D03*
X-6020000Y+3260000D03*
X-5970000Y+3260000D03*
X-5920000Y+3260000D03*
X-5870000Y+3260000D03*
X-5820000Y+3260000D03*
X-5770000Y+3260000D03*
X-5720000Y+3260000D03*
X-5670000Y+3260000D03*
X-5620000Y+3260000D03*
X-5570000Y+3260000D03*
X-5520000Y+3260000D03*
X-5470000Y+3260000D03*
X-5420000Y+3260000D03*
X-5370000Y+3260000D03*
X-5320000Y+3260000D03*
X-5270000Y+3260000D03*
X-5220000Y+3260000D03*
X-5170000Y+3260000D03*
X-5120000Y+3260000D03*
X-5070000Y+3260000D03*
X-5020000Y+3260000D03*
D84*
X-4850000Y+3430000D03*
X-4850000Y+3480000D03*
X-4850000Y+3530000D03*
X-4850000Y+3580000D03*
X-4850000Y+3630000D03*
X-4850000Y+3680000D03*
X-4850000Y+3730000D03*
X-4850000Y+3780000D03*
X-4850000Y+3830000D03*
X-4850000Y+3880000D03*
X-4850000Y+3930000D03*
X-4850000Y+3980000D03*
X-4850000Y+4030000D03*
X-4850000Y+4080000D03*
X-4850000Y+4130000D03*
X-4850000Y+4180000D03*
X-4850000Y+4230000D03*
X-4850000Y+4280000D03*
X-4850000Y+4330000D03*
X-4850000Y+4380000D03*
X-4850000Y+4430000D03*
X-4850000Y+4480000D03*
X-4850000Y+4530000D03*
X-4850000Y+4580000D03*
X-4850000Y+4630000D03*
D85*
X-5020000Y+4800000D03*
X-5070000Y+4800000D03*
X-5120000Y+4800000D03*
X-5170000Y+4800000D03*
X-5220000Y+4800000D03*
X-5270000Y+4800000D03*
X-5320000Y+4800000D03*
X-5370000Y+4800000D03*
X-5420000Y+4800000D03*
X-5470000Y+4800000D03*
X-5520000Y+4800000D03*
X-5570000Y+4800000D03*
X-5620000Y+4800000D03*
X-5670000Y+4800000D03*
X-5720000Y+4800000D03*
X-5770000Y+4800000D03*
X-5820000Y+4800000D03*
X-5870000Y+4800000D03*
X-5920000Y+4800000D03*
X-5970000Y+4800000D03*
X-6020000Y+4800000D03*
X-6070000Y+4800000D03*
X-6120000Y+4800000D03*
X-6170000Y+4800000D03*
X-6220000Y+4800000D03*
D86*
X-4220000Y+3830000D03*
X-4220000Y+3994000D03*
X-5460000Y+2550000D03*
X-5460000Y+2386000D03*
X-6910000Y+4274000D03*
X-6910000Y+4110000D03*
D87*
X-6540000Y+6130000D03*
X-6326640Y+6130000D03*
D86*
X-6900000Y+4842000D03*
X-6900000Y+4678000D03*
D88*
X-5090000Y+2580000D03*
X-5090000Y+2366640D03*
X-4580000Y+2370000D03*
X-4580000Y+2583360D03*
D89*
X-7040000Y+6730000D03*
X-7240000Y+6730000D03*
D90*
X-6940000Y+3250000D03*
X-6940000Y+3050000D03*
D91*
X-7729500Y+5545000D03*
X-7856500Y+5545000D03*
X-7983500Y+5545000D03*
X-8110500Y+5545000D03*
X-8110500Y+4815000D03*
X-7983500Y+4815000D03*
X-7856500Y+4815000D03*
X-7729500Y+4815000D03*
D65*
X-7359000Y+1416000D03*
X-7130000Y+1416000D03*
X-6901000Y+1416000D03*
D66*
X-7130000Y+2084000D03*
D65*
X-6329000Y+7096000D03*
X-6100000Y+7096000D03*
X-5871000Y+7096000D03*
D66*
X-6100000Y+7764000D03*
D65*
X-2543000Y+1786000D03*
X-2314000Y+1786000D03*
X-2085000Y+1786000D03*
D66*
X-2314000Y+2454000D03*
D92*
X-5390000Y+7700000D03*
X-5130000Y+7700000D03*
D89*
X-5500000Y+6450000D03*
X-5300000Y+6450000D03*
X-7290000Y+1040000D03*
X-7090000Y+1040000D03*
X-1536000Y+2200000D03*
X-1336000Y+2200000D03*
D93*
X-3054000Y+1770000D03*
X-3054000Y+2030000D03*
D94*
X-2765000Y+3984500D03*
X-2765000Y+3857500D03*
X-2765000Y+3730500D03*
X-2765000Y+3603500D03*
X-2765000Y+3476500D03*
X-2765000Y+3349500D03*
X-2765000Y+3222500D03*
X-2765000Y+3095500D03*
X-2135000Y+3095500D03*
X-2135000Y+3222500D03*
X-2135000Y+3349500D03*
X-2135000Y+3476500D03*
X-2135000Y+3603500D03*
X-2135000Y+3730500D03*
X-2135000Y+3857500D03*
X-2135000Y+3984500D03*
D95*
X-1011000Y+3944500D03*
X-1011000Y+3817500D03*
X-1011000Y+3690500D03*
X-1011000Y+3563500D03*
X-1011000Y+3436500D03*
X-1011000Y+3309500D03*
X-1011000Y+3182500D03*
X-1011000Y+3055500D03*
X-469000Y+3055500D03*
X-469000Y+3182500D03*
X-469000Y+3309500D03*
X-469000Y+3436500D03*
X-469000Y+3563500D03*
X-469000Y+3690500D03*
X-469000Y+3817500D03*
X-469000Y+3944500D03*
D89*
X-3500000Y+3070000D03*
X-3300000Y+3070000D03*
X-3530000Y+4090000D03*
X-3330000Y+4090000D03*
X-3490000Y+3750000D03*
X-3290000Y+3750000D03*
X-3490000Y+3420000D03*
X-3290000Y+3420000D03*
X-1490000Y+4050000D03*
X-1690000Y+4050000D03*
X-1510000Y+3690000D03*
X-1710000Y+3690000D03*
X-1520000Y+3310000D03*
X-1720000Y+3310000D03*
X-2280000Y+2790000D03*
X-2480000Y+2790000D03*
D94*
X-2815000Y+5615500D03*
X-2815000Y+5742500D03*
X-2815000Y+5869500D03*
X-2815000Y+5996500D03*
X-2815000Y+6123500D03*
X-2815000Y+6250500D03*
X-2815000Y+6377500D03*
X-2815000Y+6504500D03*
X-3445000Y+6504500D03*
X-3445000Y+6377500D03*
X-3445000Y+6250500D03*
X-3445000Y+6123500D03*
X-3445000Y+5996500D03*
X-3445000Y+5869500D03*
X-3445000Y+5742500D03*
X-3445000Y+5615500D03*
X-645000Y+5505500D03*
X-645000Y+5632500D03*
X-645000Y+5759500D03*
X-645000Y+5886500D03*
X-645000Y+6013500D03*
X-645000Y+6140500D03*
X-645000Y+6267500D03*
X-645000Y+6394500D03*
X-1275000Y+6394500D03*
X-1275000Y+6267500D03*
X-1275000Y+6140500D03*
X-1275000Y+6013500D03*
X-1275000Y+5886500D03*
X-1275000Y+5759500D03*
X-1275000Y+5632500D03*
X-1275000Y+5505500D03*
D89*
X-2250000Y+5680000D03*
X-2450000Y+5680000D03*
X-2260000Y+6020000D03*
X-2460000Y+6020000D03*
X-2270000Y+6340000D03*
X-2470000Y+6340000D03*
X-2290000Y+6650000D03*
X-2490000Y+6650000D03*
X-1750000Y+6370000D03*
X-1550000Y+6370000D03*
X-1750000Y+5430000D03*
X-1550000Y+5430000D03*
X-1750000Y+5750000D03*
X-1550000Y+5750000D03*
X-1750000Y+6070000D03*
X-1550000Y+6070000D03*
X-230000Y+5540000D03*
X-430000Y+5540000D03*
X-230000Y+5870000D03*
X-430000Y+5870000D03*
X-210000Y+6210000D03*
X-410000Y+6210000D03*
X-200000Y+6550000D03*
X-400000Y+6550000D03*
X-4020000Y+5520000D03*
X-3820000Y+5520000D03*
X-4020000Y+6130000D03*
X-3820000Y+6130000D03*
X-4020000Y+6500000D03*
X-3820000Y+6500000D03*
X-4000000Y+5840000D03*
X-3800000Y+5840000D03*
D96*
X-94500Y+1725000D03*
X+32500Y+1725000D03*
X+159500Y+1725000D03*
X+286500Y+1725000D03*
X+413500Y+1725000D03*
X+540500Y+1725000D03*
X+667500Y+1725000D03*
X+794500Y+1725000D03*
X+794500Y+2355000D03*
X+667500Y+2355000D03*
X+540500Y+2355000D03*
X+413500Y+2355000D03*
X+286500Y+2355000D03*
X+159500Y+2355000D03*
X+32500Y+2355000D03*
X-94500Y+2355000D03*
X-4455500Y+595000D03*
X-4582500Y+595000D03*
X-4709500Y+595000D03*
X-4836500Y+595000D03*
X-4963500Y+595000D03*
X-5090500Y+595000D03*
X-5217500Y+595000D03*
X-5344500Y+595000D03*
X-5344500Y-35000D03*
X-5217500Y-35000D03*
X-5090500Y-35000D03*
X-4963500Y-35000D03*
X-4836500Y-35000D03*
X-4709500Y-35000D03*
X-4582500Y-35000D03*
X-4455500Y-35000D03*
D97*
X-8110000Y+3100000D03*
X-8175000Y+3100000D03*
X-8240000Y+3100000D03*
X-8305000Y+3100000D03*
X-8370000Y+3100000D03*
X-8435000Y+3100000D03*
X-8500000Y+3100000D03*
X-8565000Y+3100000D03*
X-8630000Y+3100000D03*
X-8695000Y+3100000D03*
X-8760000Y+3100000D03*
X-8825000Y+3100000D03*
X-8890000Y+3100000D03*
X-8955000Y+3100000D03*
X-8955000Y+2380000D03*
X-8890000Y+2380000D03*
X-8825000Y+2380000D03*
X-8760000Y+2380000D03*
X-8695000Y+2380000D03*
X-8630000Y+2380000D03*
X-8565000Y+2380000D03*
X-8500000Y+2380000D03*
X-8435000Y+2380000D03*
X-8370000Y+2380000D03*
X-8305000Y+2380000D03*
X-8240000Y+2380000D03*
X-8175000Y+2380000D03*
X-8110000Y+2380000D03*
D90*
X+2290000Y+1620000D03*
X+2290000Y+1420000D03*
X-4630000Y+1110000D03*
X-4630000Y+910000D03*
X-4460000Y-530000D03*
X-4460000Y-330000D03*
X-4800000Y-530000D03*
X-4800000Y-330000D03*
X-5590000Y-330000D03*
X-5590000Y-530000D03*
X-5250000Y-340000D03*
X-5250000Y-540000D03*
X-4880000Y+910000D03*
X-4880000Y+1110000D03*
X-5200000Y+910000D03*
X-5200000Y+1110000D03*
X-8420000Y+3460000D03*
X-8420000Y+3660000D03*
X-8740000Y+3460000D03*
X-8740000Y+3660000D03*
X-7780000Y+3250000D03*
X-7780000Y+3050000D03*
D88*
X-8120000Y+1886640D03*
X-8120000Y+2100000D03*
X-8600000Y+2100000D03*
X-8600000Y+1886640D03*
D90*
X-8700000Y+4460000D03*
X-8700000Y+4260000D03*
X-9160000Y+4440000D03*
X-9160000Y+4240000D03*
X+180000Y+1140000D03*
X+180000Y+1340000D03*
X-210000Y+2840000D03*
X-210000Y+2640000D03*
X+130000Y+2840000D03*
X+130000Y+2640000D03*
X+950000Y+2640000D03*
X+950000Y+2840000D03*
X+590000Y+2640000D03*
X+590000Y+2840000D03*
D88*
X-8460000Y+5060000D03*
X-8460000Y+5273360D03*
D90*
X-7708148Y-150709D03*
X-7708148Y-350709D03*
X-7718148Y-940709D03*
X-7718148Y-1140709D03*
D92*
X-7270000Y+2480000D03*
X-7010000Y+2480000D03*
D90*
X-8080000Y+3460000D03*
X-8080000Y+3660000D03*
X-4280000Y+1100000D03*
X-4280000Y+900000D03*
D88*
X-8900000Y+2090000D03*
X-8900000Y+1876640D03*
X-9190000Y+3633360D03*
X-9190000Y+3420000D03*
D98*
X-9460000Y+7210000D03*
X-9460000Y+6890000D03*
X-9460000Y+6570000D03*
X-9460000Y+6250000D03*
D37*
X-9980000Y-2290000D02*
X+3960000Y-2290000D01*
X+3960000Y+9460000D01*
X-9980000Y+9460000D01*
X-9980000Y-2290000D01*
M02*
