G04 PROTEUS GERBER X2 FILE*
%TF.GenerationSoftware,Labcenter,Proteus,8.9-SP0-Build27865*%
%TF.CreationDate,2020-09-22T21:26:54+00:00*%
%TF.FileFunction,Copper,L1,Top*%
%TF.FilePolarity,Positive*%
%TF.Part,Single*%
%TF.SameCoordinates,{f185f003-b8c0-4bff-ac61-c446508f75ad}*%
%FSLAX45Y45*%
%MOMM*%
G01*
%TA.AperFunction,Conductor*%
%ADD10C,0.304800*%
%ADD11C,0.254000*%
%ADD12C,0.635000*%
%TA.AperFunction,ViaPad*%
%ADD13C,0.762000*%
%TA.AperFunction,SMDPad,CuDef*%
%ADD14R,1.498600X0.304800*%
%ADD15R,0.304800X1.498600*%
%TA.AperFunction,FiducialPad,Global*%
%ADD16C,1.000000*%
%TA.AperFunction,SMDPad,CuDef*%
%ADD17R,1.470000X1.070000*%
%ADD18R,1.016000X1.270000*%
%TA.AperFunction,WasherPad*%
%ADD19C,1.397000*%
%TA.AperFunction,ComponentPad*%
%ADD70C,2.032000*%
%TA.AperFunction,SMDPad,CuDef*%
%ADD71R,1.270000X1.016000*%
%ADD20R,0.939800X1.447800*%
%ADD21R,1.447800X0.939800*%
%TA.AperFunction,ComponentPad*%
%ADD22C,3.048000*%
%TA.AperFunction,SMDPad,CuDef*%
%ADD23R,0.700000X1.550000*%
%AMPPAD016*
4,1,36,
-0.395000,0.655000,
0.395000,0.655000,
0.409310,0.653610,
0.422550,0.649600,
0.434450,0.643230,
0.444760,0.634760,
0.453230,0.624450,
0.459600,0.612550,
0.463610,0.599310,
0.465000,0.585000,
0.465000,-0.585000,
0.463610,-0.599310,
0.459600,-0.612550,
0.453230,-0.624450,
0.444760,-0.634760,
0.434450,-0.643230,
0.422550,-0.649600,
0.409310,-0.653610,
0.395000,-0.655000,
-0.395000,-0.655000,
-0.409310,-0.653610,
-0.422550,-0.649600,
-0.434450,-0.643230,
-0.444760,-0.634760,
-0.453230,-0.624450,
-0.459600,-0.612550,
-0.463610,-0.599310,
-0.465000,-0.585000,
-0.465000,0.585000,
-0.463610,0.599310,
-0.459600,0.612550,
-0.453230,0.624450,
-0.444760,0.634760,
-0.434450,0.643230,
-0.422550,0.649600,
-0.409310,0.653610,
-0.395000,0.655000,
0*%
%TA.AperFunction,SMDPad,CuDef*%
%ADD24PPAD016*%
%AMPPAD017*
4,1,36,
-1.520000,0.655000,
1.520000,0.655000,
1.540450,0.653010,
1.559360,0.647290,
1.576360,0.638190,
1.591090,0.626090,
1.603190,0.611360,
1.612280,0.594360,
1.618010,0.575450,
1.620000,0.555000,
1.620000,-0.555000,
1.618010,-0.575450,
1.612280,-0.594360,
1.603190,-0.611360,
1.591090,-0.626090,
1.576360,-0.638190,
1.559360,-0.647290,
1.540450,-0.653010,
1.520000,-0.655000,
-1.520000,-0.655000,
-1.540450,-0.653010,
-1.559360,-0.647290,
-1.576360,-0.638190,
-1.591090,-0.626090,
-1.603190,-0.611360,
-1.612280,-0.594360,
-1.618010,-0.575450,
-1.620000,-0.555000,
-1.620000,0.555000,
-1.618010,0.575450,
-1.612280,0.594360,
-1.603190,0.611360,
-1.591090,0.626090,
-1.576360,0.638190,
-1.559360,0.647290,
-1.540450,0.653010,
-1.520000,0.655000,
0*%
%ADD25PPAD017*%
%TA.AperFunction,WasherPad*%
%ADD26R,1.120000X1.120000*%
%TA.AperFunction,ComponentPad*%
%ADD27C,1.120000*%
%TA.AperFunction,SMDPad,CuDef*%
%ADD28R,1.803400X1.244600*%
%TA.AperFunction,ComponentPad*%
%ADD29R,2.032000X2.032000*%
%TA.AperFunction,SMDPad,CuDef*%
%ADD72R,1.244600X1.803400*%
%TA.AperFunction,SMDPad,CuDef*%
%ADD73R,1.800000X0.650000*%
%ADD30R,1.520000X0.650000*%
%TA.AperFunction,ComponentPad*%
%ADD31C,1.500000*%
%TA.AperFunction,SMDPad,CuDef*%
%ADD32R,0.650000X1.800000*%
%TA.AperFunction,SMDPad,CuDef*%
%ADD33R,0.457200X1.752600*%
%TA.AperFunction,ComponentPad*%
%ADD34C,3.570000*%
%TA.AperFunction,SMDPad,CuDef*%
%ADD35R,2.500000X2.700000*%
%TA.AperFunction,OtherPad,Unknown*%
%ADD36C,4.500000*%
%TA.AperFunction,Profile*%
%ADD37C,0.203200*%
%TA.AperFunction,NonConductor*%
%ADD38C,0.203200*%
%TD.AperFunction*%
D10*
X-8110500Y+5545000D02*
X-8110500Y+6121400D01*
X-8051900Y+6180000D01*
X-7224000Y+6180000D01*
X-7729501Y+5545000D02*
X-7729500Y+5545000D01*
X-7729501Y+5674499D01*
X-7224000Y+6180000D01*
X-7718148Y-1140709D02*
X-8178291Y-1140709D01*
X-8549000Y-770000D01*
X-7359000Y+1416000D02*
X-8102600Y+1416000D01*
X-8153400Y+1365200D01*
X-8153400Y+635000D01*
X-8088400Y+570000D01*
X-7314000Y+570000D01*
X-8305000Y+2380000D02*
X-8305000Y+2235200D01*
X-8051800Y+2235200D01*
X-8001000Y+2286000D01*
X-7856500Y+4815000D02*
X-7856500Y+4503900D01*
X-7890000Y+4470400D01*
X-7890000Y+4360000D01*
X-9460000Y+7210000D02*
X-8937400Y+7210000D01*
X-8915400Y+7188000D01*
X-8780000Y+7188000D01*
X-8564999Y+2380000D02*
X-8565000Y+2380000D01*
X-8564999Y+2260600D01*
X-8603099Y+2222500D01*
X-8636000Y+2222500D01*
X-5270000Y+4800000D02*
X-5270000Y+4914900D01*
X-5231900Y+4953000D01*
X-5207000Y+4953000D01*
X-6910000Y+4110000D02*
X-7066000Y+4110000D01*
X-7112000Y+4064000D01*
X-6390000Y+4130000D02*
X-6502400Y+4130000D01*
X-6540500Y+4168100D01*
X-6540500Y+4191000D01*
X-5920000Y+3260000D02*
X-5920000Y+3380000D01*
X-5969000Y+3429000D01*
X-4580000Y+2583360D02*
X-4580000Y+2514600D01*
X-4541900Y+2476500D01*
X-4508500Y+2476500D01*
X-8120000Y+2100000D02*
X-8039100Y+2100000D01*
X-8001000Y+2138100D01*
X-8001000Y+2159000D01*
X-5130000Y+7700000D02*
X-5130000Y+7198200D01*
X-5120000Y+7188200D01*
X-5120000Y+7010000D01*
X+540500Y+1725000D02*
X+540500Y+1556500D01*
X+508000Y+1524000D01*
X-6326640Y+6130000D02*
X-6326640Y+6009140D01*
X-6286500Y+5969000D01*
X-8460000Y+5273360D02*
X-8460000Y+5359400D01*
X-8498100Y+5397500D01*
X-8509000Y+5397500D01*
X+794500Y+1725000D02*
X+794500Y+1874000D01*
X+825500Y+1905000D01*
X-5090000Y+2366640D02*
X-5168900Y+2366640D01*
X-5207000Y+2404740D01*
X-5207000Y+2413000D01*
X-7010000Y+2480000D02*
X-6985000Y+2480000D01*
X-6985000Y+2667000D01*
X-4220000Y+3994000D02*
X-4220000Y+4093000D01*
X-4254500Y+4127500D01*
X-8600000Y+1886640D02*
X-8610600Y+1886640D01*
X-8636000Y+1861240D01*
X-8636000Y+1778000D01*
X-5460000Y+2386000D02*
X-5461000Y+2386000D01*
X-5488000Y+2413000D01*
X-5588000Y+2413000D01*
X-8900000Y+1876640D02*
X-8915400Y+1876640D01*
X-8943760Y+1905000D01*
X-9017000Y+1905000D01*
X-6900000Y+4678000D02*
X-7027500Y+4678000D01*
X-7048500Y+4699000D01*
X-7856501Y+5545000D02*
X-7856500Y+5545000D01*
X-7856501Y+5588000D01*
X-7874000Y+5605499D01*
X-7874000Y+5715000D01*
X-8240000Y+2380000D02*
X-8240000Y+2525000D01*
X-8255000Y+2540000D01*
X-6329000Y+7096000D02*
X-6329000Y+7112000D01*
X-6223000Y+7112000D01*
X-8500000Y+3100000D02*
X-8500000Y+2930000D01*
X-8509000Y+2921000D01*
X-6170000Y+4800000D02*
X-6170000Y+4942500D01*
X-6159500Y+4953000D01*
X-9190000Y+3420000D02*
X-9194800Y+3420000D01*
X-9203800Y+3429000D01*
X-9334500Y+3429000D01*
X-1011000Y+3055500D02*
X-1135500Y+3055500D01*
X-1143000Y+3048000D01*
X-8759999Y+2380000D02*
X-8760000Y+2380000D01*
X-8759999Y+2438400D01*
X-8763000Y+2441401D01*
X-8763000Y+2540000D01*
X-2543000Y+1786000D02*
X-2543000Y+1803400D01*
X-2540000Y+1806400D01*
X-2540000Y+1905000D01*
X-3054000Y+2030000D02*
X-3054000Y+2057400D01*
X-3079400Y+2032000D01*
X-3175000Y+2032000D01*
X-8700000Y+4460000D02*
X-8390000Y+4460000D01*
X-7890000Y+3960000D01*
X-8305000Y+3100000D02*
X-8305000Y+3708400D01*
X-8254200Y+3759200D01*
X-8090800Y+3759200D01*
X-7890000Y+3960000D01*
X-9460000Y+6890000D02*
X-9244000Y+6890000D01*
X-8780000Y+6426000D01*
X-6910000Y+4274000D02*
X-7029000Y+4274000D01*
X-7112000Y+4191000D01*
X-8600000Y+2100000D02*
X-8450000Y+2100000D01*
X-8382000Y+2032000D01*
X-3490000Y+3750000D02*
X-3616000Y+3750000D01*
X-3683000Y+3683000D01*
X+590000Y+2840000D02*
X+427000Y+2840000D01*
X+381000Y+2794000D01*
X-4630000Y+1110000D02*
X-4630000Y+1212000D01*
X-4572000Y+1270000D01*
X-5220000Y+4800000D02*
X-5220000Y+4686000D01*
X-5270500Y+4635500D01*
X-210000Y+2840000D02*
X-335000Y+2840000D01*
X-381000Y+2794000D01*
X-8460000Y+5060000D02*
X-8592500Y+5060000D01*
X-8636000Y+5016500D01*
X-7040000Y+6730000D02*
X-7040000Y+6642100D01*
X-7001900Y+6604000D01*
X-6985000Y+6604000D01*
X-8120000Y+1886640D02*
X-8120000Y+1786000D01*
X-8128000Y+1778000D01*
X-8420000Y+3460000D02*
X-8420000Y+3340000D01*
X-8382000Y+3302000D01*
X+130000Y+2840000D02*
X+38100Y+2840000D01*
X+0Y+2801900D01*
X+0Y+2794000D01*
X+950000Y+2840000D02*
X+1041400Y+2840000D01*
X+1079500Y+2801900D01*
X+1079500Y+2794000D01*
X-3530000Y+4090000D02*
X-3645500Y+4090000D01*
X-3683000Y+4127500D01*
X-5250000Y-540000D02*
X-5283200Y-540000D01*
X-5270500Y-552700D01*
X-5270500Y-698500D01*
X-4220000Y+3830000D02*
X-4191000Y+3830000D01*
X-4191000Y+3683000D01*
X-2815000Y+5869500D02*
X-2694500Y+5869500D01*
X-2667000Y+5842000D01*
X-2815000Y+6123500D02*
X-2694500Y+6123500D01*
X-2667000Y+6096000D01*
X-2815000Y+6377500D02*
X-2694500Y+6377500D01*
X-2667000Y+6350000D01*
X-2815000Y+5615500D02*
X-2694500Y+5615500D01*
X-2667000Y+5588000D01*
X-3500000Y+3070000D02*
X-3500000Y+3048000D01*
X-3683000Y+3048000D01*
X-6120000Y+4800000D02*
X-6120000Y+4659500D01*
X-6096000Y+4635500D01*
X-8740000Y+3460000D02*
X-8740000Y+3325000D01*
X-8763000Y+3302000D01*
X-7983500Y+5545000D02*
X-7983500Y+5588000D01*
X-8001000Y+5605500D01*
X-8001000Y+5715000D01*
X-4280000Y+1100000D02*
X-4241800Y+1100000D01*
X-4254500Y+1112700D01*
X-4254500Y+1206500D01*
X-7729500Y+4815000D02*
X-7729500Y+4851400D01*
X-7747000Y+4868900D01*
X-7747000Y+4953000D01*
X-9190000Y+3633360D02*
X-9190000Y+3708400D01*
X-9228100Y+3746500D01*
X-9271000Y+3746500D01*
X-6390000Y+4180000D02*
X-6234000Y+4180000D01*
X-6223000Y+4191000D01*
X-9160000Y+4240000D02*
X-9055100Y+4240000D01*
X-9017000Y+4201900D01*
X-9017000Y+4191000D01*
X-3490000Y+3420000D02*
X-3610500Y+3420000D01*
X-3619500Y+3429000D01*
X-4850000Y+3930000D02*
X-4706000Y+3930000D01*
X-4699000Y+3937000D01*
X-8629999Y+2380000D02*
X-8630000Y+2380000D01*
X-8629999Y+2438400D01*
X-8636000Y+2444401D01*
X-8636000Y+2540000D01*
X-5970000Y+3260000D02*
X-5970000Y+3049000D01*
X-5969000Y+3048000D01*
X-5460000Y+2550000D02*
X-5486400Y+2550000D01*
X-5461000Y+2575400D01*
X-5461000Y+2667000D01*
D11*
X-5899200Y+6858000D02*
X-6049200Y+6858000D01*
X-6100000Y+6908800D01*
X-6100000Y+7096000D01*
X-5950000Y+6464000D02*
X-5950000Y+6807200D01*
X-5899200Y+6858000D01*
X-5390000Y+7700000D02*
X-5390000Y+7416800D01*
X-5232400Y+7259200D01*
X-5232400Y+6908800D01*
X-5283200Y+6858000D01*
X-5899200Y+6858000D01*
X-5390000Y+7700000D02*
X-5842000Y+7700000D01*
X-5906000Y+7764000D01*
X-6100000Y+7764000D01*
X-5950000Y+6464000D02*
X-5740400Y+6464000D01*
X-5726400Y+6450000D01*
X-5500000Y+6450000D01*
X-7130000Y+1416000D02*
X-7130000Y+1319640D01*
X-7188200Y+1261440D01*
X-7222360Y+1261440D01*
X-7290000Y+1193800D01*
X-7290000Y+1040000D01*
X-7130000Y+2084000D02*
X-7319940Y+2084000D01*
X-7319940Y+2480000D01*
X-7270000Y+2480000D01*
X-7290000Y+1040000D02*
X-7518400Y+1040000D01*
X-7558400Y+1000000D01*
X-7756000Y+1000000D01*
X-7130000Y+1416000D02*
X-7130000Y+2084000D01*
X-7090000Y+1040000D02*
X-7090000Y+868200D01*
X-7060000Y+838200D01*
X-7060000Y+570000D01*
X-4953000Y+6286500D02*
X-5300000Y+6286500D01*
X-5300000Y+6450000D01*
X-6900000Y+4842000D02*
X-6315800Y+4842000D01*
X-6273800Y+4800000D01*
X-6220000Y+4800000D01*
X-7240000Y+6730000D02*
X-7240000Y+6594600D01*
X-6970000Y+6324600D01*
X-6970000Y+6180000D01*
X-1397000Y+3873500D02*
X-1326000Y+3944500D01*
X-1011000Y+3944500D01*
X-2286000Y+3873500D02*
X-2270000Y+3857500D01*
X-2135000Y+3857500D01*
X-1011000Y+3817500D02*
X-787400Y+3817500D01*
X-736600Y+3766700D01*
X-736600Y+3175000D01*
X-792600Y+3119000D01*
X-1224400Y+3119000D01*
X-1346200Y+2997200D01*
X-2286000Y+2997200D01*
X-2413000Y+3124200D01*
X-2413000Y+3530600D01*
X-2340100Y+3603500D01*
X-2135000Y+3603500D01*
X-1905000Y+3365500D02*
X-2066800Y+3365500D01*
X-2082800Y+3349500D01*
X-2135000Y+3349500D01*
X-825500Y+3683000D02*
X-833000Y+3690500D01*
X-1011000Y+3690500D01*
X-2135000Y+3095500D02*
X-1371600Y+3095500D01*
X-1320800Y+3146300D01*
X-1320800Y+3505200D01*
X-1262500Y+3563500D01*
X-1011000Y+3563500D01*
X-2765000Y+3984500D02*
X-3330000Y+3984500D01*
X-3330000Y+4090000D01*
X-2765000Y+3730500D02*
X-3290000Y+3730500D01*
X-3290000Y+3750000D01*
X-2765000Y+3476500D02*
X-2991500Y+3476500D01*
X-3048000Y+3420000D01*
X-3290000Y+3420000D01*
X-2765000Y+3222500D02*
X-3300000Y+3222500D01*
X-3300000Y+3070000D01*
X-2135000Y+3984500D02*
X-1843500Y+3984500D01*
X-1778000Y+4050000D01*
X-1690000Y+4050000D01*
X-2135000Y+3730500D02*
X-1869300Y+3730500D01*
X-1828800Y+3690000D01*
X-1710000Y+3690000D01*
X-2135000Y+3476500D02*
X-1778000Y+3476500D01*
X-1720000Y+3418500D01*
X-1720000Y+3310000D01*
X-2286000Y+3175000D02*
X-2286000Y+3184400D01*
X-2247900Y+3222500D01*
X-2135000Y+3222500D01*
X-2476500Y+2921000D02*
X-2480000Y+2917500D01*
X-2480000Y+2790000D01*
X-1079500Y+5651500D02*
X-1098500Y+5632500D01*
X-1275000Y+5632500D01*
X-1275000Y+5886500D02*
X-1041400Y+5886500D01*
X-990600Y+5937300D01*
X-990600Y+6604000D01*
X-939800Y+6654800D01*
X-76200Y+6654800D01*
X-25400Y+6604000D01*
X-25400Y+4933400D01*
X+498000Y+4410000D01*
X-1275000Y+6140500D02*
X-1397000Y+6140500D01*
X-1397000Y+7213600D01*
X-1447800Y+7264400D01*
X-2032000Y+7264400D01*
X-2092000Y+7324400D01*
X-2092000Y+7640000D01*
X-1143000Y+6858000D02*
X-1143000Y+6394500D01*
X-1275000Y+6394500D01*
X-645000Y+5632500D02*
X-508000Y+5632500D01*
X-508000Y+5540000D01*
X-430000Y+5540000D01*
X-645000Y+5886500D02*
X-524500Y+5886500D01*
X-508000Y+5870000D01*
X-430000Y+5870000D01*
X-645000Y+6140500D02*
X-508000Y+6140500D01*
X-508000Y+6210000D01*
X-410000Y+6210000D01*
X-645000Y+6394500D02*
X-400000Y+6394500D01*
X-400000Y+6550000D01*
X-1275000Y+5505500D02*
X-1397700Y+5505500D01*
X-1473200Y+5430000D01*
X-1550000Y+5430000D01*
X-1275000Y+5759500D02*
X-1422400Y+5759500D01*
X-1473200Y+5810300D01*
X-1473200Y+5841400D01*
X-1550000Y+5918200D01*
X-1550000Y+6070000D01*
X-1275000Y+6013500D02*
X-1397000Y+6013500D01*
X-1447800Y+6064300D01*
X-1447800Y+6477000D01*
X-1498600Y+6527800D01*
X-1600200Y+6527800D01*
X-1651000Y+6477000D01*
X-1651000Y+5750000D01*
X-1550000Y+5750000D01*
X-1524000Y+6223000D02*
X-1550000Y+6249000D01*
X-1550000Y+6370000D01*
X-1079500Y+6223000D02*
X-1143000Y+6223000D01*
X-1143000Y+6267500D01*
X-1275000Y+6267500D01*
X+159500Y+1725000D02*
X+159500Y+1347100D01*
X+152400Y+1340000D01*
X+180000Y+1340000D01*
X+159500Y+1725000D02*
X+159500Y+1854200D01*
X-94500Y+1854200D01*
X-94500Y+1725000D01*
X-94500Y+2355000D02*
X-94500Y+2640000D01*
X-210000Y+2640000D01*
X+159500Y+2355000D02*
X+159500Y+2640000D01*
X+130000Y+2640000D01*
X+413500Y+2355000D02*
X+413500Y+2565400D01*
X+488100Y+2640000D01*
X+590000Y+2640000D01*
X+667500Y+2355000D02*
X+667500Y+2235200D01*
X+718300Y+2184400D01*
X+889000Y+2184400D01*
X+950000Y+2245400D01*
X+950000Y+2640000D01*
X-3445000Y+5742500D02*
X-3149600Y+5742500D01*
X-3098800Y+5793300D01*
X-3098800Y+7696200D01*
X-3048000Y+7747000D01*
X-1924789Y+7747000D01*
X-1568377Y+7390588D01*
X+77412Y+7390588D01*
X+458000Y+7010000D01*
X-3445000Y+5996500D02*
X-3200400Y+5996500D01*
X-3149600Y+6047300D01*
X-3149600Y+7797800D01*
X-3098800Y+7848600D01*
X-1676400Y+7848600D01*
X-1346200Y+7518400D01*
X+366400Y+7518400D01*
X+498000Y+7650000D01*
X-3238500Y+6350000D02*
X-3238500Y+6250500D01*
X-3445000Y+6250500D01*
X-3238500Y+6477000D02*
X-3266000Y+6504500D01*
X-3445000Y+6504500D01*
X-2815000Y+5742500D02*
X-2602500Y+5742500D01*
X-2540000Y+5680000D01*
X-2450000Y+5680000D01*
X-2815000Y+5996500D02*
X-2460000Y+5996500D01*
X-2460000Y+6020000D01*
X-2815000Y+6250500D02*
X-2641600Y+6250500D01*
X-2552100Y+6340000D01*
X-2470000Y+6340000D01*
X-2815000Y+6504500D02*
X-2490000Y+6504500D01*
X-2490000Y+6650000D01*
X-3445000Y+5615500D02*
X-3587500Y+5615500D01*
X-3683000Y+5520000D01*
X-3820000Y+5520000D01*
X-3445000Y+5869500D02*
X-3678900Y+5869500D01*
X-3708400Y+5840000D01*
X-3800000Y+5840000D01*
X-3445000Y+6123500D02*
X-3630100Y+6123500D01*
X-3733800Y+6019800D01*
X-3886200Y+6019800D01*
X-3937000Y+6070600D01*
X-3937000Y+6500000D01*
X-3820000Y+6500000D01*
X-3445000Y+6377500D02*
X-3759200Y+6377500D01*
X-3820000Y+6316700D01*
X-3820000Y+6130000D01*
X+2290000Y+1420000D02*
X+3090000Y+1420000D01*
X+3280000Y+1230000D01*
X-4455500Y+595000D02*
X-4455500Y+838200D01*
X-4393700Y+900000D01*
X-4280000Y+900000D01*
X-4709501Y+595000D02*
X-4709500Y+595000D01*
X-4709501Y+736600D01*
X-4630000Y+816101D01*
X-4630000Y+910000D01*
X-4963500Y+595000D02*
X-4963500Y+736600D01*
X-4880000Y+820100D01*
X-4880000Y+910000D01*
X-5217500Y+595000D02*
X-5217500Y+910000D01*
X-5200000Y+910000D01*
X-4455500Y-35000D02*
X-4455500Y-330000D01*
X-4460000Y-330000D01*
X-4709500Y-35000D02*
X-4709500Y-163500D01*
X-4800000Y-254000D01*
X-4800000Y-330000D01*
X-4963499Y-35000D02*
X-4963500Y-35000D01*
X-4963499Y-279400D01*
X-5024099Y-340000D01*
X-5250000Y-340000D01*
X-5217500Y-35000D02*
X-5217500Y-203200D01*
X-5268300Y-254000D01*
X-5590000Y-254000D01*
X-5590000Y-330000D01*
X-2314000Y+1786000D02*
X-2314000Y+2082800D01*
X-2057400Y+2339400D01*
X-2057400Y+2413360D01*
X-2314000Y+2413360D01*
X-2314000Y+2454000D01*
X-1602400Y+2454000D01*
X-1536000Y+2387600D01*
X-1536000Y+2200000D01*
X-2540000Y+1651000D02*
X-3054000Y+1651000D01*
X-3054000Y+1770000D01*
X-2314000Y+1786000D02*
X-2314000Y+1651000D01*
X-2413000Y+1651000D01*
X-2540000Y+1651000D01*
X-1336000Y+2200000D02*
X-1336000Y+1900600D01*
X-1484000Y+1752600D01*
X-1484000Y+1520000D01*
X-8110000Y+3100000D02*
X-8110000Y+3460000D01*
X-8080000Y+3460000D01*
X-8370000Y+3100000D02*
X-8370000Y+2971800D01*
X-8319200Y+2921000D01*
X-8026400Y+2921000D01*
X-7975600Y+2971800D01*
X-7975600Y+3175000D01*
X-7900600Y+3250000D01*
X-7780000Y+3250000D01*
X-8255000Y+2159000D02*
X-8384200Y+2159000D01*
X-8435000Y+2209800D01*
X-8435000Y+2380000D01*
X-8500000Y+2380000D02*
X-8500000Y+2616200D01*
X-8550800Y+2667000D01*
X-9042400Y+2667000D01*
X-9093200Y+2616200D01*
X-9093200Y+1363400D01*
X-9076000Y+1346200D01*
X-9076000Y+1100000D01*
X-8824999Y+2380000D02*
X-8825000Y+2380000D01*
X-8824999Y+2259401D01*
X-8900000Y+2184400D01*
X-8900000Y+2090000D01*
X-8572500Y+3429000D02*
X-8572500Y+3660000D01*
X-8420000Y+3660000D01*
X-8740000Y+3660000D02*
X-9042400Y+3660000D01*
X-9093200Y+3609200D01*
X-9093200Y+3157800D01*
X-9330000Y+2921000D01*
X-9330000Y+1100000D01*
X-7708148Y-150709D02*
X-7594600Y-150709D01*
X-7543800Y-201509D01*
X-7543800Y-990600D01*
X-7594600Y-1041400D01*
X-8077600Y-1041400D01*
X-8349000Y-770000D01*
X-4800000Y-530001D02*
X-4800000Y-530000D01*
X-5070000Y-1550000D02*
X-4800000Y-1280000D01*
X-4800000Y-530001D01*
X-4699000Y-530001D01*
X-4698999Y-530000D01*
X-4460000Y-530000D01*
D10*
X-2844000Y+1080000D02*
X-2901470Y+1022530D01*
X-4880000Y+1022530D01*
X-4880000Y+1110000D01*
X-3532000Y+8680000D02*
X-3767400Y+8915400D01*
X-4846600Y+8915400D01*
X-5082000Y+8680000D01*
X-1750000Y+5750000D02*
X-1750000Y+6070000D01*
X-1750000Y+5430000D02*
X-1750000Y+5750000D01*
X-4880000Y+1110000D02*
X-5080000Y+1110000D01*
X-5080001Y+1109999D01*
X-5200000Y+1109999D01*
X-5200000Y+1110000D01*
X-1750000Y+6370000D02*
X-1750000Y+6070000D01*
X-1750000Y+6370000D02*
X-1750000Y+7122100D01*
X-1803400Y+7175500D01*
X-2349500Y+7175500D01*
X-2476500Y+4953000D02*
X-2857500Y+4953000D01*
X-1750000Y+5430000D02*
X-1872500Y+5430000D01*
X-1905000Y+5397500D01*
X-4064000Y+5969000D02*
X-4343400Y+5689600D01*
X-6489200Y+5689600D01*
X-6540000Y+5740400D01*
X-6540000Y+6130000D01*
X-1490000Y+4050000D02*
X-1490000Y+4191000D01*
X-1778000Y+4191000D01*
X-4020000Y+6130000D02*
X-4131600Y+6130000D01*
X-4191000Y+6070600D01*
X-4191000Y+6019800D01*
X-4140200Y+5969000D01*
X-4064000Y+5969000D01*
X-4000000Y+5840000D02*
X-3911600Y+5840000D01*
X-3911600Y+5918200D01*
X-3962400Y+5969000D01*
X-4064000Y+5969000D01*
X-1490000Y+4050000D02*
X-1490000Y+3728400D01*
X-1510000Y+3708400D01*
X-1510000Y+3690000D01*
X-4000000Y+5840000D02*
X-4020000Y+5840000D01*
X-4020000Y+5520000D01*
X-1510000Y+3690000D02*
X-1510000Y+3337400D01*
X-1520000Y+3327400D01*
X-1520000Y+3310000D01*
X-4020000Y+6130000D02*
X-4020000Y+6500000D01*
X-1524000Y+2857500D02*
X-1591500Y+2790000D01*
X-2280000Y+2790000D01*
X+180000Y+1140000D02*
X+632000Y+1140000D01*
X+635000Y+1143000D01*
X-1520000Y+3310000D02*
X-1520000Y+3179000D01*
X-1524000Y+3175000D01*
X-635000Y+3048000D02*
X-627500Y+3055500D01*
X-469000Y+3055500D01*
D11*
X+63500Y-508000D02*
X+63500Y+1725000D01*
X+32500Y+1725000D01*
X+667500Y+1725000D02*
X+667500Y+1397000D01*
X+718300Y+1346200D01*
X+1537657Y+1346200D01*
X+2161857Y+722000D01*
X+3280000Y+722000D01*
X+286500Y+1725000D02*
X+286500Y+1270000D01*
X+337300Y+1219200D01*
X+1092200Y+1219200D01*
X+1168000Y+1143400D01*
X+1168000Y-1560000D01*
X-6731000Y+3746500D02*
X-6714500Y+3730000D01*
X-6390000Y+3730000D01*
X-5207000Y+3556000D02*
X-5257800Y+3606800D01*
X-5257800Y+4379200D01*
X-5308600Y+4430000D01*
X-6390000Y+4430000D01*
X-5715000Y+4254500D02*
X-5790500Y+4330000D01*
X-6390000Y+4330000D01*
X-508000Y+2032000D02*
X+489700Y+2032000D01*
X+540500Y+2082800D01*
X+540500Y+2355000D01*
X-5270500Y+5080000D02*
X-5519200Y+5080000D01*
X-5570000Y+5029200D01*
X-5570000Y+4800000D01*
X-6390000Y+4380000D02*
X-5359400Y+4380000D01*
X-5308600Y+4329200D01*
X-5308600Y+3429000D01*
X-5257800Y+3378200D01*
X-4114800Y+3378200D01*
X-4046852Y+3310252D01*
X-4046852Y+1346200D01*
X-3978867Y+1278215D01*
X-965200Y+1278215D01*
X-912000Y+1225015D01*
X-912000Y-1550000D01*
X-6604000Y+4000500D02*
X-6629400Y+4025900D01*
X-6629400Y+4587240D01*
X-6578600Y+4638040D01*
X-6390000Y+4638040D01*
X-6390000Y+4630000D01*
X+413500Y+1725000D02*
X+413500Y+1320800D01*
X+464300Y+1270000D01*
X+1323302Y+1270000D01*
X+2379302Y+214000D01*
X+3280000Y+214000D01*
X-5080000Y+5270500D02*
X-5606500Y+5270500D01*
X-5670000Y+5207000D01*
X-5670000Y+4800000D01*
X+63500Y+2159000D02*
X+32500Y+2190000D01*
X+32500Y+2355000D01*
X-3873500Y+2667000D02*
X-2209800Y+2667000D01*
X-2159000Y+2717800D01*
X+235700Y+2717800D01*
X+286500Y+2667000D01*
X+286500Y+2355000D01*
X-5651500Y+4635500D02*
X-5620000Y+4667000D01*
X-5620000Y+4800000D01*
X-6731000Y+3492500D02*
X-6693500Y+3530000D01*
X-6390000Y+3530000D01*
X-6731000Y+3302000D02*
X-6783000Y+3250000D01*
X-6940000Y+3250000D01*
X-6985000Y+3683000D02*
X-6882000Y+3580000D01*
X-6390000Y+3580000D01*
X-6858000Y+3683000D02*
X-6805000Y+3630000D01*
X-6390000Y+3630000D01*
X+2286000Y+3810000D02*
X-424300Y+3810000D01*
X-431800Y+3817500D01*
X-469000Y+3817500D01*
X+2921000Y+4000500D02*
X+2921000Y+3614300D01*
X+2870200Y+3563500D01*
X-469000Y+3563500D01*
X-5090500Y-35000D02*
X-5090499Y-35000D01*
X-6096000Y+3746500D02*
X-6129500Y+3780000D01*
X-6390000Y+3780000D01*
X-5334000Y+127000D02*
X-5344500Y+116500D01*
X-5344500Y-35000D01*
X-6390000Y+3930000D02*
X-7162800Y+3930000D01*
X-7213600Y+3879200D01*
X-7213600Y+2616200D01*
X-7137400Y+2540000D01*
X-7137400Y+2387600D01*
X-7086600Y+2336800D01*
X-6756400Y+2336800D01*
X-6705600Y+2286000D01*
X-6705600Y+254000D01*
X-6654800Y+203200D01*
X-5207000Y+203200D01*
X-5156200Y+152400D01*
X-5156200Y-177800D01*
X-5029200Y-177800D01*
X-5029200Y+127000D01*
X-4977014Y+179186D01*
X-4648200Y+179186D01*
X-4582500Y+244886D01*
X-4582500Y+595000D01*
X-4836500Y+595000D02*
X-4836501Y+595000D01*
X-4572000Y-190500D02*
X-4582500Y-180000D01*
X-4582500Y-35000D01*
X-6223000Y-1143000D02*
X-6214048Y-1151952D01*
X-4961952Y-1151952D01*
X-4902200Y-1092200D01*
X-4902200Y-254000D01*
X-4836500Y-188300D01*
X-4836500Y-35000D01*
X-4318000Y+4953000D02*
X-4318000Y+4368800D01*
X-4114800Y+4165600D01*
X-4114800Y+3654300D01*
X-4064000Y+3603500D01*
X-2765000Y+3603500D01*
X-5080000Y+4953000D02*
X-5070000Y+4943000D01*
X-5070000Y+4800000D01*
X-4318000Y+3683000D02*
X-4064000Y+3429000D01*
X-3810000Y+3429000D01*
X-3683000Y+3302000D01*
X-2943100Y+3302000D01*
X-2895600Y+3349500D01*
X-2765000Y+3349500D01*
X-3175000Y+4191000D02*
X-2641600Y+4191000D01*
X-2590800Y+4140200D01*
X-2590800Y+3146300D01*
X-2641600Y+3095500D01*
X-2765000Y+3095500D01*
X-4699000Y+4635500D02*
X-4704500Y+4630000D01*
X-4850000Y+4630000D01*
X-7708148Y-350709D02*
X-8158291Y-350709D01*
X-8229600Y-279400D01*
X-8229600Y+1143000D01*
X-8702040Y+1615440D01*
X-8702040Y+2380000D01*
X-8695000Y+2380000D01*
X-8694999Y+2380000D01*
X-7708148Y-350709D02*
X-7708148Y-928761D01*
X-7696200Y-940709D01*
X-7718148Y-940709D01*
X-6540500Y+4572000D02*
X-6532500Y+4580000D01*
X-6390000Y+4580000D01*
X-7556500Y+4572000D02*
X-7569200Y+4559300D01*
X-7569200Y+3710800D01*
X-7620000Y+3660000D01*
X-8080000Y+3660000D01*
X-4850000Y+4030000D02*
X-4673600Y+4030000D01*
X-4622800Y+4080800D01*
X-4622800Y+5511800D01*
X-4688969Y+5577969D01*
X-6654800Y+5577969D01*
X-6726035Y+5649204D01*
X-6726035Y+6832600D01*
X-6776835Y+6883400D01*
X-8576600Y+6883400D01*
X-8780000Y+6680000D01*
X+1474000Y+7010000D02*
X+1295400Y+6831400D01*
X+1295400Y+6324600D01*
X+1580950Y+6039050D01*
X+1580950Y+5588000D01*
X+1504000Y+5511050D01*
X+1504000Y+5020000D01*
X+2236000Y+7010000D02*
X+2438400Y+6807600D01*
X+2438400Y+5192400D01*
X+2266000Y+5020000D01*
X+1514000Y+7650000D02*
X+1391600Y+7772400D01*
X+527600Y+7772400D01*
X-370000Y+8670000D01*
X+2276000Y+7650000D02*
X+2001200Y+7924800D01*
X+883200Y+7924800D01*
X+138000Y+8670000D01*
X-1076000Y+7640000D02*
X-1430000Y+7994000D01*
X-1430000Y+8670000D01*
X+1474000Y+5700000D02*
X+366800Y+6807200D01*
X-853200Y+6807200D01*
X-1076000Y+7030000D01*
X-8813800Y+4394200D02*
X-8864600Y+4343400D01*
X-9409200Y+4343400D01*
X-9460000Y+4394200D01*
X-9460000Y+6250000D01*
X-8001000Y+4572000D02*
X-8763000Y+4572000D01*
X-8813800Y+4521200D01*
X-8813800Y+4394200D01*
X-8813800Y+4260000D01*
X-8700000Y+4260000D01*
X-8001000Y+4572000D02*
X-7988300Y+4584700D01*
X-7988300Y+4815000D01*
X-7983500Y+4815000D01*
X-7983499Y+4815000D01*
X-9017000Y+4978400D02*
X-9017000Y+6519200D01*
X-9067800Y+6570000D01*
X-9460000Y+6570000D01*
X-6985000Y+2921000D02*
X-5370800Y+2921000D01*
X-5320000Y+2971800D01*
X-5320000Y+3260000D01*
X-9017000Y+4978400D02*
X-9160000Y+4835400D01*
X-9160000Y+4440000D01*
X-8128000Y+4953000D02*
X-8153400Y+4927600D01*
X-8966200Y+4927600D01*
X-9017000Y+4978400D01*
X-8128000Y+4953000D02*
X-8110499Y+4935499D01*
X-8110500Y+4815000D01*
X-8110499Y+4815000D01*
X-2250000Y+5680000D02*
X-2250000Y+5257800D01*
X-2300800Y+5207000D01*
X-4394200Y+5207000D01*
X-4445000Y+5156200D01*
X-4445000Y+3581400D01*
X-4496400Y+3530000D01*
X-4850000Y+3530000D01*
X-3619500Y+4508500D02*
X-2171700Y+4508500D01*
X-2108200Y+4572000D01*
X-2108200Y+5969200D01*
X-2159000Y+6020000D01*
X-2260000Y+6020000D01*
X-5016500Y+3556000D02*
X-4992500Y+3580000D01*
X-4850000Y+3580000D01*
X-3111500Y+4826000D02*
X-2209800Y+4826000D01*
X-2159000Y+4876800D01*
X-2159000Y+5791200D01*
X-2286000Y+5791200D01*
X-2336800Y+5842000D01*
X-2336800Y+6121400D01*
X-2270000Y+6188200D01*
X-2270000Y+6340000D01*
X-5080000Y+3683000D02*
X-5027000Y+3630000D01*
X-4850000Y+3630000D01*
X-4850000Y+3680000D02*
X-4546600Y+3680000D01*
X-4495800Y+3730800D01*
X-4495800Y+5308600D01*
X-4445000Y+5359400D01*
X-3098800Y+5359400D01*
X-3048000Y+5410200D01*
X-3048000Y+6756400D01*
X-2997200Y+6807200D01*
X-2290000Y+6807200D01*
X-2290000Y+6650000D01*
X-4000500Y+3746500D02*
X-4000500Y+4254500D01*
X-3937000Y+4318000D01*
X-280800Y+4318000D01*
X-230000Y+4368800D01*
X-230000Y+5540000D01*
X-4699000Y+3746500D02*
X-4715500Y+3730000D01*
X-4850000Y+3730000D01*
X-4127500Y+4381500D02*
X-393700Y+4381500D01*
X-330200Y+4445000D01*
X-330200Y+6210000D01*
X-210000Y+6210000D01*
X-4572000Y+3810000D02*
X-4592000Y+3830000D01*
X-4850000Y+3830000D01*
X-3873500Y+4191000D02*
X-3797300Y+4267200D01*
X-127000Y+4267200D01*
X-76200Y+4318000D01*
X-76200Y+6550000D01*
X-200000Y+6550000D01*
X-5016500Y+3873500D02*
X-4850000Y+3873500D01*
X-4850000Y+3880000D01*
X-6390000Y+4530000D02*
X-6273800Y+4530000D01*
X-6273800Y+4648200D01*
X-6324600Y+4699000D01*
X-6629400Y+4699000D01*
X-6959600Y+4368800D01*
X-7467600Y+4368800D01*
X-7518400Y+4318000D01*
X-7518400Y+3124200D01*
X-7592600Y+3050000D01*
X-7780000Y+3050000D01*
X-8890000Y+2540000D02*
X-8890000Y+2438401D01*
X-8889999Y+2438400D01*
X-8890000Y+2380000D01*
X-8889999Y+2380000D01*
X-9017000Y+2222500D02*
X-8993099Y+2222500D01*
X-8954999Y+2260600D01*
X-8955000Y+2380000D01*
X-8954999Y+2380000D01*
D12*
X-5871000Y+7096000D02*
X-5871000Y+7407832D01*
X-5943600Y+7480432D01*
X-7036770Y+7480432D01*
X-8019423Y+8463085D01*
X-5871000Y+7096000D02*
X-5406000Y+7096000D01*
X-5320000Y+7010000D01*
X-2006600Y+1524000D02*
X-2006600Y+1786000D01*
X-2085000Y+1786000D01*
X-3429000Y+1524000D02*
X-2006600Y+1524000D01*
X-6794500Y+1460500D02*
X-6794500Y+1454100D01*
X-6832600Y+1416000D01*
X-6901000Y+1416000D01*
D11*
X-5260000Y+1800000D02*
X-4978400Y+2081600D01*
X-4978400Y+2580000D01*
X-5090000Y+2580000D01*
X-5524500Y+3048000D02*
X-5819200Y+3048000D01*
X-5870000Y+3098800D01*
X-5870000Y+3260000D01*
X-4699000Y+2667000D02*
X-4699000Y+2984500D01*
X-4699000Y+2413000D02*
X-4699000Y+2408100D01*
X-4660900Y+2370000D01*
X-4580000Y+2370000D01*
X-5590000Y-530000D02*
X-5562600Y-530000D01*
X-5260000Y-530000D01*
X-5250000Y-540000D01*
D10*
X-5334822Y+5820956D02*
X-5723866Y+6210000D01*
X-5950000Y+6210000D01*
D11*
X-806500Y+6013500D02*
X-806500Y+6267500D01*
D10*
X-645000Y+6267500D02*
X-806500Y+6267500D01*
X-825500Y+6286500D01*
X-645000Y+6013500D02*
X-806500Y+6013500D01*
D11*
X-806500Y+5810000D02*
X-806500Y+5786500D01*
X-806500Y+5536500D01*
X-770000Y+5500000D01*
X-650500Y+5500000D01*
X-645000Y+5505500D01*
X-806500Y+5786500D02*
X-770000Y+5750000D01*
X-654500Y+5750000D01*
X-645000Y+5759500D01*
X-806500Y+5880000D02*
X-870000Y+5880000D01*
X-806500Y+6013500D02*
X-806500Y+5880000D01*
X-806500Y+5810000D01*
D10*
X+3280000Y+1750000D02*
X+2352000Y+1750000D01*
X+2290000Y+1688000D01*
X+2290000Y+1620000D01*
D11*
X-469000Y+3690500D02*
X+2514600Y+3690500D01*
X+2579183Y+3755083D01*
X+2579183Y+4268800D01*
X+2638383Y+4328000D01*
X+3280000Y+4328000D01*
D10*
X+3290000Y+2790000D02*
X+3280000Y+2790000D01*
X+3078800Y+2991200D01*
X+3078800Y+3628800D01*
X+3270000Y+3820000D01*
X+3280000Y+3820000D01*
D11*
X+2276000Y+7650000D02*
X+2276000Y+7490000D01*
X+2413000Y+7490000D01*
X+2455000Y+7448000D01*
X+3280000Y+7448000D01*
X+1651000Y+8064500D02*
X+1810000Y+8090000D01*
X+3170000Y+8090000D01*
X+3280000Y+7980000D01*
X+1625600Y+7240000D02*
X+2980000Y+7240000D01*
X+3280000Y+6940000D01*
X+1514000Y+7650000D02*
X+1625600Y+7538400D01*
X+1625600Y+7240000D01*
X+3280000Y+7448000D02*
X+3540600Y+7187400D01*
X+3540600Y+4775200D01*
X+3385400Y+4620000D01*
X+2486000Y+4620000D01*
X+2276000Y+4410000D01*
X-5520000Y+4800000D02*
X-5520000Y+4622800D01*
X-5524500Y+4622800D01*
X-5524500Y+4635500D01*
X-3746500Y+2857500D02*
X-3073400Y+2857500D01*
X-2933700Y+2997200D01*
X-2413000Y+2997200D01*
X-2362200Y+2946400D01*
X-1050000Y+2946400D01*
X-998739Y+2895139D01*
X-369455Y+2895139D01*
X-318194Y+2946400D01*
X+743700Y+2946400D01*
X+794500Y+2895600D01*
X+794500Y+2355000D01*
X-469000Y+3944500D02*
X-584200Y+3944500D01*
X-584200Y+3240000D01*
X-761604Y+3062596D01*
X-761604Y+3010476D01*
X-707780Y+2956652D01*
X-372017Y+2956652D01*
X-248669Y+3080000D01*
X-60000Y+3080000D01*
X-20000Y+3120000D01*
X+2418000Y+3120000D01*
X+3280000Y+2258000D01*
D10*
X-1420000Y-1550000D02*
X-1166600Y-1803400D01*
X-254000Y-1803400D01*
X-223444Y-1833956D01*
X+224615Y-1833956D01*
X+406043Y-1652528D01*
X+406043Y-884946D01*
X+381346Y-884946D01*
X+180000Y-683600D01*
X+180000Y+1140000D01*
D11*
X-6390000Y+3830000D02*
X-7061200Y+3830000D01*
X-7112000Y+3779200D01*
X-7112000Y+2794000D01*
X-7061200Y+2743200D01*
X-6705600Y+2743200D01*
X-6654800Y+2692400D01*
X-6654800Y+2440000D01*
X-6538077Y+2323277D01*
X-6520745Y+2323277D01*
X-6520745Y+1794112D01*
X-6048023Y+1321390D01*
X-6048023Y+397112D01*
X-5984523Y+333612D01*
X-5166078Y+333612D01*
X-5090499Y+258033D01*
X-5090500Y-35000D01*
X+1625600Y+7240000D02*
X+1625600Y+6926600D01*
X+1796491Y+6755709D01*
X+1796491Y+4692491D01*
X+1514000Y+4410000D01*
X-6390000Y+3880000D02*
X-6229500Y+3880000D01*
X-6223000Y+3873500D01*
X-6223000Y+2730500D02*
X-6083300Y+2590800D01*
X-5969000Y+2590800D01*
X-5918200Y+2540000D01*
X-5918200Y+508000D01*
X-5830200Y+420000D01*
X-4836501Y+420000D01*
X-4836500Y+595000D01*
X-6940000Y+3050000D02*
X-6940000Y+3111500D01*
X-6794500Y+3111500D01*
D10*
X-4850000Y+3980000D02*
X-5003800Y+3980000D01*
X-5054600Y+4030800D01*
X-5054600Y+4229100D01*
X-5133588Y+4261161D01*
D11*
X-230000Y+5870000D02*
X-230000Y+5739000D01*
X-254000Y+5715000D01*
X-5143500Y+4020000D02*
X-5143500Y+3843500D01*
X-5080000Y+3780000D01*
X-4850000Y+3780000D01*
X-5020000Y+4740000D02*
X-5020000Y+4718812D01*
X-5071615Y+4667197D01*
X-5071615Y+4493115D01*
X-5020000Y+4441500D01*
X-5080000Y+4381500D02*
X-5020000Y+4441500D01*
X-5020000Y+4740000D02*
X-5020000Y+4800000D01*
X-4953000Y+4520000D02*
X-4953000Y+4556763D01*
X-4997991Y+4601754D01*
X-5165689Y+5403429D02*
X-5249744Y+5403429D01*
X-5255673Y+5397500D01*
X-8191500Y+5397500D02*
X-5255673Y+5397500D01*
X-4953000Y+4520000D02*
X-4953000Y+4080000D01*
X-4850000Y+4080000D01*
X-5120000Y+4800000D02*
X-5120000Y+4532000D01*
X-5143500Y+4508500D01*
X-3810000Y+3873500D02*
X-2835400Y+3873500D01*
X-2819400Y+3857500D01*
X-2765000Y+3857500D01*
X-5778500Y+3492500D02*
X-5820000Y+3451000D01*
X-5820000Y+3260000D01*
X-6060000Y+4090000D02*
X-5420800Y+4064000D01*
X-5370000Y+4013200D01*
X-5370000Y+3260000D01*
X-6390000Y+3680000D02*
X-6019800Y+3680000D01*
X-6019800Y+3860800D01*
X-6096000Y+3937000D01*
X-5344500Y+595000D02*
X-5344500Y+1382100D01*
X-5791200Y+1828800D01*
X-5791200Y+2616200D01*
X-5842000Y+2667000D01*
X-6032500Y+2667000D01*
X-5778500Y+3873500D02*
X-5778500Y+3784600D01*
X-6046082Y+3517018D01*
X-6221197Y+3517018D01*
X-6390000Y+2820000D02*
X-6316662Y+2820000D01*
X-6316062Y+2819400D01*
X-4978400Y+2819400D01*
X-4927600Y+2768600D01*
X-4927600Y+1676400D01*
X-5302095Y+1301905D01*
X-5302095Y+990600D01*
X-5090500Y+990600D01*
X-5090500Y+595000D01*
D13*
X-8001000Y+2286000D03*
X-8636000Y+2222500D03*
X-5207000Y+4953000D03*
X-7112000Y+4064000D03*
X-6540500Y+4191000D03*
X-5969000Y+3429000D03*
X-4508500Y+2476500D03*
X-8001000Y+2159000D03*
X+508000Y+1524000D03*
X-6286500Y+5969000D03*
X-8509000Y+5397500D03*
X+825500Y+1905000D03*
X-5207000Y+2413000D03*
X-6985000Y+2667000D03*
X-4254500Y+4127500D03*
X-8636000Y+1778000D03*
X-5588000Y+2413000D03*
X-9017000Y+1905000D03*
X-7048500Y+4699000D03*
X-7874000Y+5715000D03*
X-8255000Y+2540000D03*
X-6223000Y+7112000D03*
X-8509000Y+2921000D03*
X-6159500Y+4953000D03*
X-9334500Y+3429000D03*
X-1143000Y+3048000D03*
X-8763000Y+2540000D03*
X-2540000Y+1905000D03*
X-3175000Y+2032000D03*
X-7112000Y+4191000D03*
X-8382000Y+2032000D03*
X-3683000Y+3683000D03*
X+381000Y+2794000D03*
X-4572000Y+1270000D03*
X-5270500Y+4635500D03*
X-381000Y+2794000D03*
X-8636000Y+5016500D03*
X-6985000Y+6604000D03*
X-8128000Y+1778000D03*
X-8382000Y+3302000D03*
X+0Y+2794000D03*
X+1079500Y+2794000D03*
X-3683000Y+4127500D03*
X-5270500Y-698500D03*
X-4191000Y+3683000D03*
X-2667000Y+5842000D03*
X-2667000Y+6096000D03*
X-2667000Y+6350000D03*
X-2667000Y+5588000D03*
X-3683000Y+3048000D03*
X-6096000Y+4635500D03*
X-8763000Y+3302000D03*
X-8001000Y+5715000D03*
X-4254500Y+1206500D03*
X-7747000Y+4953000D03*
X-9271000Y+3746500D03*
X-6223000Y+4191000D03*
X-9017000Y+4191000D03*
X-3619500Y+3429000D03*
X-4699000Y+3937000D03*
X-8636000Y+2540000D03*
X-5969000Y+3048000D03*
X-5461000Y+2667000D03*
X-4953000Y+6286500D03*
X-1397000Y+3873500D03*
X-2286000Y+3873500D03*
X-1905000Y+3365500D03*
X-825500Y+3683000D03*
X-2286000Y+3175000D03*
X-2476500Y+2921000D03*
X-1079500Y+5651500D03*
X-1143000Y+6858000D03*
X-1524000Y+6223000D03*
X-1079500Y+6223000D03*
X-3238500Y+6350000D03*
X-3238500Y+6477000D03*
X-2540000Y+1651000D03*
X-8255000Y+2159000D03*
X-8572500Y+3429000D03*
X-2349500Y+7175500D03*
X-2857500Y+4953000D03*
X-2476500Y+4953000D03*
X-1905000Y+5397500D03*
X-1778000Y+4191000D03*
X-1524000Y+2857500D03*
X+635000Y+1143000D03*
X-4064000Y+5969000D03*
X-1524000Y+3175000D03*
X-635000Y+3048000D03*
X+63500Y-508000D03*
X-6731000Y+3746500D03*
X-5207000Y+3556000D03*
X-5715000Y+4254500D03*
X-508000Y+2032000D03*
X-5270500Y+5080000D03*
X-6604000Y+4000500D03*
X-5080000Y+5270500D03*
X+63500Y+2159000D03*
X-3873500Y+2667000D03*
X-5651500Y+4635500D03*
X-6731000Y+3492500D03*
X-6731000Y+3302000D03*
X-6985000Y+3683000D03*
X-6858000Y+3683000D03*
X+2286000Y+3810000D03*
X+2921000Y+4000500D03*
X-6096000Y+3746500D03*
X-5334000Y+127000D03*
X-4572000Y-190500D03*
X-6223000Y-1143000D03*
X-4318000Y+4953000D03*
X-5080000Y+4953000D03*
X-5080000Y+4381500D03*
X-4318000Y+3683000D03*
X-3175000Y+4191000D03*
X-4699000Y+4635500D03*
X-6540500Y+4572000D03*
X-7556500Y+4572000D03*
X-6985000Y+2921000D03*
X-8128000Y+4953000D03*
X-3619500Y+4508500D03*
X-5016500Y+3556000D03*
X-3111500Y+4826000D03*
X-5080000Y+3683000D03*
X-4000500Y+3746500D03*
X-4699000Y+3746500D03*
X-4127500Y+4381500D03*
X-4572000Y+3810000D03*
X-3873500Y+4191000D03*
X-5016500Y+3873500D03*
X-8191500Y+5397500D03*
X-8890000Y+2540000D03*
X-9017000Y+2222500D03*
X-2006600Y+1524000D03*
X-3429000Y+1524000D03*
X-6794500Y+1460500D03*
X-5524500Y+3048000D03*
X-4699000Y+2984500D03*
X-4699000Y+2667000D03*
X-4699000Y+2413000D03*
X-825500Y+6286500D03*
X-5334822Y+5820956D03*
X-870000Y+5880000D03*
X+1651000Y+8064500D03*
X-5524500Y+4635500D03*
X-3746500Y+2857500D03*
X-6223000Y+3873500D03*
X-6223000Y+2730500D03*
X-6794500Y+3111500D03*
X-5133588Y+4261161D03*
X-254000Y+5715000D03*
X-5143500Y+4020000D03*
X-4997991Y+4601754D03*
X-5165689Y+5403429D03*
X-5143500Y+4508500D03*
X-3810000Y+3873500D03*
X-5778500Y+3492500D03*
X-8001000Y+4572000D03*
X-6060000Y+4090000D03*
X-6096000Y+3937000D03*
X-6032500Y+2667000D03*
X-5778500Y+3873500D03*
X-6221197Y+3517018D03*
X-6390000Y+2820000D03*
D14*
X-6390000Y+4630000D03*
X-6390000Y+4580000D03*
X-6390000Y+4530000D03*
X-6390000Y+4480000D03*
X-6390000Y+4430000D03*
X-6390000Y+4380000D03*
X-6390000Y+4330000D03*
X-6390000Y+4280000D03*
X-6390000Y+4230000D03*
X-6390000Y+4180000D03*
X-6390000Y+4130000D03*
X-6390000Y+4080000D03*
X-6390000Y+4030000D03*
X-6390000Y+3980000D03*
X-6390000Y+3930000D03*
X-6390000Y+3880000D03*
X-6390000Y+3830000D03*
X-6390000Y+3780000D03*
X-6390000Y+3730000D03*
X-6390000Y+3680000D03*
X-6390000Y+3630000D03*
X-6390000Y+3580000D03*
X-6390000Y+3530000D03*
X-6390000Y+3480000D03*
X-6390000Y+3430000D03*
D15*
X-6220000Y+3260000D03*
X-6170000Y+3260000D03*
X-6120000Y+3260000D03*
X-6070000Y+3260000D03*
X-6020000Y+3260000D03*
X-5970000Y+3260000D03*
X-5920000Y+3260000D03*
X-5870000Y+3260000D03*
X-5820000Y+3260000D03*
X-5770000Y+3260000D03*
X-5720000Y+3260000D03*
X-5670000Y+3260000D03*
X-5620000Y+3260000D03*
X-5570000Y+3260000D03*
X-5520000Y+3260000D03*
X-5470000Y+3260000D03*
X-5420000Y+3260000D03*
X-5370000Y+3260000D03*
X-5320000Y+3260000D03*
X-5270000Y+3260000D03*
X-5220000Y+3260000D03*
X-5170000Y+3260000D03*
X-5120000Y+3260000D03*
X-5070000Y+3260000D03*
X-5020000Y+3260000D03*
D14*
X-4850000Y+3430000D03*
X-4850000Y+3480000D03*
X-4850000Y+3530000D03*
X-4850000Y+3580000D03*
X-4850000Y+3630000D03*
X-4850000Y+3680000D03*
X-4850000Y+3730000D03*
X-4850000Y+3780000D03*
X-4850000Y+3830000D03*
X-4850000Y+3880000D03*
X-4850000Y+3930000D03*
X-4850000Y+3980000D03*
X-4850000Y+4030000D03*
X-4850000Y+4080000D03*
X-4850000Y+4130000D03*
X-4850000Y+4180000D03*
X-4850000Y+4230000D03*
X-4850000Y+4280000D03*
X-4850000Y+4330000D03*
X-4850000Y+4380000D03*
X-4850000Y+4430000D03*
X-4850000Y+4480000D03*
X-4850000Y+4530000D03*
X-4850000Y+4580000D03*
X-4850000Y+4630000D03*
D15*
X-5020000Y+4800000D03*
X-5070000Y+4800000D03*
X-5120000Y+4800000D03*
X-5170000Y+4800000D03*
X-5220000Y+4800000D03*
X-5270000Y+4800000D03*
X-5320000Y+4800000D03*
X-5370000Y+4800000D03*
X-5420000Y+4800000D03*
X-5470000Y+4800000D03*
X-5520000Y+4800000D03*
X-5570000Y+4800000D03*
X-5620000Y+4800000D03*
X-5670000Y+4800000D03*
X-5720000Y+4800000D03*
X-5770000Y+4800000D03*
X-5820000Y+4800000D03*
X-5870000Y+4800000D03*
X-5920000Y+4800000D03*
X-5970000Y+4800000D03*
X-6020000Y+4800000D03*
X-6070000Y+4800000D03*
X-6120000Y+4800000D03*
X-6170000Y+4800000D03*
X-6220000Y+4800000D03*
D16*
X-4850000Y+4800000D03*
X-6390000Y+3260000D03*
D17*
X-4220000Y+3830000D03*
X-4220000Y+3994000D03*
X-5460000Y+2550000D03*
X-5460000Y+2386000D03*
X-6910000Y+4274000D03*
X-6910000Y+4110000D03*
D18*
X-6540000Y+6130000D03*
X-6326640Y+6130000D03*
D19*
X-7690000Y+3960000D03*
X-7890000Y+3960000D03*
X-7690000Y+4160000D03*
X-7890000Y+4160000D03*
X-7690000Y+4360000D03*
X-7890000Y+4360000D03*
D70*
X-8780000Y+7188000D03*
X-8780000Y+6934000D03*
X-8780000Y+6680000D03*
X-8780000Y+6426000D03*
D17*
X-6900000Y+4842000D03*
X-6900000Y+4678000D03*
D70*
X-5260000Y+1800000D03*
X-4752000Y+1800000D03*
D71*
X-5090000Y+2580000D03*
X-5090000Y+2366640D03*
X-4580000Y+2370000D03*
X-4580000Y+2583360D03*
D20*
X-7040000Y+6730000D03*
X-7240000Y+6730000D03*
D70*
X-6970000Y+6180000D03*
X-7224000Y+6180000D03*
D21*
X-6940000Y+3250000D03*
X-6940000Y+3050000D03*
D70*
X-6320000Y+2400000D03*
X-6066000Y+2400000D03*
D22*
X-8019423Y+8463085D03*
X-7511423Y+8463085D03*
D23*
X-7729500Y+5545000D03*
X-7856500Y+5545000D03*
X-7983500Y+5545000D03*
X-8110500Y+5545000D03*
X-8110500Y+4815000D03*
X-7983500Y+4815000D03*
X-7856500Y+4815000D03*
X-7729500Y+4815000D03*
D24*
X-7359000Y+1416000D03*
X-7130000Y+1416000D03*
X-6901000Y+1416000D03*
D25*
X-7130000Y+2084000D03*
D24*
X-6329000Y+7096000D03*
X-6100000Y+7096000D03*
X-5871000Y+7096000D03*
D25*
X-6100000Y+7764000D03*
D24*
X-2543000Y+1786000D03*
X-2314000Y+1786000D03*
X-2085000Y+1786000D03*
D25*
X-2314000Y+2454000D03*
D26*
X-5320000Y+7010000D03*
D27*
X-5120000Y+7010000D03*
D28*
X-5390000Y+7700000D03*
X-5130000Y+7700000D03*
D29*
X-5950000Y+6210000D03*
X-5950000Y+6464000D03*
D20*
X-5500000Y+6450000D03*
X-5300000Y+6450000D03*
D70*
X-4810000Y+6390000D03*
X-4810000Y+6136000D03*
D29*
X-8010000Y+1000000D03*
X-7756000Y+1000000D03*
D20*
X-7290000Y+1040000D03*
X-7090000Y+1040000D03*
D70*
X-7060000Y+570000D03*
X-7314000Y+570000D03*
D26*
X-6320000Y+1050000D03*
D27*
X-6520000Y+1050000D03*
D29*
X-2844000Y+1080000D03*
X-2590000Y+1080000D03*
D70*
X-1484000Y+1520000D03*
X-1230000Y+1520000D03*
D20*
X-1536000Y+2200000D03*
X-1336000Y+2200000D03*
D72*
X-3054000Y+1770000D03*
X-3054000Y+2030000D03*
D26*
X-1874000Y+1110000D03*
D27*
X-2074000Y+1110000D03*
D73*
X-2765000Y+3984500D03*
X-2765000Y+3857500D03*
X-2765000Y+3730500D03*
X-2765000Y+3603500D03*
X-2765000Y+3476500D03*
X-2765000Y+3349500D03*
X-2765000Y+3222500D03*
X-2765000Y+3095500D03*
X-2135000Y+3095500D03*
X-2135000Y+3222500D03*
X-2135000Y+3349500D03*
X-2135000Y+3476500D03*
X-2135000Y+3603500D03*
X-2135000Y+3730500D03*
X-2135000Y+3857500D03*
X-2135000Y+3984500D03*
D30*
X-1011000Y+3944500D03*
X-1011000Y+3817500D03*
X-1011000Y+3690500D03*
X-1011000Y+3563500D03*
X-1011000Y+3436500D03*
X-1011000Y+3309500D03*
X-1011000Y+3182500D03*
X-1011000Y+3055500D03*
X-469000Y+3055500D03*
X-469000Y+3182500D03*
X-469000Y+3309500D03*
X-469000Y+3436500D03*
X-469000Y+3563500D03*
X-469000Y+3690500D03*
X-469000Y+3817500D03*
X-469000Y+3944500D03*
D20*
X-3500000Y+3070000D03*
X-3300000Y+3070000D03*
X-3530000Y+4090000D03*
X-3330000Y+4090000D03*
X-3490000Y+3750000D03*
X-3290000Y+3750000D03*
X-3490000Y+3420000D03*
X-3290000Y+3420000D03*
X-1490000Y+4050000D03*
X-1690000Y+4050000D03*
X-1510000Y+3690000D03*
X-1710000Y+3690000D03*
X-1520000Y+3310000D03*
X-1720000Y+3310000D03*
X-2280000Y+2790000D03*
X-2480000Y+2790000D03*
D22*
X+3280000Y+1750000D03*
X+3280000Y+2258000D03*
X+3290000Y+2790000D03*
X+3290000Y+3298000D03*
X+3280000Y+3820000D03*
X+3280000Y+4328000D03*
X+3290000Y+4870000D03*
X+3290000Y+5378000D03*
D73*
X-2815000Y+5615500D03*
X-2815000Y+5742500D03*
X-2815000Y+5869500D03*
X-2815000Y+5996500D03*
X-2815000Y+6123500D03*
X-2815000Y+6250500D03*
X-2815000Y+6377500D03*
X-2815000Y+6504500D03*
X-3445000Y+6504500D03*
X-3445000Y+6377500D03*
X-3445000Y+6250500D03*
X-3445000Y+6123500D03*
X-3445000Y+5996500D03*
X-3445000Y+5869500D03*
X-3445000Y+5742500D03*
X-3445000Y+5615500D03*
X-645000Y+5505500D03*
X-645000Y+5632500D03*
X-645000Y+5759500D03*
X-645000Y+5886500D03*
X-645000Y+6013500D03*
X-645000Y+6140500D03*
X-645000Y+6267500D03*
X-645000Y+6394500D03*
X-1275000Y+6394500D03*
X-1275000Y+6267500D03*
X-1275000Y+6140500D03*
X-1275000Y+6013500D03*
X-1275000Y+5886500D03*
X-1275000Y+5759500D03*
X-1275000Y+5632500D03*
X-1275000Y+5505500D03*
D31*
X+2236000Y+7010000D03*
X+1474000Y+7010000D03*
X+458000Y+7010000D03*
X+204000Y+7010000D03*
X+2276000Y+7650000D03*
X+1514000Y+7650000D03*
X+498000Y+7650000D03*
X+244000Y+7650000D03*
X+2266000Y+6330000D03*
X+1504000Y+6330000D03*
X+488000Y+6330000D03*
X+234000Y+6330000D03*
X+2236000Y+5700000D03*
X+1474000Y+5700000D03*
X+458000Y+5700000D03*
X+204000Y+5700000D03*
X+2266000Y+5020000D03*
X+1504000Y+5020000D03*
X+488000Y+5020000D03*
X+234000Y+5020000D03*
X+2276000Y+4410000D03*
X+1514000Y+4410000D03*
X+498000Y+4410000D03*
X+244000Y+4410000D03*
X-314000Y+7640000D03*
X-1076000Y+7640000D03*
X-2092000Y+7640000D03*
X-2346000Y+7640000D03*
X-314000Y+7030000D03*
X-1076000Y+7030000D03*
X-2092000Y+7030000D03*
X-2346000Y+7030000D03*
D22*
X+3280000Y+5910000D03*
X+3280000Y+6418000D03*
X+3280000Y+6940000D03*
X+3280000Y+7448000D03*
X+3280000Y+7980000D03*
X+3280000Y+8488000D03*
X+1760000Y+8680000D03*
X+2268000Y+8680000D03*
X+680000Y+8680000D03*
X+1188000Y+8680000D03*
X-370000Y+8670000D03*
X+138000Y+8670000D03*
X-1430000Y+8670000D03*
X-922000Y+8670000D03*
X-2480000Y+8680000D03*
X-1972000Y+8680000D03*
D20*
X-2250000Y+5680000D03*
X-2450000Y+5680000D03*
X-2260000Y+6020000D03*
X-2460000Y+6020000D03*
X-2270000Y+6340000D03*
X-2470000Y+6340000D03*
X-2290000Y+6650000D03*
X-2490000Y+6650000D03*
X-1750000Y+6370000D03*
X-1550000Y+6370000D03*
X-1750000Y+5430000D03*
X-1550000Y+5430000D03*
X-1750000Y+5750000D03*
X-1550000Y+5750000D03*
X-1750000Y+6070000D03*
X-1550000Y+6070000D03*
X-230000Y+5540000D03*
X-430000Y+5540000D03*
X-230000Y+5870000D03*
X-430000Y+5870000D03*
X-210000Y+6210000D03*
X-410000Y+6210000D03*
X-200000Y+6550000D03*
X-400000Y+6550000D03*
X-4020000Y+5520000D03*
X-3820000Y+5520000D03*
X-4020000Y+6130000D03*
X-3820000Y+6130000D03*
X-4020000Y+6500000D03*
X-3820000Y+6500000D03*
X-4000000Y+5840000D03*
X-3800000Y+5840000D03*
D22*
X+3280000Y+1230000D03*
X+3280000Y+722000D03*
X+3280000Y+214000D03*
X+3280000Y-294000D03*
X-4040000Y+8680000D03*
X-3532000Y+8680000D03*
X-3024000Y+8680000D03*
X-5590000Y+8680000D03*
X-5082000Y+8680000D03*
X-4574000Y+8680000D03*
X+660000Y-1560000D03*
X+1168000Y-1560000D03*
X+1676000Y-1560000D03*
X+2184000Y-1560000D03*
X-1420000Y-1550000D03*
X-912000Y-1550000D03*
X-404000Y-1550000D03*
X+104000Y-1550000D03*
X-3500000Y-1540000D03*
X-2992000Y-1540000D03*
X-2484000Y-1540000D03*
X-1976000Y-1540000D03*
D32*
X-94500Y+1725000D03*
X+32500Y+1725000D03*
X+159500Y+1725000D03*
X+286500Y+1725000D03*
X+413500Y+1725000D03*
X+540500Y+1725000D03*
X+667500Y+1725000D03*
X+794500Y+1725000D03*
X+794500Y+2355000D03*
X+667500Y+2355000D03*
X+540500Y+2355000D03*
X+413500Y+2355000D03*
X+286500Y+2355000D03*
X+159500Y+2355000D03*
X+32500Y+2355000D03*
X-94500Y+2355000D03*
X-4455500Y+595000D03*
X-4582500Y+595000D03*
X-4709500Y+595000D03*
X-4836500Y+595000D03*
X-4963500Y+595000D03*
X-5090500Y+595000D03*
X-5217500Y+595000D03*
X-5344500Y+595000D03*
X-5344500Y-35000D03*
X-5217500Y-35000D03*
X-5090500Y-35000D03*
X-4963500Y-35000D03*
X-4836500Y-35000D03*
X-4709500Y-35000D03*
X-4582500Y-35000D03*
X-4455500Y-35000D03*
D22*
X-5070000Y-1550000D03*
X-4562000Y-1550000D03*
X-4054000Y-1550000D03*
X-6700000Y-1550000D03*
X-6192000Y-1550000D03*
X-5684000Y-1550000D03*
D33*
X-8110000Y+3100000D03*
X-8175000Y+3100000D03*
X-8240000Y+3100000D03*
X-8305000Y+3100000D03*
X-8370000Y+3100000D03*
X-8435000Y+3100000D03*
X-8500000Y+3100000D03*
X-8565000Y+3100000D03*
X-8630000Y+3100000D03*
X-8695000Y+3100000D03*
X-8760000Y+3100000D03*
X-8825000Y+3100000D03*
X-8890000Y+3100000D03*
X-8955000Y+3100000D03*
X-8955000Y+2380000D03*
X-8890000Y+2380000D03*
X-8825000Y+2380000D03*
X-8760000Y+2380000D03*
X-8695000Y+2380000D03*
X-8630000Y+2380000D03*
X-8565000Y+2380000D03*
X-8500000Y+2380000D03*
X-8435000Y+2380000D03*
X-8370000Y+2380000D03*
X-8305000Y+2380000D03*
X-8240000Y+2380000D03*
X-8175000Y+2380000D03*
X-8110000Y+2380000D03*
D70*
X-9330000Y+1100000D03*
X-9076000Y+1100000D03*
X-8644000Y+1110000D03*
X-8390000Y+1110000D03*
D21*
X+2290000Y+1620000D03*
X+2290000Y+1420000D03*
X-4630000Y+1110000D03*
X-4630000Y+910000D03*
X-4460000Y-530000D03*
X-4460000Y-330000D03*
X-4800000Y-530000D03*
X-4800000Y-330000D03*
X-5590000Y-330000D03*
X-5590000Y-530000D03*
X-5250000Y-340000D03*
X-5250000Y-540000D03*
X-4880000Y+910000D03*
X-4880000Y+1110000D03*
X-5200000Y+910000D03*
X-5200000Y+1110000D03*
X-8420000Y+3460000D03*
X-8420000Y+3660000D03*
X-8740000Y+3460000D03*
X-8740000Y+3660000D03*
X-7780000Y+3250000D03*
X-7780000Y+3050000D03*
D71*
X-8120000Y+1886640D03*
X-8120000Y+2100000D03*
X-8600000Y+2100000D03*
X-8600000Y+1886640D03*
D21*
X-8700000Y+4460000D03*
X-8700000Y+4260000D03*
X-9160000Y+4440000D03*
X-9160000Y+4240000D03*
X+180000Y+1140000D03*
X+180000Y+1340000D03*
X-210000Y+2840000D03*
X-210000Y+2640000D03*
X+130000Y+2840000D03*
X+130000Y+2640000D03*
X+950000Y+2640000D03*
X+950000Y+2840000D03*
X+590000Y+2640000D03*
X+590000Y+2840000D03*
D71*
X-8460000Y+5060000D03*
X-8460000Y+5273360D03*
D21*
X-7708148Y-150709D03*
X-7708148Y-350709D03*
X-7718148Y-940709D03*
X-7718148Y-1140709D03*
D28*
X-7270000Y+2480000D03*
X-7010000Y+2480000D03*
D31*
X-8349000Y-770000D03*
X-8349000Y-520000D03*
X-8549000Y-520000D03*
X-8549000Y-770000D03*
D34*
X-8820000Y-1247000D03*
X-8820000Y-43000D03*
D21*
X-8080000Y+3460000D03*
X-8080000Y+3660000D03*
X-4280000Y+1100000D03*
X-4280000Y+900000D03*
D71*
X-8900000Y+2090000D03*
X-8900000Y+1876640D03*
X-9190000Y+3633360D03*
X-9190000Y+3420000D03*
D35*
X-9460000Y+7210000D03*
X-9460000Y+6890000D03*
X-9460000Y+6570000D03*
X-9460000Y+6250000D03*
D36*
X-9390000Y+8960000D03*
X-9370000Y-1830000D03*
X+3430000Y-1810000D03*
X-4470000Y+7830000D03*
X+3420000Y+9150000D03*
D37*
X-9980000Y-2290000D02*
X+3960000Y-2290000D01*
X+3960000Y+9460000D01*
X-9980000Y+9460000D01*
X-9980000Y-2290000D01*
D38*
X+3960000Y-2290000D01*
X+3960000Y+9460000D01*
X-9980000Y+9460000D01*
X-9980000Y-2290000D01*
M02*
