G04 PROTEUS GERBER X2 FILE*
%TF.GenerationSoftware,Labcenter,Proteus,8.9-SP0-Build27865*%
%TF.CreationDate,2020-09-22T21:26:54+00:00*%
%TF.FileFunction,AssemblyDrawing,Top*%
%TF.FilePolarity,Positive*%
%TF.Part,Single*%
%TF.SameCoordinates,{f185f003-b8c0-4bff-ac61-c446508f75ad}*%
%FSLAX45Y45*%
%MOMM*%
G01*
%TA.AperFunction,Profile*%
%ADD37C,0.203200*%
%TA.AperFunction,Material*%
%ADD99C,0.050000*%
%ADD100C,0.274320*%
%ADD101C,0.581660*%
%ADD102C,0.588000*%
%ADD103C,0.101660*%
%ADD104C,0.076250*%
%ADD43C,0.203200*%
%ADD44C,0.508000*%
%ADD105C,0.078740*%
%ADD45C,0.152400*%
%ADD106C,0.558800*%
%ADD107C,0.191130*%
%ADD108C,0.812800*%
%ADD109C,0.161290*%
%ADD110C,0.316990*%
%ADD111C,0.085340*%
%ADD112C,0.579120*%
%ADD113C,0.118330*%
%ADD114C,0.050800*%
%ADD115C,0.191010*%
%ADD116C,1.219200*%
%ADD117C,0.172720*%
%ADD118C,0.620000*%
%ADD119C,0.235250*%
%ADD120C,0.524000*%
%ADD121C,0.285000*%
%ADD122C,0.213750*%
%ADD123C,0.448000*%
%ADD124C,0.185000*%
%ADD125C,0.721360*%
%ADD126C,0.141000*%
%ADD127C,0.132080*%
%ADD128C,0.088750*%
%ADD129C,0.123750*%
%ADD130C,0.138750*%
%ADD131C,0.585000*%
%ADD132C,0.369660*%
%ADD133C,0.351660*%
%ADD134C,0.148040*%
%ADD41C,0.600000*%
%ADD135C,0.334140*%
%ADD136C,0.256540*%
%ADD137C,0.140390*%
%ADD138C,0.154430*%
%ADD139C,0.410460*%
%ADD140C,0.293180*%
%ADD141C,0.308860*%
%ADD142C,0.411480*%
%ADD143C,0.276250*%
%ADD49C,0.100000*%
%ADD144C,0.467250*%
%ADD145C,1.080000*%
%ADD146C,0.276000*%
%TD.AperFunction*%
D37*
X-9980000Y-2290000D02*
X+3960000Y-2290000D01*
X+3960000Y+9460000D01*
X-9980000Y+9460000D01*
X-9980000Y-2290000D01*
D99*
X-6490000Y+3160000D02*
X-4750000Y+3160000D01*
X-4750000Y+4900000D01*
X-6490000Y+4900000D01*
X-6490000Y+3160000D01*
X-5620000Y+4080000D02*
X-5620000Y+3980000D01*
X-5570000Y+4030000D02*
X-5670000Y+4030000D01*
D100*
X-6390000Y+4630000D02*
X-6390000Y+4630000D01*
D101*
X-6085332Y+4204499D02*
X-6085332Y+3913666D01*
X-6027166Y+3855500D01*
X-5794500Y+3855500D01*
X-5736333Y+3913666D01*
X-5736333Y+4204499D01*
X-5271001Y+4146333D02*
X-5329168Y+4204499D01*
X-5503667Y+4204499D01*
X-5561834Y+4146333D01*
X-5561834Y+3913666D01*
X-5503667Y+3855500D01*
X-5329168Y+3855500D01*
X-5271001Y+3913666D01*
X-5271001Y+3971833D01*
X-5329168Y+4030000D01*
X-5561834Y+4030000D01*
D99*
X-4309000Y+3762000D02*
X-4131000Y+3762000D01*
X-4131000Y+4062000D01*
X-4309000Y+4062000D01*
X-4309000Y+3762000D01*
D102*
X-4220000Y+3830000D02*
X-4220000Y+3830000D01*
D103*
X-4199666Y+3891667D02*
X-4189500Y+3881500D01*
X-4189500Y+3851001D01*
X-4209833Y+3830668D01*
X-4230166Y+3830668D01*
X-4250499Y+3851001D01*
X-4250499Y+3881500D01*
X-4240333Y+3891667D01*
X-4220000Y+3932333D02*
X-4230166Y+3922166D01*
X-4240333Y+3922166D01*
X-4250499Y+3932333D01*
X-4250499Y+3962832D01*
X-4240333Y+3972999D01*
X-4230166Y+3972999D01*
X-4220000Y+3962832D01*
X-4220000Y+3932333D01*
X-4209833Y+3922166D01*
X-4199666Y+3922166D01*
X-4189500Y+3932333D01*
X-4189500Y+3962832D01*
X-4199666Y+3972999D01*
X-4209833Y+3972999D01*
X-4220000Y+3962832D01*
D99*
X-5549000Y+2318000D02*
X-5371000Y+2318000D01*
X-5371000Y+2618000D01*
X-5549000Y+2618000D01*
X-5549000Y+2318000D01*
D102*
X-5460000Y+2550000D02*
X-5460000Y+2550000D01*
D103*
X-5439666Y+2447667D02*
X-5429500Y+2437500D01*
X-5429500Y+2407001D01*
X-5449833Y+2386668D01*
X-5470166Y+2386668D01*
X-5490499Y+2407001D01*
X-5490499Y+2437500D01*
X-5480333Y+2447667D01*
X-5470166Y+2528999D02*
X-5460000Y+2518832D01*
X-5460000Y+2488333D01*
X-5470166Y+2478166D01*
X-5480333Y+2478166D01*
X-5490499Y+2488333D01*
X-5490499Y+2518832D01*
X-5480333Y+2528999D01*
X-5439666Y+2528999D01*
X-5429500Y+2518832D01*
X-5429500Y+2488333D01*
D99*
X-6999000Y+4042000D02*
X-6821000Y+4042000D01*
X-6821000Y+4342000D01*
X-6999000Y+4342000D01*
X-6999000Y+4042000D01*
D102*
X-6910000Y+4274000D02*
X-6910000Y+4274000D01*
D104*
X-6894750Y+4146250D02*
X-6887125Y+4138625D01*
X-6887125Y+4115750D01*
X-6902375Y+4100500D01*
X-6917625Y+4100500D01*
X-6932875Y+4115750D01*
X-6932875Y+4138625D01*
X-6925250Y+4146250D01*
X-6917625Y+4176750D02*
X-6932875Y+4192000D01*
X-6887125Y+4192000D01*
X-6894750Y+4222500D02*
X-6925250Y+4222500D01*
X-6932875Y+4230125D01*
X-6932875Y+4260625D01*
X-6925250Y+4268250D01*
X-6894750Y+4268250D01*
X-6887125Y+4260625D01*
X-6887125Y+4230125D01*
X-6894750Y+4222500D01*
X-6887125Y+4222500D02*
X-6932875Y+4268250D01*
D43*
X-6590800Y+6056340D02*
X-6275840Y+6056340D01*
X-6275840Y+6198580D01*
X-6590800Y+6198580D01*
X-6590800Y+6056340D01*
D44*
X-6540000Y+6130000D02*
X-6540000Y+6130000D01*
D105*
X-6480564Y+6111712D02*
X-6488438Y+6103838D01*
X-6512060Y+6103838D01*
X-6527808Y+6119586D01*
X-6527808Y+6135334D01*
X-6512060Y+6151082D01*
X-6488438Y+6151082D01*
X-6480564Y+6143208D01*
X-6449068Y+6135334D02*
X-6433320Y+6151082D01*
X-6433320Y+6103838D01*
X-6386076Y+6135334D02*
X-6370328Y+6151082D01*
X-6370328Y+6103838D01*
D45*
X-8013520Y+3785350D02*
X-7563940Y+3785350D01*
X-7563940Y+4534650D01*
X-8013520Y+4534650D01*
X-8013520Y+3785350D01*
X-7563940Y+3785350D01*
X-7563940Y+4534650D01*
X-8013520Y+4534650D01*
X-8013520Y+3785350D01*
D106*
X-7690000Y+3960000D02*
X-7690000Y+3960000D01*
D107*
X-7750503Y+3930638D02*
X-7731390Y+3949751D01*
X-7731390Y+4026205D01*
X-7750503Y+4045319D01*
X-7769617Y+4045319D01*
X-7788730Y+4026205D01*
X-7788730Y+3949751D01*
X-7807844Y+3930638D01*
X-7826957Y+3930638D01*
X-7846071Y+3949751D01*
X-7846071Y+4026205D01*
X-7826957Y+4045319D01*
X-7731390Y+4083546D02*
X-7846071Y+4083546D01*
X-7846071Y+4179113D01*
X-7826957Y+4198227D01*
X-7807844Y+4198227D01*
X-7788730Y+4179113D01*
X-7788730Y+4083546D01*
X-7846071Y+4255567D02*
X-7846071Y+4332021D01*
X-7846071Y+4293794D02*
X-7731390Y+4293794D01*
X-7731390Y+4255567D02*
X-7731390Y+4332021D01*
D43*
X-9044160Y+6161840D02*
X-8388840Y+6161840D01*
X-8388840Y+7452160D01*
X-9044160Y+7452160D01*
X-9044160Y+6161840D01*
D108*
X-8780000Y+7188000D02*
X-8780000Y+7188000D01*
D109*
X-8668113Y+6355388D02*
X-8764887Y+6355388D01*
X-8764887Y+6419904D01*
X-8732629Y+6452162D01*
X-8700371Y+6452162D01*
X-8668113Y+6419904D01*
X-8668113Y+6355388D01*
X-8764887Y+6500549D02*
X-8764887Y+6565065D01*
X-8764887Y+6532807D02*
X-8668113Y+6532807D01*
X-8668113Y+6500549D02*
X-8668113Y+6565065D01*
X-8684242Y+6613452D02*
X-8668113Y+6629581D01*
X-8668113Y+6694097D01*
X-8684242Y+6710226D01*
X-8700371Y+6710226D01*
X-8716500Y+6694097D01*
X-8716500Y+6629581D01*
X-8732629Y+6613452D01*
X-8748758Y+6613452D01*
X-8764887Y+6629581D01*
X-8764887Y+6694097D01*
X-8748758Y+6710226D01*
X-8668113Y+6742484D02*
X-8764887Y+6742484D01*
X-8764887Y+6823129D01*
X-8748758Y+6839258D01*
X-8732629Y+6839258D01*
X-8716500Y+6823129D01*
X-8716500Y+6742484D01*
X-8764887Y+6871516D02*
X-8668113Y+6871516D01*
X-8668113Y+6968290D01*
X-8668113Y+7000548D02*
X-8732629Y+7000548D01*
X-8764887Y+7032806D01*
X-8764887Y+7065064D01*
X-8732629Y+7097322D01*
X-8668113Y+7097322D01*
X-8700371Y+7000548D02*
X-8700371Y+7097322D01*
X-8764887Y+7226354D02*
X-8668113Y+7129580D01*
X-8764887Y+7129580D02*
X-8716500Y+7177967D01*
D99*
X-6989000Y+4610000D02*
X-6811000Y+4610000D01*
X-6811000Y+4910000D01*
X-6989000Y+4910000D01*
X-6989000Y+4610000D01*
D102*
X-6900000Y+4842000D02*
X-6900000Y+4842000D01*
D103*
X-6879666Y+4739667D02*
X-6869500Y+4729500D01*
X-6869500Y+4699001D01*
X-6889833Y+4678668D01*
X-6910166Y+4678668D01*
X-6930499Y+4699001D01*
X-6930499Y+4729500D01*
X-6920333Y+4739667D01*
X-6920333Y+4770166D02*
X-6930499Y+4780333D01*
X-6930499Y+4810832D01*
X-6920333Y+4820999D01*
X-6910166Y+4820999D01*
X-6900000Y+4810832D01*
X-6889833Y+4820999D01*
X-6879666Y+4820999D01*
X-6869500Y+4810832D01*
X-6869500Y+4780333D01*
X-6879666Y+4770166D01*
X-6900000Y+4790499D02*
X-6900000Y+4810832D01*
D43*
X-5524160Y+1535840D02*
X-4487840Y+1535840D01*
X-4487840Y+2064160D01*
X-5524160Y+2064160D01*
X-5524160Y+1535840D01*
D108*
X-5260000Y+1800000D02*
X-5260000Y+1800000D01*
D110*
X-5259593Y+1895097D02*
X-5069399Y+1704902D01*
X-5259593Y+1704902D02*
X-5069399Y+1895097D01*
X-4942602Y+1831699D02*
X-4879204Y+1895097D01*
X-4879204Y+1704902D01*
D43*
X-5163660Y+2315840D02*
X-5021420Y+2315840D01*
X-5021420Y+2630800D01*
X-5163660Y+2630800D01*
X-5163660Y+2315840D01*
D44*
X-5090000Y+2580000D02*
X-5090000Y+2580000D01*
D111*
X-5075471Y+2456251D02*
X-5066936Y+2447716D01*
X-5066936Y+2422113D01*
X-5084005Y+2405045D01*
X-5101074Y+2405045D01*
X-5118143Y+2422113D01*
X-5118143Y+2447716D01*
X-5109608Y+2456251D01*
X-5101074Y+2490388D02*
X-5118143Y+2507457D01*
X-5066936Y+2507457D01*
D43*
X-4648580Y+2319200D02*
X-4506340Y+2319200D01*
X-4506340Y+2634160D01*
X-4648580Y+2634160D01*
X-4648580Y+2319200D01*
D44*
X-4580000Y+2370000D02*
X-4580000Y+2370000D01*
D111*
X-4560391Y+2459611D02*
X-4551856Y+2451076D01*
X-4551856Y+2425473D01*
X-4568925Y+2408405D01*
X-4585994Y+2408405D01*
X-4603063Y+2425473D01*
X-4603063Y+2451076D01*
X-4594528Y+2459611D01*
X-4594528Y+2485214D02*
X-4603063Y+2493748D01*
X-4603063Y+2519351D01*
X-4594528Y+2527886D01*
X-4585994Y+2527886D01*
X-4577460Y+2519351D01*
X-4577460Y+2493748D01*
X-4568925Y+2485214D01*
X-4551856Y+2485214D01*
X-4551856Y+2527886D01*
D99*
X-6965000Y+6830000D02*
X-7315000Y+6830000D01*
X-7315000Y+6630000D01*
X-6965000Y+6630000D01*
X-6965000Y+6830000D01*
X-7140000Y+6680000D02*
X-7140000Y+6780000D01*
X-7190000Y+6730000D02*
X-7090000Y+6730000D01*
D112*
X-7040000Y+6730000D02*
X-7040000Y+6730000D01*
D113*
X-7234666Y+6694500D02*
X-7234666Y+6765500D01*
X-7175500Y+6765500D01*
X-7163667Y+6753667D01*
X-7163667Y+6741833D01*
X-7175500Y+6730000D01*
X-7234666Y+6730000D01*
X-7175500Y+6730000D02*
X-7163667Y+6718167D01*
X-7163667Y+6694500D01*
X-7116334Y+6741833D02*
X-7092667Y+6765500D01*
X-7092667Y+6694500D01*
D114*
X-6812100Y+6180000D02*
X-6813018Y+6202814D01*
X-6820471Y+6248443D01*
X-6836018Y+6294072D01*
X-6861260Y+6339701D01*
X-6899802Y+6385231D01*
X-6945431Y+6420727D01*
X-6991060Y+6443847D01*
X-7036689Y+6457700D01*
X-7082318Y+6463646D01*
X-7096080Y+6463980D01*
X-7380060Y+6180000D02*
X-7379142Y+6202814D01*
X-7371689Y+6248443D01*
X-7356142Y+6294072D01*
X-7330900Y+6339701D01*
X-7292358Y+6385231D01*
X-7246729Y+6420727D01*
X-7201100Y+6443847D01*
X-7155471Y+6457700D01*
X-7109842Y+6463646D01*
X-7096080Y+6463980D01*
X-7380060Y+6180000D02*
X-7379142Y+6157186D01*
X-7371689Y+6111557D01*
X-7356142Y+6065928D01*
X-7330900Y+6020299D01*
X-7292358Y+5974769D01*
X-7246729Y+5939273D01*
X-7201100Y+5916153D01*
X-7155471Y+5902300D01*
X-7109842Y+5896354D01*
X-7096080Y+5896020D01*
X-6812100Y+6180000D02*
X-6813018Y+6157186D01*
X-6820471Y+6111557D01*
X-6836018Y+6065928D01*
X-6861260Y+6020299D01*
X-6899802Y+5974769D01*
X-6945431Y+5939273D01*
X-6991060Y+5916153D01*
X-7036689Y+5902300D01*
X-7082318Y+5896354D01*
X-7096080Y+5896020D01*
D108*
X-7224000Y+6180000D02*
X-7224000Y+6180000D01*
D115*
X-7248890Y+6122696D02*
X-7248890Y+6237304D01*
X-7172485Y+6237304D01*
X-7134283Y+6199101D01*
X-7134283Y+6160899D01*
X-7172485Y+6122696D01*
X-7248890Y+6122696D01*
X-6981473Y+6160899D02*
X-7096080Y+6160899D01*
X-7019675Y+6237304D01*
X-7019675Y+6122696D01*
D99*
X-7040000Y+3325000D02*
X-7040000Y+2975000D01*
X-6840000Y+2975000D01*
X-6840000Y+3325000D01*
X-7040000Y+3325000D01*
X-6890000Y+3150000D02*
X-6990000Y+3150000D01*
X-6940000Y+3100000D02*
X-6940000Y+3200000D01*
D112*
X-6940000Y+3250000D02*
X-6940000Y+3250000D01*
D113*
X-6904500Y+3055334D02*
X-6975500Y+3055334D01*
X-6975500Y+3114500D01*
X-6963667Y+3126333D01*
X-6951833Y+3126333D01*
X-6940000Y+3114500D01*
X-6940000Y+3055334D01*
X-6940000Y+3114500D02*
X-6928167Y+3126333D01*
X-6904500Y+3126333D01*
X-6963667Y+3161833D02*
X-6975500Y+3173666D01*
X-6975500Y+3209166D01*
X-6963667Y+3220999D01*
X-6951833Y+3220999D01*
X-6940000Y+3209166D01*
X-6940000Y+3173666D01*
X-6928167Y+3161833D01*
X-6904500Y+3161833D01*
X-6904500Y+3220999D01*
D114*
X-5909940Y+2400000D02*
X-5910858Y+2422814D01*
X-5918311Y+2468443D01*
X-5933858Y+2514072D01*
X-5959100Y+2559701D01*
X-5997642Y+2605231D01*
X-6043271Y+2640727D01*
X-6088900Y+2663847D01*
X-6134529Y+2677700D01*
X-6180158Y+2683646D01*
X-6193920Y+2683980D01*
X-6477900Y+2400000D02*
X-6476982Y+2422814D01*
X-6469529Y+2468443D01*
X-6453982Y+2514072D01*
X-6428740Y+2559701D01*
X-6390198Y+2605231D01*
X-6344569Y+2640727D01*
X-6298940Y+2663847D01*
X-6253311Y+2677700D01*
X-6207682Y+2683646D01*
X-6193920Y+2683980D01*
X-6477900Y+2400000D02*
X-6476982Y+2377186D01*
X-6469529Y+2331557D01*
X-6453982Y+2285928D01*
X-6428740Y+2240299D01*
X-6390198Y+2194769D01*
X-6344569Y+2159273D01*
X-6298940Y+2136153D01*
X-6253311Y+2122300D01*
X-6207682Y+2116354D01*
X-6193920Y+2116020D01*
X-5909940Y+2400000D02*
X-5910858Y+2377186D01*
X-5918311Y+2331557D01*
X-5933858Y+2285928D01*
X-5959100Y+2240299D01*
X-5997642Y+2194769D01*
X-6043271Y+2159273D01*
X-6088900Y+2136153D01*
X-6134529Y+2122300D01*
X-6180158Y+2116354D01*
X-6193920Y+2116020D01*
D108*
X-6066000Y+2400000D02*
X-6066000Y+2400000D01*
D115*
X-6346730Y+2342696D02*
X-6346730Y+2457304D01*
X-6270325Y+2457304D01*
X-6232123Y+2419101D01*
X-6232123Y+2380899D01*
X-6270325Y+2342696D01*
X-6346730Y+2342696D01*
X-6155718Y+2419101D02*
X-6117515Y+2457304D01*
X-6117515Y+2342696D01*
D43*
X-8283583Y+7944925D02*
X-7247263Y+7944925D01*
X-7247263Y+8981245D01*
X-8283583Y+8981245D01*
X-8283583Y+7944925D01*
D116*
X-8019423Y+8463085D02*
X-8019423Y+8463085D01*
D117*
X-8110863Y+8411269D02*
X-8110863Y+8514901D01*
X-8024503Y+8514901D01*
X-8007231Y+8497629D01*
X-8007231Y+8480357D01*
X-8024503Y+8463085D01*
X-8110863Y+8463085D01*
X-7972687Y+8480357D02*
X-7938143Y+8514901D01*
X-7903599Y+8514901D01*
X-7869055Y+8480357D01*
X-7869055Y+8445813D01*
X-7903599Y+8411269D01*
X-7938143Y+8411269D01*
X-7972687Y+8445813D01*
X-7972687Y+8480357D01*
X-7834511Y+8514901D02*
X-7834511Y+8411269D01*
X-7782695Y+8463085D01*
X-7730879Y+8411269D01*
X-7730879Y+8514901D01*
X-7592703Y+8411269D02*
X-7696335Y+8411269D01*
X-7696335Y+8514901D01*
X-7592703Y+8514901D01*
X-7696335Y+8463085D02*
X-7627247Y+8463085D01*
X-7558159Y+8411269D02*
X-7558159Y+8514901D01*
X-7471799Y+8514901D01*
X-7454527Y+8497629D01*
X-7454527Y+8480357D01*
X-7471799Y+8463085D01*
X-7558159Y+8463085D01*
X-7471799Y+8463085D02*
X-7454527Y+8445813D01*
X-7454527Y+8411269D01*
D99*
X-8208000Y+4712000D02*
X-7632000Y+4712000D01*
X-7632000Y+5648000D01*
X-8208000Y+5648000D01*
X-8208000Y+4712000D01*
D118*
X-7729500Y+5545000D02*
X-7729500Y+5545000D01*
D119*
X-7990575Y+4897700D02*
X-7872950Y+4897700D01*
X-7849425Y+4921225D01*
X-7849425Y+5015325D01*
X-7872950Y+5038850D01*
X-7990575Y+5038850D01*
X-7943525Y+5132950D02*
X-7990575Y+5180000D01*
X-7849425Y+5180000D01*
X-7943525Y+5321150D02*
X-7990575Y+5368200D01*
X-7849425Y+5368200D01*
D99*
X-7491000Y+1961000D02*
X-7491000Y+1539000D01*
X-7430990Y+1539000D01*
X-7430990Y+1325000D01*
X-6829010Y+1325000D01*
X-6829010Y+1539000D01*
X-6769000Y+1539000D01*
X-6769000Y+1961000D01*
X-6943000Y+1961000D01*
X-6943000Y+2175000D01*
X-7317000Y+2175000D01*
X-7317000Y+1961000D01*
X-7491000Y+1961000D01*
D120*
X-7359000Y+1416000D02*
X-7359000Y+1416000D01*
D121*
X-7215500Y+1522000D02*
X-7073000Y+1522000D01*
X-7044500Y+1550500D01*
X-7044500Y+1664500D01*
X-7073000Y+1693000D01*
X-7215500Y+1693000D01*
X-7215500Y+1921000D02*
X-7215500Y+1778500D01*
X-7158500Y+1778500D01*
X-7158500Y+1892500D01*
X-7130000Y+1921000D01*
X-7073000Y+1921000D01*
X-7044500Y+1892500D01*
X-7044500Y+1807000D01*
X-7073000Y+1778500D01*
D99*
X-6461000Y+7641000D02*
X-6461000Y+7219000D01*
X-6400990Y+7219000D01*
X-6400990Y+7005000D01*
X-5799010Y+7005000D01*
X-5799010Y+7219000D01*
X-5739000Y+7219000D01*
X-5739000Y+7641000D01*
X-5913000Y+7641000D01*
X-5913000Y+7855000D01*
X-6287000Y+7855000D01*
X-6287000Y+7641000D01*
X-6461000Y+7641000D01*
D120*
X-6329000Y+7096000D02*
X-6329000Y+7096000D01*
D121*
X-6185500Y+7202000D02*
X-6043000Y+7202000D01*
X-6014500Y+7230500D01*
X-6014500Y+7344500D01*
X-6043000Y+7373000D01*
X-6185500Y+7373000D01*
X-6157000Y+7458500D02*
X-6185500Y+7487000D01*
X-6185500Y+7572500D01*
X-6157000Y+7601000D01*
X-6128500Y+7601000D01*
X-6100000Y+7572500D01*
X-6100000Y+7487000D01*
X-6071500Y+7458500D01*
X-6014500Y+7458500D01*
X-6014500Y+7601000D01*
D99*
X-2675000Y+2331000D02*
X-2675000Y+1909000D01*
X-2614990Y+1909000D01*
X-2614990Y+1695000D01*
X-2013010Y+1695000D01*
X-2013010Y+1909000D01*
X-1953000Y+1909000D01*
X-1953000Y+2331000D01*
X-2127000Y+2331000D01*
X-2127000Y+2545000D01*
X-2501000Y+2545000D01*
X-2501000Y+2331000D01*
X-2675000Y+2331000D01*
D120*
X-2543000Y+1786000D02*
X-2543000Y+1786000D01*
D122*
X-2378125Y+1863500D02*
X-2271250Y+1863500D01*
X-2249875Y+1884875D01*
X-2249875Y+1970375D01*
X-2271250Y+1991750D01*
X-2378125Y+1991750D01*
X-2335375Y+2077250D02*
X-2378125Y+2120000D01*
X-2249875Y+2120000D01*
X-2271250Y+2205500D02*
X-2356750Y+2205500D01*
X-2378125Y+2226875D01*
X-2378125Y+2312375D01*
X-2356750Y+2333750D01*
X-2271250Y+2333750D01*
X-2249875Y+2312375D01*
X-2249875Y+2226875D01*
X-2271250Y+2205500D01*
X-2249875Y+2205500D02*
X-2378125Y+2333750D01*
D99*
X-5195000Y+7010000D02*
X-5195086Y+7012076D01*
X-5195788Y+7016229D01*
X-5197258Y+7020382D01*
X-5199660Y+7024535D01*
X-5203333Y+7028634D01*
X-5207486Y+7031643D01*
X-5211639Y+7033560D01*
X-5215792Y+7034643D01*
X-5219945Y+7035000D01*
X-5220000Y+7035000D01*
X-5245000Y+7010000D02*
X-5244914Y+7012076D01*
X-5244212Y+7016229D01*
X-5242742Y+7020382D01*
X-5240340Y+7024535D01*
X-5236667Y+7028634D01*
X-5232514Y+7031643D01*
X-5228361Y+7033560D01*
X-5224208Y+7034643D01*
X-5220055Y+7035000D01*
X-5220000Y+7035000D01*
X-5245000Y+7010000D02*
X-5244914Y+7007924D01*
X-5244212Y+7003771D01*
X-5242742Y+6999618D01*
X-5240340Y+6995465D01*
X-5236667Y+6991366D01*
X-5232514Y+6988357D01*
X-5228361Y+6986440D01*
X-5224208Y+6985357D01*
X-5220055Y+6985000D01*
X-5220000Y+6985000D01*
X-5195000Y+7010000D02*
X-5195086Y+7007924D01*
X-5195788Y+7003771D01*
X-5197258Y+6999618D01*
X-5199660Y+6995465D01*
X-5203333Y+6991366D01*
X-5207486Y+6988357D01*
X-5211639Y+6986440D01*
X-5215792Y+6985357D01*
X-5219945Y+6985000D01*
X-5220000Y+6985000D01*
X-5185000Y+7010000D02*
X-5255000Y+7010000D01*
X-5220000Y+7045000D02*
X-5220000Y+6975000D01*
X-5495000Y+7285000D02*
X-5495000Y+7010000D01*
X-5489528Y+6953772D01*
X-5473784Y+6901773D01*
X-5448775Y+6855011D01*
X-5415508Y+6814492D01*
X-5374990Y+6781225D01*
X-5328227Y+6756216D01*
X-5276228Y+6740472D01*
X-5220000Y+6735000D01*
X-5163772Y+6740472D01*
X-5111773Y+6756216D01*
X-5065010Y+6781225D01*
X-5024492Y+6814492D01*
X-4991225Y+6855011D01*
X-4966216Y+6901773D01*
X-4950472Y+6953772D01*
X-4945000Y+7010000D01*
X-4950472Y+7066228D01*
X-4966216Y+7118227D01*
X-4991225Y+7164989D01*
X-5024492Y+7205508D01*
X-5065010Y+7238775D01*
X-5111773Y+7263784D01*
X-5163772Y+7279528D01*
X-5220000Y+7285000D01*
X-5495000Y+7285000D01*
D123*
X-5120000Y+7010000D02*
X-5120000Y+7010000D01*
D124*
X-5257000Y+6973000D02*
X-5275500Y+6954500D01*
X-5331000Y+6954500D01*
X-5368000Y+6991500D01*
X-5368000Y+7028500D01*
X-5331000Y+7065500D01*
X-5275500Y+7065500D01*
X-5257000Y+7047000D01*
X-5109000Y+6991500D02*
X-5220000Y+6991500D01*
X-5146000Y+7065500D01*
X-5146000Y+6954500D01*
D99*
X-5505000Y+7585000D02*
X-5015000Y+7585000D01*
X-5015000Y+7815000D01*
X-5505000Y+7815000D01*
X-5505000Y+7585000D01*
X-5260000Y+7750000D02*
X-5260000Y+7650000D01*
X-5210000Y+7700000D02*
X-5310000Y+7700000D01*
D125*
X-5390000Y+7700000D02*
X-5390000Y+7700000D01*
D126*
X-5288200Y+7671800D02*
X-5302300Y+7657700D01*
X-5344600Y+7657700D01*
X-5372800Y+7685900D01*
X-5372800Y+7714100D01*
X-5344600Y+7742300D01*
X-5302300Y+7742300D01*
X-5288200Y+7728200D01*
X-5245900Y+7742300D02*
X-5175400Y+7742300D01*
X-5175400Y+7728200D01*
X-5245900Y+7657700D01*
D43*
X-6087160Y+6072840D02*
X-5812840Y+6072840D01*
X-5812840Y+6601160D01*
X-6087160Y+6601160D01*
X-6087160Y+6072840D01*
D108*
X-5950000Y+6210000D02*
X-5950000Y+6210000D01*
D127*
X-5936792Y+6178504D02*
X-5923584Y+6178504D01*
X-5910376Y+6191712D01*
X-5910376Y+6244544D01*
X-5923584Y+6257752D01*
X-5989624Y+6257752D01*
X-5910376Y+6284168D02*
X-5989624Y+6284168D01*
X-5989624Y+6350208D01*
X-5976416Y+6363416D01*
X-5963208Y+6363416D01*
X-5950000Y+6350208D01*
X-5950000Y+6284168D01*
X-5963208Y+6416248D02*
X-5989624Y+6442664D01*
X-5910376Y+6442664D01*
D99*
X-5575000Y+6350000D02*
X-5225000Y+6350000D01*
X-5225000Y+6550000D01*
X-5575000Y+6550000D01*
X-5575000Y+6350000D01*
X-5400000Y+6500000D02*
X-5400000Y+6400000D01*
X-5350000Y+6450000D02*
X-5450000Y+6450000D01*
D112*
X-5500000Y+6450000D02*
X-5500000Y+6450000D01*
D113*
X-5494666Y+6414500D02*
X-5494666Y+6485500D01*
X-5435500Y+6485500D01*
X-5423667Y+6473667D01*
X-5423667Y+6461833D01*
X-5435500Y+6450000D01*
X-5494666Y+6450000D01*
X-5435500Y+6450000D02*
X-5423667Y+6438167D01*
X-5423667Y+6414500D01*
X-5329001Y+6473667D02*
X-5340834Y+6485500D01*
X-5376334Y+6485500D01*
X-5388167Y+6473667D01*
X-5388167Y+6426333D01*
X-5376334Y+6414500D01*
X-5340834Y+6414500D01*
X-5329001Y+6426333D01*
X-5329001Y+6438167D01*
X-5340834Y+6450000D01*
X-5388167Y+6450000D01*
D114*
X-4526020Y+6263920D02*
X-4526938Y+6286734D01*
X-4534391Y+6332363D01*
X-4549938Y+6377992D01*
X-4575180Y+6423621D01*
X-4613722Y+6469151D01*
X-4659351Y+6504647D01*
X-4704980Y+6527767D01*
X-4750609Y+6541620D01*
X-4796238Y+6547566D01*
X-4810000Y+6547900D01*
X-5093980Y+6263920D02*
X-5093062Y+6286734D01*
X-5085609Y+6332363D01*
X-5070062Y+6377992D01*
X-5044820Y+6423621D01*
X-5006278Y+6469151D01*
X-4960649Y+6504647D01*
X-4915020Y+6527767D01*
X-4869391Y+6541620D01*
X-4823762Y+6547566D01*
X-4810000Y+6547900D01*
X-5093980Y+6263920D02*
X-5093062Y+6241106D01*
X-5085609Y+6195477D01*
X-5070062Y+6149848D01*
X-5044820Y+6104219D01*
X-5006278Y+6058689D01*
X-4960649Y+6023193D01*
X-4915020Y+6000073D01*
X-4869391Y+5986220D01*
X-4823762Y+5980274D01*
X-4810000Y+5979940D01*
X-4526020Y+6263920D02*
X-4526938Y+6241106D01*
X-4534391Y+6195477D01*
X-4549938Y+6149848D01*
X-4575180Y+6104219D01*
X-4613722Y+6058689D01*
X-4659351Y+6023193D01*
X-4704980Y+6000073D01*
X-4750609Y+5986220D01*
X-4796238Y+5980274D01*
X-4810000Y+5979940D01*
D108*
X-4810000Y+6136000D02*
X-4810000Y+6136000D01*
D115*
X-4752696Y+6111110D02*
X-4867304Y+6111110D01*
X-4867304Y+6187515D01*
X-4829101Y+6225717D01*
X-4790899Y+6225717D01*
X-4752696Y+6187515D01*
X-4752696Y+6111110D01*
X-4848203Y+6283021D02*
X-4867304Y+6302122D01*
X-4867304Y+6359426D01*
X-4848203Y+6378527D01*
X-4829101Y+6378527D01*
X-4810000Y+6359426D01*
X-4790899Y+6378527D01*
X-4771797Y+6378527D01*
X-4752696Y+6359426D01*
X-4752696Y+6302122D01*
X-4771797Y+6283021D01*
X-4810000Y+6321223D02*
X-4810000Y+6359426D01*
D43*
X-8147160Y+862840D02*
X-7618840Y+862840D01*
X-7618840Y+1137160D01*
X-8147160Y+1137160D01*
X-8147160Y+862840D01*
D108*
X-8010000Y+1000000D02*
X-8010000Y+1000000D01*
D127*
X-8041496Y+986792D02*
X-8041496Y+973584D01*
X-8028288Y+960376D01*
X-7975456Y+960376D01*
X-7962248Y+973584D01*
X-7962248Y+1039624D01*
X-7935832Y+960376D02*
X-7935832Y+1039624D01*
X-7869792Y+1039624D01*
X-7856584Y+1026416D01*
X-7856584Y+1013208D01*
X-7869792Y+1000000D01*
X-7935832Y+1000000D01*
X-7816960Y+1026416D02*
X-7803752Y+1039624D01*
X-7764128Y+1039624D01*
X-7750920Y+1026416D01*
X-7750920Y+1013208D01*
X-7764128Y+1000000D01*
X-7803752Y+1000000D01*
X-7816960Y+986792D01*
X-7816960Y+960376D01*
X-7750920Y+960376D01*
D99*
X-7365000Y+940000D02*
X-7015000Y+940000D01*
X-7015000Y+1140000D01*
X-7365000Y+1140000D01*
X-7365000Y+940000D01*
X-7190000Y+1090000D02*
X-7190000Y+990000D01*
X-7140000Y+1040000D02*
X-7240000Y+1040000D01*
D112*
X-7290000Y+1040000D02*
X-7290000Y+1040000D01*
D113*
X-7284666Y+1004500D02*
X-7284666Y+1075500D01*
X-7225500Y+1075500D01*
X-7213667Y+1063667D01*
X-7213667Y+1051833D01*
X-7225500Y+1040000D01*
X-7284666Y+1040000D01*
X-7225500Y+1040000D02*
X-7213667Y+1028167D01*
X-7213667Y+1004500D01*
X-7119001Y+1075500D02*
X-7178167Y+1075500D01*
X-7178167Y+1051833D01*
X-7130834Y+1051833D01*
X-7119001Y+1040000D01*
X-7119001Y+1016333D01*
X-7130834Y+1004500D01*
X-7166334Y+1004500D01*
X-7178167Y+1016333D01*
D114*
X-6902100Y+570000D02*
X-6903018Y+592814D01*
X-6910471Y+638443D01*
X-6926018Y+684072D01*
X-6951260Y+729701D01*
X-6989802Y+775231D01*
X-7035431Y+810727D01*
X-7081060Y+833847D01*
X-7126689Y+847700D01*
X-7172318Y+853646D01*
X-7186080Y+853980D01*
X-7470060Y+570000D02*
X-7469142Y+592814D01*
X-7461689Y+638443D01*
X-7446142Y+684072D01*
X-7420900Y+729701D01*
X-7382358Y+775231D01*
X-7336729Y+810727D01*
X-7291100Y+833847D01*
X-7245471Y+847700D01*
X-7199842Y+853646D01*
X-7186080Y+853980D01*
X-7470060Y+570000D02*
X-7469142Y+547186D01*
X-7461689Y+501557D01*
X-7446142Y+455928D01*
X-7420900Y+410299D01*
X-7382358Y+364769D01*
X-7336729Y+329273D01*
X-7291100Y+306153D01*
X-7245471Y+292300D01*
X-7199842Y+286354D01*
X-7186080Y+286020D01*
X-6902100Y+570000D02*
X-6903018Y+547186D01*
X-6910471Y+501557D01*
X-6926018Y+455928D01*
X-6951260Y+410299D01*
X-6989802Y+364769D01*
X-7035431Y+329273D01*
X-7081060Y+306153D01*
X-7126689Y+292300D01*
X-7172318Y+286354D01*
X-7186080Y+286020D01*
D108*
X-7314000Y+570000D02*
X-7314000Y+570000D01*
D115*
X-7338890Y+512696D02*
X-7338890Y+627304D01*
X-7262485Y+627304D01*
X-7224283Y+589101D01*
X-7224283Y+550899D01*
X-7262485Y+512696D01*
X-7338890Y+512696D01*
X-7166979Y+608203D02*
X-7147878Y+627304D01*
X-7090574Y+627304D01*
X-7071473Y+608203D01*
X-7071473Y+589101D01*
X-7090574Y+570000D01*
X-7147878Y+570000D01*
X-7166979Y+550899D01*
X-7166979Y+512696D01*
X-7071473Y+512696D01*
D99*
X-6395000Y+1050000D02*
X-6395086Y+1052076D01*
X-6395788Y+1056229D01*
X-6397258Y+1060382D01*
X-6399660Y+1064535D01*
X-6403333Y+1068634D01*
X-6407486Y+1071643D01*
X-6411639Y+1073560D01*
X-6415792Y+1074643D01*
X-6419945Y+1075000D01*
X-6420000Y+1075000D01*
X-6445000Y+1050000D02*
X-6444914Y+1052076D01*
X-6444212Y+1056229D01*
X-6442742Y+1060382D01*
X-6440340Y+1064535D01*
X-6436667Y+1068634D01*
X-6432514Y+1071643D01*
X-6428361Y+1073560D01*
X-6424208Y+1074643D01*
X-6420055Y+1075000D01*
X-6420000Y+1075000D01*
X-6445000Y+1050000D02*
X-6444914Y+1047924D01*
X-6444212Y+1043771D01*
X-6442742Y+1039618D01*
X-6440340Y+1035465D01*
X-6436667Y+1031366D01*
X-6432514Y+1028357D01*
X-6428361Y+1026440D01*
X-6424208Y+1025357D01*
X-6420055Y+1025000D01*
X-6420000Y+1025000D01*
X-6395000Y+1050000D02*
X-6395086Y+1047924D01*
X-6395788Y+1043771D01*
X-6397258Y+1039618D01*
X-6399660Y+1035465D01*
X-6403333Y+1031366D01*
X-6407486Y+1028357D01*
X-6411639Y+1026440D01*
X-6415792Y+1025357D01*
X-6419945Y+1025000D01*
X-6420000Y+1025000D01*
X-6455000Y+1050000D02*
X-6385000Y+1050000D01*
X-6420000Y+1015000D02*
X-6420000Y+1085000D01*
X-6145000Y+775000D02*
X-6145000Y+1050000D01*
X-6150472Y+1106228D01*
X-6166216Y+1158227D01*
X-6191225Y+1204989D01*
X-6224492Y+1245508D01*
X-6265010Y+1278775D01*
X-6311773Y+1303784D01*
X-6363772Y+1319528D01*
X-6420000Y+1325000D01*
X-6476228Y+1319528D01*
X-6528227Y+1303784D01*
X-6574990Y+1278775D01*
X-6615508Y+1245508D01*
X-6648775Y+1204989D01*
X-6673784Y+1158227D01*
X-6689528Y+1106228D01*
X-6695000Y+1050000D01*
X-6689528Y+993772D01*
X-6673784Y+941773D01*
X-6648775Y+895011D01*
X-6615508Y+854492D01*
X-6574990Y+821225D01*
X-6528227Y+796216D01*
X-6476228Y+780472D01*
X-6420000Y+775000D01*
X-6145000Y+775000D01*
D123*
X-6520000Y+1050000D02*
X-6520000Y+1050000D01*
D124*
X-6457000Y+1013000D02*
X-6475500Y+994500D01*
X-6531000Y+994500D01*
X-6568000Y+1031500D01*
X-6568000Y+1068500D01*
X-6531000Y+1105500D01*
X-6475500Y+1105500D01*
X-6457000Y+1087000D01*
X-6309000Y+1105500D02*
X-6401500Y+1105500D01*
X-6401500Y+1068500D01*
X-6327500Y+1068500D01*
X-6309000Y+1050000D01*
X-6309000Y+1013000D01*
X-6327500Y+994500D01*
X-6383000Y+994500D01*
X-6401500Y+1013000D01*
D43*
X-2981160Y+942840D02*
X-2452840Y+942840D01*
X-2452840Y+1217160D01*
X-2981160Y+1217160D01*
X-2981160Y+942840D01*
D108*
X-2844000Y+1080000D02*
X-2844000Y+1080000D01*
D127*
X-2875496Y+1066792D02*
X-2875496Y+1053584D01*
X-2862288Y+1040376D01*
X-2809456Y+1040376D01*
X-2796248Y+1053584D01*
X-2796248Y+1119624D01*
X-2769832Y+1040376D02*
X-2769832Y+1119624D01*
X-2703792Y+1119624D01*
X-2690584Y+1106416D01*
X-2690584Y+1093208D01*
X-2703792Y+1080000D01*
X-2769832Y+1080000D01*
X-2650960Y+1106416D02*
X-2637752Y+1119624D01*
X-2598128Y+1119624D01*
X-2584920Y+1106416D01*
X-2584920Y+1093208D01*
X-2598128Y+1080000D01*
X-2584920Y+1066792D01*
X-2584920Y+1053584D01*
X-2598128Y+1040376D01*
X-2637752Y+1040376D01*
X-2650960Y+1053584D01*
X-2624544Y+1080000D02*
X-2598128Y+1080000D01*
D114*
X-1073940Y+1520000D02*
X-1074858Y+1542814D01*
X-1082311Y+1588443D01*
X-1097858Y+1634072D01*
X-1123100Y+1679701D01*
X-1161642Y+1725231D01*
X-1207271Y+1760727D01*
X-1252900Y+1783847D01*
X-1298529Y+1797700D01*
X-1344158Y+1803646D01*
X-1357920Y+1803980D01*
X-1641900Y+1520000D02*
X-1640982Y+1542814D01*
X-1633529Y+1588443D01*
X-1617982Y+1634072D01*
X-1592740Y+1679701D01*
X-1554198Y+1725231D01*
X-1508569Y+1760727D01*
X-1462940Y+1783847D01*
X-1417311Y+1797700D01*
X-1371682Y+1803646D01*
X-1357920Y+1803980D01*
X-1641900Y+1520000D02*
X-1640982Y+1497186D01*
X-1633529Y+1451557D01*
X-1617982Y+1405928D01*
X-1592740Y+1360299D01*
X-1554198Y+1314769D01*
X-1508569Y+1279273D01*
X-1462940Y+1256153D01*
X-1417311Y+1242300D01*
X-1371682Y+1236354D01*
X-1357920Y+1236020D01*
X-1073940Y+1520000D02*
X-1074858Y+1497186D01*
X-1082311Y+1451557D01*
X-1097858Y+1405928D01*
X-1123100Y+1360299D01*
X-1161642Y+1314769D01*
X-1207271Y+1279273D01*
X-1252900Y+1256153D01*
X-1298529Y+1242300D01*
X-1344158Y+1236354D01*
X-1357920Y+1236020D01*
D108*
X-1230000Y+1520000D02*
X-1230000Y+1520000D01*
D115*
X-1510730Y+1462696D02*
X-1510730Y+1577304D01*
X-1434325Y+1577304D01*
X-1396123Y+1539101D01*
X-1396123Y+1500899D01*
X-1434325Y+1462696D01*
X-1510730Y+1462696D01*
X-1243313Y+1577304D02*
X-1338819Y+1577304D01*
X-1338819Y+1539101D01*
X-1262414Y+1539101D01*
X-1243313Y+1520000D01*
X-1243313Y+1481797D01*
X-1262414Y+1462696D01*
X-1319718Y+1462696D01*
X-1338819Y+1481797D01*
D99*
X-1611000Y+2100000D02*
X-1261000Y+2100000D01*
X-1261000Y+2300000D01*
X-1611000Y+2300000D01*
X-1611000Y+2100000D01*
X-1436000Y+2250000D02*
X-1436000Y+2150000D01*
X-1386000Y+2200000D02*
X-1486000Y+2200000D01*
D112*
X-1536000Y+2200000D02*
X-1536000Y+2200000D01*
D128*
X-1542500Y+2173375D02*
X-1542500Y+2226625D01*
X-1498125Y+2226625D01*
X-1489250Y+2217750D01*
X-1489250Y+2208875D01*
X-1498125Y+2200000D01*
X-1542500Y+2200000D01*
X-1498125Y+2200000D02*
X-1489250Y+2191125D01*
X-1489250Y+2173375D01*
X-1418250Y+2226625D02*
X-1462625Y+2226625D01*
X-1462625Y+2208875D01*
X-1427125Y+2208875D01*
X-1418250Y+2200000D01*
X-1418250Y+2182250D01*
X-1427125Y+2173375D01*
X-1453750Y+2173375D01*
X-1462625Y+2182250D01*
X-1391625Y+2217750D02*
X-1382750Y+2226625D01*
X-1356125Y+2226625D01*
X-1347250Y+2217750D01*
X-1347250Y+2208875D01*
X-1356125Y+2200000D01*
X-1347250Y+2191125D01*
X-1347250Y+2182250D01*
X-1356125Y+2173375D01*
X-1382750Y+2173375D01*
X-1391625Y+2182250D01*
X-1373875Y+2200000D02*
X-1356125Y+2200000D01*
D99*
X-2939000Y+1655000D02*
X-2939000Y+2145000D01*
X-3169000Y+2145000D01*
X-3169000Y+1655000D01*
X-2939000Y+1655000D01*
X-3104000Y+1900000D02*
X-3004000Y+1900000D01*
X-3054000Y+1950000D02*
X-3054000Y+1850000D01*
D125*
X-3054000Y+1770000D02*
X-3054000Y+1770000D01*
D129*
X-3029250Y+1825750D02*
X-3016875Y+1813375D01*
X-3016875Y+1776250D01*
X-3041625Y+1751500D01*
X-3066375Y+1751500D01*
X-3091125Y+1776250D01*
X-3091125Y+1813375D01*
X-3078750Y+1825750D01*
X-3066375Y+1875250D02*
X-3091125Y+1900000D01*
X-3016875Y+1900000D01*
X-3078750Y+1961875D02*
X-3091125Y+1974250D01*
X-3091125Y+2011375D01*
X-3078750Y+2023750D01*
X-3066375Y+2023750D01*
X-3054000Y+2011375D01*
X-3041625Y+2023750D01*
X-3029250Y+2023750D01*
X-3016875Y+2011375D01*
X-3016875Y+1974250D01*
X-3029250Y+1961875D01*
X-3054000Y+1986625D02*
X-3054000Y+2011375D01*
D99*
X-1949000Y+1110000D02*
X-1949086Y+1112076D01*
X-1949788Y+1116229D01*
X-1951258Y+1120382D01*
X-1953660Y+1124535D01*
X-1957333Y+1128634D01*
X-1961486Y+1131643D01*
X-1965639Y+1133560D01*
X-1969792Y+1134643D01*
X-1973945Y+1135000D01*
X-1974000Y+1135000D01*
X-1999000Y+1110000D02*
X-1998914Y+1112076D01*
X-1998212Y+1116229D01*
X-1996742Y+1120382D01*
X-1994340Y+1124535D01*
X-1990667Y+1128634D01*
X-1986514Y+1131643D01*
X-1982361Y+1133560D01*
X-1978208Y+1134643D01*
X-1974055Y+1135000D01*
X-1974000Y+1135000D01*
X-1999000Y+1110000D02*
X-1998914Y+1107924D01*
X-1998212Y+1103771D01*
X-1996742Y+1099618D01*
X-1994340Y+1095465D01*
X-1990667Y+1091366D01*
X-1986514Y+1088357D01*
X-1982361Y+1086440D01*
X-1978208Y+1085357D01*
X-1974055Y+1085000D01*
X-1974000Y+1085000D01*
X-1949000Y+1110000D02*
X-1949086Y+1107924D01*
X-1949788Y+1103771D01*
X-1951258Y+1099618D01*
X-1953660Y+1095465D01*
X-1957333Y+1091366D01*
X-1961486Y+1088357D01*
X-1965639Y+1086440D01*
X-1969792Y+1085357D01*
X-1973945Y+1085000D01*
X-1974000Y+1085000D01*
X-2009000Y+1110000D02*
X-1939000Y+1110000D01*
X-1974000Y+1075000D02*
X-1974000Y+1145000D01*
X-1699000Y+835000D02*
X-1699000Y+1110000D01*
X-1704472Y+1166228D01*
X-1720216Y+1218227D01*
X-1745225Y+1264989D01*
X-1778492Y+1305508D01*
X-1819010Y+1338775D01*
X-1865773Y+1363784D01*
X-1917772Y+1379528D01*
X-1974000Y+1385000D01*
X-2030228Y+1379528D01*
X-2082227Y+1363784D01*
X-2128990Y+1338775D01*
X-2169508Y+1305508D01*
X-2202775Y+1264989D01*
X-2227784Y+1218227D01*
X-2243528Y+1166228D01*
X-2249000Y+1110000D01*
X-2243528Y+1053772D01*
X-2227784Y+1001773D01*
X-2202775Y+955011D01*
X-2169508Y+914492D01*
X-2128990Y+881225D01*
X-2082227Y+856216D01*
X-2030228Y+840472D01*
X-1974000Y+835000D01*
X-1699000Y+835000D01*
D123*
X-2074000Y+1110000D02*
X-2074000Y+1110000D01*
D130*
X-2057250Y+1082250D02*
X-2071125Y+1068375D01*
X-2112750Y+1068375D01*
X-2140500Y+1096125D01*
X-2140500Y+1123875D01*
X-2112750Y+1151625D01*
X-2071125Y+1151625D01*
X-2057250Y+1137750D01*
X-2001750Y+1123875D02*
X-1974000Y+1151625D01*
X-1974000Y+1068375D01*
X-1904625Y+1137750D02*
X-1890750Y+1151625D01*
X-1849125Y+1151625D01*
X-1835250Y+1137750D01*
X-1835250Y+1123875D01*
X-1849125Y+1110000D01*
X-1890750Y+1110000D01*
X-1904625Y+1096125D01*
X-1904625Y+1068375D01*
X-1835250Y+1068375D01*
D99*
X-2880000Y+2988000D02*
X-2020000Y+2988000D01*
X-2020000Y+4092000D01*
X-2880000Y+4092000D01*
X-2880000Y+2988000D01*
D131*
X-2765000Y+3984500D02*
X-2765000Y+3984500D01*
D132*
X-2560899Y+3244268D02*
X-2376066Y+3244268D01*
X-2339100Y+3281234D01*
X-2339100Y+3429100D01*
X-2376066Y+3466067D01*
X-2560899Y+3466067D01*
X-2523933Y+3576966D02*
X-2560899Y+3613933D01*
X-2560899Y+3724832D01*
X-2523933Y+3761799D01*
X-2486966Y+3761799D01*
X-2450000Y+3724832D01*
X-2413033Y+3761799D01*
X-2376066Y+3761799D01*
X-2339100Y+3724832D01*
X-2339100Y+3613933D01*
X-2376066Y+3576966D01*
X-2450000Y+3650899D02*
X-2450000Y+3724832D01*
D99*
X-1112000Y+2975000D02*
X-368000Y+2975000D01*
X-368000Y+4025000D01*
X-1112000Y+4025000D01*
X-1112000Y+2975000D01*
D131*
X-1011000Y+3944500D02*
X-1011000Y+3944500D01*
D133*
X-845499Y+3218668D02*
X-669666Y+3218668D01*
X-634500Y+3253834D01*
X-634500Y+3394500D01*
X-669666Y+3429667D01*
X-845499Y+3429667D01*
X-775166Y+3570333D02*
X-845499Y+3640666D01*
X-634500Y+3640666D01*
D99*
X-3575000Y+2970000D02*
X-3225000Y+2970000D01*
X-3225000Y+3170000D01*
X-3575000Y+3170000D01*
X-3575000Y+2970000D01*
X-3400000Y+3120000D02*
X-3400000Y+3020000D01*
X-3350000Y+3070000D02*
X-3450000Y+3070000D01*
D112*
X-3500000Y+3070000D02*
X-3500000Y+3070000D01*
D128*
X-3506500Y+3043375D02*
X-3506500Y+3096625D01*
X-3462125Y+3096625D01*
X-3453250Y+3087750D01*
X-3453250Y+3078875D01*
X-3462125Y+3070000D01*
X-3506500Y+3070000D01*
X-3462125Y+3070000D02*
X-3453250Y+3061125D01*
X-3453250Y+3043375D01*
X-3417750Y+3078875D02*
X-3400000Y+3096625D01*
X-3400000Y+3043375D01*
X-3311250Y+3061125D02*
X-3364500Y+3061125D01*
X-3329000Y+3096625D01*
X-3329000Y+3043375D01*
D99*
X-3605000Y+3990000D02*
X-3255000Y+3990000D01*
X-3255000Y+4190000D01*
X-3605000Y+4190000D01*
X-3605000Y+3990000D01*
X-3430000Y+4140000D02*
X-3430000Y+4040000D01*
X-3380000Y+4090000D02*
X-3480000Y+4090000D01*
D112*
X-3530000Y+4090000D02*
X-3530000Y+4090000D01*
D128*
X-3536500Y+4063375D02*
X-3536500Y+4116625D01*
X-3492125Y+4116625D01*
X-3483250Y+4107750D01*
X-3483250Y+4098875D01*
X-3492125Y+4090000D01*
X-3536500Y+4090000D01*
X-3492125Y+4090000D02*
X-3483250Y+4081125D01*
X-3483250Y+4063375D01*
X-3447750Y+4098875D02*
X-3430000Y+4116625D01*
X-3430000Y+4063375D01*
X-3385625Y+4107750D02*
X-3376750Y+4116625D01*
X-3350125Y+4116625D01*
X-3341250Y+4107750D01*
X-3341250Y+4098875D01*
X-3350125Y+4090000D01*
X-3341250Y+4081125D01*
X-3341250Y+4072250D01*
X-3350125Y+4063375D01*
X-3376750Y+4063375D01*
X-3385625Y+4072250D01*
X-3367875Y+4090000D02*
X-3350125Y+4090000D01*
D99*
X-3565000Y+3650000D02*
X-3215000Y+3650000D01*
X-3215000Y+3850000D01*
X-3565000Y+3850000D01*
X-3565000Y+3650000D01*
X-3390000Y+3800000D02*
X-3390000Y+3700000D01*
X-3340000Y+3750000D02*
X-3440000Y+3750000D01*
D112*
X-3490000Y+3750000D02*
X-3490000Y+3750000D01*
D128*
X-3496500Y+3723375D02*
X-3496500Y+3776625D01*
X-3452125Y+3776625D01*
X-3443250Y+3767750D01*
X-3443250Y+3758875D01*
X-3452125Y+3750000D01*
X-3496500Y+3750000D01*
X-3452125Y+3750000D02*
X-3443250Y+3741125D01*
X-3443250Y+3723375D01*
X-3407750Y+3758875D02*
X-3390000Y+3776625D01*
X-3390000Y+3723375D01*
X-3345625Y+3767750D02*
X-3336750Y+3776625D01*
X-3310125Y+3776625D01*
X-3301250Y+3767750D01*
X-3301250Y+3758875D01*
X-3310125Y+3750000D01*
X-3336750Y+3750000D01*
X-3345625Y+3741125D01*
X-3345625Y+3723375D01*
X-3301250Y+3723375D01*
D99*
X-3565000Y+3320000D02*
X-3215000Y+3320000D01*
X-3215000Y+3520000D01*
X-3565000Y+3520000D01*
X-3565000Y+3320000D01*
X-3390000Y+3470000D02*
X-3390000Y+3370000D01*
X-3340000Y+3420000D02*
X-3440000Y+3420000D01*
D112*
X-3490000Y+3420000D02*
X-3490000Y+3420000D01*
D128*
X-3496500Y+3393375D02*
X-3496500Y+3446625D01*
X-3452125Y+3446625D01*
X-3443250Y+3437750D01*
X-3443250Y+3428875D01*
X-3452125Y+3420000D01*
X-3496500Y+3420000D01*
X-3452125Y+3420000D02*
X-3443250Y+3411125D01*
X-3443250Y+3393375D01*
X-3407750Y+3428875D02*
X-3390000Y+3446625D01*
X-3390000Y+3393375D01*
X-3336750Y+3428875D02*
X-3319000Y+3446625D01*
X-3319000Y+3393375D01*
D99*
X-1415000Y+4150000D02*
X-1765000Y+4150000D01*
X-1765000Y+3950000D01*
X-1415000Y+3950000D01*
X-1415000Y+4150000D01*
X-1590000Y+4000000D02*
X-1590000Y+4100000D01*
X-1640000Y+4050000D02*
X-1540000Y+4050000D01*
D112*
X-1490000Y+4050000D02*
X-1490000Y+4050000D01*
D113*
X-1684666Y+4014500D02*
X-1684666Y+4085500D01*
X-1625500Y+4085500D01*
X-1613667Y+4073667D01*
X-1613667Y+4061833D01*
X-1625500Y+4050000D01*
X-1684666Y+4050000D01*
X-1625500Y+4050000D02*
X-1613667Y+4038167D01*
X-1613667Y+4014500D01*
X-1578167Y+4085500D02*
X-1519001Y+4085500D01*
X-1519001Y+4073667D01*
X-1578167Y+4014500D01*
D99*
X-1435000Y+3790000D02*
X-1785000Y+3790000D01*
X-1785000Y+3590000D01*
X-1435000Y+3590000D01*
X-1435000Y+3790000D01*
X-1610000Y+3640000D02*
X-1610000Y+3740000D01*
X-1660000Y+3690000D02*
X-1560000Y+3690000D01*
D112*
X-1510000Y+3690000D02*
X-1510000Y+3690000D01*
D113*
X-1704666Y+3654500D02*
X-1704666Y+3725500D01*
X-1645500Y+3725500D01*
X-1633667Y+3713667D01*
X-1633667Y+3701833D01*
X-1645500Y+3690000D01*
X-1704666Y+3690000D01*
X-1645500Y+3690000D02*
X-1633667Y+3678167D01*
X-1633667Y+3654500D01*
X-1586334Y+3690000D02*
X-1598167Y+3701833D01*
X-1598167Y+3713667D01*
X-1586334Y+3725500D01*
X-1550834Y+3725500D01*
X-1539001Y+3713667D01*
X-1539001Y+3701833D01*
X-1550834Y+3690000D01*
X-1586334Y+3690000D01*
X-1598167Y+3678167D01*
X-1598167Y+3666333D01*
X-1586334Y+3654500D01*
X-1550834Y+3654500D01*
X-1539001Y+3666333D01*
X-1539001Y+3678167D01*
X-1550834Y+3690000D01*
D99*
X-1445000Y+3410000D02*
X-1795000Y+3410000D01*
X-1795000Y+3210000D01*
X-1445000Y+3210000D01*
X-1445000Y+3410000D01*
X-1620000Y+3260000D02*
X-1620000Y+3360000D01*
X-1670000Y+3310000D02*
X-1570000Y+3310000D01*
D112*
X-1520000Y+3310000D02*
X-1520000Y+3310000D01*
D113*
X-1714666Y+3274500D02*
X-1714666Y+3345500D01*
X-1655500Y+3345500D01*
X-1643667Y+3333667D01*
X-1643667Y+3321833D01*
X-1655500Y+3310000D01*
X-1714666Y+3310000D01*
X-1655500Y+3310000D02*
X-1643667Y+3298167D01*
X-1643667Y+3274500D01*
X-1549001Y+3321833D02*
X-1560834Y+3310000D01*
X-1596334Y+3310000D01*
X-1608167Y+3321833D01*
X-1608167Y+3333667D01*
X-1596334Y+3345500D01*
X-1560834Y+3345500D01*
X-1549001Y+3333667D01*
X-1549001Y+3286333D01*
X-1560834Y+3274500D01*
X-1596334Y+3274500D01*
D99*
X-2205000Y+2890000D02*
X-2555000Y+2890000D01*
X-2555000Y+2690000D01*
X-2205000Y+2690000D01*
X-2205000Y+2890000D01*
X-2380000Y+2740000D02*
X-2380000Y+2840000D01*
X-2430000Y+2790000D02*
X-2330000Y+2790000D01*
D112*
X-2280000Y+2790000D02*
X-2280000Y+2790000D01*
D128*
X-2486500Y+2763375D02*
X-2486500Y+2816625D01*
X-2442125Y+2816625D01*
X-2433250Y+2807750D01*
X-2433250Y+2798875D01*
X-2442125Y+2790000D01*
X-2486500Y+2790000D01*
X-2442125Y+2790000D02*
X-2433250Y+2781125D01*
X-2433250Y+2763375D01*
X-2397750Y+2798875D02*
X-2380000Y+2816625D01*
X-2380000Y+2763375D01*
X-2344500Y+2772250D02*
X-2344500Y+2807750D01*
X-2335625Y+2816625D01*
X-2300125Y+2816625D01*
X-2291250Y+2807750D01*
X-2291250Y+2772250D01*
X-2300125Y+2763375D01*
X-2335625Y+2763375D01*
X-2344500Y+2772250D01*
X-2344500Y+2763375D02*
X-2291250Y+2816625D01*
D43*
X+2761840Y+1485840D02*
X+3798160Y+1485840D01*
X+3798160Y+2522160D01*
X+2761840Y+2522160D01*
X+2761840Y+1485840D01*
D116*
X+3280000Y+1750000D02*
X+3280000Y+1750000D01*
D134*
X+3324413Y+1648692D02*
X+3235586Y+1648692D01*
X+3235586Y+1722714D01*
X+3250391Y+1737519D01*
X+3265195Y+1737519D01*
X+3280000Y+1722714D01*
X+3280000Y+1648692D01*
X+3280000Y+1722714D02*
X+3294804Y+1737519D01*
X+3324413Y+1737519D01*
X+3324413Y+1855955D02*
X+3324413Y+1767128D01*
X+3235586Y+1767128D01*
X+3235586Y+1855955D01*
X+3280000Y+1767128D02*
X+3280000Y+1826346D01*
X+3235586Y+1885564D02*
X+3324413Y+1885564D01*
X+3324413Y+1974391D01*
X+3324413Y+2004000D02*
X+3265195Y+2004000D01*
X+3235586Y+2033609D01*
X+3235586Y+2063218D01*
X+3265195Y+2092827D01*
X+3324413Y+2092827D01*
X+3294804Y+2004000D02*
X+3294804Y+2092827D01*
X+3235586Y+2211263D02*
X+3324413Y+2122436D01*
X+3235586Y+2122436D02*
X+3280000Y+2166849D01*
X+3265195Y+2270481D02*
X+3235586Y+2300090D01*
X+3324413Y+2300090D01*
D43*
X+2771840Y+2525840D02*
X+3808160Y+2525840D01*
X+3808160Y+3562160D01*
X+2771840Y+3562160D01*
X+2771840Y+2525840D01*
D116*
X+3290000Y+2790000D02*
X+3290000Y+2790000D01*
D134*
X+3334413Y+2688692D02*
X+3245586Y+2688692D01*
X+3245586Y+2762714D01*
X+3260391Y+2777519D01*
X+3275195Y+2777519D01*
X+3290000Y+2762714D01*
X+3290000Y+2688692D01*
X+3290000Y+2762714D02*
X+3304804Y+2777519D01*
X+3334413Y+2777519D01*
X+3334413Y+2895955D02*
X+3334413Y+2807128D01*
X+3245586Y+2807128D01*
X+3245586Y+2895955D01*
X+3290000Y+2807128D02*
X+3290000Y+2866346D01*
X+3245586Y+2925564D02*
X+3334413Y+2925564D01*
X+3334413Y+3014391D01*
X+3334413Y+3044000D02*
X+3275195Y+3044000D01*
X+3245586Y+3073609D01*
X+3245586Y+3103218D01*
X+3275195Y+3132827D01*
X+3334413Y+3132827D01*
X+3304804Y+3044000D02*
X+3304804Y+3132827D01*
X+3245586Y+3251263D02*
X+3334413Y+3162436D01*
X+3245586Y+3162436D02*
X+3290000Y+3206849D01*
X+3260391Y+3295676D02*
X+3245586Y+3310481D01*
X+3245586Y+3354894D01*
X+3260391Y+3369699D01*
X+3275195Y+3369699D01*
X+3290000Y+3354894D01*
X+3290000Y+3310481D01*
X+3304804Y+3295676D01*
X+3334413Y+3295676D01*
X+3334413Y+3369699D01*
D43*
X+2761840Y+3555840D02*
X+3798160Y+3555840D01*
X+3798160Y+4592160D01*
X+2761840Y+4592160D01*
X+2761840Y+3555840D01*
D116*
X+3280000Y+3820000D02*
X+3280000Y+3820000D01*
D134*
X+3324413Y+3718692D02*
X+3235586Y+3718692D01*
X+3235586Y+3792714D01*
X+3250391Y+3807519D01*
X+3265195Y+3807519D01*
X+3280000Y+3792714D01*
X+3280000Y+3718692D01*
X+3280000Y+3792714D02*
X+3294804Y+3807519D01*
X+3324413Y+3807519D01*
X+3324413Y+3925955D02*
X+3324413Y+3837128D01*
X+3235586Y+3837128D01*
X+3235586Y+3925955D01*
X+3280000Y+3837128D02*
X+3280000Y+3896346D01*
X+3235586Y+3955564D02*
X+3324413Y+3955564D01*
X+3324413Y+4044391D01*
X+3324413Y+4074000D02*
X+3265195Y+4074000D01*
X+3235586Y+4103609D01*
X+3235586Y+4133218D01*
X+3265195Y+4162827D01*
X+3324413Y+4162827D01*
X+3294804Y+4074000D02*
X+3294804Y+4162827D01*
X+3235586Y+4281263D02*
X+3324413Y+4192436D01*
X+3235586Y+4192436D02*
X+3280000Y+4236849D01*
X+3250391Y+4325676D02*
X+3235586Y+4340481D01*
X+3235586Y+4384894D01*
X+3250391Y+4399699D01*
X+3265195Y+4399699D01*
X+3280000Y+4384894D01*
X+3294804Y+4399699D01*
X+3309609Y+4399699D01*
X+3324413Y+4384894D01*
X+3324413Y+4340481D01*
X+3309609Y+4325676D01*
X+3280000Y+4355285D02*
X+3280000Y+4384894D01*
D43*
X+2771840Y+4605840D02*
X+3808160Y+4605840D01*
X+3808160Y+5642160D01*
X+2771840Y+5642160D01*
X+2771840Y+4605840D01*
D116*
X+3290000Y+4870000D02*
X+3290000Y+4870000D01*
D134*
X+3334413Y+4768692D02*
X+3245586Y+4768692D01*
X+3245586Y+4842714D01*
X+3260391Y+4857519D01*
X+3275195Y+4857519D01*
X+3290000Y+4842714D01*
X+3290000Y+4768692D01*
X+3290000Y+4842714D02*
X+3304804Y+4857519D01*
X+3334413Y+4857519D01*
X+3334413Y+4975955D02*
X+3334413Y+4887128D01*
X+3245586Y+4887128D01*
X+3245586Y+4975955D01*
X+3290000Y+4887128D02*
X+3290000Y+4946346D01*
X+3245586Y+5005564D02*
X+3334413Y+5005564D01*
X+3334413Y+5094391D01*
X+3334413Y+5124000D02*
X+3275195Y+5124000D01*
X+3245586Y+5153609D01*
X+3245586Y+5183218D01*
X+3275195Y+5212827D01*
X+3334413Y+5212827D01*
X+3304804Y+5124000D02*
X+3304804Y+5212827D01*
X+3245586Y+5331263D02*
X+3334413Y+5242436D01*
X+3245586Y+5242436D02*
X+3290000Y+5286849D01*
X+3304804Y+5449699D02*
X+3304804Y+5360872D01*
X+3245586Y+5420090D01*
X+3334413Y+5420090D01*
D99*
X-3560000Y+5508000D02*
X-2700000Y+5508000D01*
X-2700000Y+6612000D01*
X-3560000Y+6612000D01*
X-3560000Y+5508000D01*
D131*
X-2815000Y+5615500D02*
X-2815000Y+5615500D01*
D132*
X-3240899Y+5764268D02*
X-3056066Y+5764268D01*
X-3019100Y+5801234D01*
X-3019100Y+5949100D01*
X-3056066Y+5986067D01*
X-3240899Y+5986067D01*
X-3093033Y+6281799D02*
X-3093033Y+6060000D01*
X-3240899Y+6207866D01*
X-3019100Y+6207866D01*
D99*
X-1390000Y+5398000D02*
X-530000Y+5398000D01*
X-530000Y+6502000D01*
X-1390000Y+6502000D01*
X-1390000Y+5398000D01*
D131*
X-645000Y+5505500D02*
X-645000Y+5505500D01*
D132*
X-1070899Y+5654268D02*
X-886066Y+5654268D01*
X-849100Y+5691234D01*
X-849100Y+5839100D01*
X-886066Y+5876067D01*
X-1070899Y+5876067D01*
X-1070899Y+5986966D02*
X-1070899Y+6171799D01*
X-1033933Y+6171799D01*
X-849100Y+5986966D01*
D43*
X-17700Y+6795800D02*
X+2457700Y+6795800D01*
X+2457700Y+7352700D01*
X-17700Y+7352700D01*
X-17700Y+6795800D01*
D41*
X+2236000Y+7010000D02*
X+2236000Y+7010000D01*
D135*
X+819032Y+6974008D02*
X+819032Y+7174492D01*
X+986102Y+7174492D01*
X+1019516Y+7141078D01*
X+1019516Y+7107664D01*
X+986102Y+7074250D01*
X+819032Y+7074250D01*
X+986102Y+7074250D02*
X+1019516Y+7040836D01*
X+1019516Y+6974008D01*
X+1153172Y+7107664D02*
X+1220000Y+7174492D01*
X+1220000Y+6974008D01*
X+1554140Y+7174492D02*
X+1387070Y+7174492D01*
X+1387070Y+7107664D01*
X+1520726Y+7107664D01*
X+1554140Y+7074250D01*
X+1554140Y+7007422D01*
X+1520726Y+6974008D01*
X+1420484Y+6974008D01*
X+1387070Y+7007422D01*
D43*
X+22300Y+7435800D02*
X+2497700Y+7435800D01*
X+2497700Y+7992700D01*
X+22300Y+7992700D01*
X+22300Y+7435800D01*
D41*
X+2276000Y+7650000D02*
X+2276000Y+7650000D01*
D135*
X+859032Y+7614008D02*
X+859032Y+7814492D01*
X+1026102Y+7814492D01*
X+1059516Y+7781078D01*
X+1059516Y+7747664D01*
X+1026102Y+7714250D01*
X+859032Y+7714250D01*
X+1026102Y+7714250D02*
X+1059516Y+7680836D01*
X+1059516Y+7614008D01*
X+1193172Y+7747664D02*
X+1260000Y+7814492D01*
X+1260000Y+7614008D01*
X+1594140Y+7781078D02*
X+1560726Y+7814492D01*
X+1460484Y+7814492D01*
X+1427070Y+7781078D01*
X+1427070Y+7647422D01*
X+1460484Y+7614008D01*
X+1560726Y+7614008D01*
X+1594140Y+7647422D01*
X+1594140Y+7680836D01*
X+1560726Y+7714250D01*
X+1427070Y+7714250D01*
D43*
X+12300Y+6115800D02*
X+2487700Y+6115800D01*
X+2487700Y+6672700D01*
X+12300Y+6672700D01*
X+12300Y+6115800D01*
D41*
X+2266000Y+6330000D02*
X+2266000Y+6330000D01*
D135*
X+849032Y+6294008D02*
X+849032Y+6494492D01*
X+1016102Y+6494492D01*
X+1049516Y+6461078D01*
X+1049516Y+6427664D01*
X+1016102Y+6394250D01*
X+849032Y+6394250D01*
X+1016102Y+6394250D02*
X+1049516Y+6360836D01*
X+1049516Y+6294008D01*
X+1183172Y+6427664D02*
X+1250000Y+6494492D01*
X+1250000Y+6294008D01*
X+1417070Y+6494492D02*
X+1584140Y+6494492D01*
X+1584140Y+6461078D01*
X+1417070Y+6294008D01*
D43*
X-17700Y+5485800D02*
X+2457700Y+5485800D01*
X+2457700Y+6042700D01*
X-17700Y+6042700D01*
X-17700Y+5485800D01*
D41*
X+2236000Y+5700000D02*
X+2236000Y+5700000D01*
D135*
X+819032Y+5664008D02*
X+819032Y+5864492D01*
X+986102Y+5864492D01*
X+1019516Y+5831078D01*
X+1019516Y+5797664D01*
X+986102Y+5764250D01*
X+819032Y+5764250D01*
X+986102Y+5764250D02*
X+1019516Y+5730836D01*
X+1019516Y+5664008D01*
X+1153172Y+5797664D02*
X+1220000Y+5864492D01*
X+1220000Y+5664008D01*
X+1420484Y+5764250D02*
X+1387070Y+5797664D01*
X+1387070Y+5831078D01*
X+1420484Y+5864492D01*
X+1520726Y+5864492D01*
X+1554140Y+5831078D01*
X+1554140Y+5797664D01*
X+1520726Y+5764250D01*
X+1420484Y+5764250D01*
X+1387070Y+5730836D01*
X+1387070Y+5697422D01*
X+1420484Y+5664008D01*
X+1520726Y+5664008D01*
X+1554140Y+5697422D01*
X+1554140Y+5730836D01*
X+1520726Y+5764250D01*
D43*
X+12300Y+4805800D02*
X+2487700Y+4805800D01*
X+2487700Y+5362700D01*
X+12300Y+5362700D01*
X+12300Y+4805800D01*
D41*
X+2266000Y+5020000D02*
X+2266000Y+5020000D01*
D135*
X+849032Y+4984008D02*
X+849032Y+5184492D01*
X+1016102Y+5184492D01*
X+1049516Y+5151078D01*
X+1049516Y+5117664D01*
X+1016102Y+5084250D01*
X+849032Y+5084250D01*
X+1016102Y+5084250D02*
X+1049516Y+5050836D01*
X+1049516Y+4984008D01*
X+1183172Y+5117664D02*
X+1250000Y+5184492D01*
X+1250000Y+4984008D01*
X+1584140Y+5117664D02*
X+1550726Y+5084250D01*
X+1450484Y+5084250D01*
X+1417070Y+5117664D01*
X+1417070Y+5151078D01*
X+1450484Y+5184492D01*
X+1550726Y+5184492D01*
X+1584140Y+5151078D01*
X+1584140Y+5017422D01*
X+1550726Y+4984008D01*
X+1450484Y+4984008D01*
D43*
X+22300Y+4195800D02*
X+2497700Y+4195800D01*
X+2497700Y+4752700D01*
X+22300Y+4752700D01*
X+22300Y+4195800D01*
D41*
X+2276000Y+4410000D02*
X+2276000Y+4410000D01*
D135*
X+859032Y+4374008D02*
X+859032Y+4574492D01*
X+1026102Y+4574492D01*
X+1059516Y+4541078D01*
X+1059516Y+4507664D01*
X+1026102Y+4474250D01*
X+859032Y+4474250D01*
X+1026102Y+4474250D02*
X+1059516Y+4440836D01*
X+1059516Y+4374008D01*
X+1159758Y+4541078D02*
X+1193172Y+4574492D01*
X+1293414Y+4574492D01*
X+1326828Y+4541078D01*
X+1326828Y+4507664D01*
X+1293414Y+4474250D01*
X+1193172Y+4474250D01*
X+1159758Y+4440836D01*
X+1159758Y+4374008D01*
X+1326828Y+4374008D01*
X+1393656Y+4407422D02*
X+1393656Y+4541078D01*
X+1427070Y+4574492D01*
X+1560726Y+4574492D01*
X+1594140Y+4541078D01*
X+1594140Y+4407422D01*
X+1560726Y+4374008D01*
X+1427070Y+4374008D01*
X+1393656Y+4407422D01*
X+1393656Y+4374008D02*
X+1594140Y+4574492D01*
D43*
X-2567700Y+7425800D02*
X-92300Y+7425800D01*
X-92300Y+7982700D01*
X-2567700Y+7982700D01*
X-2567700Y+7425800D01*
D41*
X-314000Y+7640000D02*
X-314000Y+7640000D01*
D135*
X-1730968Y+7604008D02*
X-1730968Y+7804492D01*
X-1563898Y+7804492D01*
X-1530484Y+7771078D01*
X-1530484Y+7737664D01*
X-1563898Y+7704250D01*
X-1730968Y+7704250D01*
X-1563898Y+7704250D02*
X-1530484Y+7670836D01*
X-1530484Y+7604008D01*
X-1430242Y+7771078D02*
X-1396828Y+7804492D01*
X-1296586Y+7804492D01*
X-1263172Y+7771078D01*
X-1263172Y+7737664D01*
X-1296586Y+7704250D01*
X-1396828Y+7704250D01*
X-1430242Y+7670836D01*
X-1430242Y+7604008D01*
X-1263172Y+7604008D01*
X-1129516Y+7737664D02*
X-1062688Y+7804492D01*
X-1062688Y+7604008D01*
D43*
X-2567700Y+6815800D02*
X-92300Y+6815800D01*
X-92300Y+7372700D01*
X-2567700Y+7372700D01*
X-2567700Y+6815800D01*
D41*
X-314000Y+7030000D02*
X-314000Y+7030000D01*
D135*
X-1730968Y+6994008D02*
X-1730968Y+7194492D01*
X-1563898Y+7194492D01*
X-1530484Y+7161078D01*
X-1530484Y+7127664D01*
X-1563898Y+7094250D01*
X-1730968Y+7094250D01*
X-1563898Y+7094250D02*
X-1530484Y+7060836D01*
X-1530484Y+6994008D01*
X-1430242Y+7161078D02*
X-1396828Y+7194492D01*
X-1296586Y+7194492D01*
X-1263172Y+7161078D01*
X-1263172Y+7127664D01*
X-1296586Y+7094250D01*
X-1396828Y+7094250D01*
X-1430242Y+7060836D01*
X-1430242Y+6994008D01*
X-1263172Y+6994008D01*
X-1162930Y+7161078D02*
X-1129516Y+7194492D01*
X-1029274Y+7194492D01*
X-995860Y+7161078D01*
X-995860Y+7127664D01*
X-1029274Y+7094250D01*
X-1129516Y+7094250D01*
X-1162930Y+7060836D01*
X-1162930Y+6994008D01*
X-995860Y+6994008D01*
D43*
X+2761840Y+5645840D02*
X+3798160Y+5645840D01*
X+3798160Y+6682160D01*
X+2761840Y+6682160D01*
X+2761840Y+5645840D01*
D116*
X+3280000Y+5910000D02*
X+3280000Y+5910000D01*
D117*
X+3314544Y+5818560D02*
X+3331816Y+5835832D01*
X+3331816Y+5904920D01*
X+3314544Y+5922192D01*
X+3297272Y+5922192D01*
X+3280000Y+5904920D01*
X+3280000Y+5835832D01*
X+3262728Y+5818560D01*
X+3245456Y+5818560D01*
X+3228184Y+5835832D01*
X+3228184Y+5904920D01*
X+3245456Y+5922192D01*
X+3262728Y+5956736D02*
X+3228184Y+5991280D01*
X+3228184Y+6025824D01*
X+3262728Y+6060368D01*
X+3297272Y+6060368D01*
X+3331816Y+6025824D01*
X+3331816Y+5991280D01*
X+3297272Y+5956736D01*
X+3262728Y+5956736D01*
X+3228184Y+6094912D02*
X+3331816Y+6094912D01*
X+3331816Y+6198544D01*
X+3280000Y+6250360D02*
X+3280000Y+6336720D01*
X+3262728Y+6405808D02*
X+3228184Y+6440352D01*
X+3331816Y+6440352D01*
D43*
X+2761840Y+6675840D02*
X+3798160Y+6675840D01*
X+3798160Y+7712160D01*
X+2761840Y+7712160D01*
X+2761840Y+6675840D01*
D116*
X+3280000Y+6940000D02*
X+3280000Y+6940000D01*
D117*
X+3314544Y+6848560D02*
X+3331816Y+6865832D01*
X+3331816Y+6934920D01*
X+3314544Y+6952192D01*
X+3297272Y+6952192D01*
X+3280000Y+6934920D01*
X+3280000Y+6865832D01*
X+3262728Y+6848560D01*
X+3245456Y+6848560D01*
X+3228184Y+6865832D01*
X+3228184Y+6934920D01*
X+3245456Y+6952192D01*
X+3262728Y+6986736D02*
X+3228184Y+7021280D01*
X+3228184Y+7055824D01*
X+3262728Y+7090368D01*
X+3297272Y+7090368D01*
X+3331816Y+7055824D01*
X+3331816Y+7021280D01*
X+3297272Y+6986736D01*
X+3262728Y+6986736D01*
X+3228184Y+7124912D02*
X+3331816Y+7124912D01*
X+3331816Y+7228544D01*
X+3280000Y+7280360D02*
X+3280000Y+7366720D01*
X+3245456Y+7418536D02*
X+3228184Y+7435808D01*
X+3228184Y+7487624D01*
X+3245456Y+7504896D01*
X+3262728Y+7504896D01*
X+3280000Y+7487624D01*
X+3280000Y+7435808D01*
X+3297272Y+7418536D01*
X+3331816Y+7418536D01*
X+3331816Y+7504896D01*
D43*
X+2761840Y+7715840D02*
X+3798160Y+7715840D01*
X+3798160Y+8752160D01*
X+2761840Y+8752160D01*
X+2761840Y+7715840D01*
D116*
X+3280000Y+7980000D02*
X+3280000Y+7980000D01*
D117*
X+3314544Y+7888560D02*
X+3331816Y+7905832D01*
X+3331816Y+7974920D01*
X+3314544Y+7992192D01*
X+3297272Y+7992192D01*
X+3280000Y+7974920D01*
X+3280000Y+7905832D01*
X+3262728Y+7888560D01*
X+3245456Y+7888560D01*
X+3228184Y+7905832D01*
X+3228184Y+7974920D01*
X+3245456Y+7992192D01*
X+3262728Y+8026736D02*
X+3228184Y+8061280D01*
X+3228184Y+8095824D01*
X+3262728Y+8130368D01*
X+3297272Y+8130368D01*
X+3331816Y+8095824D01*
X+3331816Y+8061280D01*
X+3297272Y+8026736D01*
X+3262728Y+8026736D01*
X+3228184Y+8164912D02*
X+3331816Y+8164912D01*
X+3331816Y+8268544D01*
X+3280000Y+8320360D02*
X+3280000Y+8406720D01*
X+3245456Y+8458536D02*
X+3228184Y+8475808D01*
X+3228184Y+8527624D01*
X+3245456Y+8544896D01*
X+3262728Y+8544896D01*
X+3280000Y+8527624D01*
X+3297272Y+8544896D01*
X+3314544Y+8544896D01*
X+3331816Y+8527624D01*
X+3331816Y+8475808D01*
X+3314544Y+8458536D01*
X+3280000Y+8493080D02*
X+3280000Y+8527624D01*
D43*
X+1495840Y+8161840D02*
X+2532160Y+8161840D01*
X+2532160Y+9198160D01*
X+1495840Y+9198160D01*
X+1495840Y+8161840D01*
D116*
X+1760000Y+8680000D02*
X+1760000Y+8680000D01*
D117*
X+1668560Y+8645456D02*
X+1685832Y+8628184D01*
X+1754920Y+8628184D01*
X+1772192Y+8645456D01*
X+1772192Y+8662728D01*
X+1754920Y+8680000D01*
X+1685832Y+8680000D01*
X+1668560Y+8697272D01*
X+1668560Y+8714544D01*
X+1685832Y+8731816D01*
X+1754920Y+8731816D01*
X+1772192Y+8714544D01*
X+1806736Y+8697272D02*
X+1841280Y+8731816D01*
X+1875824Y+8731816D01*
X+1910368Y+8697272D01*
X+1910368Y+8662728D01*
X+1875824Y+8628184D01*
X+1841280Y+8628184D01*
X+1806736Y+8662728D01*
X+1806736Y+8697272D01*
X+1944912Y+8731816D02*
X+1944912Y+8628184D01*
X+2048544Y+8628184D01*
X+2100360Y+8680000D02*
X+2186720Y+8680000D01*
X+2324896Y+8662728D02*
X+2221264Y+8662728D01*
X+2290352Y+8731816D01*
X+2290352Y+8628184D01*
D43*
X+415840Y+8161840D02*
X+1452160Y+8161840D01*
X+1452160Y+9198160D01*
X+415840Y+9198160D01*
X+415840Y+8161840D01*
D116*
X+680000Y+8680000D02*
X+680000Y+8680000D01*
D117*
X+588560Y+8645456D02*
X+605832Y+8628184D01*
X+674920Y+8628184D01*
X+692192Y+8645456D01*
X+692192Y+8662728D01*
X+674920Y+8680000D01*
X+605832Y+8680000D01*
X+588560Y+8697272D01*
X+588560Y+8714544D01*
X+605832Y+8731816D01*
X+674920Y+8731816D01*
X+692192Y+8714544D01*
X+726736Y+8697272D02*
X+761280Y+8731816D01*
X+795824Y+8731816D01*
X+830368Y+8697272D01*
X+830368Y+8662728D01*
X+795824Y+8628184D01*
X+761280Y+8628184D01*
X+726736Y+8662728D01*
X+726736Y+8697272D01*
X+864912Y+8731816D02*
X+864912Y+8628184D01*
X+968544Y+8628184D01*
X+1020360Y+8680000D02*
X+1106720Y+8680000D01*
X+1244896Y+8731816D02*
X+1158536Y+8731816D01*
X+1158536Y+8697272D01*
X+1227624Y+8697272D01*
X+1244896Y+8680000D01*
X+1244896Y+8645456D01*
X+1227624Y+8628184D01*
X+1175808Y+8628184D01*
X+1158536Y+8645456D01*
D43*
X-634160Y+8151840D02*
X+402160Y+8151840D01*
X+402160Y+9188160D01*
X-634160Y+9188160D01*
X-634160Y+8151840D01*
D116*
X-370000Y+8670000D02*
X-370000Y+8670000D01*
D117*
X-461440Y+8635456D02*
X-444168Y+8618184D01*
X-375080Y+8618184D01*
X-357808Y+8635456D01*
X-357808Y+8652728D01*
X-375080Y+8670000D01*
X-444168Y+8670000D01*
X-461440Y+8687272D01*
X-461440Y+8704544D01*
X-444168Y+8721816D01*
X-375080Y+8721816D01*
X-357808Y+8704544D01*
X-323264Y+8687272D02*
X-288720Y+8721816D01*
X-254176Y+8721816D01*
X-219632Y+8687272D01*
X-219632Y+8652728D01*
X-254176Y+8618184D01*
X-288720Y+8618184D01*
X-323264Y+8652728D01*
X-323264Y+8687272D01*
X-185088Y+8721816D02*
X-185088Y+8618184D01*
X-81456Y+8618184D01*
X-29640Y+8670000D02*
X+56720Y+8670000D01*
X+194896Y+8704544D02*
X+177624Y+8721816D01*
X+125808Y+8721816D01*
X+108536Y+8704544D01*
X+108536Y+8635456D01*
X+125808Y+8618184D01*
X+177624Y+8618184D01*
X+194896Y+8635456D01*
X+194896Y+8652728D01*
X+177624Y+8670000D01*
X+108536Y+8670000D01*
D43*
X-1694160Y+8151840D02*
X-657840Y+8151840D01*
X-657840Y+9188160D01*
X-1694160Y+9188160D01*
X-1694160Y+8151840D01*
D116*
X-1430000Y+8670000D02*
X-1430000Y+8670000D01*
D117*
X-1521440Y+8635456D02*
X-1504168Y+8618184D01*
X-1435080Y+8618184D01*
X-1417808Y+8635456D01*
X-1417808Y+8652728D01*
X-1435080Y+8670000D01*
X-1504168Y+8670000D01*
X-1521440Y+8687272D01*
X-1521440Y+8704544D01*
X-1504168Y+8721816D01*
X-1435080Y+8721816D01*
X-1417808Y+8704544D01*
X-1383264Y+8687272D02*
X-1348720Y+8721816D01*
X-1314176Y+8721816D01*
X-1279632Y+8687272D01*
X-1279632Y+8652728D01*
X-1314176Y+8618184D01*
X-1348720Y+8618184D01*
X-1383264Y+8652728D01*
X-1383264Y+8687272D01*
X-1245088Y+8721816D02*
X-1245088Y+8618184D01*
X-1141456Y+8618184D01*
X-1089640Y+8670000D02*
X-1003280Y+8670000D01*
X-951464Y+8721816D02*
X-865104Y+8721816D01*
X-865104Y+8704544D01*
X-951464Y+8618184D01*
D43*
X-2744160Y+8161840D02*
X-1707840Y+8161840D01*
X-1707840Y+9198160D01*
X-2744160Y+9198160D01*
X-2744160Y+8161840D01*
D116*
X-2480000Y+8680000D02*
X-2480000Y+8680000D01*
D117*
X-2571440Y+8645456D02*
X-2554168Y+8628184D01*
X-2485080Y+8628184D01*
X-2467808Y+8645456D01*
X-2467808Y+8662728D01*
X-2485080Y+8680000D01*
X-2554168Y+8680000D01*
X-2571440Y+8697272D01*
X-2571440Y+8714544D01*
X-2554168Y+8731816D01*
X-2485080Y+8731816D01*
X-2467808Y+8714544D01*
X-2433264Y+8697272D02*
X-2398720Y+8731816D01*
X-2364176Y+8731816D01*
X-2329632Y+8697272D01*
X-2329632Y+8662728D01*
X-2364176Y+8628184D01*
X-2398720Y+8628184D01*
X-2433264Y+8662728D01*
X-2433264Y+8697272D01*
X-2295088Y+8731816D02*
X-2295088Y+8628184D01*
X-2191456Y+8628184D01*
X-2139640Y+8680000D02*
X-2053280Y+8680000D01*
X-1984192Y+8680000D02*
X-2001464Y+8697272D01*
X-2001464Y+8714544D01*
X-1984192Y+8731816D01*
X-1932376Y+8731816D01*
X-1915104Y+8714544D01*
X-1915104Y+8697272D01*
X-1932376Y+8680000D01*
X-1984192Y+8680000D01*
X-2001464Y+8662728D01*
X-2001464Y+8645456D01*
X-1984192Y+8628184D01*
X-1932376Y+8628184D01*
X-1915104Y+8645456D01*
X-1915104Y+8662728D01*
X-1932376Y+8680000D01*
D99*
X-2175000Y+5780000D02*
X-2525000Y+5780000D01*
X-2525000Y+5580000D01*
X-2175000Y+5580000D01*
X-2175000Y+5780000D01*
X-2350000Y+5630000D02*
X-2350000Y+5730000D01*
X-2400000Y+5680000D02*
X-2300000Y+5680000D01*
D112*
X-2250000Y+5680000D02*
X-2250000Y+5680000D01*
D128*
X-2456500Y+5653375D02*
X-2456500Y+5706625D01*
X-2412125Y+5706625D01*
X-2403250Y+5697750D01*
X-2403250Y+5688875D01*
X-2412125Y+5680000D01*
X-2456500Y+5680000D01*
X-2412125Y+5680000D02*
X-2403250Y+5671125D01*
X-2403250Y+5653375D01*
X-2376625Y+5697750D02*
X-2367750Y+5706625D01*
X-2341125Y+5706625D01*
X-2332250Y+5697750D01*
X-2332250Y+5688875D01*
X-2341125Y+5680000D01*
X-2332250Y+5671125D01*
X-2332250Y+5662250D01*
X-2341125Y+5653375D01*
X-2367750Y+5653375D01*
X-2376625Y+5662250D01*
X-2358875Y+5680000D02*
X-2341125Y+5680000D01*
X-2261250Y+5706625D02*
X-2305625Y+5706625D01*
X-2305625Y+5688875D01*
X-2270125Y+5688875D01*
X-2261250Y+5680000D01*
X-2261250Y+5662250D01*
X-2270125Y+5653375D01*
X-2296750Y+5653375D01*
X-2305625Y+5662250D01*
D99*
X-2185000Y+6120000D02*
X-2535000Y+6120000D01*
X-2535000Y+5920000D01*
X-2185000Y+5920000D01*
X-2185000Y+6120000D01*
X-2360000Y+5970000D02*
X-2360000Y+6070000D01*
X-2410000Y+6020000D02*
X-2310000Y+6020000D01*
D112*
X-2260000Y+6020000D02*
X-2260000Y+6020000D01*
D128*
X-2466500Y+5993375D02*
X-2466500Y+6046625D01*
X-2422125Y+6046625D01*
X-2413250Y+6037750D01*
X-2413250Y+6028875D01*
X-2422125Y+6020000D01*
X-2466500Y+6020000D01*
X-2422125Y+6020000D02*
X-2413250Y+6011125D01*
X-2413250Y+5993375D01*
X-2386625Y+6037750D02*
X-2377750Y+6046625D01*
X-2351125Y+6046625D01*
X-2342250Y+6037750D01*
X-2342250Y+6028875D01*
X-2351125Y+6020000D01*
X-2342250Y+6011125D01*
X-2342250Y+6002250D01*
X-2351125Y+5993375D01*
X-2377750Y+5993375D01*
X-2386625Y+6002250D01*
X-2368875Y+6020000D02*
X-2351125Y+6020000D01*
X-2271250Y+6037750D02*
X-2280125Y+6046625D01*
X-2306750Y+6046625D01*
X-2315625Y+6037750D01*
X-2315625Y+6002250D01*
X-2306750Y+5993375D01*
X-2280125Y+5993375D01*
X-2271250Y+6002250D01*
X-2271250Y+6011125D01*
X-2280125Y+6020000D01*
X-2315625Y+6020000D01*
D99*
X-2195000Y+6440000D02*
X-2545000Y+6440000D01*
X-2545000Y+6240000D01*
X-2195000Y+6240000D01*
X-2195000Y+6440000D01*
X-2370000Y+6290000D02*
X-2370000Y+6390000D01*
X-2420000Y+6340000D02*
X-2320000Y+6340000D01*
D112*
X-2270000Y+6340000D02*
X-2270000Y+6340000D01*
D128*
X-2476500Y+6313375D02*
X-2476500Y+6366625D01*
X-2432125Y+6366625D01*
X-2423250Y+6357750D01*
X-2423250Y+6348875D01*
X-2432125Y+6340000D01*
X-2476500Y+6340000D01*
X-2432125Y+6340000D02*
X-2423250Y+6331125D01*
X-2423250Y+6313375D01*
X-2396625Y+6357750D02*
X-2387750Y+6366625D01*
X-2361125Y+6366625D01*
X-2352250Y+6357750D01*
X-2352250Y+6348875D01*
X-2361125Y+6340000D01*
X-2352250Y+6331125D01*
X-2352250Y+6322250D01*
X-2361125Y+6313375D01*
X-2387750Y+6313375D01*
X-2396625Y+6322250D01*
X-2378875Y+6340000D02*
X-2361125Y+6340000D01*
X-2325625Y+6366625D02*
X-2281250Y+6366625D01*
X-2281250Y+6357750D01*
X-2325625Y+6313375D01*
D99*
X-2215000Y+6750000D02*
X-2565000Y+6750000D01*
X-2565000Y+6550000D01*
X-2215000Y+6550000D01*
X-2215000Y+6750000D01*
X-2390000Y+6600000D02*
X-2390000Y+6700000D01*
X-2440000Y+6650000D02*
X-2340000Y+6650000D01*
D112*
X-2290000Y+6650000D02*
X-2290000Y+6650000D01*
D128*
X-2496500Y+6623375D02*
X-2496500Y+6676625D01*
X-2452125Y+6676625D01*
X-2443250Y+6667750D01*
X-2443250Y+6658875D01*
X-2452125Y+6650000D01*
X-2496500Y+6650000D01*
X-2452125Y+6650000D02*
X-2443250Y+6641125D01*
X-2443250Y+6623375D01*
X-2416625Y+6667750D02*
X-2407750Y+6676625D01*
X-2381125Y+6676625D01*
X-2372250Y+6667750D01*
X-2372250Y+6658875D01*
X-2381125Y+6650000D01*
X-2372250Y+6641125D01*
X-2372250Y+6632250D01*
X-2381125Y+6623375D01*
X-2407750Y+6623375D01*
X-2416625Y+6632250D01*
X-2398875Y+6650000D02*
X-2381125Y+6650000D01*
X-2336750Y+6650000D02*
X-2345625Y+6658875D01*
X-2345625Y+6667750D01*
X-2336750Y+6676625D01*
X-2310125Y+6676625D01*
X-2301250Y+6667750D01*
X-2301250Y+6658875D01*
X-2310125Y+6650000D01*
X-2336750Y+6650000D01*
X-2345625Y+6641125D01*
X-2345625Y+6632250D01*
X-2336750Y+6623375D01*
X-2310125Y+6623375D01*
X-2301250Y+6632250D01*
X-2301250Y+6641125D01*
X-2310125Y+6650000D01*
D99*
X-1825000Y+6270000D02*
X-1475000Y+6270000D01*
X-1475000Y+6470000D01*
X-1825000Y+6470000D01*
X-1825000Y+6270000D01*
X-1650000Y+6420000D02*
X-1650000Y+6320000D01*
X-1600000Y+6370000D02*
X-1700000Y+6370000D01*
D112*
X-1750000Y+6370000D02*
X-1750000Y+6370000D01*
D128*
X-1756500Y+6343375D02*
X-1756500Y+6396625D01*
X-1712125Y+6396625D01*
X-1703250Y+6387750D01*
X-1703250Y+6378875D01*
X-1712125Y+6370000D01*
X-1756500Y+6370000D01*
X-1712125Y+6370000D02*
X-1703250Y+6361125D01*
X-1703250Y+6343375D01*
X-1676625Y+6387750D02*
X-1667750Y+6396625D01*
X-1641125Y+6396625D01*
X-1632250Y+6387750D01*
X-1632250Y+6378875D01*
X-1641125Y+6370000D01*
X-1667750Y+6370000D01*
X-1676625Y+6361125D01*
X-1676625Y+6343375D01*
X-1632250Y+6343375D01*
X-1561250Y+6378875D02*
X-1570125Y+6370000D01*
X-1596750Y+6370000D01*
X-1605625Y+6378875D01*
X-1605625Y+6387750D01*
X-1596750Y+6396625D01*
X-1570125Y+6396625D01*
X-1561250Y+6387750D01*
X-1561250Y+6352250D01*
X-1570125Y+6343375D01*
X-1596750Y+6343375D01*
D99*
X-1825000Y+5330000D02*
X-1475000Y+5330000D01*
X-1475000Y+5530000D01*
X-1825000Y+5530000D01*
X-1825000Y+5330000D01*
X-1650000Y+5480000D02*
X-1650000Y+5380000D01*
X-1600000Y+5430000D02*
X-1700000Y+5430000D01*
D112*
X-1750000Y+5430000D02*
X-1750000Y+5430000D01*
D128*
X-1756500Y+5403375D02*
X-1756500Y+5456625D01*
X-1712125Y+5456625D01*
X-1703250Y+5447750D01*
X-1703250Y+5438875D01*
X-1712125Y+5430000D01*
X-1756500Y+5430000D01*
X-1712125Y+5430000D02*
X-1703250Y+5421125D01*
X-1703250Y+5403375D01*
X-1676625Y+5447750D02*
X-1667750Y+5456625D01*
X-1641125Y+5456625D01*
X-1632250Y+5447750D01*
X-1632250Y+5438875D01*
X-1641125Y+5430000D01*
X-1632250Y+5421125D01*
X-1632250Y+5412250D01*
X-1641125Y+5403375D01*
X-1667750Y+5403375D01*
X-1676625Y+5412250D01*
X-1658875Y+5430000D02*
X-1641125Y+5430000D01*
X-1614500Y+5412250D02*
X-1614500Y+5447750D01*
X-1605625Y+5456625D01*
X-1570125Y+5456625D01*
X-1561250Y+5447750D01*
X-1561250Y+5412250D01*
X-1570125Y+5403375D01*
X-1605625Y+5403375D01*
X-1614500Y+5412250D01*
X-1614500Y+5403375D02*
X-1561250Y+5456625D01*
D99*
X-1825000Y+5650000D02*
X-1475000Y+5650000D01*
X-1475000Y+5850000D01*
X-1825000Y+5850000D01*
X-1825000Y+5650000D01*
X-1650000Y+5800000D02*
X-1650000Y+5700000D01*
X-1600000Y+5750000D02*
X-1700000Y+5750000D01*
D112*
X-1750000Y+5750000D02*
X-1750000Y+5750000D01*
D128*
X-1756500Y+5723375D02*
X-1756500Y+5776625D01*
X-1712125Y+5776625D01*
X-1703250Y+5767750D01*
X-1703250Y+5758875D01*
X-1712125Y+5750000D01*
X-1756500Y+5750000D01*
X-1712125Y+5750000D02*
X-1703250Y+5741125D01*
X-1703250Y+5723375D01*
X-1676625Y+5767750D02*
X-1667750Y+5776625D01*
X-1641125Y+5776625D01*
X-1632250Y+5767750D01*
X-1632250Y+5758875D01*
X-1641125Y+5750000D01*
X-1667750Y+5750000D01*
X-1676625Y+5741125D01*
X-1676625Y+5723375D01*
X-1632250Y+5723375D01*
X-1596750Y+5750000D02*
X-1605625Y+5758875D01*
X-1605625Y+5767750D01*
X-1596750Y+5776625D01*
X-1570125Y+5776625D01*
X-1561250Y+5767750D01*
X-1561250Y+5758875D01*
X-1570125Y+5750000D01*
X-1596750Y+5750000D01*
X-1605625Y+5741125D01*
X-1605625Y+5732250D01*
X-1596750Y+5723375D01*
X-1570125Y+5723375D01*
X-1561250Y+5732250D01*
X-1561250Y+5741125D01*
X-1570125Y+5750000D01*
D99*
X-1825000Y+5970000D02*
X-1475000Y+5970000D01*
X-1475000Y+6170000D01*
X-1825000Y+6170000D01*
X-1825000Y+5970000D01*
X-1650000Y+6120000D02*
X-1650000Y+6020000D01*
X-1600000Y+6070000D02*
X-1700000Y+6070000D01*
D112*
X-1750000Y+6070000D02*
X-1750000Y+6070000D01*
D128*
X-1756500Y+6043375D02*
X-1756500Y+6096625D01*
X-1712125Y+6096625D01*
X-1703250Y+6087750D01*
X-1703250Y+6078875D01*
X-1712125Y+6070000D01*
X-1756500Y+6070000D01*
X-1712125Y+6070000D02*
X-1703250Y+6061125D01*
X-1703250Y+6043375D01*
X-1676625Y+6087750D02*
X-1667750Y+6096625D01*
X-1641125Y+6096625D01*
X-1632250Y+6087750D01*
X-1632250Y+6078875D01*
X-1641125Y+6070000D01*
X-1667750Y+6070000D01*
X-1676625Y+6061125D01*
X-1676625Y+6043375D01*
X-1632250Y+6043375D01*
X-1605625Y+6096625D02*
X-1561250Y+6096625D01*
X-1561250Y+6087750D01*
X-1605625Y+6043375D01*
D99*
X-155000Y+5640000D02*
X-505000Y+5640000D01*
X-505000Y+5440000D01*
X-155000Y+5440000D01*
X-155000Y+5640000D01*
X-330000Y+5490000D02*
X-330000Y+5590000D01*
X-380000Y+5540000D02*
X-280000Y+5540000D01*
D112*
X-230000Y+5540000D02*
X-230000Y+5540000D01*
D128*
X-436500Y+5513375D02*
X-436500Y+5566625D01*
X-392125Y+5566625D01*
X-383250Y+5557750D01*
X-383250Y+5548875D01*
X-392125Y+5540000D01*
X-436500Y+5540000D01*
X-392125Y+5540000D02*
X-383250Y+5531125D01*
X-383250Y+5513375D01*
X-356625Y+5557750D02*
X-347750Y+5566625D01*
X-321125Y+5566625D01*
X-312250Y+5557750D01*
X-312250Y+5548875D01*
X-321125Y+5540000D01*
X-312250Y+5531125D01*
X-312250Y+5522250D01*
X-321125Y+5513375D01*
X-347750Y+5513375D01*
X-356625Y+5522250D01*
X-338875Y+5540000D02*
X-321125Y+5540000D01*
X-276750Y+5548875D02*
X-259000Y+5566625D01*
X-259000Y+5513375D01*
D99*
X-155000Y+5970000D02*
X-505000Y+5970000D01*
X-505000Y+5770000D01*
X-155000Y+5770000D01*
X-155000Y+5970000D01*
X-330000Y+5820000D02*
X-330000Y+5920000D01*
X-380000Y+5870000D02*
X-280000Y+5870000D01*
D112*
X-230000Y+5870000D02*
X-230000Y+5870000D01*
D128*
X-436500Y+5843375D02*
X-436500Y+5896625D01*
X-392125Y+5896625D01*
X-383250Y+5887750D01*
X-383250Y+5878875D01*
X-392125Y+5870000D01*
X-436500Y+5870000D01*
X-392125Y+5870000D02*
X-383250Y+5861125D01*
X-383250Y+5843375D01*
X-356625Y+5887750D02*
X-347750Y+5896625D01*
X-321125Y+5896625D01*
X-312250Y+5887750D01*
X-312250Y+5878875D01*
X-321125Y+5870000D01*
X-312250Y+5861125D01*
X-312250Y+5852250D01*
X-321125Y+5843375D01*
X-347750Y+5843375D01*
X-356625Y+5852250D01*
X-338875Y+5870000D02*
X-321125Y+5870000D01*
X-285625Y+5887750D02*
X-276750Y+5896625D01*
X-250125Y+5896625D01*
X-241250Y+5887750D01*
X-241250Y+5878875D01*
X-250125Y+5870000D01*
X-276750Y+5870000D01*
X-285625Y+5861125D01*
X-285625Y+5843375D01*
X-241250Y+5843375D01*
D99*
X-135000Y+6310000D02*
X-485000Y+6310000D01*
X-485000Y+6110000D01*
X-135000Y+6110000D01*
X-135000Y+6310000D01*
X-310000Y+6160000D02*
X-310000Y+6260000D01*
X-360000Y+6210000D02*
X-260000Y+6210000D01*
D112*
X-210000Y+6210000D02*
X-210000Y+6210000D01*
D128*
X-416500Y+6183375D02*
X-416500Y+6236625D01*
X-372125Y+6236625D01*
X-363250Y+6227750D01*
X-363250Y+6218875D01*
X-372125Y+6210000D01*
X-416500Y+6210000D01*
X-372125Y+6210000D02*
X-363250Y+6201125D01*
X-363250Y+6183375D01*
X-336625Y+6227750D02*
X-327750Y+6236625D01*
X-301125Y+6236625D01*
X-292250Y+6227750D01*
X-292250Y+6218875D01*
X-301125Y+6210000D01*
X-292250Y+6201125D01*
X-292250Y+6192250D01*
X-301125Y+6183375D01*
X-327750Y+6183375D01*
X-336625Y+6192250D01*
X-318875Y+6210000D02*
X-301125Y+6210000D01*
X-265625Y+6227750D02*
X-256750Y+6236625D01*
X-230125Y+6236625D01*
X-221250Y+6227750D01*
X-221250Y+6218875D01*
X-230125Y+6210000D01*
X-221250Y+6201125D01*
X-221250Y+6192250D01*
X-230125Y+6183375D01*
X-256750Y+6183375D01*
X-265625Y+6192250D01*
X-247875Y+6210000D02*
X-230125Y+6210000D01*
D99*
X-125000Y+6650000D02*
X-475000Y+6650000D01*
X-475000Y+6450000D01*
X-125000Y+6450000D01*
X-125000Y+6650000D01*
X-300000Y+6500000D02*
X-300000Y+6600000D01*
X-350000Y+6550000D02*
X-250000Y+6550000D01*
D112*
X-200000Y+6550000D02*
X-200000Y+6550000D01*
D128*
X-406500Y+6523375D02*
X-406500Y+6576625D01*
X-362125Y+6576625D01*
X-353250Y+6567750D01*
X-353250Y+6558875D01*
X-362125Y+6550000D01*
X-406500Y+6550000D01*
X-362125Y+6550000D02*
X-353250Y+6541125D01*
X-353250Y+6523375D01*
X-326625Y+6567750D02*
X-317750Y+6576625D01*
X-291125Y+6576625D01*
X-282250Y+6567750D01*
X-282250Y+6558875D01*
X-291125Y+6550000D01*
X-282250Y+6541125D01*
X-282250Y+6532250D01*
X-291125Y+6523375D01*
X-317750Y+6523375D01*
X-326625Y+6532250D01*
X-308875Y+6550000D02*
X-291125Y+6550000D01*
X-211250Y+6541125D02*
X-264500Y+6541125D01*
X-229000Y+6576625D01*
X-229000Y+6523375D01*
D99*
X-4095000Y+5420000D02*
X-3745000Y+5420000D01*
X-3745000Y+5620000D01*
X-4095000Y+5620000D01*
X-4095000Y+5420000D01*
X-3920000Y+5570000D02*
X-3920000Y+5470000D01*
X-3870000Y+5520000D02*
X-3970000Y+5520000D01*
D112*
X-4020000Y+5520000D02*
X-4020000Y+5520000D01*
D128*
X-4026500Y+5493375D02*
X-4026500Y+5546625D01*
X-3982125Y+5546625D01*
X-3973250Y+5537750D01*
X-3973250Y+5528875D01*
X-3982125Y+5520000D01*
X-4026500Y+5520000D01*
X-3982125Y+5520000D02*
X-3973250Y+5511125D01*
X-3973250Y+5493375D01*
X-3946625Y+5537750D02*
X-3937750Y+5546625D01*
X-3911125Y+5546625D01*
X-3902250Y+5537750D01*
X-3902250Y+5528875D01*
X-3911125Y+5520000D01*
X-3937750Y+5520000D01*
X-3946625Y+5511125D01*
X-3946625Y+5493375D01*
X-3902250Y+5493375D01*
X-3831250Y+5537750D02*
X-3840125Y+5546625D01*
X-3866750Y+5546625D01*
X-3875625Y+5537750D01*
X-3875625Y+5502250D01*
X-3866750Y+5493375D01*
X-3840125Y+5493375D01*
X-3831250Y+5502250D01*
X-3831250Y+5511125D01*
X-3840125Y+5520000D01*
X-3875625Y+5520000D01*
D99*
X-4095000Y+6030000D02*
X-3745000Y+6030000D01*
X-3745000Y+6230000D01*
X-4095000Y+6230000D01*
X-4095000Y+6030000D01*
X-3920000Y+6180000D02*
X-3920000Y+6080000D01*
X-3870000Y+6130000D02*
X-3970000Y+6130000D01*
D112*
X-4020000Y+6130000D02*
X-4020000Y+6130000D01*
D128*
X-4026500Y+6103375D02*
X-4026500Y+6156625D01*
X-3982125Y+6156625D01*
X-3973250Y+6147750D01*
X-3973250Y+6138875D01*
X-3982125Y+6130000D01*
X-4026500Y+6130000D01*
X-3982125Y+6130000D02*
X-3973250Y+6121125D01*
X-3973250Y+6103375D01*
X-3946625Y+6147750D02*
X-3937750Y+6156625D01*
X-3911125Y+6156625D01*
X-3902250Y+6147750D01*
X-3902250Y+6138875D01*
X-3911125Y+6130000D01*
X-3937750Y+6130000D01*
X-3946625Y+6121125D01*
X-3946625Y+6103375D01*
X-3902250Y+6103375D01*
X-3831250Y+6156625D02*
X-3875625Y+6156625D01*
X-3875625Y+6138875D01*
X-3840125Y+6138875D01*
X-3831250Y+6130000D01*
X-3831250Y+6112250D01*
X-3840125Y+6103375D01*
X-3866750Y+6103375D01*
X-3875625Y+6112250D01*
D99*
X-4095000Y+6400000D02*
X-3745000Y+6400000D01*
X-3745000Y+6600000D01*
X-4095000Y+6600000D01*
X-4095000Y+6400000D01*
X-3920000Y+6550000D02*
X-3920000Y+6450000D01*
X-3870000Y+6500000D02*
X-3970000Y+6500000D01*
D112*
X-4020000Y+6500000D02*
X-4020000Y+6500000D01*
D128*
X-4026500Y+6473375D02*
X-4026500Y+6526625D01*
X-3982125Y+6526625D01*
X-3973250Y+6517750D01*
X-3973250Y+6508875D01*
X-3982125Y+6500000D01*
X-4026500Y+6500000D01*
X-3982125Y+6500000D02*
X-3973250Y+6491125D01*
X-3973250Y+6473375D01*
X-3946625Y+6517750D02*
X-3937750Y+6526625D01*
X-3911125Y+6526625D01*
X-3902250Y+6517750D01*
X-3902250Y+6508875D01*
X-3911125Y+6500000D01*
X-3937750Y+6500000D01*
X-3946625Y+6491125D01*
X-3946625Y+6473375D01*
X-3902250Y+6473375D01*
X-3831250Y+6491125D02*
X-3884500Y+6491125D01*
X-3849000Y+6526625D01*
X-3849000Y+6473375D01*
D99*
X-4075000Y+5740000D02*
X-3725000Y+5740000D01*
X-3725000Y+5940000D01*
X-4075000Y+5940000D01*
X-4075000Y+5740000D01*
X-3900000Y+5890000D02*
X-3900000Y+5790000D01*
X-3850000Y+5840000D02*
X-3950000Y+5840000D01*
D112*
X-4000000Y+5840000D02*
X-4000000Y+5840000D01*
D128*
X-4006500Y+5813375D02*
X-4006500Y+5866625D01*
X-3962125Y+5866625D01*
X-3953250Y+5857750D01*
X-3953250Y+5848875D01*
X-3962125Y+5840000D01*
X-4006500Y+5840000D01*
X-3962125Y+5840000D02*
X-3953250Y+5831125D01*
X-3953250Y+5813375D01*
X-3926625Y+5857750D02*
X-3917750Y+5866625D01*
X-3891125Y+5866625D01*
X-3882250Y+5857750D01*
X-3882250Y+5848875D01*
X-3891125Y+5840000D01*
X-3917750Y+5840000D01*
X-3926625Y+5831125D01*
X-3926625Y+5813375D01*
X-3882250Y+5813375D01*
X-3855625Y+5857750D02*
X-3846750Y+5866625D01*
X-3820125Y+5866625D01*
X-3811250Y+5857750D01*
X-3811250Y+5848875D01*
X-3820125Y+5840000D01*
X-3811250Y+5831125D01*
X-3811250Y+5822250D01*
X-3820125Y+5813375D01*
X-3846750Y+5813375D01*
X-3855625Y+5822250D01*
X-3837875Y+5840000D02*
X-3820125Y+5840000D01*
D43*
X+2761840Y-558160D02*
X+3798160Y-558160D01*
X+3798160Y+1494160D01*
X+2761840Y+1494160D01*
X+2761840Y-558160D01*
D116*
X+3280000Y+1230000D02*
X+3280000Y+1230000D01*
D136*
X+3356962Y-96388D02*
X+3356962Y-250312D01*
X+3203038Y-250312D01*
X+3203038Y-96388D01*
X+3280000Y-250312D02*
X+3280000Y-147696D01*
X+3203038Y+108844D02*
X+3356962Y-45080D01*
X+3203038Y-45080D02*
X+3280000Y+31882D01*
X+3356962Y+314076D02*
X+3356962Y+160152D01*
X+3203038Y+160152D01*
X+3203038Y+314076D01*
X+3280000Y+160152D02*
X+3280000Y+262768D01*
X+3356962Y+365384D02*
X+3203038Y+365384D01*
X+3280000Y+442346D01*
X+3203038Y+519308D01*
X+3356962Y+519308D01*
X+3356962Y+570616D02*
X+3254346Y+570616D01*
X+3203038Y+621924D01*
X+3203038Y+673232D01*
X+3254346Y+724540D01*
X+3356962Y+724540D01*
X+3305654Y+570616D02*
X+3305654Y+724540D01*
X+3356962Y+775848D02*
X+3203038Y+775848D01*
X+3203038Y+904118D01*
X+3228692Y+929772D01*
X+3254346Y+929772D01*
X+3280000Y+904118D01*
X+3280000Y+775848D01*
X+3280000Y+904118D02*
X+3305654Y+929772D01*
X+3356962Y+929772D01*
X+3203038Y+981080D02*
X+3356962Y+981080D01*
X+3203038Y+1135004D02*
X+3280000Y+1058042D01*
X+3356962Y+1135004D01*
X+3280000Y+981080D02*
X+3280000Y+1058042D01*
D43*
X-4304160Y+8161840D02*
X-2759840Y+8161840D01*
X-2759840Y+9198160D01*
X-4304160Y+9198160D01*
X-4304160Y+8161840D01*
D116*
X-4040000Y+8680000D02*
X-4040000Y+8680000D01*
D137*
X-4009331Y+8637882D02*
X-4093565Y+8637882D01*
X-4093565Y+8722117D01*
X-4009331Y+8722117D01*
X-4093565Y+8680000D02*
X-4037409Y+8680000D01*
X-3981252Y+8722117D02*
X-3897018Y+8637882D01*
X-3981252Y+8637882D02*
X-3897018Y+8722117D01*
X-3868939Y+8722117D02*
X-3784705Y+8722117D01*
X-3826822Y+8722117D02*
X-3826822Y+8637882D01*
X-3630274Y+8722117D02*
X-3574118Y+8722117D01*
X-3602196Y+8722117D02*
X-3602196Y+8637882D01*
X-3630274Y+8637882D02*
X-3574118Y+8637882D01*
X-3532000Y+8637882D02*
X-3532000Y+8722117D01*
X-3447766Y+8637882D01*
X-3447766Y+8722117D01*
X-3419687Y+8637882D02*
X-3419687Y+8722117D01*
X-3349492Y+8722117D01*
X-3335453Y+8708078D01*
X-3335453Y+8694039D01*
X-3349492Y+8680000D01*
X-3419687Y+8680000D01*
X-3307374Y+8722117D02*
X-3307374Y+8651921D01*
X-3293335Y+8637882D01*
X-3237179Y+8637882D01*
X-3223140Y+8651921D01*
X-3223140Y+8722117D01*
X-3195061Y+8722117D02*
X-3110827Y+8722117D01*
X-3152944Y+8722117D02*
X-3152944Y+8637882D01*
X-3054670Y+8694039D02*
X-3026592Y+8722117D01*
X-3026592Y+8637882D01*
D43*
X-5854160Y+8161840D02*
X-4309840Y+8161840D01*
X-4309840Y+9198160D01*
X-5854160Y+9198160D01*
X-5854160Y+8161840D01*
D116*
X-5590000Y+8680000D02*
X-5590000Y+8680000D01*
D138*
X-5545294Y+8633670D02*
X-5637952Y+8633670D01*
X-5637952Y+8726329D01*
X-5545294Y+8726329D01*
X-5637952Y+8680000D02*
X-5576180Y+8680000D01*
X-5514407Y+8726329D02*
X-5421749Y+8633670D01*
X-5514407Y+8633670D02*
X-5421749Y+8726329D01*
X-5251874Y+8726329D02*
X-5190102Y+8726329D01*
X-5220988Y+8726329D02*
X-5220988Y+8633670D01*
X-5251874Y+8633670D02*
X-5190102Y+8633670D01*
X-5143772Y+8633670D02*
X-5143772Y+8726329D01*
X-5051114Y+8633670D01*
X-5051114Y+8726329D01*
X-5020227Y+8633670D02*
X-5020227Y+8726329D01*
X-4943012Y+8726329D01*
X-4927569Y+8710886D01*
X-4927569Y+8695443D01*
X-4943012Y+8680000D01*
X-5020227Y+8680000D01*
X-4896682Y+8726329D02*
X-4896682Y+8649113D01*
X-4881239Y+8633670D01*
X-4819467Y+8633670D01*
X-4804024Y+8649113D01*
X-4804024Y+8726329D01*
X-4773137Y+8726329D02*
X-4680479Y+8726329D01*
X-4726808Y+8726329D02*
X-4726808Y+8633670D01*
X-4634149Y+8710886D02*
X-4618706Y+8726329D01*
X-4572377Y+8726329D01*
X-4556934Y+8710886D01*
X-4556934Y+8695443D01*
X-4572377Y+8680000D01*
X-4618706Y+8680000D01*
X-4634149Y+8664556D01*
X-4634149Y+8633670D01*
X-4556934Y+8633670D01*
D43*
X+395840Y-2078160D02*
X+2448160Y-2078160D01*
X+2448160Y-1041840D01*
X+395840Y-1041840D01*
X+395840Y-2078160D01*
D116*
X+660000Y-1560000D02*
X+660000Y-1560000D01*
D139*
X+765258Y-1642093D02*
X+806304Y-1683140D01*
X+970489Y-1683140D01*
X+1011536Y-1642093D01*
X+1011536Y-1601047D01*
X+970489Y-1560000D01*
X+806304Y-1560000D01*
X+765258Y-1518954D01*
X+765258Y-1477908D01*
X+806304Y-1436861D01*
X+970489Y-1436861D01*
X+1011536Y-1477908D01*
X+1093629Y-1683140D02*
X+1093629Y-1436861D01*
X+1339907Y-1683140D01*
X+1339907Y-1436861D01*
X+1422000Y-1642093D02*
X+1422000Y-1477908D01*
X+1463046Y-1436861D01*
X+1627231Y-1436861D01*
X+1668278Y-1477908D01*
X+1668278Y-1642093D01*
X+1627231Y-1683140D01*
X+1463046Y-1683140D01*
X+1422000Y-1642093D01*
X+1422000Y-1683140D02*
X+1668278Y-1436861D01*
X+1996649Y-1601047D02*
X+1750371Y-1601047D01*
X+1914556Y-1436861D01*
X+1914556Y-1683140D01*
D43*
X-1684160Y-2068160D02*
X+368160Y-2068160D01*
X+368160Y-1031840D01*
X-1684160Y-1031840D01*
X-1684160Y-2068160D01*
D116*
X-1420000Y-1550000D02*
X-1420000Y-1550000D01*
D140*
X-1361650Y-1608638D02*
X-1332332Y-1637957D01*
X-1215057Y-1637957D01*
X-1185738Y-1608638D01*
X-1185738Y-1579319D01*
X-1215057Y-1550000D01*
X-1332332Y-1550000D01*
X-1361650Y-1520682D01*
X-1361650Y-1491363D01*
X-1332332Y-1462044D01*
X-1215057Y-1462044D01*
X-1185738Y-1491363D01*
X-1127100Y-1462044D02*
X-951188Y-1462044D01*
X-1039144Y-1462044D02*
X-1039144Y-1637957D01*
X-716638Y-1637957D02*
X-892550Y-1637957D01*
X-892550Y-1462044D01*
X-716638Y-1462044D01*
X-892550Y-1550000D02*
X-775275Y-1550000D01*
X-658000Y-1637957D02*
X-658000Y-1462044D01*
X-511407Y-1462044D01*
X-482088Y-1491363D01*
X-482088Y-1520682D01*
X-511407Y-1550000D01*
X-658000Y-1550000D01*
X-423450Y-1637957D02*
X-423450Y-1462044D01*
X-276857Y-1462044D01*
X-247538Y-1491363D01*
X-247538Y-1520682D01*
X-276857Y-1550000D01*
X-423450Y-1550000D01*
X-130263Y-1520682D02*
X-71625Y-1462044D01*
X-71625Y-1637957D01*
D43*
X-3764160Y-2058160D02*
X-1711840Y-2058160D01*
X-1711840Y-1021840D01*
X-3764160Y-1021840D01*
X-3764160Y-2058160D01*
D116*
X-3500000Y-1540000D02*
X-3500000Y-1540000D01*
D140*
X-3441650Y-1598638D02*
X-3412332Y-1627957D01*
X-3295057Y-1627957D01*
X-3265738Y-1598638D01*
X-3265738Y-1569319D01*
X-3295057Y-1540000D01*
X-3412332Y-1540000D01*
X-3441650Y-1510682D01*
X-3441650Y-1481363D01*
X-3412332Y-1452044D01*
X-3295057Y-1452044D01*
X-3265738Y-1481363D01*
X-3207100Y-1452044D02*
X-3031188Y-1452044D01*
X-3119144Y-1452044D02*
X-3119144Y-1627957D01*
X-2796638Y-1627957D02*
X-2972550Y-1627957D01*
X-2972550Y-1452044D01*
X-2796638Y-1452044D01*
X-2972550Y-1540000D02*
X-2855275Y-1540000D01*
X-2738000Y-1627957D02*
X-2738000Y-1452044D01*
X-2591407Y-1452044D01*
X-2562088Y-1481363D01*
X-2562088Y-1510682D01*
X-2591407Y-1540000D01*
X-2738000Y-1540000D01*
X-2503450Y-1627957D02*
X-2503450Y-1452044D01*
X-2356857Y-1452044D01*
X-2327538Y-1481363D01*
X-2327538Y-1510682D01*
X-2356857Y-1540000D01*
X-2503450Y-1540000D01*
X-2239582Y-1481363D02*
X-2210263Y-1452044D01*
X-2122307Y-1452044D01*
X-2092988Y-1481363D01*
X-2092988Y-1510682D01*
X-2122307Y-1540000D01*
X-2210263Y-1540000D01*
X-2239582Y-1569319D01*
X-2239582Y-1627957D01*
X-2092988Y-1627957D01*
D99*
X-202000Y+1610000D02*
X+902000Y+1610000D01*
X+902000Y+2470000D01*
X-202000Y+2470000D01*
X-202000Y+1610000D01*
D131*
X-94500Y+1725000D02*
X-94500Y+1725000D01*
D132*
X+54268Y+2150899D02*
X+54268Y+1966066D01*
X+91234Y+1929100D01*
X+239100Y+1929100D01*
X+276067Y+1966066D01*
X+276067Y+2150899D01*
X+423933Y+2040000D02*
X+386966Y+2076966D01*
X+386966Y+2113933D01*
X+423933Y+2150899D01*
X+534832Y+2150899D01*
X+571799Y+2113933D01*
X+571799Y+2076966D01*
X+534832Y+2040000D01*
X+423933Y+2040000D01*
X+386966Y+2003033D01*
X+386966Y+1966066D01*
X+423933Y+1929100D01*
X+534832Y+1929100D01*
X+571799Y+1966066D01*
X+571799Y+2003033D01*
X+534832Y+2040000D01*
D99*
X-5452000Y-150000D02*
X-4348000Y-150000D01*
X-4348000Y+710000D01*
X-5452000Y+710000D01*
X-5452000Y-150000D01*
D131*
X-4455500Y+595000D02*
X-4455500Y+595000D01*
D132*
X-5195732Y+390899D02*
X-5195732Y+206066D01*
X-5158766Y+169100D01*
X-5010900Y+169100D01*
X-4973933Y+206066D01*
X-4973933Y+390899D01*
X-4678201Y+316966D02*
X-4715168Y+280000D01*
X-4826067Y+280000D01*
X-4863034Y+316966D01*
X-4863034Y+353933D01*
X-4826067Y+390899D01*
X-4715168Y+390899D01*
X-4678201Y+353933D01*
X-4678201Y+206066D01*
X-4715168Y+169100D01*
X-4826067Y+169100D01*
D43*
X-5334160Y-2068160D02*
X-3789840Y-2068160D01*
X-3789840Y-1031840D01*
X-5334160Y-1031840D01*
X-5334160Y-2068160D01*
D116*
X-5070000Y-1550000D02*
X-5070000Y-1550000D01*
D141*
X-5056182Y-1457341D02*
X-5056182Y-1550000D01*
X-4963523Y-1642660D01*
X-4870864Y-1550000D01*
X-4870864Y-1457341D01*
X-4809091Y-1642660D02*
X-4809091Y-1457341D01*
X-4623773Y-1457341D01*
X-4809091Y-1550000D02*
X-4685546Y-1550000D01*
X-4562000Y-1642660D02*
X-4562000Y-1457341D01*
X-4438455Y-1457341D01*
X-4376682Y-1519114D01*
X-4376682Y-1580887D01*
X-4438455Y-1642660D01*
X-4562000Y-1642660D01*
X-4253137Y-1519114D02*
X-4191364Y-1457341D01*
X-4191364Y-1642660D01*
D43*
X-6964160Y-2068160D02*
X-5419840Y-2068160D01*
X-5419840Y-1031840D01*
X-6964160Y-1031840D01*
X-6964160Y-2068160D01*
D116*
X-6700000Y-1550000D02*
X-6700000Y-1550000D01*
D141*
X-6686182Y-1457341D02*
X-6686182Y-1550000D01*
X-6593523Y-1642660D01*
X-6500864Y-1550000D01*
X-6500864Y-1457341D01*
X-6439091Y-1642660D02*
X-6439091Y-1457341D01*
X-6253773Y-1457341D01*
X-6439091Y-1550000D02*
X-6315546Y-1550000D01*
X-6192000Y-1642660D02*
X-6192000Y-1457341D01*
X-6068455Y-1457341D01*
X-6006682Y-1519114D01*
X-6006682Y-1580887D01*
X-6068455Y-1642660D01*
X-6192000Y-1642660D01*
X-5914023Y-1488228D02*
X-5883137Y-1457341D01*
X-5790478Y-1457341D01*
X-5759591Y-1488228D01*
X-5759591Y-1519114D01*
X-5790478Y-1550000D01*
X-5883137Y-1550000D01*
X-5914023Y-1580887D01*
X-5914023Y-1642660D01*
X-5759591Y-1642660D01*
D99*
X-9082500Y+3215000D02*
X-9082500Y+2265000D01*
X-7982500Y+2265000D01*
X-7982500Y+3215000D01*
X-9082500Y+3215000D01*
X-8482500Y+2740000D02*
X-8582500Y+2740000D01*
X-8532500Y+2690000D02*
X-8532500Y+2790000D01*
D142*
X-8110000Y+3100000D02*
X-8110000Y+3100000D01*
D143*
X-8864000Y+2822875D02*
X-8864000Y+2684750D01*
X-8836375Y+2657125D01*
X-8725875Y+2657125D01*
X-8698250Y+2684750D01*
X-8698250Y+2822875D01*
X-8587750Y+2767625D02*
X-8532500Y+2822875D01*
X-8532500Y+2657125D01*
X-8394375Y+2795250D02*
X-8366750Y+2822875D01*
X-8283875Y+2822875D01*
X-8256250Y+2795250D01*
X-8256250Y+2767625D01*
X-8283875Y+2740000D01*
X-8366750Y+2740000D01*
X-8394375Y+2712375D01*
X-8394375Y+2657125D01*
X-8256250Y+2657125D01*
D114*
X-8919940Y+1100000D02*
X-8920858Y+1122814D01*
X-8928311Y+1168443D01*
X-8943858Y+1214072D01*
X-8969100Y+1259701D01*
X-9007642Y+1305231D01*
X-9053271Y+1340727D01*
X-9098900Y+1363847D01*
X-9144529Y+1377700D01*
X-9190158Y+1383646D01*
X-9203920Y+1383980D01*
X-9487900Y+1100000D02*
X-9486982Y+1122814D01*
X-9479529Y+1168443D01*
X-9463982Y+1214072D01*
X-9438740Y+1259701D01*
X-9400198Y+1305231D01*
X-9354569Y+1340727D01*
X-9308940Y+1363847D01*
X-9263311Y+1377700D01*
X-9217682Y+1383646D01*
X-9203920Y+1383980D01*
X-9487900Y+1100000D02*
X-9486982Y+1077186D01*
X-9479529Y+1031557D01*
X-9463982Y+985928D01*
X-9438740Y+940299D01*
X-9400198Y+894769D01*
X-9354569Y+859273D01*
X-9308940Y+836153D01*
X-9263311Y+822300D01*
X-9217682Y+816354D01*
X-9203920Y+816020D01*
X-8919940Y+1100000D02*
X-8920858Y+1077186D01*
X-8928311Y+1031557D01*
X-8943858Y+985928D01*
X-8969100Y+940299D01*
X-9007642Y+894769D01*
X-9053271Y+859273D01*
X-9098900Y+836153D01*
X-9144529Y+822300D01*
X-9190158Y+816354D01*
X-9203920Y+816020D01*
D108*
X-9076000Y+1100000D02*
X-9076000Y+1100000D01*
D115*
X-9356730Y+1042696D02*
X-9356730Y+1157304D01*
X-9280325Y+1157304D01*
X-9242123Y+1119101D01*
X-9242123Y+1080899D01*
X-9280325Y+1042696D01*
X-9356730Y+1042696D01*
X-9184819Y+1157304D02*
X-9089313Y+1157304D01*
X-9089313Y+1138203D01*
X-9184819Y+1042696D01*
D114*
X-8233940Y+1110000D02*
X-8234858Y+1132814D01*
X-8242311Y+1178443D01*
X-8257858Y+1224072D01*
X-8283100Y+1269701D01*
X-8321642Y+1315231D01*
X-8367271Y+1350727D01*
X-8412900Y+1373847D01*
X-8458529Y+1387700D01*
X-8504158Y+1393646D01*
X-8517920Y+1393980D01*
X-8801900Y+1110000D02*
X-8800982Y+1132814D01*
X-8793529Y+1178443D01*
X-8777982Y+1224072D01*
X-8752740Y+1269701D01*
X-8714198Y+1315231D01*
X-8668569Y+1350727D01*
X-8622940Y+1373847D01*
X-8577311Y+1387700D01*
X-8531682Y+1393646D01*
X-8517920Y+1393980D01*
X-8801900Y+1110000D02*
X-8800982Y+1087186D01*
X-8793529Y+1041557D01*
X-8777982Y+995928D01*
X-8752740Y+950299D01*
X-8714198Y+904769D01*
X-8668569Y+869273D01*
X-8622940Y+846153D01*
X-8577311Y+832300D01*
X-8531682Y+826354D01*
X-8517920Y+826020D01*
X-8233940Y+1110000D02*
X-8234858Y+1087186D01*
X-8242311Y+1041557D01*
X-8257858Y+995928D01*
X-8283100Y+950299D01*
X-8321642Y+904769D01*
X-8367271Y+869273D01*
X-8412900Y+846153D01*
X-8458529Y+832300D01*
X-8504158Y+826354D01*
X-8517920Y+826020D01*
D108*
X-8390000Y+1110000D02*
X-8390000Y+1110000D01*
D115*
X-8670730Y+1052696D02*
X-8670730Y+1167304D01*
X-8594325Y+1167304D01*
X-8556123Y+1129101D01*
X-8556123Y+1090899D01*
X-8594325Y+1052696D01*
X-8670730Y+1052696D01*
X-8403313Y+1148203D02*
X-8422414Y+1167304D01*
X-8479718Y+1167304D01*
X-8498819Y+1148203D01*
X-8498819Y+1071797D01*
X-8479718Y+1052696D01*
X-8422414Y+1052696D01*
X-8403313Y+1071797D01*
X-8403313Y+1090899D01*
X-8422414Y+1110000D01*
X-8498819Y+1110000D01*
D99*
X+2190000Y+1695000D02*
X+2190000Y+1345000D01*
X+2390000Y+1345000D01*
X+2390000Y+1695000D01*
X+2190000Y+1695000D01*
X+2340000Y+1520000D02*
X+2240000Y+1520000D01*
X+2290000Y+1470000D02*
X+2290000Y+1570000D01*
D112*
X+2290000Y+1620000D02*
X+2290000Y+1620000D01*
D128*
X+2316625Y+1413500D02*
X+2263375Y+1413500D01*
X+2263375Y+1457875D01*
X+2272250Y+1466750D01*
X+2281125Y+1466750D01*
X+2290000Y+1457875D01*
X+2290000Y+1413500D01*
X+2290000Y+1457875D02*
X+2298875Y+1466750D01*
X+2316625Y+1466750D01*
X+2298875Y+1537750D02*
X+2298875Y+1484500D01*
X+2263375Y+1520000D01*
X+2316625Y+1520000D01*
X+2281125Y+1573250D02*
X+2263375Y+1591000D01*
X+2316625Y+1591000D01*
D99*
X-4730000Y+1185000D02*
X-4730000Y+835000D01*
X-4530000Y+835000D01*
X-4530000Y+1185000D01*
X-4730000Y+1185000D01*
X-4580000Y+1010000D02*
X-4680000Y+1010000D01*
X-4630000Y+960000D02*
X-4630000Y+1060000D01*
D112*
X-4630000Y+1110000D02*
X-4630000Y+1110000D01*
D128*
X-4603375Y+903500D02*
X-4656625Y+903500D01*
X-4656625Y+947875D01*
X-4647750Y+956750D01*
X-4638875Y+956750D01*
X-4630000Y+947875D01*
X-4630000Y+903500D01*
X-4630000Y+947875D02*
X-4621125Y+956750D01*
X-4603375Y+956750D01*
X-4621125Y+1027750D02*
X-4621125Y+974500D01*
X-4656625Y+1010000D01*
X-4603375Y+1010000D01*
X-4647750Y+1098750D02*
X-4656625Y+1089875D01*
X-4656625Y+1063250D01*
X-4647750Y+1054375D01*
X-4612250Y+1054375D01*
X-4603375Y+1063250D01*
X-4603375Y+1089875D01*
X-4612250Y+1098750D01*
X-4621125Y+1098750D01*
X-4630000Y+1089875D01*
X-4630000Y+1054375D01*
D99*
X-4360000Y-605000D02*
X-4360000Y-255000D01*
X-4560000Y-255000D01*
X-4560000Y-605000D01*
X-4360000Y-605000D01*
X-4510000Y-430000D02*
X-4410000Y-430000D01*
X-4460000Y-380000D02*
X-4460000Y-480000D01*
D112*
X-4460000Y-530000D02*
X-4460000Y-530000D01*
D128*
X-4433375Y-536500D02*
X-4486625Y-536500D01*
X-4486625Y-492125D01*
X-4477750Y-483250D01*
X-4468875Y-483250D01*
X-4460000Y-492125D01*
X-4460000Y-536500D01*
X-4460000Y-492125D02*
X-4451125Y-483250D01*
X-4433375Y-483250D01*
X-4451125Y-412250D02*
X-4451125Y-465500D01*
X-4486625Y-430000D01*
X-4433375Y-430000D01*
X-4486625Y-385625D02*
X-4486625Y-341250D01*
X-4477750Y-341250D01*
X-4433375Y-385625D01*
D99*
X-4700000Y-605000D02*
X-4700000Y-255000D01*
X-4900000Y-255000D01*
X-4900000Y-605000D01*
X-4700000Y-605000D01*
X-4850000Y-430000D02*
X-4750000Y-430000D01*
X-4800000Y-380000D02*
X-4800000Y-480000D01*
D112*
X-4800000Y-530000D02*
X-4800000Y-530000D01*
D128*
X-4773375Y-536500D02*
X-4826625Y-536500D01*
X-4826625Y-492125D01*
X-4817750Y-483250D01*
X-4808875Y-483250D01*
X-4800000Y-492125D01*
X-4800000Y-536500D01*
X-4800000Y-492125D02*
X-4791125Y-483250D01*
X-4773375Y-483250D01*
X-4791125Y-412250D02*
X-4791125Y-465500D01*
X-4826625Y-430000D01*
X-4773375Y-430000D01*
X-4800000Y-376750D02*
X-4808875Y-385625D01*
X-4817750Y-385625D01*
X-4826625Y-376750D01*
X-4826625Y-350125D01*
X-4817750Y-341250D01*
X-4808875Y-341250D01*
X-4800000Y-350125D01*
X-4800000Y-376750D01*
X-4791125Y-385625D01*
X-4782250Y-385625D01*
X-4773375Y-376750D01*
X-4773375Y-350125D01*
X-4782250Y-341250D01*
X-4791125Y-341250D01*
X-4800000Y-350125D01*
D99*
X-5690000Y-255000D02*
X-5690000Y-605000D01*
X-5490000Y-605000D01*
X-5490000Y-255000D01*
X-5690000Y-255000D01*
X-5540000Y-430000D02*
X-5640000Y-430000D01*
X-5590000Y-480000D02*
X-5590000Y-380000D01*
D112*
X-5590000Y-330000D02*
X-5590000Y-330000D01*
D128*
X-5563375Y-536500D02*
X-5616625Y-536500D01*
X-5616625Y-492125D01*
X-5607750Y-483250D01*
X-5598875Y-483250D01*
X-5590000Y-492125D01*
X-5590000Y-536500D01*
X-5590000Y-492125D02*
X-5581125Y-483250D01*
X-5563375Y-483250D01*
X-5581125Y-412250D02*
X-5581125Y-465500D01*
X-5616625Y-430000D01*
X-5563375Y-430000D01*
X-5598875Y-341250D02*
X-5590000Y-350125D01*
X-5590000Y-376750D01*
X-5598875Y-385625D01*
X-5607750Y-385625D01*
X-5616625Y-376750D01*
X-5616625Y-350125D01*
X-5607750Y-341250D01*
X-5572250Y-341250D01*
X-5563375Y-350125D01*
X-5563375Y-376750D01*
D99*
X-5350000Y-265000D02*
X-5350000Y-615000D01*
X-5150000Y-615000D01*
X-5150000Y-265000D01*
X-5350000Y-265000D01*
X-5200000Y-440000D02*
X-5300000Y-440000D01*
X-5250000Y-490000D02*
X-5250000Y-390000D01*
D112*
X-5250000Y-340000D02*
X-5250000Y-340000D01*
D128*
X-5223375Y-546500D02*
X-5276625Y-546500D01*
X-5276625Y-502125D01*
X-5267750Y-493250D01*
X-5258875Y-493250D01*
X-5250000Y-502125D01*
X-5250000Y-546500D01*
X-5250000Y-502125D02*
X-5241125Y-493250D01*
X-5223375Y-493250D01*
X-5276625Y-422250D02*
X-5276625Y-466625D01*
X-5258875Y-466625D01*
X-5258875Y-431125D01*
X-5250000Y-422250D01*
X-5232250Y-422250D01*
X-5223375Y-431125D01*
X-5223375Y-457750D01*
X-5232250Y-466625D01*
X-5232250Y-404500D02*
X-5267750Y-404500D01*
X-5276625Y-395625D01*
X-5276625Y-360125D01*
X-5267750Y-351250D01*
X-5232250Y-351250D01*
X-5223375Y-360125D01*
X-5223375Y-395625D01*
X-5232250Y-404500D01*
X-5223375Y-404500D02*
X-5276625Y-351250D01*
D99*
X-4780000Y+835000D02*
X-4780000Y+1185000D01*
X-4980000Y+1185000D01*
X-4980000Y+835000D01*
X-4780000Y+835000D01*
X-4930000Y+1010000D02*
X-4830000Y+1010000D01*
X-4880000Y+1060000D02*
X-4880000Y+960000D01*
D112*
X-4880000Y+910000D02*
X-4880000Y+910000D01*
D128*
X-4853375Y+903500D02*
X-4906625Y+903500D01*
X-4906625Y+947875D01*
X-4897750Y+956750D01*
X-4888875Y+956750D01*
X-4880000Y+947875D01*
X-4880000Y+903500D01*
X-4880000Y+947875D02*
X-4871125Y+956750D01*
X-4853375Y+956750D01*
X-4906625Y+1027750D02*
X-4906625Y+983375D01*
X-4888875Y+983375D01*
X-4888875Y+1018875D01*
X-4880000Y+1027750D01*
X-4862250Y+1027750D01*
X-4853375Y+1018875D01*
X-4853375Y+992250D01*
X-4862250Y+983375D01*
X-4888875Y+1063250D02*
X-4906625Y+1081000D01*
X-4853375Y+1081000D01*
D99*
X-5100000Y+835000D02*
X-5100000Y+1185000D01*
X-5300000Y+1185000D01*
X-5300000Y+835000D01*
X-5100000Y+835000D01*
X-5250000Y+1010000D02*
X-5150000Y+1010000D01*
X-5200000Y+1060000D02*
X-5200000Y+960000D01*
D112*
X-5200000Y+910000D02*
X-5200000Y+910000D01*
D128*
X-5173375Y+903500D02*
X-5226625Y+903500D01*
X-5226625Y+947875D01*
X-5217750Y+956750D01*
X-5208875Y+956750D01*
X-5200000Y+947875D01*
X-5200000Y+903500D01*
X-5200000Y+947875D02*
X-5191125Y+956750D01*
X-5173375Y+956750D01*
X-5226625Y+1027750D02*
X-5226625Y+983375D01*
X-5208875Y+983375D01*
X-5208875Y+1018875D01*
X-5200000Y+1027750D01*
X-5182250Y+1027750D01*
X-5173375Y+1018875D01*
X-5173375Y+992250D01*
X-5182250Y+983375D01*
X-5217750Y+1054375D02*
X-5226625Y+1063250D01*
X-5226625Y+1089875D01*
X-5217750Y+1098750D01*
X-5208875Y+1098750D01*
X-5200000Y+1089875D01*
X-5200000Y+1063250D01*
X-5191125Y+1054375D01*
X-5173375Y+1054375D01*
X-5173375Y+1098750D01*
D99*
X-8320000Y+3385000D02*
X-8320000Y+3735000D01*
X-8520000Y+3735000D01*
X-8520000Y+3385000D01*
X-8320000Y+3385000D01*
X-8470000Y+3560000D02*
X-8370000Y+3560000D01*
X-8420000Y+3610000D02*
X-8420000Y+3510000D01*
D112*
X-8420000Y+3460000D02*
X-8420000Y+3460000D01*
D128*
X-8393375Y+3453500D02*
X-8446625Y+3453500D01*
X-8446625Y+3497875D01*
X-8437750Y+3506750D01*
X-8428875Y+3506750D01*
X-8420000Y+3497875D01*
X-8420000Y+3453500D01*
X-8420000Y+3497875D02*
X-8411125Y+3506750D01*
X-8393375Y+3506750D01*
X-8446625Y+3577750D02*
X-8446625Y+3533375D01*
X-8428875Y+3533375D01*
X-8428875Y+3568875D01*
X-8420000Y+3577750D01*
X-8402250Y+3577750D01*
X-8393375Y+3568875D01*
X-8393375Y+3542250D01*
X-8402250Y+3533375D01*
X-8411125Y+3648750D02*
X-8411125Y+3595500D01*
X-8446625Y+3631000D01*
X-8393375Y+3631000D01*
D99*
X-8640000Y+3385000D02*
X-8640000Y+3735000D01*
X-8840000Y+3735000D01*
X-8840000Y+3385000D01*
X-8640000Y+3385000D01*
X-8790000Y+3560000D02*
X-8690000Y+3560000D01*
X-8740000Y+3610000D02*
X-8740000Y+3510000D01*
D112*
X-8740000Y+3460000D02*
X-8740000Y+3460000D01*
D128*
X-8713375Y+3453500D02*
X-8766625Y+3453500D01*
X-8766625Y+3497875D01*
X-8757750Y+3506750D01*
X-8748875Y+3506750D01*
X-8740000Y+3497875D01*
X-8740000Y+3453500D01*
X-8740000Y+3497875D02*
X-8731125Y+3506750D01*
X-8713375Y+3506750D01*
X-8766625Y+3577750D02*
X-8766625Y+3533375D01*
X-8748875Y+3533375D01*
X-8748875Y+3568875D01*
X-8740000Y+3577750D01*
X-8722250Y+3577750D01*
X-8713375Y+3568875D01*
X-8713375Y+3542250D01*
X-8722250Y+3533375D01*
X-8766625Y+3648750D02*
X-8766625Y+3604375D01*
X-8748875Y+3604375D01*
X-8748875Y+3639875D01*
X-8740000Y+3648750D01*
X-8722250Y+3648750D01*
X-8713375Y+3639875D01*
X-8713375Y+3613250D01*
X-8722250Y+3604375D01*
D99*
X-7880000Y+3325000D02*
X-7880000Y+2975000D01*
X-7680000Y+2975000D01*
X-7680000Y+3325000D01*
X-7880000Y+3325000D01*
X-7730000Y+3150000D02*
X-7830000Y+3150000D01*
X-7780000Y+3100000D02*
X-7780000Y+3200000D01*
D112*
X-7780000Y+3250000D02*
X-7780000Y+3250000D01*
D128*
X-7753375Y+3043500D02*
X-7806625Y+3043500D01*
X-7806625Y+3087875D01*
X-7797750Y+3096750D01*
X-7788875Y+3096750D01*
X-7780000Y+3087875D01*
X-7780000Y+3043500D01*
X-7780000Y+3087875D02*
X-7771125Y+3096750D01*
X-7753375Y+3096750D01*
X-7806625Y+3167750D02*
X-7806625Y+3123375D01*
X-7788875Y+3123375D01*
X-7788875Y+3158875D01*
X-7780000Y+3167750D01*
X-7762250Y+3167750D01*
X-7753375Y+3158875D01*
X-7753375Y+3132250D01*
X-7762250Y+3123375D01*
X-7806625Y+3194375D02*
X-7806625Y+3238750D01*
X-7797750Y+3238750D01*
X-7753375Y+3194375D01*
D43*
X-8188580Y+1835840D02*
X-8046340Y+1835840D01*
X-8046340Y+2150800D01*
X-8188580Y+2150800D01*
X-8188580Y+1835840D01*
D44*
X-8120000Y+1886640D02*
X-8120000Y+1886640D01*
D105*
X-8101712Y+1946076D02*
X-8093838Y+1938202D01*
X-8093838Y+1914580D01*
X-8109586Y+1898832D01*
X-8125334Y+1898832D01*
X-8141082Y+1914580D01*
X-8141082Y+1938202D01*
X-8133208Y+1946076D01*
X-8125334Y+1977572D02*
X-8141082Y+1993320D01*
X-8093838Y+1993320D01*
X-8141082Y+2032690D02*
X-8141082Y+2072060D01*
X-8133208Y+2072060D01*
X-8093838Y+2032690D01*
D43*
X-8673660Y+1835840D02*
X-8531420Y+1835840D01*
X-8531420Y+2150800D01*
X-8673660Y+2150800D01*
X-8673660Y+1835840D01*
D44*
X-8600000Y+2100000D02*
X-8600000Y+2100000D01*
D105*
X-8586792Y+1946076D02*
X-8578918Y+1938202D01*
X-8578918Y+1914580D01*
X-8594666Y+1898832D01*
X-8610414Y+1898832D01*
X-8626162Y+1914580D01*
X-8626162Y+1938202D01*
X-8618288Y+1946076D01*
X-8610414Y+1977572D02*
X-8626162Y+1993320D01*
X-8578918Y+1993320D01*
X-8602540Y+2040564D02*
X-8610414Y+2032690D01*
X-8618288Y+2032690D01*
X-8626162Y+2040564D01*
X-8626162Y+2064186D01*
X-8618288Y+2072060D01*
X-8610414Y+2072060D01*
X-8602540Y+2064186D01*
X-8602540Y+2040564D01*
X-8594666Y+2032690D01*
X-8586792Y+2032690D01*
X-8578918Y+2040564D01*
X-8578918Y+2064186D01*
X-8586792Y+2072060D01*
X-8594666Y+2072060D01*
X-8602540Y+2064186D01*
D99*
X-8800000Y+4535000D02*
X-8800000Y+4185000D01*
X-8600000Y+4185000D01*
X-8600000Y+4535000D01*
X-8800000Y+4535000D01*
X-8650000Y+4360000D02*
X-8750000Y+4360000D01*
X-8700000Y+4310000D02*
X-8700000Y+4410000D01*
D112*
X-8700000Y+4460000D02*
X-8700000Y+4460000D01*
D113*
X-8664500Y+4265334D02*
X-8735500Y+4265334D01*
X-8735500Y+4324500D01*
X-8723667Y+4336333D01*
X-8711833Y+4336333D01*
X-8700000Y+4324500D01*
X-8700000Y+4265334D01*
X-8700000Y+4324500D02*
X-8688167Y+4336333D01*
X-8664500Y+4336333D01*
X-8723667Y+4371833D02*
X-8735500Y+4383666D01*
X-8735500Y+4419166D01*
X-8723667Y+4430999D01*
X-8711833Y+4430999D01*
X-8700000Y+4419166D01*
X-8688167Y+4430999D01*
X-8676333Y+4430999D01*
X-8664500Y+4419166D01*
X-8664500Y+4383666D01*
X-8676333Y+4371833D01*
X-8700000Y+4395499D02*
X-8700000Y+4419166D01*
D99*
X-9260000Y+4515000D02*
X-9260000Y+4165000D01*
X-9060000Y+4165000D01*
X-9060000Y+4515000D01*
X-9260000Y+4515000D01*
X-9110000Y+4340000D02*
X-9210000Y+4340000D01*
X-9160000Y+4290000D02*
X-9160000Y+4390000D01*
D112*
X-9160000Y+4440000D02*
X-9160000Y+4440000D01*
D113*
X-9124500Y+4245334D02*
X-9195500Y+4245334D01*
X-9195500Y+4304500D01*
X-9183667Y+4316333D01*
X-9171833Y+4316333D01*
X-9160000Y+4304500D01*
X-9160000Y+4245334D01*
X-9160000Y+4304500D02*
X-9148167Y+4316333D01*
X-9124500Y+4316333D01*
X-9148167Y+4410999D02*
X-9148167Y+4340000D01*
X-9195500Y+4387333D01*
X-9124500Y+4387333D01*
D99*
X+280000Y+1065000D02*
X+280000Y+1415000D01*
X+80000Y+1415000D01*
X+80000Y+1065000D01*
X+280000Y+1065000D01*
X+130000Y+1240000D02*
X+230000Y+1240000D01*
X+180000Y+1290000D02*
X+180000Y+1190000D01*
D112*
X+180000Y+1140000D02*
X+180000Y+1140000D01*
D128*
X+206625Y+1133500D02*
X+153375Y+1133500D01*
X+153375Y+1177875D01*
X+162250Y+1186750D01*
X+171125Y+1186750D01*
X+180000Y+1177875D01*
X+180000Y+1133500D01*
X+180000Y+1177875D02*
X+188875Y+1186750D01*
X+206625Y+1186750D01*
X+188875Y+1257750D02*
X+188875Y+1204500D01*
X+153375Y+1240000D01*
X+206625Y+1240000D01*
X+197750Y+1275500D02*
X+162250Y+1275500D01*
X+153375Y+1284375D01*
X+153375Y+1319875D01*
X+162250Y+1328750D01*
X+197750Y+1328750D01*
X+206625Y+1319875D01*
X+206625Y+1284375D01*
X+197750Y+1275500D01*
X+206625Y+1275500D02*
X+153375Y+1328750D01*
D99*
X-310000Y+2915000D02*
X-310000Y+2565000D01*
X-110000Y+2565000D01*
X-110000Y+2915000D01*
X-310000Y+2915000D01*
X-160000Y+2740000D02*
X-260000Y+2740000D01*
X-210000Y+2690000D02*
X-210000Y+2790000D01*
D112*
X-210000Y+2840000D02*
X-210000Y+2840000D01*
D128*
X-183375Y+2633500D02*
X-236625Y+2633500D01*
X-236625Y+2677875D01*
X-227750Y+2686750D01*
X-218875Y+2686750D01*
X-210000Y+2677875D01*
X-210000Y+2633500D01*
X-210000Y+2677875D02*
X-201125Y+2686750D01*
X-183375Y+2686750D01*
X-227750Y+2713375D02*
X-236625Y+2722250D01*
X-236625Y+2748875D01*
X-227750Y+2757750D01*
X-218875Y+2757750D01*
X-210000Y+2748875D01*
X-201125Y+2757750D01*
X-192250Y+2757750D01*
X-183375Y+2748875D01*
X-183375Y+2722250D01*
X-192250Y+2713375D01*
X-210000Y+2731125D02*
X-210000Y+2748875D01*
X-218875Y+2828750D02*
X-210000Y+2819875D01*
X-210000Y+2793250D01*
X-218875Y+2784375D01*
X-227750Y+2784375D01*
X-236625Y+2793250D01*
X-236625Y+2819875D01*
X-227750Y+2828750D01*
X-192250Y+2828750D01*
X-183375Y+2819875D01*
X-183375Y+2793250D01*
D99*
X+30000Y+2915000D02*
X+30000Y+2565000D01*
X+230000Y+2565000D01*
X+230000Y+2915000D01*
X+30000Y+2915000D01*
X+180000Y+2740000D02*
X+80000Y+2740000D01*
X+130000Y+2690000D02*
X+130000Y+2790000D01*
D112*
X+130000Y+2840000D02*
X+130000Y+2840000D01*
D128*
X+156625Y+2633500D02*
X+103375Y+2633500D01*
X+103375Y+2677875D01*
X+112250Y+2686750D01*
X+121125Y+2686750D01*
X+130000Y+2677875D01*
X+130000Y+2633500D01*
X+130000Y+2677875D02*
X+138875Y+2686750D01*
X+156625Y+2686750D01*
X+138875Y+2757750D02*
X+138875Y+2704500D01*
X+103375Y+2740000D01*
X+156625Y+2740000D01*
X+112250Y+2784375D02*
X+103375Y+2793250D01*
X+103375Y+2819875D01*
X+112250Y+2828750D01*
X+121125Y+2828750D01*
X+130000Y+2819875D01*
X+130000Y+2793250D01*
X+138875Y+2784375D01*
X+156625Y+2784375D01*
X+156625Y+2828750D01*
D99*
X+1050000Y+2565000D02*
X+1050000Y+2915000D01*
X+850000Y+2915000D01*
X+850000Y+2565000D01*
X+1050000Y+2565000D01*
X+900000Y+2740000D02*
X+1000000Y+2740000D01*
X+950000Y+2790000D02*
X+950000Y+2690000D01*
D112*
X+950000Y+2640000D02*
X+950000Y+2640000D01*
D128*
X+976625Y+2633500D02*
X+923375Y+2633500D01*
X+923375Y+2677875D01*
X+932250Y+2686750D01*
X+941125Y+2686750D01*
X+950000Y+2677875D01*
X+950000Y+2633500D01*
X+950000Y+2677875D02*
X+958875Y+2686750D01*
X+976625Y+2686750D01*
X+958875Y+2757750D02*
X+958875Y+2704500D01*
X+923375Y+2740000D01*
X+976625Y+2740000D01*
X+932250Y+2784375D02*
X+923375Y+2793250D01*
X+923375Y+2819875D01*
X+932250Y+2828750D01*
X+941125Y+2828750D01*
X+950000Y+2819875D01*
X+958875Y+2828750D01*
X+967750Y+2828750D01*
X+976625Y+2819875D01*
X+976625Y+2793250D01*
X+967750Y+2784375D01*
X+950000Y+2802125D02*
X+950000Y+2819875D01*
D99*
X+690000Y+2565000D02*
X+690000Y+2915000D01*
X+490000Y+2915000D01*
X+490000Y+2565000D01*
X+690000Y+2565000D01*
X+540000Y+2740000D02*
X+640000Y+2740000D01*
X+590000Y+2790000D02*
X+590000Y+2690000D01*
D112*
X+590000Y+2640000D02*
X+590000Y+2640000D01*
D128*
X+616625Y+2633500D02*
X+563375Y+2633500D01*
X+563375Y+2677875D01*
X+572250Y+2686750D01*
X+581125Y+2686750D01*
X+590000Y+2677875D01*
X+590000Y+2633500D01*
X+590000Y+2677875D02*
X+598875Y+2686750D01*
X+616625Y+2686750D01*
X+598875Y+2757750D02*
X+598875Y+2704500D01*
X+563375Y+2740000D01*
X+616625Y+2740000D01*
X+598875Y+2828750D02*
X+598875Y+2775500D01*
X+563375Y+2811000D01*
X+616625Y+2811000D01*
D43*
X-8528580Y+5009200D02*
X-8386340Y+5009200D01*
X-8386340Y+5324160D01*
X-8528580Y+5324160D01*
X-8528580Y+5009200D01*
D44*
X-8460000Y+5060000D02*
X-8460000Y+5060000D01*
D105*
X-8441712Y+5119436D02*
X-8433838Y+5111562D01*
X-8433838Y+5087940D01*
X-8449586Y+5072192D01*
X-8465334Y+5072192D01*
X-8481082Y+5087940D01*
X-8481082Y+5111562D01*
X-8473208Y+5119436D01*
X-8465334Y+5150932D02*
X-8481082Y+5166680D01*
X-8433838Y+5166680D01*
X-8449586Y+5245420D02*
X-8449586Y+5198176D01*
X-8481082Y+5229672D01*
X-8433838Y+5229672D01*
D99*
X-7808148Y-75709D02*
X-7808148Y-425709D01*
X-7608148Y-425709D01*
X-7608148Y-75709D01*
X-7808148Y-75709D01*
X-7658148Y-250709D02*
X-7758148Y-250709D01*
X-7708148Y-300709D02*
X-7708148Y-200709D01*
D112*
X-7708148Y-150709D02*
X-7708148Y-150709D01*
D128*
X-7681523Y-357209D02*
X-7734773Y-357209D01*
X-7734773Y-312834D01*
X-7725898Y-303959D01*
X-7717023Y-303959D01*
X-7708148Y-312834D01*
X-7708148Y-357209D01*
X-7708148Y-312834D02*
X-7699273Y-303959D01*
X-7681523Y-303959D01*
X-7734773Y-232959D02*
X-7734773Y-277334D01*
X-7717023Y-277334D01*
X-7717023Y-241834D01*
X-7708148Y-232959D01*
X-7690398Y-232959D01*
X-7681523Y-241834D01*
X-7681523Y-268459D01*
X-7690398Y-277334D01*
X-7708148Y-197459D02*
X-7717023Y-206334D01*
X-7725898Y-206334D01*
X-7734773Y-197459D01*
X-7734773Y-170834D01*
X-7725898Y-161959D01*
X-7717023Y-161959D01*
X-7708148Y-170834D01*
X-7708148Y-197459D01*
X-7699273Y-206334D01*
X-7690398Y-206334D01*
X-7681523Y-197459D01*
X-7681523Y-170834D01*
X-7690398Y-161959D01*
X-7699273Y-161959D01*
X-7708148Y-170834D01*
D99*
X-7818148Y-865709D02*
X-7818148Y-1215709D01*
X-7618148Y-1215709D01*
X-7618148Y-865709D01*
X-7818148Y-865709D01*
X-7668148Y-1040709D02*
X-7768148Y-1040709D01*
X-7718148Y-1090709D02*
X-7718148Y-990709D01*
D112*
X-7718148Y-940709D02*
X-7718148Y-940709D01*
D128*
X-7691523Y-1147209D02*
X-7744773Y-1147209D01*
X-7744773Y-1102834D01*
X-7735898Y-1093959D01*
X-7727023Y-1093959D01*
X-7718148Y-1102834D01*
X-7718148Y-1147209D01*
X-7718148Y-1102834D02*
X-7709273Y-1093959D01*
X-7691523Y-1093959D01*
X-7744773Y-1022959D02*
X-7744773Y-1067334D01*
X-7727023Y-1067334D01*
X-7727023Y-1031834D01*
X-7718148Y-1022959D01*
X-7700398Y-1022959D01*
X-7691523Y-1031834D01*
X-7691523Y-1058459D01*
X-7700398Y-1067334D01*
X-7727023Y-951959D02*
X-7718148Y-960834D01*
X-7718148Y-987459D01*
X-7727023Y-996334D01*
X-7735898Y-996334D01*
X-7744773Y-987459D01*
X-7744773Y-960834D01*
X-7735898Y-951959D01*
X-7700398Y-951959D01*
X-7691523Y-960834D01*
X-7691523Y-987459D01*
D99*
X-7385000Y+2365000D02*
X-6895000Y+2365000D01*
X-6895000Y+2595000D01*
X-7385000Y+2595000D01*
X-7385000Y+2365000D01*
X-7140000Y+2530000D02*
X-7140000Y+2430000D01*
X-7090000Y+2480000D02*
X-7190000Y+2480000D01*
D125*
X-7270000Y+2480000D02*
X-7270000Y+2480000D01*
D126*
X-7168200Y+2451800D02*
X-7182300Y+2437700D01*
X-7224600Y+2437700D01*
X-7252800Y+2465900D01*
X-7252800Y+2494100D01*
X-7224600Y+2522300D01*
X-7182300Y+2522300D01*
X-7168200Y+2508200D01*
X-7055400Y+2508200D02*
X-7069500Y+2522300D01*
X-7111800Y+2522300D01*
X-7125900Y+2508200D01*
X-7125900Y+2451800D01*
X-7111800Y+2437700D01*
X-7069500Y+2437700D01*
X-7055400Y+2451800D01*
X-7055400Y+2465900D01*
X-7069500Y+2480000D01*
X-7125900Y+2480000D01*
D49*
X-9948000Y-1526000D02*
X-8089000Y-1526000D01*
X-8089000Y+236000D01*
X-9948000Y+236000D01*
X-9948000Y-1526000D01*
D41*
X-8349000Y-770000D02*
X-8349000Y-770000D01*
D144*
X-9579200Y-504825D02*
X-9579200Y-738450D01*
X-9532475Y-785175D01*
X-9345575Y-785175D01*
X-9298850Y-738450D01*
X-9298850Y-504825D01*
X-9205400Y-738450D02*
X-9158675Y-785175D01*
X-8971775Y-785175D01*
X-8925050Y-738450D01*
X-8925050Y-691725D01*
X-8971775Y-645000D01*
X-9158675Y-645000D01*
X-9205400Y-598275D01*
X-9205400Y-551550D01*
X-9158675Y-504825D01*
X-8971775Y-504825D01*
X-8925050Y-551550D01*
X-8831600Y-785175D02*
X-8831600Y-504825D01*
X-8597975Y-504825D01*
X-8551250Y-551550D01*
X-8551250Y-598275D01*
X-8597975Y-645000D01*
X-8551250Y-691725D01*
X-8551250Y-738450D01*
X-8597975Y-785175D01*
X-8831600Y-785175D01*
X-8831600Y-645000D02*
X-8597975Y-645000D01*
D99*
X-7980000Y+3385000D02*
X-7980000Y+3735000D01*
X-8180000Y+3735000D01*
X-8180000Y+3385000D01*
X-7980000Y+3385000D01*
X-8130000Y+3560000D02*
X-8030000Y+3560000D01*
X-8080000Y+3610000D02*
X-8080000Y+3510000D01*
D112*
X-8080000Y+3460000D02*
X-8080000Y+3460000D01*
D128*
X-8053375Y+3453500D02*
X-8106625Y+3453500D01*
X-8106625Y+3497875D01*
X-8097750Y+3506750D01*
X-8088875Y+3506750D01*
X-8080000Y+3497875D01*
X-8080000Y+3453500D01*
X-8080000Y+3497875D02*
X-8071125Y+3506750D01*
X-8053375Y+3506750D01*
X-8106625Y+3577750D02*
X-8106625Y+3533375D01*
X-8088875Y+3533375D01*
X-8088875Y+3568875D01*
X-8080000Y+3577750D01*
X-8062250Y+3577750D01*
X-8053375Y+3568875D01*
X-8053375Y+3542250D01*
X-8062250Y+3533375D01*
X-8097750Y+3648750D02*
X-8106625Y+3639875D01*
X-8106625Y+3613250D01*
X-8097750Y+3604375D01*
X-8062250Y+3604375D01*
X-8053375Y+3613250D01*
X-8053375Y+3639875D01*
X-8062250Y+3648750D01*
X-8071125Y+3648750D01*
X-8080000Y+3639875D01*
X-8080000Y+3604375D01*
D99*
X-4380000Y+1175000D02*
X-4380000Y+825000D01*
X-4180000Y+825000D01*
X-4180000Y+1175000D01*
X-4380000Y+1175000D01*
X-4230000Y+1000000D02*
X-4330000Y+1000000D01*
X-4280000Y+950000D02*
X-4280000Y+1050000D01*
D112*
X-4280000Y+1100000D02*
X-4280000Y+1100000D01*
D128*
X-4253375Y+893500D02*
X-4306625Y+893500D01*
X-4306625Y+937875D01*
X-4297750Y+946750D01*
X-4288875Y+946750D01*
X-4280000Y+937875D01*
X-4280000Y+893500D01*
X-4280000Y+937875D02*
X-4271125Y+946750D01*
X-4253375Y+946750D01*
X-4271125Y+1017750D02*
X-4271125Y+964500D01*
X-4306625Y+1000000D01*
X-4253375Y+1000000D01*
X-4306625Y+1088750D02*
X-4306625Y+1044375D01*
X-4288875Y+1044375D01*
X-4288875Y+1079875D01*
X-4280000Y+1088750D01*
X-4262250Y+1088750D01*
X-4253375Y+1079875D01*
X-4253375Y+1053250D01*
X-4262250Y+1044375D01*
D43*
X-8973660Y+1825840D02*
X-8831420Y+1825840D01*
X-8831420Y+2140800D01*
X-8973660Y+2140800D01*
X-8973660Y+1825840D01*
D44*
X-8900000Y+2090000D02*
X-8900000Y+2090000D01*
D105*
X-8886792Y+1936076D02*
X-8878918Y+1928202D01*
X-8878918Y+1904580D01*
X-8894666Y+1888832D01*
X-8910414Y+1888832D01*
X-8926162Y+1904580D01*
X-8926162Y+1928202D01*
X-8918288Y+1936076D01*
X-8910414Y+1967572D02*
X-8926162Y+1983320D01*
X-8878918Y+1983320D01*
X-8926162Y+2062060D02*
X-8926162Y+2022690D01*
X-8910414Y+2022690D01*
X-8910414Y+2054186D01*
X-8902540Y+2062060D01*
X-8886792Y+2062060D01*
X-8878918Y+2054186D01*
X-8878918Y+2030564D01*
X-8886792Y+2022690D01*
D43*
X-9263660Y+3369200D02*
X-9121420Y+3369200D01*
X-9121420Y+3684160D01*
X-9263660Y+3684160D01*
X-9263660Y+3369200D01*
D44*
X-9190000Y+3633360D02*
X-9190000Y+3633360D01*
D105*
X-9176792Y+3479436D02*
X-9168918Y+3471562D01*
X-9168918Y+3447940D01*
X-9184666Y+3432192D01*
X-9200414Y+3432192D01*
X-9216162Y+3447940D01*
X-9216162Y+3471562D01*
X-9208288Y+3479436D01*
X-9200414Y+3510932D02*
X-9216162Y+3526680D01*
X-9168918Y+3526680D01*
X-9208288Y+3605420D02*
X-9216162Y+3597546D01*
X-9216162Y+3573924D01*
X-9208288Y+3566050D01*
X-9176792Y+3566050D01*
X-9168918Y+3573924D01*
X-9168918Y+3597546D01*
X-9176792Y+3605420D01*
X-9184666Y+3605420D01*
X-9192540Y+3597546D01*
X-9192540Y+3566050D01*
D49*
X-9685000Y+5965000D02*
X-9235000Y+5965000D01*
X-9235000Y+7580000D01*
X-9685000Y+7580000D01*
X-9685000Y+5965000D01*
D145*
X-9460000Y+7210000D02*
X-9460000Y+7210000D01*
D146*
X-9542800Y+6468900D02*
X-9542800Y+6579300D01*
X-9542800Y+6524100D02*
X-9377200Y+6524100D01*
X-9377200Y+6468900D02*
X-9377200Y+6579300D01*
X-9515200Y+6689700D02*
X-9542800Y+6717300D01*
X-9542800Y+6800100D01*
X-9515200Y+6827700D01*
X-9487600Y+6827700D01*
X-9460000Y+6800100D01*
X-9460000Y+6717300D01*
X-9432400Y+6689700D01*
X-9377200Y+6689700D01*
X-9377200Y+6827700D01*
X-9404800Y+7048500D02*
X-9377200Y+7020900D01*
X-9377200Y+6938100D01*
X-9432400Y+6882900D01*
X-9487600Y+6882900D01*
X-9542800Y+6938100D01*
X-9542800Y+7020900D01*
X-9515200Y+7048500D01*
M02*
